<svg id="b44a1ab8-dadc-4e9d-a941-796e657ddb78" data-name="Layer 1" xmlns="http://www.w3.org/2000/svg" viewBox="0 0 90.5 53.1"><defs><style>.e33db7a5-7515-447f-b9c3-c1bc4e59af31{fill:#004b95;}.ae70a53e-046f-4739-bc36-c07e66764b5f{fill:#0060ad;}.eceb2692-e06c-4001-861f-f27bdf0e1e12{fill:#ffb100;}.a321acf4-b4e9-4a22-aa34-e6a9c9c178b2{fill:#292c36;}.fc727e30-55e8-412a-836f-2aff08269cec{fill:#f74141;}.bd264eac-6a6e-4dc3-ac7b-4fbf5d06f72d{fill:#ccc;}.ad0dcada-7981-471d-9eba-c5a52dceff27{fill:#676767;}.b98dbca2-8309-401a-a00d-bb93f15c1609{fill:#a0a0a0;}.f6e73404-d2d4-4de9-841b-10a10e3ab428{fill:#545454;}.bc3b40b3-fe99-4c1d-a4b9-f584ae43f1c8{isolation:isolate;}.a53d342a-570f-40e6-bacd-0fe5124ade18{fill:#373c48;}.e3865c9b-661c-49be-9c96-401cdea75275{fill:#4e5463;}.a8721af4-1d64-4446-b51f-e0b142d3de75{fill:#596177;}.bcd91b45-4dd0-4ec7-9f64-1adcd73d06a2{fill:#e0e0e0;}</style></defs><polygon class="e33db7a5-7515-447f-b9c3-c1bc4e59af31" points="45.4 52.4 45.4 53.1 90.5 26.9 90.5 26.2 45.4 52.4"/><polygon class="e33db7a5-7515-447f-b9c3-c1bc4e59af31" points="0 26.2 0 26.9 45.4 53.1 45.4 52.4 0 26.2"/><polygon class="ae70a53e-046f-4739-bc36-c07e66764b5f" points="90.5 26.2 45.1 0 0 26.2 45.4 52.4 90.5 26.2"/><path class="eceb2692-e06c-4001-861f-f27bdf0e1e12" d="M193.4,261.7l-16.7,9.7,16.8,9.7,16.7-9.7Zm.1,18.7-15.6-9,15.5-9,15.6,9Z" transform="translate(-148.2 -244.8)"/><polygon class="eceb2692-e06c-4001-861f-f27bdf0e1e12" points="50.4 33 49.8 33.4 58.5 38.4 59.1 38 50.4 33"/><polygon class="eceb2692-e06c-4001-861f-f27bdf0e1e12" points="37.6 12.5 27.5 12.5 25.6 11.4 25 11.7 27.2 13 37.2 13 45.1 17.5 45.7 17.1 37.6 12.5"/><path class="eceb2692-e06c-4001-861f-f27bdf0e1e12" d="M185.3,255.4h0l-3.9-1.4-1.9-1.1-.6.3,2,1.2a20.9,20.9,0,0,0,2.3,2.2h0a2.6,2.6,0,0,0,2.1,0h0A.6.6,0,0,0,185.3,255.4Z" transform="translate(-148.2 -244.8)"/><path class="a321acf4-b4e9-4a22-aa34-e6a9c9c178b2" d="M184.6,255.7h-.8c-.3.1-.3.4,0,.5a1.1,1.1,0,0,0,.8,0C184.9,256,184.9,255.8,184.6,255.7Z" transform="translate(-148.2 -244.8)"/><path class="fc727e30-55e8-412a-836f-2aff08269cec" d="M184.9,256.4c.5-.3.5-.7,0-.9a1.7,1.7,0,0,0-1.4,0h0c-.5.2-.5.6,0,.9a1.7,1.7,0,0,0,1.4,0Zm-.3-.2a1.1,1.1,0,0,1-.8,0c-.3-.1-.3-.4,0-.5h.8C184.9,255.8,184.9,256,184.6,256.2Z" transform="translate(-148.2 -244.8)"/><path class="eceb2692-e06c-4001-861f-f27bdf0e1e12" d="M181.4,284.4h0l-3.8,1.4-2,1.1-.6-.3,2-1.2,2.3-2.2h0a2.8,2.8,0,0,1,2.2,0h0A.6.6,0,0,1,181.4,284.4Z" transform="translate(-148.2 -244.8)"/><path class="a321acf4-b4e9-4a22-aa34-e6a9c9c178b2" d="M180.8,284.1h-.9a.3.3,0,0,1,0-.5,1.4,1.4,0,0,1,.9,0A.3.3,0,0,1,180.8,284.1Z" transform="translate(-148.2 -244.8)"/><path class="fc727e30-55e8-412a-836f-2aff08269cec" d="M181.1,283.4a2,2,0,0,0-1.5,0q-.6.5,0,.9h0a2,2,0,0,0,1.5,0q.6-.4,0-.9Zm-.3.7h-.9a.3.3,0,0,1,0-.5,1.4,1.4,0,0,1,.9,0A.3.3,0,0,1,180.8,284.1Z" transform="translate(-148.2 -244.8)"/><path class="eceb2692-e06c-4001-861f-f27bdf0e1e12" d="M218,277.3h0a22.8,22.8,0,0,0,3.9,1.4l2,1.1.6-.3-2-1.2a20,20,0,0,0-2.4-2.2h0a2.6,2.6,0,0,0-2.1,0h0C217.5,276.5,217.5,277,218,277.3Z" transform="translate(-148.2 -244.8)"/><path class="a321acf4-b4e9-4a22-aa34-e6a9c9c178b2" d="M218.7,277a.7.7,0,0,0,.9,0c.2-.1.2-.3,0-.5a1.4,1.4,0,0,0-.9,0C218.5,276.7,218.5,276.9,218.7,277Z" transform="translate(-148.2 -244.8)"/><path class="fc727e30-55e8-412a-836f-2aff08269cec" d="M218.4,276.4a.4.4,0,0,0,0,.8,1.4,1.4,0,0,0,1.5,0h0a.4.4,0,0,0,0-.8,1.4,1.4,0,0,0-1.5,0Zm.3.1a1.4,1.4,0,0,1,.9,0c.2.2.2.4,0,.5a.7.7,0,0,1-.9,0C218.5,276.9,218.5,276.7,218.7,276.5Z" transform="translate(-148.2 -244.8)"/><path class="eceb2692-e06c-4001-861f-f27bdf0e1e12" d="M206.9,265.5h0a22.8,22.8,0,0,0,3.9,1.4l2,1.1.6-.3-2-1.2a20,20,0,0,0-2.4-2.2h0a2.6,2.6,0,0,0-2.1,0h0C206.3,264.7,206.4,265.2,206.9,265.5Z" transform="translate(-148.2 -244.8)"/><path class="a321acf4-b4e9-4a22-aa34-e6a9c9c178b2" d="M207.6,265.2a.7.7,0,0,0,.9,0c.2-.1.2-.3,0-.5h-.9C207.4,264.9,207.4,265.1,207.6,265.2Z" transform="translate(-148.2 -244.8)"/><path class="fc727e30-55e8-412a-836f-2aff08269cec" d="M207.3,264.6a.4.4,0,0,0,0,.8,1.4,1.4,0,0,0,1.5,0h0a.4.4,0,0,0,0-.8,1.4,1.4,0,0,0-1.5,0Zm.3.1h.9c.2.2.2.4,0,.5a.7.7,0,0,1-.9,0C207.4,265.1,207.4,264.9,207.6,264.7Z" transform="translate(-148.2 -244.8)"/><path class="eceb2692-e06c-4001-861f-f27bdf0e1e12" d="M201.4,255.4h0l3.9-1.4,1.9-1.1.6.3-2,1.2a20.9,20.9,0,0,1-2.3,2.2h0a2.6,2.6,0,0,1-2.1,0h0A.6.6,0,0,1,201.4,255.4Z" transform="translate(-148.2 -244.8)"/><path class="a321acf4-b4e9-4a22-aa34-e6a9c9c178b2" d="M202.1,255.7h.8c.3.1.3.4,0,.5a1.1,1.1,0,0,1-.8,0C201.8,256,201.8,255.8,202.1,255.7Z" transform="translate(-148.2 -244.8)"/><path class="fc727e30-55e8-412a-836f-2aff08269cec" d="M201.7,256.4a1.9,1.9,0,0,0,1.5,0c.4-.3.5-.7,0-.9h0a1.9,1.9,0,0,0-1.5,0c-.4.2-.4.6,0,.9Zm.4-.7h.8c.3.1.3.4,0,.5a1.1,1.1,0,0,1-.8,0C201.8,256,201.8,255.8,202.1,255.7Z" transform="translate(-148.2 -244.8)"/><path class="eceb2692-e06c-4001-861f-f27bdf0e1e12" d="M162,266.8h0l3.9-1.4,1.9-1.1.6.3-2,1.2-2.3,2.2h0a2.6,2.6,0,0,1-2.1,0h0A.6.6,0,0,1,162,266.8Z" transform="translate(-148.2 -244.8)"/><path class="a321acf4-b4e9-4a22-aa34-e6a9c9c178b2" d="M162.7,267.1a1.1,1.1,0,0,1,.8,0c.3.1.3.4,0,.5h-.8C162.4,267.5,162.4,267.2,162.7,267.1Z" transform="translate(-148.2 -244.8)"/><path class="fc727e30-55e8-412a-836f-2aff08269cec" d="M162.3,267.8a2,2,0,0,0,1.5,0c.4-.3.4-.7,0-.9h0a1.9,1.9,0,0,0-1.5,0c-.4.2-.4.6,0,.9Zm.4-.7a1.1,1.1,0,0,1,.8,0c.3.1.3.4,0,.5h-.8C162.4,267.5,162.4,267.2,162.7,267.1Z" transform="translate(-148.2 -244.8)"/><path class="eceb2692-e06c-4001-861f-f27bdf0e1e12" d="M211.7,284.5h0l-3.9-1.3-2-1.2-.6.4,2,1.1a14,14,0,0,0,2.4,2.2h0a2,2,0,0,0,2.1,0h0C212.2,285.4,212.2,284.9,211.7,284.5Z" transform="translate(-148.2 -244.8)"/><path class="a321acf4-b4e9-4a22-aa34-e6a9c9c178b2" d="M211,284.8a1.4,1.4,0,0,0-.9,0c-.2.2-.2.4,0,.5a.7.7,0,0,0,.9,0C211.2,285.2,211.2,285,211,284.8Z" transform="translate(-148.2 -244.8)"/><path class="fc727e30-55e8-412a-836f-2aff08269cec" d="M211.3,285.5c.4-.2.4-.6,0-.9a1.9,1.9,0,0,0-1.5,0h0c-.4.3-.4.7,0,.9a2,2,0,0,0,1.5,0Zm-.3-.2a.7.7,0,0,1-.9,0c-.2-.1-.2-.3,0-.5a1.4,1.4,0,0,1,.9,0C211.2,285,211.2,285.2,211,285.3Z" transform="translate(-148.2 -244.8)"/><polygon class="eceb2692-e06c-4001-861f-f27bdf0e1e12" points="52.2 40.8 52.2 35.4 49.2 33.7 48.6 34 51.3 35.6 51.3 41 58.3 45 58.9 44.6 52.2 40.8"/><polygon class="eceb2692-e06c-4001-861f-f27bdf0e1e12" points="50.5 41.2 50.5 35.8 47.9 34.3 47.3 34.7 49.6 36 49.6 41.4 57.1 45.7 57.7 45.3 50.5 41.2"/><polygon class="eceb2692-e06c-4001-861f-f27bdf0e1e12" points="48.8 41.6 48.8 36.2 46.7 35 46.1 35.4 47.9 36.4 48 41.8 55.9 46.4 56.5 46 48.8 41.6"/><polygon class="eceb2692-e06c-4001-861f-f27bdf0e1e12" points="47.1 42 47.1 36.6 44.1 34.9 45.3 36.3 46.2 36.8 46.3 42.2 54.7 47.1 55.3 46.7 47.1 42"/><polygon class="eceb2692-e06c-4001-861f-f27bdf0e1e12" points="46.9 18.1 46.9 16.5 38.9 11.8 38.8 6.5 36.4 5.1 35.8 5.4 38 6.7 38 12 46 16.7 46.1 17.9 46.9 18.1"/><polygon class="eceb2692-e06c-4001-861f-f27bdf0e1e12" points="48.6 19 48.6 16.1 40.6 11.4 40.5 6.1 37.6 4.4 37 4.7 39.7 6.3 39.7 11.6 47.8 16.3 47.8 18.5 48.6 19"/><polygon class="eceb2692-e06c-4001-861f-f27bdf0e1e12" points="50.3 20 50.3 15.7 42.3 11.1 42.2 5.7 38.8 3.7 38.2 4 41.4 5.9 41.4 11.3 49.5 15.9 49.5 19.5 50.3 20"/><polygon class="eceb2692-e06c-4001-861f-f27bdf0e1e12" points="56.2 32.1 54.3 31 53.7 31.4 55.8 32.6 65.9 32.6 72.7 36.6 73.3 36.2 66.3 32.1 56.2 32.1"/><polygon class="eceb2692-e06c-4001-861f-f27bdf0e1e12" points="67 31.1 56.9 31.1 55.5 30.3 54.9 30.7 56.6 31.6 66.6 31.6 73.9 35.9 74.5 35.5 67 31.1"/><polygon class="eceb2692-e06c-4001-861f-f27bdf0e1e12" points="55.5 33.1 53.1 31.7 52.5 32.1 55.1 33.6 65.2 33.6 71.5 37.3 72.1 36.9 65.5 33.1 55.5 33.1"/><polygon class="eceb2692-e06c-4001-861f-f27bdf0e1e12" points="54.7 34.1 51.9 32.5 51.3 32.8 54.4 34.6 64.4 34.6 70.3 38 70.9 37.6 64.8 34.1 54.7 34.1"/><polygon class="eceb2692-e06c-4001-861f-f27bdf0e1e12" points="40.1 35.8 40.2 41.2 33.1 45.3 33.7 45.7 41 41.4 41 36 43.5 34.6 42.9 34.2 40.1 35.8"/><polygon class="eceb2692-e06c-4001-861f-f27bdf0e1e12" points="38.4 35.4 38.4 40.8 31.8 44.6 32.5 45 39.3 41 39.3 35.6 42.3 33.8 41.7 33.5 38.4 35.4"/><polygon class="eceb2692-e06c-4001-861f-f27bdf0e1e12" points="45.3 35.6 43.5 36.6 43.6 42 35.5 46.7 36.1 47 44.4 42.2 44.4 36.8 45.9 35.9 45.3 35.6"/><polygon class="eceb2692-e06c-4001-861f-f27bdf0e1e12" points="41.8 36.2 41.9 41.6 34.3 46 34.9 46.4 42.7 41.8 42.7 36.4 44.7 35.2 44.1 34.9 41.8 36.2"/><polygon class="eceb2692-e06c-4001-861f-f27bdf0e1e12" points="20.6 24.5 20.6 29.9 13.5 34 14.1 34.4 21.5 30.1 21.4 24.7 24 23.3 23.4 22.9 20.6 24.5"/><polygon class="eceb2692-e06c-4001-861f-f27bdf0e1e12" points="18.9 24.1 18.9 29.5 12.3 33.3 12.9 33.7 19.8 29.7 19.7 24.3 22.7 22.6 22.1 22.2 18.9 24.1"/><polygon class="eceb2692-e06c-4001-861f-f27bdf0e1e12" points="25.7 24.3 24 25.3 24 30.7 15.9 35.4 16.5 35.7 24.9 30.9 24.8 25.5 26.3 24.6 25.7 24.3"/><polygon class="eceb2692-e06c-4001-861f-f27bdf0e1e12" points="22.3 24.9 22.3 30.3 14.7 34.7 15.3 35.1 23.2 30.5 23.1 25.1 25.2 23.9 24.6 23.6 22.3 24.9"/><path class="eceb2692-e06c-4001-861f-f27bdf0e1e12" d="M195,288.5a.7.7,0,0,0-.4-.5,1.7,1.7,0,0,0-1-.3,1.5,1.5,0,0,0-1,.3.5.5,0,0,0-.4.5,7.8,7.8,0,0,0,1,2.3V297l.4.3.4-.3v-6A15.7,15.7,0,0,0,195,288.5Z" transform="translate(-148.2 -244.8)"/><path class="a321acf4-b4e9-4a22-aa34-e6a9c9c178b2" d="M194.1,288.3a1.4,1.4,0,0,0-.9,0c-.2.2-.2.4,0,.5a.7.7,0,0,0,.9,0C194.3,288.7,194.3,288.5,194.1,288.3Z" transform="translate(-148.2 -244.8)"/><path class="fc727e30-55e8-412a-836f-2aff08269cec" d="M194.4,289a.4.4,0,0,0,0-.8,1.4,1.4,0,0,0-1.5,0h0a.4.4,0,0,0,0,.8,1.4,1.4,0,0,0,1.5,0Zm-.3-.2a.7.7,0,0,1-.9,0c-.2-.1-.2-.3,0-.5a1.4,1.4,0,0,1,.9,0C194.3,288.5,194.3,288.7,194.1,288.8Z" transform="translate(-148.2 -244.8)"/><path class="eceb2692-e06c-4001-861f-f27bdf0e1e12" d="M194.7,253.6a.7.7,0,0,1-.4.6l-1,.2-1-.2a.7.7,0,0,1-.4-.6,7.8,7.8,0,0,1,1-2.3v-6.2l.4-.3.4.3v6.1A12.4,12.4,0,0,1,194.7,253.6Z" transform="translate(-148.2 -244.8)"/><path class="a321acf4-b4e9-4a22-aa34-e6a9c9c178b2" d="M193.8,253.8h-.9c-.2-.2-.2-.4,0-.5a.7.7,0,0,1,.9,0C194,253.4,194,253.6,193.8,253.8Z" transform="translate(-148.2 -244.8)"/><path class="fc727e30-55e8-412a-836f-2aff08269cec" d="M194.1,253.1a2,2,0,0,0-1.5,0c-.4.2-.4.6,0,.9h0a1.9,1.9,0,0,0,1.5,0c.4-.3.4-.7,0-.9Zm-.3.7h-.9c-.2-.2-.2-.4,0-.5a.7.7,0,0,1,.9,0C194,253.4,194,253.6,193.8,253.8Z" transform="translate(-148.2 -244.8)"/><polygon class="eceb2692-e06c-4001-861f-f27bdf0e1e12" points="51.2 15.7 51.3 20.6 52.1 21.2 52.1 15.9 62.3 9.9 61.7 9.6 51.2 15.7"/><polygon class="eceb2692-e06c-4001-861f-f27bdf0e1e12" points="53 16.1 53 21.7 53.8 22.2 53.8 16.3 63.6 10.6 63 10.3 53 16.1"/><polygon class="eceb2692-e06c-4001-861f-f27bdf0e1e12" points="54.7 16.5 54.7 22.7 55.5 23.2 55.5 16.7 64.7 11.3 64.1 11 54.7 16.5"/><polygon class="eceb2692-e06c-4001-861f-f27bdf0e1e12" points="56.3 16.9 56.4 23.5 57.2 24.1 57.2 17.1 66 12 65.4 11.7 56.3 16.9"/><polygon class="eceb2692-e06c-4001-861f-f27bdf0e1e12" points="36.3 32.5 27 32.5 18.9 37.2 19.6 37.5 27.3 33 36.6 33 38.4 32 37.8 31.6 36.3 32.5"/><polygon class="eceb2692-e06c-4001-861f-f27bdf0e1e12" points="35.6 31.5 26.3 31.5 17.8 36.5 18.4 36.8 26.6 32 35.9 32 37.2 31.3 36.6 30.9 35.6 31.5"/><polygon class="eceb2692-e06c-4001-861f-f27bdf0e1e12" points="37.7 34.4 28.4 34.4 21.3 38.5 21.9 38.9 28.8 34.9 38.1 34.9 40.8 33.3 40.2 33 37.7 34.4"/><polygon class="eceb2692-e06c-4001-861f-f27bdf0e1e12" points="37 33.4 27.7 33.4 20.1 37.8 20.7 38.2 28.1 33.9 37.4 33.9 39.6 32.6 39 32.3 37 33.4"/><path class="eceb2692-e06c-4001-861f-f27bdf0e1e12" d="M158.6,270.6h0a2,2,0,0,0-1.1-.3l-4.5.6h-4.6l-.2.2.6.3h3.8l4.9.7c.9,0,1.6-.4,1.6-.9A.6.6,0,0,0,158.6,270.6Z" transform="translate(-148.2 -244.8)"/><path class="a321acf4-b4e9-4a22-aa34-e6a9c9c178b2" d="M157.9,271.5a1.1,1.1,0,0,1-.8,0c-.3-.2-.3-.4,0-.5a.6.6,0,0,1,.8,0C158.2,271.1,158.2,271.3,157.9,271.5Z" transform="translate(-148.2 -244.8)"/><path class="fc727e30-55e8-412a-836f-2aff08269cec" d="M158.2,270.8a1.4,1.4,0,0,0-1.5,0,.4.4,0,0,0,0,.8h0a1.4,1.4,0,0,0,1.5,0c.4-.2.5-.6,0-.8Zm-.3.7a1.1,1.1,0,0,1-.8,0c-.3-.2-.3-.4,0-.5a.6.6,0,0,1,.8,0C158.2,271.1,158.2,271.3,157.9,271.5Z" transform="translate(-148.2 -244.8)"/><path class="eceb2692-e06c-4001-861f-f27bdf0e1e12" d="M228.3,270.6h0a2,2,0,0,1,1.1-.3l4.5.6h4.6l.2.2-.6.3h-3.8l-4.9.7c-.9,0-1.6-.4-1.6-.9A.6.6,0,0,1,228.3,270.6Z" transform="translate(-148.2 -244.8)"/><path class="a321acf4-b4e9-4a22-aa34-e6a9c9c178b2" d="M229,271.5a1.1,1.1,0,0,0,.8,0c.3-.2.3-.4,0-.5a.6.6,0,0,0-.8,0C228.7,271.1,228.7,271.3,229,271.5Z" transform="translate(-148.2 -244.8)"/><path class="fc727e30-55e8-412a-836f-2aff08269cec" d="M228.7,270.8c-.5.2-.5.6,0,.8a1.4,1.4,0,0,0,1.5,0h0c.4-.2.4-.6-.1-.8a1.2,1.2,0,0,0-1.4,0Zm.3.2a.6.6,0,0,1,.8,0c.3.1.3.3,0,.5a1.1,1.1,0,0,1-.8,0C228.7,271.3,228.7,271.1,229,271Z" transform="translate(-148.2 -244.8)"/><polygon class="eceb2692-e06c-4001-861f-f27bdf0e1e12" points="25.3 21.8 23.4 22.9 23.9 23.3 25.6 22.3 29.3 22.3 29.7 21.8 25.3 21.8"/><polygon class="eceb2692-e06c-4001-861f-f27bdf0e1e12" points="24.6 20.8 22.1 22.2 22.7 22.6 24.9 21.3 30.5 21.3 30.4 20.8 24.6 20.8"/><polygon class="eceb2692-e06c-4001-861f-f27bdf0e1e12" points="26.7 23.7 25.7 24.3 26.2 24.7 27.1 24.2 27.8 24.2 28.1 23.7 26.7 23.7"/><polygon class="eceb2692-e06c-4001-861f-f27bdf0e1e12" points="26 22.7 24.4 23.7 25.1 24 26.4 23.2 28.5 23.2 28.9 22.7 26 22.7"/><polygon class="eceb2692-e06c-4001-861f-f27bdf0e1e12" points="60.8 23.8 58.9 24.9 59.4 25.3 61.2 24.3 64.9 24.3 64.4 23.8 60.8 23.8"/><polygon class="eceb2692-e06c-4001-861f-f27bdf0e1e12" points="62.2 25.7 61.2 26.3 61.7 26.7 62.6 26.2 63.3 26.2 62.9 25.7 62.2 25.7"/><polygon class="eceb2692-e06c-4001-861f-f27bdf0e1e12" points="61.5 24.8 59.9 25.7 60.6 26 61.9 25.3 64.1 25.3 63.6 24.8 61.5 24.8"/><polygon class="eceb2692-e06c-4001-861f-f27bdf0e1e12" points="33 24.4 33.6 24 29.7 21.8 29 22.1 33 24.4"/><polygon class="eceb2692-e06c-4001-861f-f27bdf0e1e12" points="34.8 23.3 30.4 20.8 30 21.3 34.1 23.6 34.8 23.3"/><polygon class="eceb2692-e06c-4001-861f-f27bdf0e1e12" points="31.7 25.1 32.4 24.8 28.9 22.7 28.1 23 31.7 25.1"/><polygon class="eceb2692-e06c-4001-861f-f27bdf0e1e12" points="30.5 25.8 31.2 25.5 28.1 23.7 27.1 23.8 30.5 25.8"/><polygon class="eceb2692-e06c-4001-861f-f27bdf0e1e12" points="35.8 22.5 28 18 22.2 18 19.6 19.5 20.2 19.8 22.5 18.5 27.7 18.5 35.1 22.7 35.8 22.5"/><polygon class="eceb2692-e06c-4001-861f-f27bdf0e1e12" points="76.8 25.1 76.8 19.7 78 19 77.4 18.6 75.9 19.5 76 24.9 73.4 26.3 74 26.7 76.8 25.1"/><polygon class="eceb2692-e06c-4001-861f-f27bdf0e1e12" points="78.5 25.5 78.5 20.1 79.2 19.7 78.6 19.3 77.7 19.9 77.7 25.3 74.7 27 75.3 27.4 78.5 25.5"/><polygon class="eceb2692-e06c-4001-861f-f27bdf0e1e12" points="71.7 25.3 73.4 24.3 73.4 18.9 75.6 17.6 75 17.3 72.5 18.7 72.6 24.1 71.1 25 71.7 25.3"/><polygon class="eceb2692-e06c-4001-861f-f27bdf0e1e12" points="75.1 24.7 75.1 19.3 76.8 18.3 76.2 17.9 74.2 19.1 74.3 24.5 72.2 25.6 72.9 26 75.1 24.7"/><polygon class="eceb2692-e06c-4001-861f-f27bdf0e1e12" points="72.1 27.8 74 26.7 73.5 26.3 71.8 27.3 68.1 27.3 67.7 27.8 72.1 27.8"/><polygon class="eceb2692-e06c-4001-861f-f27bdf0e1e12" points="72.8 28.8 75.3 27.4 74.7 27 72.5 28.3 66.9 28.3 67 28.8 72.8 28.8"/><polygon class="eceb2692-e06c-4001-861f-f27bdf0e1e12" points="70.7 25.9 71.7 25.3 71.2 24.9 70.3 25.4 69.6 25.4 69.3 25.9 70.7 25.9"/><polygon class="eceb2692-e06c-4001-861f-f27bdf0e1e12" points="71.4 26.9 73 25.9 72.3 25.6 71 26.4 68.9 26.4 68.5 26.9 71.4 26.9"/><polygon class="eceb2692-e06c-4001-861f-f27bdf0e1e12" points="63.6 24.8 63.1 25.1 67.7 27.8 68.4 27.5 63.6 24.8"/><polygon class="eceb2692-e06c-4001-861f-f27bdf0e1e12" points="62.4 26.1 67 28.8 67.4 28.3 62.9 25.7 62.4 26.1"/><polygon class="eceb2692-e06c-4001-861f-f27bdf0e1e12" points="64.4 23.8 63.3 23.9 68.5 26.9 69.3 26.6 64.4 23.8"/><polygon class="eceb2692-e06c-4001-861f-f27bdf0e1e12" points="65.2 22.9 64.6 23.2 69.3 25.9 70.3 25.8 65.2 22.9"/><polygon class="bd264eac-6a6e-4dc3-ac7b-4fbf5d06f72d" points="42.2 20.2 41.7 19.9 41.2 20.2 41.7 20.5 42.2 20.2"/><polygon class="ad0dcada-7981-471d-9eba-c5a52dceff27" points="42.6 20 43.1 19.7 42.2 20.2 41.7 20.5 42.6 20"/><polygon class="bd264eac-6a6e-4dc3-ac7b-4fbf5d06f72d" points="43.8 20.6 43.8 20.8 44.3 20.5 44.3 20.4 43.8 20.6"/><polygon class="b98dbca2-8309-401a-a00d-bb93f15c1609" points="43.8 20.6 44.3 20.4 43.1 19.7 42.6 20 43.8 20.6"/><polygon class="ad0dcada-7981-471d-9eba-c5a52dceff27" points="42.6 20 41.7 20.5 41.2 20.2 41.2 20.3 41.8 20.6 42.7 20.1 43.8 20.8 43.8 20.6 42.6 20"/><polygon class="bd264eac-6a6e-4dc3-ac7b-4fbf5d06f72d" points="41.3 20.7 40.8 20.4 40.4 20.7 40.9 21 41.3 20.7"/><polygon class="ad0dcada-7981-471d-9eba-c5a52dceff27" points="41.8 20.5 42.2 20.2 41.3 20.7 40.9 21 41.8 20.5"/><polygon class="bd264eac-6a6e-4dc3-ac7b-4fbf5d06f72d" points="43 21.1 43 21.3 43.4 21 43.4 20.9 43 21.1"/><polygon class="b98dbca2-8309-401a-a00d-bb93f15c1609" points="43 21.1 43.4 20.9 42.2 20.2 41.8 20.5 43 21.1"/><polygon class="ad0dcada-7981-471d-9eba-c5a52dceff27" points="41.8 20.5 40.9 21 40.4 20.7 40.4 20.8 40.9 21.1 41.8 20.6 43 21.3 43 21.1 41.8 20.5"/><polygon class="bd264eac-6a6e-4dc3-ac7b-4fbf5d06f72d" points="40.4 21.2 39.9 20.9 39.5 21.2 40 21.5 40.4 21.2"/><polygon class="ad0dcada-7981-471d-9eba-c5a52dceff27" points="40.9 21 41.3 20.7 40.4 21.2 40 21.5 40.9 21"/><polygon class="bd264eac-6a6e-4dc3-ac7b-4fbf5d06f72d" points="42.1 21.6 42.1 21.8 42.5 21.5 42.5 21.4 42.1 21.6"/><polygon class="b98dbca2-8309-401a-a00d-bb93f15c1609" points="42.1 21.6 42.5 21.4 41.3 20.7 40.9 21 42.1 21.6"/><polygon class="ad0dcada-7981-471d-9eba-c5a52dceff27" points="40.9 21 40 21.5 39.5 21.2 39.5 21.3 40.1 21.6 41 21.1 42.1 21.8 42.1 21.6 40.9 21"/><polygon class="bd264eac-6a6e-4dc3-ac7b-4fbf5d06f72d" points="39.6 21.7 39.1 21.4 38.6 21.7 39.2 22 39.6 21.7"/><polygon class="ad0dcada-7981-471d-9eba-c5a52dceff27" points="40.1 21.5 40.5 21.2 39.6 21.7 39.2 22 40.1 21.5"/><polygon class="bd264eac-6a6e-4dc3-ac7b-4fbf5d06f72d" points="41.2 22.1 41.2 22.3 41.7 22 41.7 21.9 41.2 22.1"/><polygon class="b98dbca2-8309-401a-a00d-bb93f15c1609" points="41.2 22.1 41.7 21.9 40.5 21.2 40.1 21.5 41.2 22.1"/><polygon class="ad0dcada-7981-471d-9eba-c5a52dceff27" points="40.1 21.5 39.2 22 38.6 21.7 38.6 21.8 39.2 22.1 40.1 21.6 41.2 22.3 41.2 22.1 40.1 21.5"/><polygon class="bd264eac-6a6e-4dc3-ac7b-4fbf5d06f72d" points="38.7 22.2 38.2 21.9 37.8 22.2 38.3 22.5 38.7 22.2"/><polygon class="ad0dcada-7981-471d-9eba-c5a52dceff27" points="39.2 22 39.6 21.7 38.7 22.2 38.3 22.5 39.2 22"/><polygon class="bd264eac-6a6e-4dc3-ac7b-4fbf5d06f72d" points="40.4 22.6 40.4 22.8 40.8 22.5 40.8 22.4 40.4 22.6"/><polygon class="b98dbca2-8309-401a-a00d-bb93f15c1609" points="40.4 22.6 40.8 22.4 39.6 21.7 39.2 22 40.4 22.6"/><polygon class="ad0dcada-7981-471d-9eba-c5a52dceff27" points="39.2 22 38.3 22.5 37.8 22.2 37.8 22.3 38.3 22.6 39.2 22.1 40.4 22.8 40.4 22.6 39.2 22"/><polygon class="bd264eac-6a6e-4dc3-ac7b-4fbf5d06f72d" points="37.8 22.7 37.3 22.4 36.9 22.7 37.4 23 37.8 22.7"/><polygon class="ad0dcada-7981-471d-9eba-c5a52dceff27" points="38.3 22.5 38.7 22.2 37.8 22.7 37.4 23 38.3 22.5"/><polygon class="bd264eac-6a6e-4dc3-ac7b-4fbf5d06f72d" points="39.5 23.1 39.5 23.3 39.9 23 39.9 22.9 39.5 23.1"/><polygon class="b98dbca2-8309-401a-a00d-bb93f15c1609" points="39.5 23.1 39.9 22.9 38.7 22.2 38.3 22.5 39.5 23.1"/><polygon class="ad0dcada-7981-471d-9eba-c5a52dceff27" points="38.3 22.5 37.4 23 36.9 22.7 36.9 22.8 37.5 23.1 38.4 22.6 39.5 23.3 39.5 23.1 38.3 22.5"/><polygon class="bd264eac-6a6e-4dc3-ac7b-4fbf5d06f72d" points="37 23.2 36.5 22.9 36 23.2 36.5 23.5 37 23.2"/><polygon class="ad0dcada-7981-471d-9eba-c5a52dceff27" points="37.4 23 37.9 22.7 37 23.2 36.5 23.5 37.4 23"/><polygon class="bd264eac-6a6e-4dc3-ac7b-4fbf5d06f72d" points="38.6 23.6 38.6 23.8 39.1 23.5 39.1 23.4 38.6 23.6"/><polygon class="b98dbca2-8309-401a-a00d-bb93f15c1609" points="38.6 23.6 39.1 23.4 37.9 22.7 37.4 23 38.6 23.6"/><polygon class="ad0dcada-7981-471d-9eba-c5a52dceff27" points="37.4 23 36.5 23.5 36 23.2 36 23.3 36.6 23.6 37.5 23.1 38.6 23.8 38.6 23.6 37.4 23"/><polygon class="bd264eac-6a6e-4dc3-ac7b-4fbf5d06f72d" points="36.1 23.7 35.6 23.4 35.2 23.7 35.7 24 36.1 23.7"/><polygon class="ad0dcada-7981-471d-9eba-c5a52dceff27" points="36.6 23.5 37 23.2 36.1 23.7 35.7 24 36.6 23.5"/><polygon class="bd264eac-6a6e-4dc3-ac7b-4fbf5d06f72d" points="37.8 24.1 37.8 24.3 38.2 24 38.2 23.9 37.8 24.1"/><polygon class="b98dbca2-8309-401a-a00d-bb93f15c1609" points="37.8 24.1 38.2 23.9 37 23.2 36.6 23.5 37.8 24.1"/><polygon class="ad0dcada-7981-471d-9eba-c5a52dceff27" points="36.6 23.5 35.7 24 35.2 23.7 35.2 23.8 35.7 24.1 36.6 23.6 37.8 24.3 37.8 24.1 36.6 23.5"/><polygon class="bd264eac-6a6e-4dc3-ac7b-4fbf5d06f72d" points="35.3 24.2 34.7 23.9 34.3 24.2 34.8 24.5 35.3 24.2"/><polygon class="ad0dcada-7981-471d-9eba-c5a52dceff27" points="35.7 24 36.2 23.7 35.3 24.2 34.8 24.5 35.7 24"/><polygon class="bd264eac-6a6e-4dc3-ac7b-4fbf5d06f72d" points="36.9 24.7 36.9 24.8 37.3 24.5 37.3 24.4 36.9 24.7"/><polygon class="b98dbca2-8309-401a-a00d-bb93f15c1609" points="36.9 24.7 37.3 24.4 36.2 23.7 35.7 24 36.9 24.7"/><polygon class="ad0dcada-7981-471d-9eba-c5a52dceff27" points="35.7 24 34.8 24.5 34.3 24.2 34.3 24.3 34.9 24.6 35.8 24.1 36.9 24.8 36.9 24.7 35.7 24"/><polygon class="bd264eac-6a6e-4dc3-ac7b-4fbf5d06f72d" points="34.4 24.7 33.9 24.4 33.4 24.7 33.9 25 34.4 24.7"/><polygon class="ad0dcada-7981-471d-9eba-c5a52dceff27" points="34.8 24.5 35.3 24.2 34.4 24.7 33.9 25 34.8 24.5"/><polygon class="bd264eac-6a6e-4dc3-ac7b-4fbf5d06f72d" points="36 25.2 36 25.3 36.5 25 36.5 24.9 36 25.2"/><polygon class="b98dbca2-8309-401a-a00d-bb93f15c1609" points="36 25.2 36.5 24.9 35.3 24.2 34.8 24.5 36 25.2"/><polygon class="ad0dcada-7981-471d-9eba-c5a52dceff27" points="34.8 24.5 33.9 25 33.4 24.7 33.4 24.8 34 25.1 34.9 24.6 36 25.3 36 25.2 34.8 24.5"/><polygon class="bd264eac-6a6e-4dc3-ac7b-4fbf5d06f72d" points="47.7 20.2 48.2 19.9 48.7 20.2 48.2 20.5 47.7 20.2"/><polygon class="ad0dcada-7981-471d-9eba-c5a52dceff27" points="47.3 20 46.8 19.7 47.7 20.2 48.2 20.5 47.3 20"/><polygon class="bd264eac-6a6e-4dc3-ac7b-4fbf5d06f72d" points="46.1 20.6 46.1 20.8 45.7 20.5 45.7 20.4 46.1 20.6"/><polygon class="b98dbca2-8309-401a-a00d-bb93f15c1609" points="46.1 20.6 45.7 20.4 46.8 19.7 47.3 20 46.1 20.6"/><polygon class="ad0dcada-7981-471d-9eba-c5a52dceff27" points="47.3 20 48.2 20.5 48.7 20.2 48.7 20.3 48.1 20.6 47.2 20.1 46.1 20.8 46.1 20.6 47.3 20"/><polygon class="bd264eac-6a6e-4dc3-ac7b-4fbf5d06f72d" points="48.6 20.7 49.1 20.4 49.5 20.7 49 21 48.6 20.7"/><polygon class="ad0dcada-7981-471d-9eba-c5a52dceff27" points="48.1 20.5 47.7 20.2 48.6 20.7 49 21 48.1 20.5"/><polygon class="bd264eac-6a6e-4dc3-ac7b-4fbf5d06f72d" points="47 21.1 47 21.3 46.5 21 46.5 20.9 47 21.1"/><polygon class="b98dbca2-8309-401a-a00d-bb93f15c1609" points="47 21.1 46.5 20.9 47.7 20.2 48.1 20.5 47 21.1"/><polygon class="ad0dcada-7981-471d-9eba-c5a52dceff27" points="48.1 20.5 49 21 49.5 20.7 49.5 20.8 49 21.1 48.1 20.6 47 21.3 47 21.1 48.1 20.5"/><polygon class="bd264eac-6a6e-4dc3-ac7b-4fbf5d06f72d" points="49.5 21.2 50 20.9 50.4 21.2 49.9 21.5 49.5 21.2"/><polygon class="ad0dcada-7981-471d-9eba-c5a52dceff27" points="49 21 48.6 20.7 49.5 21.2 49.9 21.5 49 21"/><polygon class="bd264eac-6a6e-4dc3-ac7b-4fbf5d06f72d" points="47.8 21.6 47.8 21.8 47.4 21.5 47.4 21.4 47.8 21.6"/><polygon class="b98dbca2-8309-401a-a00d-bb93f15c1609" points="47.8 21.6 47.4 21.4 48.6 20.7 49 21 47.8 21.6"/><polygon class="ad0dcada-7981-471d-9eba-c5a52dceff27" points="49 21 49.9 21.5 50.4 21.2 50.4 21.3 49.9 21.6 49 21.1 47.8 21.8 47.8 21.6 49 21"/><polygon class="bd264eac-6a6e-4dc3-ac7b-4fbf5d06f72d" points="50.3 21.7 50.8 21.4 51.3 21.7 50.8 22 50.3 21.7"/><polygon class="ad0dcada-7981-471d-9eba-c5a52dceff27" points="49.9 21.5 49.4 21.2 50.3 21.7 50.8 22 49.9 21.5"/><polygon class="bd264eac-6a6e-4dc3-ac7b-4fbf5d06f72d" points="48.7 22.1 48.7 22.3 48.2 22 48.2 21.9 48.7 22.1"/><polygon class="b98dbca2-8309-401a-a00d-bb93f15c1609" points="48.7 22.1 48.2 21.9 49.4 21.2 49.9 21.5 48.7 22.1"/><polygon class="ad0dcada-7981-471d-9eba-c5a52dceff27" points="49.9 21.5 50.8 22 51.3 21.7 51.3 21.8 50.7 22.1 49.8 21.6 48.7 22.3 48.7 22.1 49.9 21.5"/><polygon class="bd264eac-6a6e-4dc3-ac7b-4fbf5d06f72d" points="51.2 22.2 51.7 21.9 52.1 22.2 51.6 22.5 51.2 22.2"/><polygon class="ad0dcada-7981-471d-9eba-c5a52dceff27" points="50.7 22 50.3 21.7 51.2 22.2 51.6 22.5 50.7 22"/><polygon class="bd264eac-6a6e-4dc3-ac7b-4fbf5d06f72d" points="49.5 22.6 49.5 22.8 49.1 22.5 49.1 22.4 49.5 22.6"/><polygon class="b98dbca2-8309-401a-a00d-bb93f15c1609" points="49.5 22.6 49.1 22.4 50.3 21.7 50.7 22 49.5 22.6"/><polygon class="ad0dcada-7981-471d-9eba-c5a52dceff27" points="50.7 22 51.6 22.5 52.1 22.2 52.1 22.3 51.6 22.6 50.7 22.1 49.5 22.8 49.5 22.6 50.7 22"/><polygon class="bd264eac-6a6e-4dc3-ac7b-4fbf5d06f72d" points="52.1 22.7 52.6 22.4 53 22.7 52.5 23 52.1 22.7"/><polygon class="ad0dcada-7981-471d-9eba-c5a52dceff27" points="51.6 22.5 51.2 22.2 52.1 22.7 52.5 23 51.6 22.5"/><polygon class="bd264eac-6a6e-4dc3-ac7b-4fbf5d06f72d" points="50.4 23.1 50.4 23.3 50 23 50 22.9 50.4 23.1"/><polygon class="b98dbca2-8309-401a-a00d-bb93f15c1609" points="50.4 23.1 50 22.9 51.2 22.2 51.6 22.5 50.4 23.1"/><polygon class="ad0dcada-7981-471d-9eba-c5a52dceff27" points="51.6 22.5 52.5 23 53 22.7 53 22.8 52.5 23.1 51.6 22.6 50.4 23.3 50.4 23.1 51.6 22.5"/><polygon class="bd264eac-6a6e-4dc3-ac7b-4fbf5d06f72d" points="52.9 23.2 53.4 22.9 53.9 23.2 53.4 23.5 52.9 23.2"/><polygon class="ad0dcada-7981-471d-9eba-c5a52dceff27" points="52.5 23 52 22.7 52.9 23.2 53.4 23.5 52.5 23"/><polygon class="bd264eac-6a6e-4dc3-ac7b-4fbf5d06f72d" points="51.3 23.6 51.3 23.8 50.9 23.5 50.9 23.4 51.3 23.6"/><polygon class="b98dbca2-8309-401a-a00d-bb93f15c1609" points="51.3 23.6 50.9 23.4 52 22.7 52.5 23 51.3 23.6"/><polygon class="ad0dcada-7981-471d-9eba-c5a52dceff27" points="52.5 23 53.4 23.5 53.9 23.2 53.9 23.3 53.3 23.6 52.4 23.1 51.3 23.8 51.3 23.6 52.5 23"/><polygon class="bd264eac-6a6e-4dc3-ac7b-4fbf5d06f72d" points="53.8 23.7 54.3 23.4 54.7 23.7 54.2 24 53.8 23.7"/><polygon class="ad0dcada-7981-471d-9eba-c5a52dceff27" points="53.3 23.5 52.9 23.2 53.8 23.7 54.2 24 53.3 23.5"/><polygon class="bd264eac-6a6e-4dc3-ac7b-4fbf5d06f72d" points="52.1 24.1 52.1 24.3 51.7 24 51.7 23.9 52.1 24.1"/><polygon class="b98dbca2-8309-401a-a00d-bb93f15c1609" points="52.1 24.1 51.7 23.9 52.9 23.2 53.3 23.5 52.1 24.1"/><polygon class="ad0dcada-7981-471d-9eba-c5a52dceff27" points="53.3 23.5 54.2 24 54.7 23.7 54.7 23.8 54.2 24.1 53.3 23.6 52.1 24.3 52.1 24.1 53.3 23.5"/><polygon class="bd264eac-6a6e-4dc3-ac7b-4fbf5d06f72d" points="54.7 24.2 55.2 23.9 55.6 24.2 55.1 24.5 54.7 24.2"/><polygon class="ad0dcada-7981-471d-9eba-c5a52dceff27" points="54.2 24 53.8 23.7 54.7 24.2 55.1 24.5 54.2 24"/><polygon class="bd264eac-6a6e-4dc3-ac7b-4fbf5d06f72d" points="53 24.7 53 24.8 52.6 24.5 52.6 24.4 53 24.7"/><polygon class="b98dbca2-8309-401a-a00d-bb93f15c1609" points="53 24.7 52.6 24.4 53.8 23.7 54.2 24 53 24.7"/><polygon class="ad0dcada-7981-471d-9eba-c5a52dceff27" points="54.2 24 55.1 24.5 55.6 24.2 55.6 24.3 55 24.6 54.1 24.1 53 24.8 53 24.7 54.2 24"/><polygon class="bd264eac-6a6e-4dc3-ac7b-4fbf5d06f72d" points="55.5 24.7 56 24.4 56.5 24.7 56 25 55.5 24.7"/><polygon class="ad0dcada-7981-471d-9eba-c5a52dceff27" points="55.1 24.5 54.6 24.2 55.5 24.7 56 25 55.1 24.5"/><polygon class="bd264eac-6a6e-4dc3-ac7b-4fbf5d06f72d" points="53.9 25.2 53.9 25.3 53.5 25 53.5 24.9 53.9 25.2"/><polygon class="b98dbca2-8309-401a-a00d-bb93f15c1609" points="53.9 25.2 53.5 24.9 54.6 24.2 55.1 24.5 53.9 25.2"/><polygon class="ad0dcada-7981-471d-9eba-c5a52dceff27" points="55.1 24.5 56 25 56.5 24.7 56.5 24.8 55.9 25.1 55 24.6 53.9 25.3 53.9 25.2 55.1 24.5"/><path class="f6e73404-d2d4-4de9-841b-10a10e3ab428" d="M202.6,269.6l-8.8-5h-1.4l-8.7,5v1.7l8.8,5.1h1.4l8.7-5.1v-1.7Z" transform="translate(-148.2 -244.8)"/><g class="bc3b40b3-fe99-4c1d-a4b9-f584ae43f1c8"><path class="a321acf4-b4e9-4a22-aa34-e6a9c9c178b2" d="M183.7,270.5v0Z" transform="translate(-148.2 -244.8)"/><polygon class="a53d342a-570f-40e6-bacd-0fe5124ade18" points="54.4 25.6 54.4 26.5 45.7 31.5 45.7 30.7 54.4 25.6"/><polygon class="a53d342a-570f-40e6-bacd-0fe5124ade18" points="44.3 30.7 44.3 31.5 35.5 26.5 35.5 25.6 44.3 30.7"/><path class="e3865c9b-661c-49be-9c96-401cdea75275" d="M193.9,275.5v.9h-1.4v-.9Z" transform="translate(-148.2 -244.8)"/><path class="a321acf4-b4e9-4a22-aa34-e6a9c9c178b2" d="M202.6,269.6v.9l-8.7,5h-1.4l-8.8-5v-.9l8.7-5h1.4Z" transform="translate(-148.2 -244.8)"/></g><path class="f6e73404-d2d4-4de9-841b-10a10e3ab428" d="M202.6,268.7l-8.8-5.1h-1.4l-8.7,5.1v1.6l8.8,5.1h1.4l8.7-5.1v-1.6Z" transform="translate(-148.2 -244.8)"/><g class="bc3b40b3-fe99-4c1d-a4b9-f584ae43f1c8"><path class="a321acf4-b4e9-4a22-aa34-e6a9c9c178b2" d="M183.7,269.5v0Z" transform="translate(-148.2 -244.8)"/><polygon class="a53d342a-570f-40e6-bacd-0fe5124ade18" points="54.4 24.7 54.4 25.5 45.7 30.6 45.7 29.7 54.4 24.7"/><polygon class="a53d342a-570f-40e6-bacd-0fe5124ade18" points="44.3 29.7 44.3 30.6 35.5 25.5 35.5 24.7 44.3 29.7"/><path class="e3865c9b-661c-49be-9c96-401cdea75275" d="M193.9,274.6v.8h-1.4v-.8Z" transform="translate(-148.2 -244.8)"/><path class="a8721af4-1d64-4446-b51f-e0b142d3de75" d="M202.6,268.7v.8l-8.7,5.1h-1.4l-8.8-5.1v-.8l8.7-5.1h1.4Z" transform="translate(-148.2 -244.8)"/><polygon class="bcd91b45-4dd0-4ec7-9f64-1adcd73d06a2" points="44.4 28.3 38.4 24.8 38.4 23.7 44.4 20.2 45.6 20.2 51.6 23.7 51.6 24.8 45.6 28.3 44.4 28.3"/></g><polygon class="bd264eac-6a6e-4dc3-ac7b-4fbf5d06f72d" points="56 28 56.4 27.8 55.5 26.2 55.1 26.5 56 28"/><polygon class="b98dbca2-8309-401a-a00d-bb93f15c1609" points="55.5 26.2 54.3 25.6 53.9 25.8 55.1 26.5 55.5 26.2"/><polygon class="bd264eac-6a6e-4dc3-ac7b-4fbf5d06f72d" points="56.5 28.3 56.5 28.5 56.9 28.2 56.9 28.1 56.5 28.3"/><polygon class="b98dbca2-8309-401a-a00d-bb93f15c1609" points="56.5 28.3 56.9 28.1 56.4 27.8 56 28 56.5 28.3"/><polygon class="ad0dcada-7981-471d-9eba-c5a52dceff27" points="56 28 55.1 26.5 53.9 25.8 53.9 25.9 55 26.6 55.9 28.1 56.5 28.5 56.5 28.3 56 28"/><polygon class="bd264eac-6a6e-4dc3-ac7b-4fbf5d06f72d" points="55.1 28.5 55.6 28.3 54.7 26.7 54.2 27 55.1 28.5"/><polygon class="b98dbca2-8309-401a-a00d-bb93f15c1609" points="54.7 26.7 53.5 26.1 53 26.3 54.2 27 54.7 26.7"/><polygon class="bd264eac-6a6e-4dc3-ac7b-4fbf5d06f72d" points="55.6 28.8 55.6 29 56.1 28.7 56.1 28.6 55.6 28.8"/><polygon class="b98dbca2-8309-401a-a00d-bb93f15c1609" points="55.6 28.8 56.1 28.6 55.6 28.3 55.1 28.5 55.6 28.8"/><polygon class="ad0dcada-7981-471d-9eba-c5a52dceff27" points="55.1 28.5 54.2 27 53 26.3 53 26.4 54.2 27.1 55.1 28.6 55.6 29 55.6 28.8 55.1 28.5"/><polygon class="bd264eac-6a6e-4dc3-ac7b-4fbf5d06f72d" points="54.3 29 54.7 28.8 53.8 27.2 53.4 27.5 54.3 29"/><polygon class="b98dbca2-8309-401a-a00d-bb93f15c1609" points="53.8 27.2 52.6 26.6 52.2 26.8 53.4 27.5 53.8 27.2"/><polygon class="bd264eac-6a6e-4dc3-ac7b-4fbf5d06f72d" points="54.8 29.3 54.8 29.5 55.2 29.2 55.2 29.1 54.8 29.3"/><polygon class="b98dbca2-8309-401a-a00d-bb93f15c1609" points="54.8 29.3 55.2 29.1 54.7 28.8 54.3 29 54.8 29.3"/><polygon class="ad0dcada-7981-471d-9eba-c5a52dceff27" points="54.3 29 53.4 27.5 52.2 26.8 52.2 26.9 53.3 27.6 54.2 29.1 54.8 29.5 54.8 29.3 54.3 29"/><polygon class="bd264eac-6a6e-4dc3-ac7b-4fbf5d06f72d" points="53.4 29.5 53.8 29.3 52.9 27.7 52.5 28 53.4 29.5"/><polygon class="b98dbca2-8309-401a-a00d-bb93f15c1609" points="52.9 27.7 51.7 27.1 51.3 27.3 52.5 28 52.9 27.7"/><polygon class="bd264eac-6a6e-4dc3-ac7b-4fbf5d06f72d" points="53.9 29.8 53.9 30 54.3 29.7 54.3 29.6 53.9 29.8"/><polygon class="b98dbca2-8309-401a-a00d-bb93f15c1609" points="53.9 29.8 54.3 29.6 53.8 29.3 53.4 29.5 53.9 29.8"/><polygon class="ad0dcada-7981-471d-9eba-c5a52dceff27" points="53.4 29.5 52.5 28 51.3 27.3 51.3 27.4 52.5 28.1 53.3 29.6 53.9 30 53.9 29.8 53.4 29.5"/><polygon class="bd264eac-6a6e-4dc3-ac7b-4fbf5d06f72d" points="52.5 30 52.9 29.8 52.1 28.2 51.6 28.5 52.5 30"/><polygon class="b98dbca2-8309-401a-a00d-bb93f15c1609" points="52.1 28.2 50.9 27.6 50.4 27.8 51.6 28.5 52.1 28.2"/><polygon class="bd264eac-6a6e-4dc3-ac7b-4fbf5d06f72d" points="53 30.3 53 30.5 53.5 30.2 53.5 30.1 53 30.3"/><polygon class="b98dbca2-8309-401a-a00d-bb93f15c1609" points="53 30.3 53.5 30.1 52.9 29.8 52.5 30 53 30.3"/><polygon class="ad0dcada-7981-471d-9eba-c5a52dceff27" points="52.5 30 51.6 28.5 50.4 27.8 50.4 27.9 51.6 28.6 52.5 30.1 53 30.5 53 30.3 52.5 30"/><polygon class="bd264eac-6a6e-4dc3-ac7b-4fbf5d06f72d" points="51.7 30.6 52.1 30.3 51.2 28.8 50.8 29 51.7 30.6"/><polygon class="b98dbca2-8309-401a-a00d-bb93f15c1609" points="51.2 28.8 50 28.1 49.6 28.3 50.8 29 51.2 28.8"/><polygon class="bd264eac-6a6e-4dc3-ac7b-4fbf5d06f72d" points="52.2 30.8 52.2 31 52.6 30.7 52.6 30.6 52.2 30.8"/><polygon class="b98dbca2-8309-401a-a00d-bb93f15c1609" points="52.2 30.8 52.6 30.6 52.1 30.3 51.7 30.6 52.2 30.8"/><polygon class="ad0dcada-7981-471d-9eba-c5a52dceff27" points="51.7 30.6 50.8 29 49.6 28.3 49.6 28.4 50.7 29.1 51.6 30.7 52.2 31 52.2 30.8 51.7 30.6"/><polygon class="bd264eac-6a6e-4dc3-ac7b-4fbf5d06f72d" points="50.8 31.1 51.2 30.8 50.3 29.3 49.9 29.5 50.8 31.1"/><polygon class="b98dbca2-8309-401a-a00d-bb93f15c1609" points="50.3 29.3 49.1 28.6 48.7 28.8 49.9 29.5 50.3 29.3"/><polygon class="bd264eac-6a6e-4dc3-ac7b-4fbf5d06f72d" points="51.3 31.4 51.3 31.5 51.7 31.2 51.7 31.1 51.3 31.4"/><polygon class="b98dbca2-8309-401a-a00d-bb93f15c1609" points="51.3 31.4 51.7 31.1 51.2 30.8 50.8 31.1 51.3 31.4"/><polygon class="ad0dcada-7981-471d-9eba-c5a52dceff27" points="50.8 31.1 49.9 29.5 48.7 28.8 48.7 29 49.8 29.6 50.7 31.2 51.3 31.5 51.3 31.4 50.8 31.1"/><polygon class="bd264eac-6a6e-4dc3-ac7b-4fbf5d06f72d" points="49.9 31.6 50.4 31.3 49.5 29.8 49 30 49.9 31.6"/><polygon class="b98dbca2-8309-401a-a00d-bb93f15c1609" points="49.5 29.8 48.3 29.1 47.8 29.3 49 30 49.5 29.8"/><polygon class="bd264eac-6a6e-4dc3-ac7b-4fbf5d06f72d" points="50.4 31.9 50.4 32 50.9 31.7 50.9 31.6 50.4 31.9"/><polygon class="b98dbca2-8309-401a-a00d-bb93f15c1609" points="50.4 31.9 50.9 31.6 50.4 31.3 49.9 31.6 50.4 31.9"/><polygon class="ad0dcada-7981-471d-9eba-c5a52dceff27" points="49.9 31.6 49 30 47.8 29.3 47.8 29.5 49 30.1 49.9 31.7 50.4 32 50.4 31.9 49.9 31.6"/><polygon class="bd264eac-6a6e-4dc3-ac7b-4fbf5d06f72d" points="49.1 32.1 49.5 31.8 48.6 30.3 48.2 30.5 49.1 32.1"/><polygon class="b98dbca2-8309-401a-a00d-bb93f15c1609" points="48.6 30.3 47.4 29.6 47 29.8 48.2 30.5 48.6 30.3"/><polygon class="bd264eac-6a6e-4dc3-ac7b-4fbf5d06f72d" points="49.6 32.4 49.6 32.5 50 32.2 50 32.1 49.6 32.4"/><polygon class="b98dbca2-8309-401a-a00d-bb93f15c1609" points="49.6 32.4 50 32.1 49.5 31.8 49.1 32.1 49.6 32.4"/><polygon class="ad0dcada-7981-471d-9eba-c5a52dceff27" points="49.1 32.1 48.2 30.5 47 29.8 47 30 48.1 30.6 49 32.2 49.6 32.5 49.6 32.4 49.1 32.1"/><polygon class="bd264eac-6a6e-4dc3-ac7b-4fbf5d06f72d" points="48.2 32.6 48.6 32.3 47.7 30.8 47.3 31 48.2 32.6"/><polygon class="b98dbca2-8309-401a-a00d-bb93f15c1609" points="47.7 30.8 46.5 30.1 46.1 30.3 47.3 31 47.7 30.8"/><polygon class="bd264eac-6a6e-4dc3-ac7b-4fbf5d06f72d" points="48.7 32.9 48.7 33 49.1 32.7 49.1 32.6 48.7 32.9"/><polygon class="b98dbca2-8309-401a-a00d-bb93f15c1609" points="48.7 32.9 49.1 32.6 48.6 32.3 48.2 32.6 48.7 32.9"/><polygon class="ad0dcada-7981-471d-9eba-c5a52dceff27" points="48.2 32.6 47.3 31 46.1 30.3 46.1 30.5 47.2 31.1 48.1 32.7 48.7 33 48.7 32.9 48.2 32.6"/><polygon class="bd264eac-6a6e-4dc3-ac7b-4fbf5d06f72d" points="33.9 28 33.5 27.8 34.4 26.2 34.8 26.5 33.9 28"/><polygon class="b98dbca2-8309-401a-a00d-bb93f15c1609" points="34.4 26.2 35.6 25.6 36 25.8 34.8 26.5 34.4 26.2"/><polygon class="bd264eac-6a6e-4dc3-ac7b-4fbf5d06f72d" points="33.4 28.3 33.4 28.5 33 28.2 33 28.1 33.4 28.3"/><polygon class="b98dbca2-8309-401a-a00d-bb93f15c1609" points="33.4 28.3 33 28.1 33.5 27.8 33.9 28 33.4 28.3"/><polygon class="ad0dcada-7981-471d-9eba-c5a52dceff27" points="33.9 28 34.8 26.5 36 25.8 36 25.9 34.9 26.6 34 28.1 33.4 28.5 33.4 28.3 33.9 28"/><polygon class="bd264eac-6a6e-4dc3-ac7b-4fbf5d06f72d" points="34.8 28.5 34.4 28.3 35.3 26.7 35.7 27 34.8 28.5"/><polygon class="b98dbca2-8309-401a-a00d-bb93f15c1609" points="35.3 26.7 36.5 26.1 36.9 26.3 35.7 27 35.3 26.7"/><polygon class="bd264eac-6a6e-4dc3-ac7b-4fbf5d06f72d" points="34.3 28.8 34.3 29 33.9 28.7 33.9 28.6 34.3 28.8"/><polygon class="b98dbca2-8309-401a-a00d-bb93f15c1609" points="34.3 28.8 33.9 28.6 34.4 28.3 34.8 28.5 34.3 28.8"/><polygon class="ad0dcada-7981-471d-9eba-c5a52dceff27" points="34.8 28.5 35.7 27 36.9 26.3 36.9 26.4 35.7 27.1 34.9 28.6 34.3 29 34.3 28.8 34.8 28.5"/><polygon class="bd264eac-6a6e-4dc3-ac7b-4fbf5d06f72d" points="35.7 29 35.3 28.8 36.1 27.2 36.6 27.5 35.7 29"/><polygon class="b98dbca2-8309-401a-a00d-bb93f15c1609" points="36.1 27.2 37.3 26.6 37.8 26.8 36.6 27.5 36.1 27.2"/><polygon class="bd264eac-6a6e-4dc3-ac7b-4fbf5d06f72d" points="35.2 29.3 35.2 29.5 34.7 29.2 34.7 29.1 35.2 29.3"/><polygon class="b98dbca2-8309-401a-a00d-bb93f15c1609" points="35.2 29.3 34.7 29.1 35.3 28.8 35.7 29 35.2 29.3"/><polygon class="ad0dcada-7981-471d-9eba-c5a52dceff27" points="35.7 29 36.6 27.5 37.8 26.8 37.8 26.9 36.6 27.6 35.7 29.1 35.2 29.5 35.2 29.3 35.7 29"/><polygon class="bd264eac-6a6e-4dc3-ac7b-4fbf5d06f72d" points="36.6 29.5 36.1 29.3 37 27.7 37.4 28 36.6 29.5"/><polygon class="b98dbca2-8309-401a-a00d-bb93f15c1609" points="37 27.7 38.2 27.1 38.6 27.3 37.4 28 37 27.7"/><polygon class="bd264eac-6a6e-4dc3-ac7b-4fbf5d06f72d" points="36 29.8 36 30 35.6 29.7 35.6 29.6 36 29.8"/><polygon class="b98dbca2-8309-401a-a00d-bb93f15c1609" points="36 29.8 35.6 29.6 36.1 29.3 36.6 29.5 36 29.8"/><polygon class="ad0dcada-7981-471d-9eba-c5a52dceff27" points="36.6 29.5 37.4 28 38.6 27.3 38.6 27.4 37.5 28.1 36.6 29.6 36 30 36 29.8 36.6 29.5"/><polygon class="bd264eac-6a6e-4dc3-ac7b-4fbf5d06f72d" points="37.4 30 37 29.8 37.9 28.2 38.3 28.5 37.4 30"/><polygon class="b98dbca2-8309-401a-a00d-bb93f15c1609" points="37.9 28.2 39.1 27.6 39.5 27.8 38.3 28.5 37.9 28.2"/><polygon class="bd264eac-6a6e-4dc3-ac7b-4fbf5d06f72d" points="36.9 30.3 36.9 30.5 36.5 30.2 36.5 30.1 36.9 30.3"/><polygon class="b98dbca2-8309-401a-a00d-bb93f15c1609" points="36.9 30.3 36.5 30.1 37 29.8 37.4 30 36.9 30.3"/><polygon class="ad0dcada-7981-471d-9eba-c5a52dceff27" points="37.4 30 38.3 28.5 39.5 27.8 39.5 27.9 38.4 28.6 37.5 30.1 36.9 30.5 36.9 30.3 37.4 30"/><polygon class="bd264eac-6a6e-4dc3-ac7b-4fbf5d06f72d" points="38.3 30.6 37.9 30.3 38.8 28.8 39.2 29 38.3 30.6"/><polygon class="b98dbca2-8309-401a-a00d-bb93f15c1609" points="38.8 28.8 39.9 28.1 40.4 28.3 39.2 29 38.8 28.8"/><polygon class="bd264eac-6a6e-4dc3-ac7b-4fbf5d06f72d" points="37.8 30.8 37.8 31 37.4 30.7 37.4 30.6 37.8 30.8"/><polygon class="b98dbca2-8309-401a-a00d-bb93f15c1609" points="37.8 30.8 37.4 30.6 37.9 30.3 38.3 30.6 37.8 30.8"/><polygon class="ad0dcada-7981-471d-9eba-c5a52dceff27" points="38.3 30.6 39.2 29 40.4 28.3 40.4 28.4 39.2 29.1 38.3 30.7 37.8 31 37.8 30.8 38.3 30.6"/><polygon class="bd264eac-6a6e-4dc3-ac7b-4fbf5d06f72d" points="39.2 31.1 38.7 30.8 39.6 29.3 40.1 29.5 39.2 31.1"/><polygon class="b98dbca2-8309-401a-a00d-bb93f15c1609" points="39.6 29.3 40.8 28.6 41.2 28.8 40.1 29.5 39.6 29.3"/><polygon class="bd264eac-6a6e-4dc3-ac7b-4fbf5d06f72d" points="38.7 31.4 38.7 31.5 38.2 31.2 38.2 31.1 38.7 31.4"/><polygon class="b98dbca2-8309-401a-a00d-bb93f15c1609" points="38.7 31.4 38.2 31.1 38.7 30.8 39.2 31.1 38.7 31.4"/><polygon class="ad0dcada-7981-471d-9eba-c5a52dceff27" points="39.2 31.1 40.1 29.5 41.2 28.8 41.3 29 40.1 29.6 39.2 31.2 38.7 31.5 38.7 31.4 39.2 31.1"/><polygon class="bd264eac-6a6e-4dc3-ac7b-4fbf5d06f72d" points="40 31.6 39.6 31.3 40.5 29.8 40.9 30 40 31.6"/><polygon class="b98dbca2-8309-401a-a00d-bb93f15c1609" points="40.5 29.8 41.7 29.1 42.1 29.3 40.9 30 40.5 29.8"/><polygon class="bd264eac-6a6e-4dc3-ac7b-4fbf5d06f72d" points="39.5 31.9 39.5 32 39.1 31.7 39.1 31.6 39.5 31.9"/><polygon class="b98dbca2-8309-401a-a00d-bb93f15c1609" points="39.5 31.9 39.1 31.6 39.6 31.3 40 31.6 39.5 31.9"/><polygon class="ad0dcada-7981-471d-9eba-c5a52dceff27" points="40 31.6 40.9 30 42.1 29.3 42.1 29.5 41 30.1 40.1 31.7 39.5 32 39.5 31.9 40 31.6"/><polygon class="bd264eac-6a6e-4dc3-ac7b-4fbf5d06f72d" points="40.9 32.1 40.5 31.8 41.4 30.3 41.8 30.5 40.9 32.1"/><polygon class="b98dbca2-8309-401a-a00d-bb93f15c1609" points="41.4 30.3 42.6 29.6 43 29.8 41.8 30.5 41.4 30.3"/><polygon class="bd264eac-6a6e-4dc3-ac7b-4fbf5d06f72d" points="40.4 32.4 40.4 32.5 40 32.2 40 32.1 40.4 32.4"/><polygon class="b98dbca2-8309-401a-a00d-bb93f15c1609" points="40.4 32.4 40 32.1 40.5 31.8 40.9 32.1 40.4 32.4"/><polygon class="ad0dcada-7981-471d-9eba-c5a52dceff27" points="40.9 32.1 41.8 30.5 43 29.8 43 30 41.9 30.6 41 32.2 40.4 32.5 40.4 32.4 40.9 32.1"/><polygon class="bd264eac-6a6e-4dc3-ac7b-4fbf5d06f72d" points="41.8 32.6 41.4 32.3 42.3 30.8 42.7 31 41.8 32.6"/><polygon class="b98dbca2-8309-401a-a00d-bb93f15c1609" points="42.3 30.8 43.4 30.1 43.9 30.3 42.7 31 42.3 30.8"/><polygon class="bd264eac-6a6e-4dc3-ac7b-4fbf5d06f72d" points="41.3 32.9 41.3 33 40.9 32.7 40.8 32.6 41.3 32.9"/><polygon class="b98dbca2-8309-401a-a00d-bb93f15c1609" points="41.3 32.9 40.8 32.6 41.4 32.3 41.8 32.6 41.3 32.9"/><polygon class="ad0dcada-7981-471d-9eba-c5a52dceff27" points="41.8 32.6 42.7 31 43.9 30.3 43.9 30.5 42.7 31.1 41.8 32.7 41.3 33 41.3 32.9 41.8 32.6"/></svg>