<svg id="b7b9dbb3-3cc2-418a-b280-6d10a5139ee7" data-name="Layer 1" xmlns="http://www.w3.org/2000/svg" viewBox="0 0 99.9 59.3"><defs><style>.b874e05c-d232-409b-bb0a-224841d1f49d{fill:#ccc;}.af4e7c46-ee3d-4ca8-a74e-107cfc800161{fill:#676767;}.af5b68e8-a645-4efa-8d0d-1171bcad9e2f{fill:#a0a0a0;}.f87391ed-74f2-4e9e-aed1-81c39240eb48{fill:#545454;}.ae2e7996-05a8-4e89-ac33-2b82c2bba2d9{isolation:isolate;}.b967159c-75b4-4be4-b831-a4cc2ed64ed3{fill:#292c36;}.e443de29-dbf4-417d-a49f-bd08b63f0e5b{fill:#373c48;}.b12892ae-563a-4226-8b23-efdf8f95c2d1{fill:#4e5463;}.f40f03e9-ac28-4afd-bc82-0b7813e51fe1{fill:#596177;}</style></defs><polygon class="b874e05c-d232-409b-bb0a-224841d1f49d" points="38.3 6 36.1 4.8 34.3 5.9 36.5 7.1 38.3 6"/><polygon class="af4e7c46-ee3d-4ca8-a74e-107cfc800161" points="40.2 4.9 42 3.9 38.3 6 36.5 7.1 40.2 4.9"/><polygon class="b874e05c-d232-409b-bb0a-224841d1f49d" points="45.1 7.8 45.1 8.3 46.9 7.3 46.9 6.7 45.1 7.8"/><polygon class="af5b68e8-a645-4efa-8d0d-1171bcad9e2f" points="45.1 7.8 46.9 6.7 42 3.9 40.2 4.9 45.1 7.8"/><polygon class="af4e7c46-ee3d-4ca8-a74e-107cfc800161" points="40.2 4.9 36.5 7.1 34.3 5.9 34.3 6.4 36.6 7.7 40.4 5.6 45.1 8.3 45.1 7.8 40.2 4.9"/><polygon class="b874e05c-d232-409b-bb0a-224841d1f49d" points="34.7 8.1 32.5 6.9 30.7 8 32.9 9.2 34.7 8.1"/><polygon class="af4e7c46-ee3d-4ca8-a74e-107cfc800161" points="36.6 7 38.4 6 34.7 8.1 32.9 9.2 36.6 7"/><polygon class="b874e05c-d232-409b-bb0a-224841d1f49d" points="41.5 9.9 41.5 10.4 43.3 9.4 43.3 8.8 41.5 9.9"/><polygon class="af5b68e8-a645-4efa-8d0d-1171bcad9e2f" points="41.5 9.9 43.3 8.8 38.4 6 36.6 7 41.5 9.9"/><polygon class="af4e7c46-ee3d-4ca8-a74e-107cfc800161" points="36.6 7 32.9 9.2 30.7 8 30.7 8.5 33.1 9.8 36.8 7.7 41.5 10.4 41.5 9.9 36.6 7"/><polygon class="b874e05c-d232-409b-bb0a-224841d1f49d" points="31.1 10.2 28.9 9 27.1 10.1 29.3 11.3 31.1 10.2"/><polygon class="af4e7c46-ee3d-4ca8-a74e-107cfc800161" points="33 9.1 34.8 8.1 31.1 10.2 29.3 11.3 33 9.1"/><polygon class="b874e05c-d232-409b-bb0a-224841d1f49d" points="37.9 12 37.9 12.5 39.7 11.5 39.7 10.9 37.9 12"/><polygon class="af5b68e8-a645-4efa-8d0d-1171bcad9e2f" points="37.9 12 39.7 10.9 34.8 8.1 33 9.1 37.9 12"/><polygon class="af4e7c46-ee3d-4ca8-a74e-107cfc800161" points="33 9.1 29.3 11.3 27.1 10.1 27.1 10.6 29.4 11.9 33.2 9.8 37.9 12.5 37.9 12 33 9.1"/><polygon class="b874e05c-d232-409b-bb0a-224841d1f49d" points="27.5 12.3 25.3 11.1 23.5 12.2 25.7 13.4 27.5 12.3"/><polygon class="af4e7c46-ee3d-4ca8-a74e-107cfc800161" points="29.4 11.2 31.2 10.2 27.5 12.3 25.7 13.4 29.4 11.2"/><polygon class="b874e05c-d232-409b-bb0a-224841d1f49d" points="34.4 14.1 34.3 14.6 36.1 13.6 36.1 13 34.4 14.1"/><polygon class="af5b68e8-a645-4efa-8d0d-1171bcad9e2f" points="34.4 14.1 36.1 13 31.2 10.2 29.4 11.2 34.4 14.1"/><polygon class="af4e7c46-ee3d-4ca8-a74e-107cfc800161" points="29.4 11.2 25.7 13.4 23.5 12.2 23.5 12.7 25.9 14 29.6 11.9 34.3 14.6 34.4 14.1 29.4 11.2"/><polygon class="b874e05c-d232-409b-bb0a-224841d1f49d" points="23.9 14.4 21.7 13.2 19.9 14.3 22.1 15.5 23.9 14.4"/><polygon class="af4e7c46-ee3d-4ca8-a74e-107cfc800161" points="25.8 13.3 27.6 12.3 23.9 14.4 22.1 15.5 25.8 13.3"/><polygon class="b874e05c-d232-409b-bb0a-224841d1f49d" points="30.7 16.2 30.7 16.7 32.5 15.7 32.5 15.1 30.7 16.2"/><polygon class="af5b68e8-a645-4efa-8d0d-1171bcad9e2f" points="30.7 16.2 32.5 15.1 27.6 12.3 25.8 13.3 30.7 16.2"/><polygon class="af4e7c46-ee3d-4ca8-a74e-107cfc800161" points="25.8 13.3 22.1 15.5 19.9 14.3 19.9 14.8 22.2 16.1 26 14 30.7 16.7 30.7 16.2 25.8 13.3"/><polygon class="b874e05c-d232-409b-bb0a-224841d1f49d" points="20.2 16.5 18.1 15.3 16.3 16.3 18.4 17.6 20.2 16.5"/><polygon class="af4e7c46-ee3d-4ca8-a74e-107cfc800161" points="22.2 15.4 24 14.4 20.2 16.5 18.4 17.6 22.2 15.4"/><polygon class="b874e05c-d232-409b-bb0a-224841d1f49d" points="27.1 18.3 27.1 18.8 28.9 17.7 28.9 17.2 27.1 18.3"/><polygon class="af5b68e8-a645-4efa-8d0d-1171bcad9e2f" points="27.1 18.3 28.9 17.2 24 14.4 22.2 15.4 27.1 18.3"/><polygon class="af4e7c46-ee3d-4ca8-a74e-107cfc800161" points="22.2 15.4 18.4 17.6 16.3 16.3 16.3 16.9 18.6 18.2 22.3 16.1 27.1 18.8 27.1 18.3 22.2 15.4"/><polygon class="b874e05c-d232-409b-bb0a-224841d1f49d" points="16.6 18.6 14.5 17.4 12.7 18.4 14.8 19.7 16.6 18.6"/><polygon class="af4e7c46-ee3d-4ca8-a74e-107cfc800161" points="18.5 17.5 20.3 16.5 16.6 18.6 14.8 19.7 18.5 17.5"/><polygon class="b874e05c-d232-409b-bb0a-224841d1f49d" points="23.5 20.4 23.5 20.9 25.3 19.8 25.3 19.3 23.5 20.4"/><polygon class="af5b68e8-a645-4efa-8d0d-1171bcad9e2f" points="23.5 20.4 25.3 19.3 20.3 16.5 18.5 17.5 23.5 20.4"/><polygon class="af4e7c46-ee3d-4ca8-a74e-107cfc800161" points="18.5 17.5 14.8 19.7 12.7 18.4 12.7 19 15 20.3 18.7 18.2 23.5 20.9 23.5 20.4 18.5 17.5"/><polygon class="b874e05c-d232-409b-bb0a-224841d1f49d" points="13 20.7 10.9 19.5 9.1 20.5 11.2 21.8 13 20.7"/><polygon class="af4e7c46-ee3d-4ca8-a74e-107cfc800161" points="15 19.6 16.8 18.6 13 20.7 11.2 21.8 15 19.6"/><polygon class="b874e05c-d232-409b-bb0a-224841d1f49d" points="19.9 22.5 19.9 23 21.7 21.9 21.7 21.4 19.9 22.5"/><polygon class="af5b68e8-a645-4efa-8d0d-1171bcad9e2f" points="19.9 22.5 21.7 21.4 16.8 18.6 15 19.6 19.9 22.5"/><polygon class="af4e7c46-ee3d-4ca8-a74e-107cfc800161" points="15 19.6 11.2 21.8 9.1 20.5 9.1 21.1 11.4 22.4 15.1 20.3 19.9 23 19.9 22.5 15 19.6"/><polygon class="b874e05c-d232-409b-bb0a-224841d1f49d" points="9.4 22.8 7.3 21.6 5.5 22.6 7.6 23.9 9.4 22.8"/><polygon class="af4e7c46-ee3d-4ca8-a74e-107cfc800161" points="11.3 21.7 13.1 20.7 9.4 22.8 7.6 23.9 11.3 21.7"/><polygon class="b874e05c-d232-409b-bb0a-224841d1f49d" points="16.3 24.6 16.3 25.1 18.1 24 18.1 23.5 16.3 24.6"/><polygon class="af5b68e8-a645-4efa-8d0d-1171bcad9e2f" points="16.3 24.6 18.1 23.5 13.1 20.7 11.3 21.7 16.3 24.6"/><polygon class="af4e7c46-ee3d-4ca8-a74e-107cfc800161" points="11.3 21.7 7.6 23.9 5.5 22.6 5.5 23.2 7.8 24.5 11.5 22.3 16.3 25.1 16.3 24.6 11.3 21.7"/><polygon class="b874e05c-d232-409b-bb0a-224841d1f49d" points="5.7 24.9 3.6 23.7 1.8 24.7 3.9 26 5.7 24.9"/><polygon class="af4e7c46-ee3d-4ca8-a74e-107cfc800161" points="7.7 23.8 9.5 22.8 5.7 24.9 3.9 26 7.7 23.8"/><polygon class="b874e05c-d232-409b-bb0a-224841d1f49d" points="12.6 26.7 12.6 27.2 14.4 26.1 14.4 25.6 12.6 26.7"/><polygon class="af5b68e8-a645-4efa-8d0d-1171bcad9e2f" points="12.6 26.7 14.4 25.6 9.5 22.8 7.7 23.8 12.6 26.7"/><polygon class="af4e7c46-ee3d-4ca8-a74e-107cfc800161" points="7.7 23.8 3.9 26 1.8 24.7 1.8 25.2 4.1 26.6 7.9 24.4 12.6 27.2 12.6 26.7 7.7 23.8"/><polygon class="b874e05c-d232-409b-bb0a-224841d1f49d" points="61.5 6 63.6 4.8 65.4 5.9 63.3 7.1 61.5 6"/><polygon class="af4e7c46-ee3d-4ca8-a74e-107cfc800161" points="59.5 4.9 57.7 3.9 61.5 6 63.3 7.1 59.5 4.9"/><polygon class="b874e05c-d232-409b-bb0a-224841d1f49d" points="54.6 7.8 54.6 8.3 52.8 7.3 52.8 6.7 54.6 7.8"/><polygon class="af5b68e8-a645-4efa-8d0d-1171bcad9e2f" points="54.6 7.8 52.8 6.7 57.7 3.9 59.5 4.9 54.6 7.8"/><polygon class="af4e7c46-ee3d-4ca8-a74e-107cfc800161" points="59.5 4.9 63.3 7.1 65.4 5.9 65.4 6.4 63.1 7.7 59.4 5.6 54.6 8.3 54.6 7.8 59.5 4.9"/><polygon class="b874e05c-d232-409b-bb0a-224841d1f49d" points="65.1 8.1 67.2 6.9 69 8 66.9 9.2 65.1 8.1"/><polygon class="af4e7c46-ee3d-4ca8-a74e-107cfc800161" points="63.1 7 61.3 6 65.1 8.1 66.9 9.2 63.1 7"/><polygon class="b874e05c-d232-409b-bb0a-224841d1f49d" points="58.2 9.9 58.2 10.4 56.4 9.4 56.4 8.8 58.2 9.9"/><polygon class="af5b68e8-a645-4efa-8d0d-1171bcad9e2f" points="58.2 9.9 56.4 8.8 61.3 6 63.1 7 58.2 9.9"/><polygon class="af4e7c46-ee3d-4ca8-a74e-107cfc800161" points="63.1 7 66.9 9.2 69 8 69 8.5 66.7 9.8 62.9 7.7 58.2 10.4 58.2 9.9 63.1 7"/><polygon class="b874e05c-d232-409b-bb0a-224841d1f49d" points="68.7 10.2 70.8 9 72.6 10.1 70.5 11.3 68.7 10.2"/><polygon class="af4e7c46-ee3d-4ca8-a74e-107cfc800161" points="66.7 9.1 64.9 8.1 68.7 10.2 70.5 11.3 66.7 9.1"/><polygon class="b874e05c-d232-409b-bb0a-224841d1f49d" points="61.8 12 61.8 12.5 60 11.5 60 10.9 61.8 12"/><polygon class="af5b68e8-a645-4efa-8d0d-1171bcad9e2f" points="61.8 12 60 10.9 64.9 8.1 66.7 9.1 61.8 12"/><polygon class="af4e7c46-ee3d-4ca8-a74e-107cfc800161" points="66.7 9.1 70.5 11.3 72.6 10.1 72.6 10.6 70.3 11.9 66.6 9.8 61.8 12.5 61.8 12 66.7 9.1"/><polygon class="b874e05c-d232-409b-bb0a-224841d1f49d" points="72.3 12.3 74.4 11.1 76.2 12.2 74.1 13.4 72.3 12.3"/><polygon class="af4e7c46-ee3d-4ca8-a74e-107cfc800161" points="70.3 11.2 68.5 10.2 72.3 12.3 74.1 13.4 70.3 11.2"/><polygon class="b874e05c-d232-409b-bb0a-224841d1f49d" points="65.4 14.1 65.4 14.6 63.6 13.6 63.6 13 65.4 14.1"/><polygon class="af5b68e8-a645-4efa-8d0d-1171bcad9e2f" points="65.4 14.1 63.6 13 68.5 10.2 70.3 11.2 65.4 14.1"/><polygon class="af4e7c46-ee3d-4ca8-a74e-107cfc800161" points="70.3 11.2 74.1 13.4 76.2 12.2 76.2 12.7 73.9 14 70.1 11.9 65.4 14.6 65.4 14.1 70.3 11.2"/><polygon class="b874e05c-d232-409b-bb0a-224841d1f49d" points="75.9 14.4 78 13.2 79.8 14.3 77.7 15.5 75.9 14.4"/><polygon class="af4e7c46-ee3d-4ca8-a74e-107cfc800161" points="73.9 13.3 72.1 12.3 75.9 14.4 77.7 15.5 73.9 13.3"/><polygon class="b874e05c-d232-409b-bb0a-224841d1f49d" points="69 16.2 69 16.7 67.2 15.7 67.2 15.1 69 16.2"/><polygon class="af5b68e8-a645-4efa-8d0d-1171bcad9e2f" points="69 16.2 67.2 15.1 72.1 12.3 73.9 13.3 69 16.2"/><polygon class="af4e7c46-ee3d-4ca8-a74e-107cfc800161" points="73.9 13.3 77.7 15.5 79.8 14.3 79.8 14.8 77.5 16.1 73.8 14 69 16.7 69 16.2 73.9 13.3"/><polygon class="b874e05c-d232-409b-bb0a-224841d1f49d" points="79.6 16.5 81.7 15.3 83.5 16.3 81.4 17.6 79.6 16.5"/><polygon class="af4e7c46-ee3d-4ca8-a74e-107cfc800161" points="77.6 15.4 75.8 14.4 79.6 16.5 81.4 17.6 77.6 15.4"/><polygon class="b874e05c-d232-409b-bb0a-224841d1f49d" points="72.7 18.3 72.7 18.8 70.9 17.7 70.9 17.2 72.7 18.3"/><polygon class="af5b68e8-a645-4efa-8d0d-1171bcad9e2f" points="72.7 18.3 70.9 17.2 75.8 14.4 77.6 15.4 72.7 18.3"/><polygon class="af4e7c46-ee3d-4ca8-a74e-107cfc800161" points="77.6 15.4 81.4 17.6 83.5 16.3 83.5 16.9 81.2 18.2 77.4 16.1 72.7 18.8 72.7 18.3 77.6 15.4"/><polygon class="b874e05c-d232-409b-bb0a-224841d1f49d" points="83.2 18.6 85.3 17.4 87.1 18.4 85 19.7 83.2 18.6"/><polygon class="af4e7c46-ee3d-4ca8-a74e-107cfc800161" points="81.2 17.5 79.4 16.5 83.2 18.6 85 19.7 81.2 17.5"/><polygon class="b874e05c-d232-409b-bb0a-224841d1f49d" points="76.3 20.4 76.3 20.9 74.5 19.8 74.5 19.3 76.3 20.4"/><polygon class="af5b68e8-a645-4efa-8d0d-1171bcad9e2f" points="76.3 20.4 74.5 19.3 79.4 16.5 81.2 17.5 76.3 20.4"/><polygon class="af4e7c46-ee3d-4ca8-a74e-107cfc800161" points="81.2 17.5 85 19.7 87.1 18.4 87.1 19 84.8 20.3 81 18.2 76.3 20.9 76.3 20.4 81.2 17.5"/><polygon class="b874e05c-d232-409b-bb0a-224841d1f49d" points="86.8 20.7 88.9 19.5 90.7 20.5 88.6 21.8 86.8 20.7"/><polygon class="af4e7c46-ee3d-4ca8-a74e-107cfc800161" points="84.8 19.6 83 18.6 86.8 20.7 88.6 21.8 84.8 19.6"/><polygon class="b874e05c-d232-409b-bb0a-224841d1f49d" points="79.9 22.5 79.9 23 78.1 21.9 78.1 21.4 79.9 22.5"/><polygon class="af5b68e8-a645-4efa-8d0d-1171bcad9e2f" points="79.9 22.5 78.1 21.4 83 18.6 84.8 19.6 79.9 22.5"/><polygon class="af4e7c46-ee3d-4ca8-a74e-107cfc800161" points="84.8 19.6 88.6 21.8 90.7 20.5 90.7 21.1 88.4 22.4 84.6 20.3 79.9 23 79.9 22.5 84.8 19.6"/><polygon class="b874e05c-d232-409b-bb0a-224841d1f49d" points="90.4 22.8 92.5 21.6 94.3 22.6 92.2 23.9 90.4 22.8"/><polygon class="af4e7c46-ee3d-4ca8-a74e-107cfc800161" points="88.4 21.7 86.6 20.7 90.4 22.8 92.2 23.9 88.4 21.7"/><polygon class="b874e05c-d232-409b-bb0a-224841d1f49d" points="83.5 24.6 83.5 25.1 81.7 24 81.7 23.5 83.5 24.6"/><polygon class="af5b68e8-a645-4efa-8d0d-1171bcad9e2f" points="83.5 24.6 81.7 23.5 86.6 20.7 88.4 21.7 83.5 24.6"/><polygon class="af4e7c46-ee3d-4ca8-a74e-107cfc800161" points="88.4 21.7 92.2 23.9 94.3 22.6 94.3 23.2 92 24.5 88.2 22.3 83.5 25.1 83.5 24.6 88.4 21.7"/><polygon class="b874e05c-d232-409b-bb0a-224841d1f49d" points="94 24.9 96.2 23.7 98 24.7 95.8 26 94 24.9"/><polygon class="af4e7c46-ee3d-4ca8-a74e-107cfc800161" points="92.1 23.8 90.3 22.8 94 24.9 95.8 26 92.1 23.8"/><polygon class="b874e05c-d232-409b-bb0a-224841d1f49d" points="87.2 26.7 87.2 27.2 85.4 26.1 85.4 25.6 87.2 26.7"/><polygon class="af5b68e8-a645-4efa-8d0d-1171bcad9e2f" points="87.2 26.7 85.4 25.6 90.3 22.8 92.1 23.8 87.2 26.7"/><polygon class="af4e7c46-ee3d-4ca8-a74e-107cfc800161" points="92.1 23.8 95.8 26 98 24.7 98 25.2 95.6 26.6 91.9 24.4 87.2 27.2 87.2 26.7 92.1 23.8"/><path class="f87391ed-74f2-4e9e-aed1-81c39240eb48" d="M115,56.1,78.3,35h-6L35.9,56.1v7L72.6,84.2h6L115,63.1v-7Z" transform="translate(-25.5 -30.9)"/><g class="ae2e7996-05a8-4e89-ac33-2b82c2bba2d9"><path class="b967159c-75b4-4be4-b831-a4cc2ed64ed3" d="M35.9,59.6v0Z" transform="translate(-25.5 -30.9)"/><polygon class="e443de29-dbf4-417d-a49f-bd08b63f0e5b" points="89.4 28.7 89.4 32.1 53 53.3 53.1 49.8 89.4 28.7"/><polygon class="e443de29-dbf4-417d-a49f-bd08b63f0e5b" points="47 49.8 47 53.3 10.4 32.1 10.4 28.7 47 49.8"/><path class="b12892ae-563a-4226-8b23-efdf8f95c2d1" d="M78.6,80.8v3.4h-6V80.8Z" transform="translate(-25.5 -30.9)"/><path class="b967159c-75b4-4be4-b831-a4cc2ed64ed3" d="M115,56.1v3.5L78.6,80.8h-6L35.9,59.6V56.1L72.3,35h6Z" transform="translate(-25.5 -30.9)"/></g><path class="f87391ed-74f2-4e9e-aed1-81c39240eb48" d="M115,52.1,78.3,31h-6L35.9,52.1v7L72.6,80.2h6L115,59.1v-7Z" transform="translate(-25.5 -30.9)"/><g class="ae2e7996-05a8-4e89-ac33-2b82c2bba2d9"><path class="b967159c-75b4-4be4-b831-a4cc2ed64ed3" d="M35.9,55.6v0Z" transform="translate(-25.5 -30.9)"/><polygon class="e443de29-dbf4-417d-a49f-bd08b63f0e5b" points="89.4 24.6 89.4 28.1 53 49.3 53.1 45.8 89.4 24.6"/><polygon class="e443de29-dbf4-417d-a49f-bd08b63f0e5b" points="47 45.8 47 49.3 10.4 28.1 10.4 24.6 47 45.8"/><path class="b12892ae-563a-4226-8b23-efdf8f95c2d1" d="M78.6,76.7v3.5h-6V76.7Z" transform="translate(-25.5 -30.9)"/><path class="f40f03e9-ac28-4afd-bc82-0b7813e51fe1" d="M115,52.1v3.5L78.6,76.7h-6L35.9,55.6V52.1L72.3,30.9h6Z" transform="translate(-25.5 -30.9)"/></g><polygon class="b874e05c-d232-409b-bb0a-224841d1f49d" points="95.9 38.7 97.7 37.6 94 31.2 92.2 32.2 95.9 38.7"/><polygon class="af5b68e8-a645-4efa-8d0d-1171bcad9e2f" points="94 31.2 89.1 28.3 87.3 29.4 92.2 32.2 94 31.2"/><polygon class="b874e05c-d232-409b-bb0a-224841d1f49d" points="98.1 39.9 98.1 40.4 99.9 39.4 99.9 38.9 98.1 39.9"/><polygon class="af5b68e8-a645-4efa-8d0d-1171bcad9e2f" points="98.1 39.9 99.9 38.9 97.7 37.6 95.9 38.7 98.1 39.9"/><polygon class="af4e7c46-ee3d-4ca8-a74e-107cfc800161" points="95.9 38.7 92.2 32.2 87.3 29.4 87.3 29.9 92 32.6 95.7 39.1 98.1 40.4 98.1 39.9 95.9 38.7"/><polygon class="b874e05c-d232-409b-bb0a-224841d1f49d" points="92.3 40.8 94.1 39.7 90.4 33.3 88.6 34.3 92.3 40.8"/><polygon class="af5b68e8-a645-4efa-8d0d-1171bcad9e2f" points="90.4 33.3 85.5 30.4 83.7 31.5 88.6 34.3 90.4 33.3"/><polygon class="b874e05c-d232-409b-bb0a-224841d1f49d" points="94.4 42 94.4 42.5 96.2 41.5 96.2 41 94.4 42"/><polygon class="af5b68e8-a645-4efa-8d0d-1171bcad9e2f" points="94.4 42 96.2 41 94.1 39.7 92.3 40.8 94.4 42"/><polygon class="af4e7c46-ee3d-4ca8-a74e-107cfc800161" points="92.3 40.8 88.6 34.3 83.7 31.5 83.7 32 88.4 34.7 92.1 41.2 94.4 42.5 94.4 42 92.3 40.8"/><polygon class="b874e05c-d232-409b-bb0a-224841d1f49d" points="88.7 42.9 90.5 41.8 86.8 35.4 85 36.4 88.7 42.9"/><polygon class="af5b68e8-a645-4efa-8d0d-1171bcad9e2f" points="86.8 35.4 81.8 32.5 80 33.6 85 36.4 86.8 35.4"/><polygon class="b874e05c-d232-409b-bb0a-224841d1f49d" points="90.8 44.1 90.8 44.6 92.6 43.6 92.6 43.1 90.8 44.1"/><polygon class="af5b68e8-a645-4efa-8d0d-1171bcad9e2f" points="90.8 44.1 92.6 43.1 90.5 41.8 88.7 42.9 90.8 44.1"/><polygon class="af4e7c46-ee3d-4ca8-a74e-107cfc800161" points="88.7 42.9 85 36.4 80 33.6 80 34.1 84.8 36.8 88.5 43.3 90.8 44.6 90.8 44.1 88.7 42.9"/><polygon class="b874e05c-d232-409b-bb0a-224841d1f49d" points="85.1 45 86.9 43.9 83.2 37.5 81.4 38.5 85.1 45"/><polygon class="af5b68e8-a645-4efa-8d0d-1171bcad9e2f" points="83.2 37.5 78.2 34.6 76.4 35.7 81.4 38.5 83.2 37.5"/><polygon class="b874e05c-d232-409b-bb0a-224841d1f49d" points="87.2 46.2 87.2 46.7 89 45.7 89 45.2 87.2 46.2"/><polygon class="af5b68e8-a645-4efa-8d0d-1171bcad9e2f" points="87.2 46.2 89 45.2 86.9 43.9 85.1 45 87.2 46.2"/><polygon class="af4e7c46-ee3d-4ca8-a74e-107cfc800161" points="85.1 45 81.4 38.5 76.4 35.7 76.4 36.2 81.2 38.9 84.9 45.4 87.2 46.7 87.2 46.2 85.1 45"/><polygon class="b874e05c-d232-409b-bb0a-224841d1f49d" points="81.4 47.1 83.2 46 79.5 39.6 77.7 40.6 81.4 47.1"/><polygon class="af5b68e8-a645-4efa-8d0d-1171bcad9e2f" points="79.5 39.6 74.6 36.7 72.8 37.8 77.7 40.6 79.5 39.6"/><polygon class="b874e05c-d232-409b-bb0a-224841d1f49d" points="83.6 48.3 83.6 48.8 85.4 47.8 85.4 47.2 83.6 48.3"/><polygon class="af5b68e8-a645-4efa-8d0d-1171bcad9e2f" points="83.6 48.3 85.4 47.2 83.2 46 81.4 47.1 83.6 48.3"/><polygon class="af4e7c46-ee3d-4ca8-a74e-107cfc800161" points="81.4 47.1 77.7 40.6 72.8 37.8 72.8 38.3 77.5 41 81.3 47.5 83.6 48.8 83.6 48.3 81.4 47.1"/><polygon class="b874e05c-d232-409b-bb0a-224841d1f49d" points="77.8 49.2 79.6 48.1 75.9 41.7 74.1 42.7 77.8 49.2"/><polygon class="af5b68e8-a645-4efa-8d0d-1171bcad9e2f" points="75.9 41.7 71 38.8 69.2 39.9 74.1 42.7 75.9 41.7"/><polygon class="b874e05c-d232-409b-bb0a-224841d1f49d" points="80 50.4 80 50.9 81.8 49.9 81.8 49.4 80 50.4"/><polygon class="af5b68e8-a645-4efa-8d0d-1171bcad9e2f" points="80 50.4 81.8 49.4 79.6 48.1 77.8 49.2 80 50.4"/><polygon class="af4e7c46-ee3d-4ca8-a74e-107cfc800161" points="77.8 49.2 74.1 42.7 69.2 39.9 69.2 40.4 73.9 43.1 77.6 49.6 80 50.9 80 50.4 77.8 49.2"/><polygon class="b874e05c-d232-409b-bb0a-224841d1f49d" points="74.2 51.3 76 50.3 72.3 43.8 70.5 44.8 74.2 51.3"/><polygon class="af5b68e8-a645-4efa-8d0d-1171bcad9e2f" points="72.3 43.8 67.3 41 65.5 42 70.5 44.8 72.3 43.8"/><polygon class="b874e05c-d232-409b-bb0a-224841d1f49d" points="76.3 52.5 76.3 53 78.1 52 78.1 51.5 76.3 52.5"/><polygon class="af5b68e8-a645-4efa-8d0d-1171bcad9e2f" points="76.3 52.5 78.1 51.5 76 50.3 74.2 51.3 76.3 52.5"/><polygon class="af4e7c46-ee3d-4ca8-a74e-107cfc800161" points="74.2 51.3 70.5 44.8 65.5 42 65.5 42.5 70.3 45.3 74 51.7 76.3 53 76.3 52.5 74.2 51.3"/><polygon class="b874e05c-d232-409b-bb0a-224841d1f49d" points="70.6 53.4 72.4 52.3 68.7 45.9 66.9 46.9 70.6 53.4"/><polygon class="af5b68e8-a645-4efa-8d0d-1171bcad9e2f" points="68.7 45.9 63.7 43 61.9 44.1 66.9 46.9 68.7 45.9"/><polygon class="b874e05c-d232-409b-bb0a-224841d1f49d" points="72.7 54.6 72.7 55.1 74.5 54.1 74.5 53.6 72.7 54.6"/><polygon class="af5b68e8-a645-4efa-8d0d-1171bcad9e2f" points="72.7 54.6 74.5 53.6 72.4 52.3 70.6 53.4 72.7 54.6"/><polygon class="af4e7c46-ee3d-4ca8-a74e-107cfc800161" points="70.6 53.4 66.9 46.9 61.9 44.1 61.9 44.6 66.7 47.3 70.4 53.8 72.7 55.1 72.7 54.6 70.6 53.4"/><polygon class="b874e05c-d232-409b-bb0a-224841d1f49d" points="67 55.5 68.8 54.4 65.1 48 63.3 49 67 55.5"/><polygon class="af5b68e8-a645-4efa-8d0d-1171bcad9e2f" points="65.1 48 60.1 45.1 58.4 46.2 63.3 49 65.1 48"/><polygon class="b874e05c-d232-409b-bb0a-224841d1f49d" points="69.1 56.7 69.1 57.2 70.9 56.2 70.9 55.7 69.1 56.7"/><polygon class="af5b68e8-a645-4efa-8d0d-1171bcad9e2f" points="69.1 56.7 70.9 55.7 68.8 54.4 67 55.5 69.1 56.7"/><polygon class="af4e7c46-ee3d-4ca8-a74e-107cfc800161" points="67 55.5 63.3 49 58.4 46.2 58.3 46.7 63.1 49.4 66.8 55.9 69.1 57.2 69.1 56.7 67 55.5"/><polygon class="b874e05c-d232-409b-bb0a-224841d1f49d" points="63.4 57.6 65.2 56.6 61.4 50.1 59.6 51.1 63.4 57.6"/><polygon class="af5b68e8-a645-4efa-8d0d-1171bcad9e2f" points="61.4 50.1 56.5 47.3 54.7 48.3 59.6 51.1 61.4 50.1"/><polygon class="b874e05c-d232-409b-bb0a-224841d1f49d" points="65.5 58.8 65.5 59.3 67.3 58.3 67.3 57.8 65.5 58.8"/><polygon class="af5b68e8-a645-4efa-8d0d-1171bcad9e2f" points="65.5 58.8 67.3 57.8 65.2 56.6 63.4 57.6 65.5 58.8"/><polygon class="af4e7c46-ee3d-4ca8-a74e-107cfc800161" points="63.4 57.6 59.6 51.1 54.7 48.3 54.7 48.8 59.4 51.6 63.2 58 65.5 59.3 65.5 58.8 63.4 57.6"/><polygon class="b874e05c-d232-409b-bb0a-224841d1f49d" points="3.9 38.7 2.1 37.6 5.9 31.2 7.7 32.2 3.9 38.7"/><polygon class="af5b68e8-a645-4efa-8d0d-1171bcad9e2f" points="5.9 31.2 10.8 28.3 12.6 29.4 7.7 32.2 5.9 31.2"/><polygon class="b874e05c-d232-409b-bb0a-224841d1f49d" points="1.8 39.9 1.8 40.4 0 39.4 0 38.9 1.8 39.9"/><polygon class="af5b68e8-a645-4efa-8d0d-1171bcad9e2f" points="1.8 39.9 0 38.9 2.1 37.6 3.9 38.7 1.8 39.9"/><polygon class="af4e7c46-ee3d-4ca8-a74e-107cfc800161" points="3.9 38.7 7.7 32.2 12.6 29.4 12.6 29.9 7.8 32.6 4.1 39.1 1.8 40.4 1.8 39.9 3.9 38.7"/><polygon class="b874e05c-d232-409b-bb0a-224841d1f49d" points="7.5 40.8 5.7 39.7 9.5 33.3 11.3 34.3 7.5 40.8"/><polygon class="af5b68e8-a645-4efa-8d0d-1171bcad9e2f" points="9.5 33.3 14.4 30.4 16.2 31.5 11.3 34.3 9.5 33.3"/><polygon class="b874e05c-d232-409b-bb0a-224841d1f49d" points="5.4 42 5.4 42.5 3.6 41.5 3.6 41 5.4 42"/><polygon class="af5b68e8-a645-4efa-8d0d-1171bcad9e2f" points="5.4 42 3.6 41 5.7 39.7 7.5 40.8 5.4 42"/><polygon class="af4e7c46-ee3d-4ca8-a74e-107cfc800161" points="7.5 40.8 11.3 34.3 16.2 31.5 16.2 32 11.5 34.7 7.7 41.2 5.4 42.5 5.4 42 7.5 40.8"/><polygon class="b874e05c-d232-409b-bb0a-224841d1f49d" points="11.2 42.9 9.4 41.8 13.1 35.3 14.9 36.4 11.2 42.9"/><polygon class="af5b68e8-a645-4efa-8d0d-1171bcad9e2f" points="13.1 35.3 18.1 32.5 19.9 33.5 14.9 36.4 13.1 35.3"/><polygon class="b874e05c-d232-409b-bb0a-224841d1f49d" points="9.1 44.1 9.1 44.6 7.3 43.6 7.3 43 9.1 44.1"/><polygon class="af5b68e8-a645-4efa-8d0d-1171bcad9e2f" points="9.1 44.1 7.3 43 9.4 41.8 11.2 42.9 9.1 44.1"/><polygon class="af4e7c46-ee3d-4ca8-a74e-107cfc800161" points="11.2 42.9 14.9 36.4 19.9 33.5 19.9 34.1 15.1 36.8 11.4 43.3 9.1 44.6 9.1 44.1 11.2 42.9"/><polygon class="b874e05c-d232-409b-bb0a-224841d1f49d" points="14.8 45 13 43.9 16.8 37.5 18.6 38.5 14.8 45"/><polygon class="af5b68e8-a645-4efa-8d0d-1171bcad9e2f" points="16.8 37.5 21.7 34.6 23.5 35.7 18.6 38.5 16.8 37.5"/><polygon class="b874e05c-d232-409b-bb0a-224841d1f49d" points="12.7 46.2 12.7 46.7 10.9 45.7 10.9 45.2 12.7 46.2"/><polygon class="af5b68e8-a645-4efa-8d0d-1171bcad9e2f" points="12.7 46.2 10.9 45.2 13 43.9 14.8 45 12.7 46.2"/><polygon class="af4e7c46-ee3d-4ca8-a74e-107cfc800161" points="14.8 45 18.6 38.5 23.5 35.7 23.5 36.2 18.7 38.9 15 45.4 12.7 46.7 12.7 46.2 14.8 45"/><polygon class="b874e05c-d232-409b-bb0a-224841d1f49d" points="18.5 47.1 16.7 46 20.4 39.6 22.2 40.6 18.5 47.1"/><polygon class="af5b68e8-a645-4efa-8d0d-1171bcad9e2f" points="20.4 39.6 25.3 36.7 27.1 37.8 22.2 40.6 20.4 39.6"/><polygon class="b874e05c-d232-409b-bb0a-224841d1f49d" points="16.3 48.3 16.3 48.8 14.5 47.8 14.5 47.2 16.3 48.3"/><polygon class="af5b68e8-a645-4efa-8d0d-1171bcad9e2f" points="16.3 48.3 14.5 47.2 16.7 46 18.5 47.1 16.3 48.3"/><polygon class="af4e7c46-ee3d-4ca8-a74e-107cfc800161" points="18.5 47.1 22.2 40.6 27.1 37.8 27.1 38.3 22.4 41 18.6 47.5 16.3 48.8 16.3 48.3 18.5 47.1"/><polygon class="b874e05c-d232-409b-bb0a-224841d1f49d" points="22.1 49.2 20.3 48.1 24 41.7 25.8 42.7 22.1 49.2"/><polygon class="af5b68e8-a645-4efa-8d0d-1171bcad9e2f" points="24 41.7 29 38.8 30.8 39.9 25.8 42.7 24 41.7"/><polygon class="b874e05c-d232-409b-bb0a-224841d1f49d" points="20 50.4 20 50.9 18.2 49.9 18.2 49.4 20 50.4"/><polygon class="af5b68e8-a645-4efa-8d0d-1171bcad9e2f" points="20 50.4 18.2 49.4 20.3 48.1 22.1 49.2 20 50.4"/><polygon class="af4e7c46-ee3d-4ca8-a74e-107cfc800161" points="22.1 49.2 25.8 42.7 30.8 39.9 30.8 40.4 26 43.1 22.3 49.6 20 50.9 20 50.4 22.1 49.2"/><polygon class="b874e05c-d232-409b-bb0a-224841d1f49d" points="25.8 51.3 24 50.3 27.7 43.8 29.5 44.8 25.8 51.3"/><polygon class="af5b68e8-a645-4efa-8d0d-1171bcad9e2f" points="27.7 43.8 32.6 41 34.4 42 29.5 44.8 27.7 43.8"/><polygon class="b874e05c-d232-409b-bb0a-224841d1f49d" points="23.6 52.5 23.6 53 21.8 52 21.8 51.5 23.6 52.5"/><polygon class="af5b68e8-a645-4efa-8d0d-1171bcad9e2f" points="23.6 52.5 21.8 51.5 24 50.3 25.8 51.3 23.6 52.5"/><polygon class="af4e7c46-ee3d-4ca8-a74e-107cfc800161" points="25.8 51.3 29.5 44.8 34.4 42 34.4 42.5 29.7 45.3 25.9 51.7 23.6 53 23.6 52.5 25.8 51.3"/><polygon class="b874e05c-d232-409b-bb0a-224841d1f49d" points="29.4 53.4 27.6 52.3 31.3 45.9 33.1 46.9 29.4 53.4"/><polygon class="af5b68e8-a645-4efa-8d0d-1171bcad9e2f" points="31.3 45.9 36.2 43 38 44.1 33.1 46.9 31.3 45.9"/><polygon class="b874e05c-d232-409b-bb0a-224841d1f49d" points="27.3 54.6 27.3 55.1 25.5 54.1 25.5 53.6 27.3 54.6"/><polygon class="af5b68e8-a645-4efa-8d0d-1171bcad9e2f" points="27.3 54.6 25.5 53.6 27.6 52.3 29.4 53.4 27.3 54.6"/><polygon class="af4e7c46-ee3d-4ca8-a74e-107cfc800161" points="29.4 53.4 33.1 46.9 38 44.1 38 44.6 33.3 47.3 29.6 53.8 27.3 55.1 27.3 54.6 29.4 53.4"/><polygon class="b874e05c-d232-409b-bb0a-224841d1f49d" points="33 55.5 31.2 54.4 35 48 36.8 49 33 55.5"/><polygon class="af5b68e8-a645-4efa-8d0d-1171bcad9e2f" points="35 48 39.9 45.1 41.7 46.2 36.8 49 35 48"/><polygon class="b874e05c-d232-409b-bb0a-224841d1f49d" points="30.9 56.7 30.9 57.2 29.1 56.2 29.1 55.7 30.9 56.7"/><polygon class="af5b68e8-a645-4efa-8d0d-1171bcad9e2f" points="30.9 56.7 29.1 55.7 31.2 54.4 33 55.5 30.9 56.7"/><polygon class="af4e7c46-ee3d-4ca8-a74e-107cfc800161" points="33 55.5 36.8 49 41.7 46.2 41.7 46.7 36.9 49.4 33.2 55.9 30.9 57.2 30.9 56.7 33 55.5"/><polygon class="b874e05c-d232-409b-bb0a-224841d1f49d" points="36.7 57.6 34.9 56.6 38.6 50.1 40.4 51.1 36.7 57.6"/><polygon class="af5b68e8-a645-4efa-8d0d-1171bcad9e2f" points="38.6 50.1 43.5 47.3 45.3 48.3 40.4 51.1 38.6 50.1"/><polygon class="b874e05c-d232-409b-bb0a-224841d1f49d" points="34.5 58.8 34.5 59.3 32.8 58.3 32.7 57.8 34.5 58.8"/><polygon class="af5b68e8-a645-4efa-8d0d-1171bcad9e2f" points="34.5 58.8 32.7 57.8 34.9 56.6 36.7 57.6 34.5 58.8"/><polygon class="af4e7c46-ee3d-4ca8-a74e-107cfc800161" points="36.7 57.6 40.4 51.1 45.3 48.3 45.3 48.8 40.6 51.6 36.9 58 34.5 59.3 34.5 58.8 36.7 57.6"/></svg>