<svg id="e3671fa8-2e68-4a98-89ff-514fc2fd6058" data-name="Layer 1" xmlns="http://www.w3.org/2000/svg" viewBox="0 0 34 68.3"><defs><style>.a20a6007-7084-4049-914a-661b9aeb53c3{fill:#a0a0a0;}.befda386-6c7a-4e26-b590-1eff1b672177{fill:#ccc;}.b9ef4b6c-2a64-4376-9015-6893b9055c43{fill:#0060ad;}.b9ce1ebe-d15e-4397-9efe-d827a5110370{fill:#1377d9;}.aa6da21a-eb1c-476e-9a14-647b2d1ddd3d{fill:#004b95;}.a31ff205-167a-4120-be8f-7232624a46ce{fill:#a9d4ff;}.e118bd94-8599-4f14-aff4-df75cc30a486{fill:#e0e0e0;}.eb2b63a6-842b-48d4-9cd7-cad81bc0b220{fill:#596177;}.e15e7fee-aa3d-41d1-9a6b-b8645680c90b{fill:#fff;}</style></defs><path class="a20a6007-7084-4049-914a-661b9aeb53c3" d="M176.5,80.9a.5.5,0,0,0-.3-.4,1.3,1.3,0,0,0-1.2,0,.5.5,0,0,0-.3.4h0V95.2a.5.5,0,0,0,.3.4,1.3,1.3,0,0,0,1.2,0,.5.5,0,0,0,.3-.4V80.9Z" transform="translate(-169.2 -27.4)"/><path class="a20a6007-7084-4049-914a-661b9aeb53c3" d="M197.9,80.9a.8.8,0,0,0-.2-.4,1.5,1.5,0,0,0-1.3,0,.8.8,0,0,0-.2.4h0V95.2l.2.4a1.5,1.5,0,0,0,1.3,0,.8.8,0,0,0,.2-.4V80.9Z" transform="translate(-169.2 -27.4)"/><path class="befda386-6c7a-4e26-b590-1eff1b672177" d="M186.3,87.6a23.6,23.6,0,0,1-11.9-2.9l-1.2-.7-.2-.2-.2-.2-.6-.4-.3-.3-.2-.2-.4-.4-.2-.3-.2-.2-.3-.4c-.1-.1-.2-.2-.2-.3l-.2-.3a.5.5,0,0,1-.2-.4l-.2-.3v-.3c0-.1-.1-.2-.1-.4a.4.4,0,0,1-.1-.3v-.3c0-.1-.1-.2-.1-.4v-1c0-2.8,1.8-5.4,5.1-7.4A26.5,26.5,0,0,1,198,70c3.6,2.1,5.4,5,5.2,8h0a.4.4,0,0,1-.1.3.9.9,0,0,1-.1.5v.2c0,.1-.1.2-.1.4l-.2.4v.2c0,.1-.1.2-.1.4l-.3.4v.2l-.2.3-.3.4-.2.2-.2.3-.4.4-.3.2-.2.3-.6.5h-.2l-.2.2-1.2.7a23.4,23.4,0,0,1-11.8,2.9Z" transform="translate(-169.2 -27.4)"/><path class="b9ef4b6c-2a64-4376-9015-6893b9055c43" d="M202.3,75v.4c0,.2-.1.3-.1.5v.4l-.2.5-.2.4-.3.5-.2.3-.4.5-.3.4-.4.4-.4.4-.6.5-.3.2-1.1.7c-6.3,3.7-16.5,3.7-22.9,0l-1.1-.7-.3-.3-.7-.5-.3-.3c-.2-.1-.3-.3-.5-.5l-.3-.3-.3-.5-.3-.4-.3-.5c0-.1-.1-.2-.1-.4a2,2,0,0,1-.3-.8c-.1-.2-.1-.4-.2-.5v-.9h0v2.7c0,2.4,1.6,4.8,4.8,6.6,6.3,3.7,16.6,3.7,22.8,0,3.2-1.8,4.7-4.2,4.7-6.5V74.5A.9.9,0,0,1,202.3,75Z" transform="translate(-169.2 -27.4)"/><path class="b9ce1ebe-d15e-4397-9efe-d827a5110370" d="M170.1,75v.4c.1.1.1.3.2.5a2,2,0,0,0,.3.8c0,.2.1.3.1.4l.3.5.3.4.3.5.3.3c.2.2.3.4.5.5l.3.3.7.5.3.3,1.1.7c6.4,3.7,16.6,3.7,22.9,0l1.1-.7.3-.2.6-.5.4-.4.4-.4.3-.4.4-.5.2-.3.3-.5.2-.4.2-.5v-.4c0-.2.1-.3.1-.5V75c.3-2.6-1.3-5.2-4.7-7.1-6.3-3.7-16.6-3.7-22.8,0-3.2,1.8-4.7,4.2-4.7,6.6Z" transform="translate(-169.2 -27.4)"/><path class="aa6da21a-eb1c-476e-9a14-647b2d1ddd3d" d="M200.6,44.8v.4a.8.8,0,0,0-.1.4.8.8,0,0,0-.1.4c-.1.2-.1.3-.2.4a.8.8,0,0,0-.1.4l-.3.4c-.1.1-.1.2-.2.4l-.3.4-.3.3-.4.4-.3.3-.6.5-.3.2-.9.6c-5.7,3.3-14.8,3.3-20.4,0l-1-.6c-.2-.1-.2-.2-.3-.3l-.6-.4-.3-.3c-.2-.1-.3-.3-.4-.4l-.3-.3-.3-.5-.2-.3-.3-.4c-.1-.1-.1-.3-.2-.4s-.1-.3-.1-.4a.6.6,0,0,1-.1-.4.6.6,0,0,1-.1-.4.6.6,0,0,1-.1-.4v-.4h0V73.7c0,2.2,1.4,4.3,4.2,6,5.7,3.2,14.8,3.2,20.4,0,2.8-1.6,4.2-3.8,4.2-5.9v-29Z" transform="translate(-169.2 -27.4)"/><path class="b9ef4b6c-2a64-4376-9015-6893b9055c43" d="M202.3,37.2v.5c0,.1-.1.3-.1.4s-.1.3-.1.4-.1.4-.2.5-.1.3-.2.4l-.3.5c0,.1-.1.2-.2.4s-.2.3-.4.4l-.3.4-.4.5-.4.3-.6.5-.3.2-1.1.8c-6.3,3.6-16.5,3.6-22.9,0l-1.1-.8-.3-.2-.7-.5-.3-.3-.5-.5-.3-.4-.3-.5-.3-.3-.3-.5c0-.1-.1-.3-.1-.4s-.2-.3-.2-.5a.6.6,0,0,1-.1-.4l-.2-.5v-.9h0V69.6c0,2.4,1.6,4.8,4.8,6.7,6.3,3.6,16.6,3.6,22.8,0,3.2-1.9,4.7-4.2,4.7-6.6V36.8A.6.6,0,0,1,202.3,37.2Z" transform="translate(-169.2 -27.4)"/><path class="b9ce1ebe-d15e-4397-9efe-d827a5110370" d="M170.1,37.2v.4l.2.5a.6.6,0,0,0,.1.4c0,.2.1.3.2.5s.1.3.1.4l.3.5.3.3.3.5.3.4.5.5.3.3.7.5.3.2,1.1.8c6.4,3.6,16.6,3.6,22.9,0l1.1-.8.3-.2.6-.5.4-.3.4-.5.3-.4c.2-.1.3-.3.4-.4s.2-.3.2-.4l.3-.5c.1-.1.1-.2.2-.4s.1-.3.2-.5.1-.2.1-.4.1-.3.1-.4v-.5c.3-2.5-1.3-5.1-4.7-7.1-6.3-3.6-16.6-3.6-22.8,0-3.2,1.8-4.7,4.2-4.7,6.6Z" transform="translate(-169.2 -27.4)"/><path class="a31ff205-167a-4120-be8f-7232624a46ce" d="M170.1,36.9a1.8,1.8,0,0,0,.1.5,1.1,1.1,0,0,0,.1.5,6.4,6.4,0,0,1,.2.7c0,.1.1.2.2.4s.1.2.2.4h.1l.2.2.3.4.4.5c.1.1.2.3.4.4l.4.4.3.3h.3l1.1.8.7.4.7.3a28.5,28.5,0,0,0,3.1,1.2,18.6,18.6,0,0,0,3.4.7c1.2.2,2.5.2,3.7.3h3.6l1.8-.3,1.7-.4a22.6,22.6,0,0,0,3.1-1l1.4-.7.6-.3.3-.2.3-.2.6-.4.4-.4.5-.4c.1-.2.3-.3.4-.4s.3-.3.3-.5l.3-.4.3-.4c0-.1.1-.2.2-.3s.3-.9.4-1.2a1.6,1.6,0,0,0,.1-.4h.1a1.6,1.6,0,0,1-.1.4,1.5,1.5,0,0,1-.1.6.4.4,0,0,1-.1.3c0,.1-.1.2-.1.4a5.9,5.9,0,0,1-.4.8l-.6.9-.4.4-.4.5-1.1.9a12.8,12.8,0,0,1-2.6,1.6l-3.2,1.2-1.7.4-1.9.3-1.8.2H186a23.4,23.4,0,0,1-3.8-.3l-3.5-.8L175.5,44l-.7-.4-.7-.4a9.4,9.4,0,0,1-1.2-.9,7.6,7.6,0,0,1-.9-.9,3.9,3.9,0,0,1-.8-1l-.6-.9-.3-.8c-.1-.3-.1-.5-.2-.8v-1Z" transform="translate(-169.2 -27.4)"/><path class="aa6da21a-eb1c-476e-9a14-647b2d1ddd3d" d="M177.5,33.5c4.8-2.8,12.6-2.8,17.4,0a6.8,6.8,0,0,1,3.5,4.2c0-.1.1-.2.1-.3v-.3c.2-2-1-4-3.6-5.4-4.8-2.8-12.6-2.8-17.4-.1-2.4,1.4-3.6,3.3-3.6,5.1V37a.6.6,0,0,0,.1.4v.2A7,7,0,0,1,177.5,33.5Z" transform="translate(-169.2 -27.4)"/><path class="e118bd94-8599-4f14-aff4-df75cc30a486" d="M194.2,33.2a19.6,19.6,0,0,0-15.9-.1l8,4.6Z" transform="translate(-169.2 -27.4)"/><path class="e118bd94-8599-4f14-aff4-df75cc30a486" d="M195.1,33.7l-7.9,4.5,6.9,4,.9-.5.8-.5.2-.2a1,1,0,0,0,.5-.4l.3-.2.3-.4.2-.3.3-.3.2-.3a.5.5,0,0,0,.2-.4.4.4,0,0,0,.1-.3c.1-.1.2-.2.2-.3s.1-.2.1-.3h0A6.2,6.2,0,0,0,195.1,33.7Z" transform="translate(-169.2 -27.4)"/><path class="e118bd94-8599-4f14-aff4-df75cc30a486" d="M177.4,33.6a6.8,6.8,0,0,0-3.4,4,.1.1,0,0,0,.1.1V38c.1.2.1.3.2.4s.1.2.1.3a.8.8,0,0,1,.2.4c.1.1.2.2.2.3l.3.3.2.3.4.4.3.2.4.4.3.2.8.5,1,.5,6.9-4Z" transform="translate(-169.2 -27.4)"/><path class="e118bd94-8599-4f14-aff4-df75cc30a486" d="M179.6,42.7a20.2,20.2,0,0,0,13.5-.1l-6.8-3.8Z" transform="translate(-169.2 -27.4)"/><path class="eb2b63a6-842b-48d4-9cd7-cad81bc0b220" d="M195.1,33.7l-.2-.2-.7-.3-7.9,4.5-8-4.6-.8.4h-.1l8,4.6-6.9,4,1.1.5,6.7-3.9,6.8,3.8,1-.4-6.9-4Z" transform="translate(-169.2 -27.4)"/><path class="e15e7fee-aa3d-41d1-9a6b-b8645680c90b" d="M174.9,67.5c-3.2-1.9-4.9-4.4-4.9-6.9v1.5c0,2.5,1.7,5,4.9,6.9,6.5,3.7,17,3.7,23.5,0l.4-.3V67.2l-.4.3C191.9,71.2,181.4,71.2,174.9,67.5Z" transform="translate(-169.2 -27.4)"/><path class="e15e7fee-aa3d-41d1-9a6b-b8645680c90b" d="M198.9,64.2l-.5.3c-6.5,3.7-17,3.7-23.5,0-3.2-1.9-4.9-4.4-4.8-6.9v1.5c0,2.5,1.7,5,4.9,6.9,6.5,3.7,17,3.7,23.5,0l.5-.3Z" transform="translate(-169.2 -27.4)"/><path class="e15e7fee-aa3d-41d1-9a6b-b8645680c90b" d="M198.9,61.2l-.5.3c-6.5,3.7-17,3.7-23.4,0-3.3-1.9-4.9-4.4-4.9-6.9v1.5c-.1,2.5,1.6,5,4.8,6.9,6.5,3.7,17,3.7,23.5,0l.5-.3Z" transform="translate(-169.2 -27.4)"/><path class="e15e7fee-aa3d-41d1-9a6b-b8645680c90b" d="M198.9,58.2l-.5.3c-6.5,3.7-16.9,3.7-23.4,0-3.3-1.9-4.9-4.4-4.9-6.9v1.5c0,2.5,1.6,5,4.9,6.9,6.5,3.7,16.9,3.7,23.4,0l.5-.3Z" transform="translate(-169.2 -27.4)"/><path class="e15e7fee-aa3d-41d1-9a6b-b8645680c90b" d="M198.9,55.2l-.5.3c-6.4,3.7-16.9,3.7-23.4,0-3.3-1.9-4.9-4.4-4.9-6.9v1.5c0,2.5,1.6,5,4.9,6.9,6.5,3.7,17,3.7,23.4,0l.5-.3Z" transform="translate(-169.2 -27.4)"/><path class="e15e7fee-aa3d-41d1-9a6b-b8645680c90b" d="M198.9,52.2l-.5.3c-6.4,3.7-16.9,3.7-23.4,0-3.3-1.9-4.9-4.4-4.9-6.9v1.5c0,2.5,1.6,5,4.9,6.9,6.5,3.7,17,3.7,23.4,0l.5-.3Z" transform="translate(-169.2 -27.4)"/><path class="e15e7fee-aa3d-41d1-9a6b-b8645680c90b" d="M175,49.5c-3.3-1.9-4.9-4.4-4.9-6.9v1.5c0,2.5,1.6,5,4.9,6.9,6.5,3.7,17,3.7,23.4,0l.5-.3V49.2l-.5.3C192,53.2,181.5,53.2,175,49.5Z" transform="translate(-169.2 -27.4)"/></svg>