<svg id="a8a5ffce-a68a-4b08-9fff-acb63a732db7" data-name="Layer 1" xmlns="http://www.w3.org/2000/svg" viewBox="0 0 64.4 80.9"><defs><style>.fbb0599a-135e-4e85-b39f-8b66f87f95e2{fill:#ccc;}.a7d867b4-6563-4dcf-8b5e-bdbb934dcc92{fill:#676767;}.e403d530-b268-42bb-9995-dc0ed0e993c2{fill:#a0a0a0;}.bef928bd-18d3-4be0-b8d6-4b0890df493f{fill:#545454;}.ba16db4c-d34e-421b-b4a2-95039b5d2650{isolation:isolate;}.b1e36d17-5e24-47d5-b598-555011c1ba57{fill:#292c36;}.b03fbae3-6b07-4076-bd28-c46f3ca0aea6{fill:#373c48;}.bf112646-c04a-4ebd-a98c-db305db2d847{fill:#4e5463;}.ffee32e4-ba33-4277-9517-ab3609cc23ee{fill:#596177;}.a5b869a2-76fb-4325-86eb-e060dbcc9dd5{fill:#772020;}.bc281ab7-7671-47fa-a13a-b9b474d67a68{fill:#ce2020;}.f986ab84-8706-4af3-98a6-c9fa09035c1a{fill:#f74141;}.ab9da49e-039c-4867-8bb4-683f0aa1e0b5{fill:#6a6a6a;}.fb8ef521-8fa6-47d0-9169-1625c33024c8{fill:#424242;}.b8c4806d-6731-4ab1-aef5-ba7ed72cd4a6{fill:#e0e0e0;}.a890fac1-2174-46ee-944d-155f3a3b86a1{fill:#fff;}</style></defs><polygon class="fbb0599a-135e-4e85-b39f-8b66f87f95e2" points="28.5 44.6 26.3 43.4 19.4 47.4 21.5 48.6 28.5 44.6"/><polygon class="a7d867b4-6563-4dcf-8b5e-bdbb934dcc92" points="25.3 46.5 32.2 42.5 23.3 47.6 21.5 48.6 25.3 46.5"/><polygon class="fbb0599a-135e-4e85-b39f-8b66f87f95e2" points="30.2 49.3 30.2 49.9 37.1 45.8 37.1 45.3 30.2 49.3"/><polygon class="e403d530-b268-42bb-9995-dc0ed0e993c2" points="30.2 49.3 37.1 45.3 32.2 42.5 25.3 46.5 30.2 49.3"/><polygon class="a7d867b4-6563-4dcf-8b5e-bdbb934dcc92" points="25.3 46.5 21.5 48.6 19.4 47.4 19.4 47.9 21.7 49.3 25.5 47.1 30.2 49.9 30.2 49.3 25.3 46.5"/><polygon class="fbb0599a-135e-4e85-b39f-8b66f87f95e2" points="19.3 50.3 17.1 49.1 10.2 53.2 12.3 54.4 19.3 50.3"/><polygon class="a7d867b4-6563-4dcf-8b5e-bdbb934dcc92" points="16.1 52.2 23 48.2 14.1 53.3 12.3 54.4 16.1 52.2"/><polygon class="fbb0599a-135e-4e85-b39f-8b66f87f95e2" points="21 55.1 21 55.6 27.9 51.6 27.9 51.1 21 55.1"/><polygon class="e403d530-b268-42bb-9995-dc0ed0e993c2" points="21 55.1 27.9 51.1 23 48.2 16.1 52.2 21 55.1"/><polygon class="a7d867b4-6563-4dcf-8b5e-bdbb934dcc92" points="16.1 52.2 12.3 54.4 10.2 53.2 10.2 53.7 12.5 55 16.3 52.9 21 55.6 21 55.1 16.1 52.2"/><polygon class="fbb0599a-135e-4e85-b39f-8b66f87f95e2" points="9.8 56.1 7.7 54.9 0.7 58.9 2.9 60.1 9.8 56.1"/><polygon class="a7d867b4-6563-4dcf-8b5e-bdbb934dcc92" points="6.6 58 13.5 54 4.7 59.1 2.9 60.1 6.6 58"/><polygon class="fbb0599a-135e-4e85-b39f-8b66f87f95e2" points="11.5 60.8 11.5 61.3 18.5 57.3 18.5 56.8 11.5 60.8"/><polygon class="e403d530-b268-42bb-9995-dc0ed0e993c2" points="11.5 60.8 18.5 56.8 13.5 54 6.6 58 11.5 60.8"/><polygon class="a7d867b4-6563-4dcf-8b5e-bdbb934dcc92" points="6.6 58 2.9 60.1 0.7 58.9 0.7 59.4 3 60.8 6.8 58.6 11.5 61.3 11.5 60.8 6.6 58"/><path class="bef928bd-18d3-4be0-b8d6-4b0890df493f" d="M47.2,398.2l29.1-16.8h6l9.9,5.7v7L63,410.9H57l-9.8-5.7v-3.5C47.2,400.4,47.2,399.6,47.2,398.2Z" transform="translate(-37.6 -336.1)"/><g class="ba16db4c-d34e-421b-b4a2-95039b5d2650"><path class="b1e36d17-5e24-47d5-b598-555011c1ba57" d="M92.1,390.6v-3.5C92.2,388.5,92.2,389.2,92.1,390.6Z" transform="translate(-37.6 -336.1)"/><polygon class="b03fbae3-6b07-4076-bd28-c46f3ca0aea6" points="9.5 65.6 9.5 69.1 19.4 74.8 19.4 71.3 9.5 65.6"/><polygon class="b03fbae3-6b07-4076-bd28-c46f3ca0aea6" points="25.4 71.3 25.4 74.8 54.5 58 54.5 54.5 25.4 71.3"/><path class="bf112646-c04a-4ebd-a98c-db305db2d847" d="M57,407.4v3.5h6v-3.5Z" transform="translate(-37.6 -336.1)"/><path class="b1e36d17-5e24-47d5-b598-555011c1ba57" d="M47.2,398.2c0,1.4,0,2.1-.1,3.5l9.9,5.7h6l29.1-16.8c.1-1.4.1-2.1.1-3.5l-9.9-5.7h-6Z" transform="translate(-37.6 -336.1)"/></g><path class="bef928bd-18d3-4be0-b8d6-4b0890df493f" d="M47.2,394.2l29.1-16.8h6l9.9,5.7V390L63,406.9H57l-9.8-5.7v-3.5C47.2,396.3,47.2,395.6,47.2,394.2Z" transform="translate(-37.6 -336.1)"/><g class="ba16db4c-d34e-421b-b4a2-95039b5d2650"><path class="b1e36d17-5e24-47d5-b598-555011c1ba57" d="M92.1,386.6v-3.5C92.2,384.4,92.2,385.2,92.1,386.6Z" transform="translate(-37.6 -336.1)"/><polygon class="b03fbae3-6b07-4076-bd28-c46f3ca0aea6" points="9.5 61.6 9.5 65.1 19.4 70.8 19.4 67.3 9.5 61.6"/><polygon class="b03fbae3-6b07-4076-bd28-c46f3ca0aea6" points="25.4 67.3 25.4 70.8 54.5 54 54.5 50.5 25.4 67.3"/><path class="bf112646-c04a-4ebd-a98c-db305db2d847" d="M57,403.4v3.5h6v-3.5Z" transform="translate(-37.6 -336.1)"/><path class="ffee32e4-ba33-4277-9517-ab3609cc23ee" d="M47.2,394.2c0,1.4,0,2.1-.1,3.5l9.9,5.7h6l29.1-16.8c.1-1.4.1-2.2.1-3.5l-9.9-5.7h-6Z" transform="translate(-37.6 -336.1)"/></g><rect class="fbb0599a-135e-4e85-b39f-8b66f87f95e2" x="71" y="406.2" width="8" height="7.46" transform="translate(-232.9 -243.4) rotate(-30.1)"/><polygon class="e403d530-b268-42bb-9995-dc0ed0e993c2" points="39 68.7 34 65.8 27.1 69.8 32 72.7 39 68.7"/><polygon class="fbb0599a-135e-4e85-b39f-8b66f87f95e2" points="37.9 80.4 37.9 80.9 44.8 76.9 44.8 76.4 37.9 80.4"/><polygon class="e403d530-b268-42bb-9995-dc0ed0e993c2" points="37.9 80.4 44.8 76.4 42.7 75.1 35.8 79.1 37.9 80.4"/><polygon class="a7d867b4-6563-4dcf-8b5e-bdbb934dcc92" points="35.8 79.1 32 72.7 27.1 69.8 27.1 70.3 31.9 73.1 35.6 79.5 37.9 80.9 37.9 80.4 35.8 79.1"/><rect class="fbb0599a-135e-4e85-b39f-8b66f87f95e2" x="90.5" y="394.9" width="8" height="7.46" transform="translate(-224.6 -235.1) rotate(-30.1)"/><polygon class="e403d530-b268-42bb-9995-dc0ed0e993c2" points="58.5 57.4 53.6 54.5 46.7 58.5 51.6 61.4 58.5 57.4"/><polygon class="fbb0599a-135e-4e85-b39f-8b66f87f95e2" points="57.4 69.1 57.4 69.6 64.4 65.6 64.4 65.1 57.4 69.1"/><polygon class="e403d530-b268-42bb-9995-dc0ed0e993c2" points="57.4 69.1 64.4 65.1 62.2 63.8 55.3 67.8 57.4 69.1"/><polygon class="a7d867b4-6563-4dcf-8b5e-bdbb934dcc92" points="55.3 67.8 51.6 61.4 46.7 58.5 46.7 59 51.4 61.8 55.1 68.2 57.4 69.6 57.4 69.1 55.3 67.8"/><rect class="fbb0599a-135e-4e85-b39f-8b66f87f95e2" x="81" y="400.4" width="8" height="7.46" transform="translate(-228.6 -239.2) rotate(-30)"/><polygon class="e403d530-b268-42bb-9995-dc0ed0e993c2" points="49 62.9 44.1 60 37.1 64 42.1 66.9 49 62.9"/><polygon class="fbb0599a-135e-4e85-b39f-8b66f87f95e2" points="47.9 74.6 47.9 75.1 54.8 71.1 54.8 70.6 47.9 74.6"/><polygon class="e403d530-b268-42bb-9995-dc0ed0e993c2" points="47.9 74.6 54.8 70.6 52.7 69.3 45.8 73.3 47.9 74.6"/><polygon class="a7d867b4-6563-4dcf-8b5e-bdbb934dcc92" points="45.8 73.3 42.1 66.9 37.1 64 37.1 64.6 41.9 67.3 45.6 73.8 47.9 75.1 47.9 74.6 45.8 73.3"/><path class="b03fbae3-6b07-4076-bd28-c46f3ca0aea6" d="M53.3,394.6a3.8,3.8,0,0,0-3.6,0,1.6,1.6,0,0,0-.6.8H49a1.4,1.4,0,0,1,.7-1.2,4.1,4.1,0,0,1,3.6,0,1.3,1.3,0,0,1,.7,1v.2h-.1C53.9,395.1,53.6,394.8,53.3,394.6Z" transform="translate(-37.6 -336.1)"/><path class="fbb0599a-135e-4e85-b39f-8b66f87f95e2" d="M53.8,395.6a.3.3,0,0,0-.1.2h-.1l-.3.3a4.5,4.5,0,0,1-3.6,0l-.3-.3h-.1a.3.3,0,0,0-.1-.2.1.1,0,0,0-.1-.1h0a1.6,1.6,0,0,1,.6-.8,3.8,3.8,0,0,1,3.6,0c.3.2.6.5.6.7v.2A.1.1,0,0,0,53.8,395.6Z" transform="translate(-37.6 -336.1)"/><path class="b03fbae3-6b07-4076-bd28-c46f3ca0aea6" d="M90.2,383.8a3.6,3.6,0,0,0-3.5,0,1.3,1.3,0,0,0-.7.8h0a1.2,1.2,0,0,1,.7-1.2,4.3,4.3,0,0,1,3.5,0,1.4,1.4,0,0,1,.8,1c0,.1,0,.2-.1.2h0A1.5,1.5,0,0,0,90.2,383.8Z" transform="translate(-37.6 -336.1)"/><path class="fbb0599a-135e-4e85-b39f-8b66f87f95e2" d="M90.8,384.8l-.2.2h0l-.4.3a4.3,4.3,0,0,1-3.5,0l-.3-.3h-.1c0-.1-.1-.1-.1-.2a.1.1,0,0,1-.1-.1H86a1.3,1.3,0,0,1,.7-.8,3.6,3.6,0,0,1,3.5,0,1.5,1.5,0,0,1,.7.7c0,.1,0,.1-.1.2Z" transform="translate(-37.6 -336.1)"/><path class="b03fbae3-6b07-4076-bd28-c46f3ca0aea6" d="M81.1,379a3.6,3.6,0,0,0-3.5,0,1.3,1.3,0,0,0-.7.8h0a1.2,1.2,0,0,1,.7-1.2,4.3,4.3,0,0,1,3.5,0,1.4,1.4,0,0,1,.8,1v.2h-.1A1.5,1.5,0,0,0,81.1,379Z" transform="translate(-37.6 -336.1)"/><path class="bf112646-c04a-4ebd-a98c-db305db2d847" d="M81.7,380c0,.1-.1.1-.2.2h0l-.4.3a4.3,4.3,0,0,1-3.5,0l-.3-.3h-.1c0-.1-.1-.1-.1-.2a.1.1,0,0,1-.1-.1h-.1a1.3,1.3,0,0,1,.7-.8,3.6,3.6,0,0,1,3.5,0,1.5,1.5,0,0,1,.7.7c0,.1,0,.1-.1.2Z" transform="translate(-37.6 -336.1)"/><path class="b03fbae3-6b07-4076-bd28-c46f3ca0aea6" d="M61.8,400.3a3.9,3.9,0,0,0-3.5,0,1.3,1.3,0,0,0-.7.8h0c-.1-.4.1-.8.7-1.2a4.3,4.3,0,0,1,3.5,0,1.3,1.3,0,0,1,.7,1.1h0A1.5,1.5,0,0,0,61.8,400.3Z" transform="translate(-37.6 -336.1)"/><path class="bf112646-c04a-4ebd-a98c-db305db2d847" d="M62.3,401.3c0,.1-.1.1-.1.2a.1.1,0,0,0-.1.1l-.3.2a3.9,3.9,0,0,1-3.5,0l-.4-.2h0l-.2-.2h-.1a1.3,1.3,0,0,1,.7-.8,3.9,3.9,0,0,1,3.5,0,1.5,1.5,0,0,1,.7.7c0,.1-.1.1-.1.2A.1.1,0,0,1,62.3,401.3Z" transform="translate(-37.6 -336.1)"/><path class="fbb0599a-135e-4e85-b39f-8b66f87f95e2" d="M76.2,381.2,55,393.6l8.7,5.1L85,386.3ZM63.7,398.1l-7.8-4.5,20.3-11.8,7.9,4.5Z" transform="translate(-37.6 -336.1)"/><path class="bef928bd-18d3-4be0-b8d6-4b0890df493f" d="M96.3,351.8,69.1,336.1H64.7L37.6,351.8V357l27.2,15.7h4.5l27-15.7v-5.2Z" transform="translate(-37.6 -336.1)"/><g class="ba16db4c-d34e-421b-b4a2-95039b5d2650"><path class="b1e36d17-5e24-47d5-b598-555011c1ba57" d="M37.6,354.4v0Z" transform="translate(-37.6 -336.1)"/><polygon class="a5b869a2-76fb-4325-86eb-e060dbcc9dd5" points="58.7 18.3 58.7 20.9 31.7 36.6 31.7 34 58.7 18.3"/><polygon class="a5b869a2-76fb-4325-86eb-e060dbcc9dd5" points="27.2 34 27.2 36.6 0 20.9 0 18.3 27.2 34"/><path class="bc281ab7-7671-47fa-a13a-b9b474d67a68" d="M69.3,370.1v2.5H64.8v-2.5Z" transform="translate(-37.6 -336.1)"/><path class="f986ab84-8706-4af3-98a6-c9fa09035c1a" d="M96.3,351.8v2.6l-27,15.7H64.8L37.6,354.4v-2.6l27.1-15.7h4.4Z" transform="translate(-37.6 -336.1)"/></g><path class="ab9da49e-039c-4867-8bb4-683f0aa1e0b5" d="M48.4,345.5v0Z" transform="translate(-37.6 -336.1)"/><polygon class="e403d530-b268-42bb-9995-dc0ed0e993c2" points="34.8 23.3 34.8 28.1 47.9 20.5 48 15.7 34.8 23.3"/><polygon class="fb8ef521-8fa6-47d0-9169-1625c33024c8" points="10.8 15.7 10.8 20.5 24 28.1 24 23.3 10.8 15.7"/><path class="a7d867b4-6563-4dcf-8b5e-bdbb934dcc92" d="M64.5,359.4H61.6v4.8H72.5v-4.8Z" transform="translate(-37.6 -336.1)"/><path class="fbb0599a-135e-4e85-b39f-8b66f87f95e2" d="M61.6,359.4H72.5l13.1-7.7v-6.2l-13.3-7.7H61.5l-13.1,7.7v6.2Z" transform="translate(-37.6 -336.1)"/><path class="ab9da49e-039c-4867-8bb4-683f0aa1e0b5" d="M51.1,345.1v0Z" transform="translate(-37.6 -336.1)"/><polygon class="e403d530-b268-42bb-9995-dc0ed0e993c2" points="34.8 21.4 34.8 22.1 45.3 16 45.3 15.3 34.8 21.4"/><polygon class="fb8ef521-8fa6-47d0-9169-1625c33024c8" points="13.5 15.3 13.5 16 24 22.1 24 21.4 13.5 15.3"/><path class="a7d867b4-6563-4dcf-8b5e-bdbb934dcc92" d="M61.6,357.4v.7H72.4v-.7Z" transform="translate(-37.6 -336.1)"/><path class="b8c4806d-6731-4ab1-aef5-ba7ed72cd4a6" d="M61.6,357.4H72.4l10.5-6c0-2.5,0-3.8-.1-6.3L72.3,339H61.5l-10.4,6.1v6.3Z" transform="translate(-37.6 -336.1)"/><path class="a890fac1-2174-46ee-944d-155f3a3b86a1" d="M68.7,353.8a.8.8,0,0,0,0-1.4l-9.1-5.2a2.5,2.5,0,0,0-2.4,0c-.7.4-.7,1,0,1.4l9,5.2a2.8,2.8,0,0,0,2.5,0Z" transform="translate(-37.6 -336.1)"/><path class="a890fac1-2174-46ee-944d-155f3a3b86a1" d="M59.9,351.4a2.8,2.8,0,0,0-2.8,0c-.5.2-.7.6-.6.9h0a.1.1,0,0,0,.1.1h0l.2.2h0l.3.2a2.8,2.8,0,0,0,2.8,0l.3-.2h0l.2-.2h0a.1.1,0,0,0,.1-.1h0A.9.9,0,0,0,59.9,351.4Z" transform="translate(-37.6 -336.1)"/><path class="a890fac1-2174-46ee-944d-155f3a3b86a1" d="M75.8,342.4a2.8,2.8,0,0,0-2.8,0c-.5.2-.7.6-.6.9h0a.1.1,0,0,0,.1.1h0l.2.2h0l.3.2a2.8,2.8,0,0,0,2.8,0l.3-.2h0l.2-.2h0a.1.1,0,0,0,.1-.1h0A.9.9,0,0,0,75.8,342.4Z" transform="translate(-37.6 -336.1)"/><polygon class="a890fac1-2174-46ee-944d-155f3a3b86a1" points="25.1 11.4 23.8 10.7 30.8 6.7 32.1 7.5 25.1 11.4"/><polygon class="a890fac1-2174-46ee-944d-155f3a3b86a1" points="26.4 12.2 33.4 8.2 34.7 9 27.7 12.9 26.9 12.4 26.4 12.2"/><polygon class="a890fac1-2174-46ee-944d-155f3a3b86a1" points="36 9.7 36.8 10.2 37.3 10.5 30.3 14.4 29 13.7 36 9.7"/></svg>