<svg id="b934007c-1716-4f6d-8c73-1fb75d29743d" data-name="Layer 1" xmlns="http://www.w3.org/2000/svg" viewBox="0 0 66.1 77.1"><defs><style>.a50849fc-5d18-43a2-ad74-8ff8e8f84ee6{fill:#ccc;}.af8a7d55-a15b-40dc-98ff-e872c0f1a8f2{fill:#676767;}.ab89fa7a-b5aa-42c3-80ba-f29d0c78f855{fill:#a0a0a0;}.ff53de79-38bc-4488-8850-b3e3c6ced9f1{fill:#545454;}.f937e2c7-2ae1-4bf3-bfa9-6e7960060bd4{isolation:isolate;}.f1efff0f-99c5-4688-9258-fcfb3c472f7b{fill:#292c36;}.b285cd73-4055-426d-8473-0838518af442{fill:#4e5463;}.fe18663c-6f20-4848-8bf3-e6e678935682{fill:#373c48;}.ee18e91a-8c8a-4310-a1e9-0b55d7bcd3f1{fill:#1e1616;}.fefda1d5-db13-4b7f-b72c-da6350852d8c{fill:#596177;}.b8952a55-3d03-45ff-a51b-9bf584a8d7a3{fill:#fff;}.e898e53c-cc25-454e-89e2-47c888502d6d{fill:#f74141;}</style></defs><polygon class="a50849fc-5d18-43a2-ad74-8ff8e8f84ee6" points="31.2 45.5 29.1 44.3 27.3 45.3 29.4 46.5 31.2 45.5"/><polygon class="af8a7d55-a15b-40dc-98ff-e872c0f1a8f2" points="33.2 44.4 35 43.3 31.2 45.5 29.4 46.5 33.2 44.4"/><polygon class="a50849fc-5d18-43a2-ad74-8ff8e8f84ee6" points="38.1 47.2 38.1 47.7 39.9 46.7 39.9 46.2 38.1 47.2"/><polygon class="ab89fa7a-b5aa-42c3-80ba-f29d0c78f855" points="38.1 47.2 39.9 46.2 35 43.3 33.2 44.4 38.1 47.2"/><polygon class="af8a7d55-a15b-40dc-98ff-e872c0f1a8f2" points="33.2 44.4 29.4 46.5 27.3 45.3 27.3 45.8 29.6 47.2 33.4 45 38.1 47.7 38.1 47.2 33.2 44.4"/><polygon class="a50849fc-5d18-43a2-ad74-8ff8e8f84ee6" points="27.6 47.6 25.5 46.4 23.7 47.4 25.8 48.6 27.6 47.6"/><polygon class="af8a7d55-a15b-40dc-98ff-e872c0f1a8f2" points="29.6 46.5 31.4 45.4 27.6 47.6 25.8 48.6 29.6 46.5"/><polygon class="a50849fc-5d18-43a2-ad74-8ff8e8f84ee6" points="34.5 49.3 34.5 49.8 36.3 48.8 36.3 48.3 34.5 49.3"/><polygon class="ab89fa7a-b5aa-42c3-80ba-f29d0c78f855" points="34.5 49.3 36.3 48.3 31.4 45.4 29.6 46.5 34.5 49.3"/><polygon class="af8a7d55-a15b-40dc-98ff-e872c0f1a8f2" points="29.6 46.5 25.8 48.6 23.7 47.4 23.7 47.9 26 49.2 29.8 47.1 34.5 49.8 34.5 49.3 29.6 46.5"/><polygon class="a50849fc-5d18-43a2-ad74-8ff8e8f84ee6" points="24 49.7 21.8 48.4 20 49.5 22.2 50.7 24 49.7"/><polygon class="af8a7d55-a15b-40dc-98ff-e872c0f1a8f2" points="25.9 48.6 27.7 47.5 24 49.7 22.2 50.7 25.9 48.6"/><polygon class="a50849fc-5d18-43a2-ad74-8ff8e8f84ee6" points="30.8 51.4 30.8 51.9 32.6 50.9 32.6 50.4 30.8 51.4"/><polygon class="ab89fa7a-b5aa-42c3-80ba-f29d0c78f855" points="30.8 51.4 32.6 50.4 27.7 47.5 25.9 48.6 30.8 51.4"/><polygon class="af8a7d55-a15b-40dc-98ff-e872c0f1a8f2" points="25.9 48.6 22.2 50.7 20 49.5 20 50 22.3 51.3 26.1 49.2 30.8 51.9 30.8 51.4 25.9 48.6"/><polygon class="a50849fc-5d18-43a2-ad74-8ff8e8f84ee6" points="20.4 51.8 18.2 50.5 16.4 51.6 18.6 52.8 20.4 51.8"/><polygon class="af8a7d55-a15b-40dc-98ff-e872c0f1a8f2" points="22.3 50.7 24.1 49.6 20.4 51.8 18.6 52.8 22.3 50.7"/><polygon class="a50849fc-5d18-43a2-ad74-8ff8e8f84ee6" points="27.2 53.5 27.2 54 29 53 29 52.5 27.2 53.5"/><polygon class="ab89fa7a-b5aa-42c3-80ba-f29d0c78f855" points="27.2 53.5 29 52.5 24.1 49.6 22.3 50.7 27.2 53.5"/><polygon class="af8a7d55-a15b-40dc-98ff-e872c0f1a8f2" points="22.3 50.7 18.6 52.8 16.4 51.6 16.4 52.1 18.7 53.4 22.5 51.3 27.2 54 27.2 53.5 22.3 50.7"/><polygon class="a50849fc-5d18-43a2-ad74-8ff8e8f84ee6" points="16.8 53.9 14.6 52.6 12.8 53.7 15 54.9 16.8 53.9"/><polygon class="af8a7d55-a15b-40dc-98ff-e872c0f1a8f2" points="18.7 52.8 20.5 51.7 16.8 53.9 15 54.9 18.7 52.8"/><polygon class="a50849fc-5d18-43a2-ad74-8ff8e8f84ee6" points="23.6 55.6 23.6 56.1 25.4 55.1 25.4 54.6 23.6 55.6"/><polygon class="ab89fa7a-b5aa-42c3-80ba-f29d0c78f855" points="23.6 55.6 25.4 54.6 20.5 51.7 18.7 52.8 23.6 55.6"/><polygon class="af8a7d55-a15b-40dc-98ff-e872c0f1a8f2" points="18.7 52.8 15 54.9 12.8 53.7 12.8 54.2 15.2 55.5 18.9 53.4 23.6 56.1 23.6 55.6 18.7 52.8"/><polygon class="a50849fc-5d18-43a2-ad74-8ff8e8f84ee6" points="13.2 56 11 54.7 9.2 55.8 11.4 57 13.2 56"/><polygon class="af8a7d55-a15b-40dc-98ff-e872c0f1a8f2" points="15.1 54.9 16.9 53.8 13.2 56 11.4 57 15.1 54.9"/><polygon class="a50849fc-5d18-43a2-ad74-8ff8e8f84ee6" points="20 57.7 20 58.2 21.8 57.2 21.8 56.7 20 57.7"/><polygon class="ab89fa7a-b5aa-42c3-80ba-f29d0c78f855" points="20 57.7 21.8 56.7 16.9 53.8 15.1 54.9 20 57.7"/><polygon class="af8a7d55-a15b-40dc-98ff-e872c0f1a8f2" points="15.1 54.9 11.4 57 9.2 55.8 9.2 56.3 11.5 57.6 15.3 55.5 20 58.2 20 57.7 15.1 54.9"/><polygon class="a50849fc-5d18-43a2-ad74-8ff8e8f84ee6" points="9.5 58.1 7.4 56.8 5.6 57.9 7.7 59.1 9.5 58.1"/><polygon class="af8a7d55-a15b-40dc-98ff-e872c0f1a8f2" points="11.4 57 13.3 55.9 9.5 58.1 7.7 59.1 11.4 57"/><polygon class="a50849fc-5d18-43a2-ad74-8ff8e8f84ee6" points="16.4 59.8 16.4 60.3 18.2 59.3 18.2 58.8 16.4 59.8"/><polygon class="ab89fa7a-b5aa-42c3-80ba-f29d0c78f855" points="16.4 59.8 18.2 58.8 13.3 55.9 11.4 57 16.4 59.8"/><polygon class="af8a7d55-a15b-40dc-98ff-e872c0f1a8f2" points="11.4 57 7.7 59.1 5.6 57.9 5.6 58.4 7.9 59.7 11.6 57.6 16.4 60.3 16.4 59.8 11.4 57"/><path class="ff53de79-38bc-4488-8850-b3e3c6ced9f1" d="M156.9,401.5,186,384.7h6l9.9,5.7v7l-29.1,16.8h-6.1l-9.8-5.7v-7Z" transform="translate(-142.8 -343.2)"/><g class="f937e2c7-2ae1-4bf3-bfa9-6e7960060bd4"><path class="f1efff0f-99c5-4688-9258-fcfb3c472f7b" d="M201.9,393.9v0Z" transform="translate(-142.8 -343.2)"/><polygon class="f1efff0f-99c5-4688-9258-fcfb3c472f7b" points="14.1 61.8 14.1 65.3 24 71 23.9 67.5 14.1 61.8"/><polygon class="b285cd73-4055-426d-8473-0838518af442" points="30 67.5 30 71 59.1 54.2 59.1 50.7 30 67.5"/><path class="fe18663c-6f20-4848-8bf3-e6e678935682" d="M166.7,410.7v3.5h6.1v-3.5Z" transform="translate(-142.8 -343.2)"/><path class="ee18e91a-8c8a-4310-a1e9-0b55d7bcd3f1" d="M156.9,401.5V405l9.8,5.7h6.1l29.1-16.8v-3.5l-9.9-5.7h-6Z" transform="translate(-142.8 -343.2)"/></g><path class="ff53de79-38bc-4488-8850-b3e3c6ced9f1" d="M156.9,397.5,186,380.7h6l9.9,5.7v7l-29.1,16.8h-6.1l-9.8-5.7v-7Z" transform="translate(-142.8 -343.2)"/><g class="f937e2c7-2ae1-4bf3-bfa9-6e7960060bd4"><path class="f1efff0f-99c5-4688-9258-fcfb3c472f7b" d="M201.9,389.9v0Z" transform="translate(-142.8 -343.2)"/><polygon class="f1efff0f-99c5-4688-9258-fcfb3c472f7b" points="14.1 57.8 14.1 61.3 24 67 23.9 63.5 14.1 57.8"/><polygon class="b285cd73-4055-426d-8473-0838518af442" points="30 63.5 30 67 59.1 50.1 59.1 46.7 30 63.5"/><path class="fe18663c-6f20-4848-8bf3-e6e678935682" d="M166.7,406.7v3.5h6.1v-3.5Z" transform="translate(-142.8 -343.2)"/><path class="fefda1d5-db13-4b7f-b72c-da6350852d8c" d="M156.9,397.5V401l9.8,5.7h6.1l29.1-16.8v-3.5l-9.9-5.7h-6Z" transform="translate(-142.8 -343.2)"/></g><polygon class="a50849fc-5d18-43a2-ad74-8ff8e8f84ee6" points="62.2 62.7 64 61.6 60.2 55.2 58.4 56.2 62.2 62.7"/><polygon class="ab89fa7a-b5aa-42c3-80ba-f29d0c78f855" points="60.2 55.2 55.3 52.3 53.5 53.4 58.4 56.2 60.2 55.2"/><polygon class="a50849fc-5d18-43a2-ad74-8ff8e8f84ee6" points="64.3 63.9 64.3 64.4 66.1 63.4 66.1 62.9 64.3 63.9"/><polygon class="ab89fa7a-b5aa-42c3-80ba-f29d0c78f855" points="64.3 63.9 66.1 62.9 64 61.6 62.2 62.7 64.3 63.9"/><polygon class="af8a7d55-a15b-40dc-98ff-e872c0f1a8f2" points="62.2 62.7 58.4 56.2 53.5 53.4 53.5 53.9 58.3 56.6 62 63.1 64.3 64.4 64.3 63.9 62.2 62.7"/><polygon class="a50849fc-5d18-43a2-ad74-8ff8e8f84ee6" points="58.5 64.8 60.3 63.7 56.6 57.3 54.8 58.3 58.5 64.8"/><polygon class="ab89fa7a-b5aa-42c3-80ba-f29d0c78f855" points="56.6 57.3 51.7 54.4 49.9 55.5 54.8 58.3 56.6 57.3"/><polygon class="a50849fc-5d18-43a2-ad74-8ff8e8f84ee6" points="60.7 66 60.7 66.5 62.5 65.5 62.5 65 60.7 66"/><polygon class="ab89fa7a-b5aa-42c3-80ba-f29d0c78f855" points="60.7 66 62.5 65 60.3 63.7 58.5 64.8 60.7 66"/><polygon class="af8a7d55-a15b-40dc-98ff-e872c0f1a8f2" points="58.5 64.8 54.8 58.3 49.9 55.5 49.9 56 54.6 58.7 58.3 65.2 60.7 66.5 60.7 66 58.5 64.8"/><polygon class="a50849fc-5d18-43a2-ad74-8ff8e8f84ee6" points="54.9 66.9 56.7 65.9 53 59.4 51.2 60.4 54.9 66.9"/><polygon class="ab89fa7a-b5aa-42c3-80ba-f29d0c78f855" points="53 59.4 48 56.5 46.2 57.6 51.2 60.4 53 59.4"/><polygon class="a50849fc-5d18-43a2-ad74-8ff8e8f84ee6" points="57 68.1 57 68.6 58.8 67.6 58.8 67.1 57 68.1"/><polygon class="ab89fa7a-b5aa-42c3-80ba-f29d0c78f855" points="57 68.1 58.8 67.1 56.7 65.9 54.9 66.9 57 68.1"/><polygon class="af8a7d55-a15b-40dc-98ff-e872c0f1a8f2" points="54.9 66.9 51.2 60.4 46.2 57.6 46.2 58.1 51 60.8 54.7 67.3 57 68.6 57 68.1 54.9 66.9"/><polygon class="a50849fc-5d18-43a2-ad74-8ff8e8f84ee6" points="51.2 69 53 68 49.3 61.5 47.5 62.6 51.2 69"/><polygon class="ab89fa7a-b5aa-42c3-80ba-f29d0c78f855" points="49.3 61.5 44.4 58.7 42.6 59.7 47.5 62.6 49.3 61.5"/><polygon class="a50849fc-5d18-43a2-ad74-8ff8e8f84ee6" points="53.4 70.2 53.4 70.8 55.2 69.7 55.2 69.2 53.4 70.2"/><polygon class="ab89fa7a-b5aa-42c3-80ba-f29d0c78f855" points="53.4 70.2 55.2 69.2 53 68 51.2 69 53.4 70.2"/><polygon class="af8a7d55-a15b-40dc-98ff-e872c0f1a8f2" points="51.2 69 47.5 62.6 42.6 59.7 42.6 60.2 47.3 63 51 69.4 53.4 70.8 53.4 70.2 51.2 69"/><polygon class="a50849fc-5d18-43a2-ad74-8ff8e8f84ee6" points="47.6 71.1 49.4 70.1 45.7 63.6 43.9 64.6 47.6 71.1"/><polygon class="ab89fa7a-b5aa-42c3-80ba-f29d0c78f855" points="45.7 63.6 40.8 60.8 39 61.8 43.9 64.6 45.7 63.6"/><polygon class="a50849fc-5d18-43a2-ad74-8ff8e8f84ee6" points="49.7 72.3 49.7 72.8 51.5 71.8 51.5 71.3 49.7 72.3"/><polygon class="ab89fa7a-b5aa-42c3-80ba-f29d0c78f855" points="49.7 72.3 51.5 71.3 49.4 70.1 47.6 71.1 49.7 72.3"/><polygon class="af8a7d55-a15b-40dc-98ff-e872c0f1a8f2" points="47.6 71.1 43.9 64.6 39 61.8 39 62.3 43.7 65.1 47.4 71.5 49.7 72.8 49.7 72.3 47.6 71.1"/><polygon class="a50849fc-5d18-43a2-ad74-8ff8e8f84ee6" points="44 73.2 45.8 72.2 42 65.7 40.2 66.7 44 73.2"/><polygon class="ab89fa7a-b5aa-42c3-80ba-f29d0c78f855" points="42 65.7 37.1 62.8 35.3 63.9 40.2 66.7 42 65.7"/><polygon class="a50849fc-5d18-43a2-ad74-8ff8e8f84ee6" points="46.1 74.4 46.1 74.9 47.9 73.9 47.9 73.4 46.1 74.4"/><polygon class="ab89fa7a-b5aa-42c3-80ba-f29d0c78f855" points="46.1 74.4 47.9 73.4 45.8 72.2 44 73.2 46.1 74.4"/><polygon class="af8a7d55-a15b-40dc-98ff-e872c0f1a8f2" points="44 73.2 40.2 66.7 35.3 63.9 35.3 64.4 40 67.1 43.8 73.6 46.1 74.9 46.1 74.4 44 73.2"/><polygon class="a50849fc-5d18-43a2-ad74-8ff8e8f84ee6" points="40.3 75.3 42.1 74.3 38.4 67.8 36.6 68.9 40.3 75.3"/><polygon class="ab89fa7a-b5aa-42c3-80ba-f29d0c78f855" points="38.4 67.8 33.5 65 31.7 66 36.6 68.9 38.4 67.8"/><polygon class="a50849fc-5d18-43a2-ad74-8ff8e8f84ee6" points="42.5 76.5 42.4 77.1 44.2 76 44.3 75.5 42.5 76.5"/><polygon class="ab89fa7a-b5aa-42c3-80ba-f29d0c78f855" points="42.5 76.5 44.3 75.5 42.1 74.3 40.3 75.3 42.5 76.5"/><polygon class="af8a7d55-a15b-40dc-98ff-e872c0f1a8f2" points="40.3 75.3 36.6 68.9 31.7 66 31.7 66.5 36.4 69.3 40.1 75.7 42.4 77.1 42.5 76.5 40.3 75.3"/><polygon class="ee18e91a-8c8a-4310-a1e9-0b55d7bcd3f1" points="17.4 58.6 22.6 61.5 21.6 62.1 17.4 59.7 17.4 58.6"/><polygon class="fe18663c-6f20-4848-8bf3-e6e678935682" points="17.4 59.7 16.4 60.3 16.4 60.3 16.4 59.2 17.4 58.6 17.4 59.7 17.4 59.7"/><polygon class="fefda1d5-db13-4b7f-b72c-da6350852d8c" points="16.4 60.3 16.4 60.3 16.4 60.3 17.4 59.7 17.4 59.7 21.6 62.1 21.6 63.3 16.4 60.3"/><path class="fe18663c-6f20-4848-8bf3-e6e678935682" d="M199.9,387.4a3.6,3.6,0,0,0-3.5,0,1.5,1.5,0,0,0-.7.7h0a1.1,1.1,0,0,1,.7-1.2,3.6,3.6,0,0,1,3.5,0,1.4,1.4,0,0,1,.8,1c0,.1-.1.1-.1.2h0A1.5,1.5,0,0,0,199.9,387.4Z" transform="translate(-142.8 -343.2)"/><path class="a50849fc-5d18-43a2-ad74-8ff8e8f84ee6" d="M200.5,388.4h-.2c0,.1,0,.1-.1.1l-.3.3a4.3,4.3,0,0,1-3.5,0l-.3-.3H196c-.1-.1-.1-.2-.2-.2h0c0-.1-.1-.1-.1-.2a1.5,1.5,0,0,1,.7-.7,3.6,3.6,0,0,1,3.5,0,1.5,1.5,0,0,1,.7.7v.2Z" transform="translate(-142.8 -343.2)"/><path class="a50849fc-5d18-43a2-ad74-8ff8e8f84ee6" d="M170.2,403.2c.5-.3.5-.7,0-1l-6.6-3.8a2.5,2.5,0,0,0-1.7,0,.6.6,0,0,0,0,1.1l6.5,3.7a1.9,1.9,0,0,0,1.8,0Z" transform="translate(-142.8 -343.2)"/><polygon class="a50849fc-5d18-43a2-ad74-8ff8e8f84ee6" points="24.2 54.4 22.9 53.6 43 42.1 44.3 42.8 24.2 54.4"/><polygon class="a50849fc-5d18-43a2-ad74-8ff8e8f84ee6" points="25.5 55.1 45.6 43.6 46.9 44.3 26.8 55.9 25.9 55.4 25.5 55.1"/><polygon class="a50849fc-5d18-43a2-ad74-8ff8e8f84ee6" points="48.2 45.1 49 45.6 49.5 45.8 29.4 57.4 28.1 56.6 48.2 45.1"/><polygon class="a50849fc-5d18-43a2-ad74-8ff8e8f84ee6" points="34.9 8 37 6.8 38.8 7.8 36.7 9.1 34.9 8"/><polygon class="af8a7d55-a15b-40dc-98ff-e872c0f1a8f2" points="32.9 6.9 31.1 5.9 34.9 8 36.7 9.1 32.9 6.9"/><polygon class="a50849fc-5d18-43a2-ad74-8ff8e8f84ee6" points="28 9.8 28 10.3 26.2 9.2 26.2 8.7 28 9.8"/><polygon class="ab89fa7a-b5aa-42c3-80ba-f29d0c78f855" points="28 9.8 26.2 8.7 31.1 5.9 32.9 6.9 28 9.8"/><polygon class="af8a7d55-a15b-40dc-98ff-e872c0f1a8f2" points="32.9 6.9 36.7 9.1 38.8 7.8 38.8 8.4 36.5 9.7 32.7 7.5 28 10.3 28 9.8 32.9 6.9"/><polygon class="a50849fc-5d18-43a2-ad74-8ff8e8f84ee6" points="38.5 10.1 40.6 8.9 42.4 9.9 40.3 11.2 38.5 10.1"/><polygon class="af8a7d55-a15b-40dc-98ff-e872c0f1a8f2" points="36.5 9 34.7 8 38.5 10.1 40.3 11.2 36.5 9"/><polygon class="a50849fc-5d18-43a2-ad74-8ff8e8f84ee6" points="31.6 11.9 31.6 12.4 29.8 11.3 29.8 10.8 31.6 11.9"/><polygon class="ab89fa7a-b5aa-42c3-80ba-f29d0c78f855" points="31.6 11.9 29.8 10.8 34.7 8 36.5 9 31.6 11.9"/><polygon class="af8a7d55-a15b-40dc-98ff-e872c0f1a8f2" points="36.5 9 40.3 11.2 42.4 9.9 42.4 10.4 40.1 11.8 36.3 9.6 31.6 12.4 31.6 11.9 36.5 9"/><polygon class="a50849fc-5d18-43a2-ad74-8ff8e8f84ee6" points="42.1 12.2 44.3 11 46.1 12 43.9 13.2 42.1 12.2"/><polygon class="af8a7d55-a15b-40dc-98ff-e872c0f1a8f2" points="40.2 11.1 38.4 10.1 42.1 12.2 43.9 13.2 40.2 11.1"/><polygon class="a50849fc-5d18-43a2-ad74-8ff8e8f84ee6" points="35.3 13.9 35.3 14.5 33.5 13.4 33.5 12.9 35.3 13.9"/><polygon class="ab89fa7a-b5aa-42c3-80ba-f29d0c78f855" points="35.3 13.9 33.5 12.9 38.4 10.1 40.2 11.1 35.3 13.9"/><polygon class="af8a7d55-a15b-40dc-98ff-e872c0f1a8f2" points="40.2 11.1 43.9 13.2 46.1 12 46.1 12.5 43.8 13.9 40 11.7 35.3 14.5 35.3 13.9 40.2 11.1"/><polygon class="a50849fc-5d18-43a2-ad74-8ff8e8f84ee6" points="45.7 14.3 47.9 13.1 49.7 14.1 47.5 15.3 45.7 14.3"/><polygon class="af8a7d55-a15b-40dc-98ff-e872c0f1a8f2" points="43.8 13.2 42 12.2 45.7 14.3 47.5 15.3 43.8 13.2"/><polygon class="a50849fc-5d18-43a2-ad74-8ff8e8f84ee6" points="38.9 16.1 38.9 16.6 37.1 15.5 37.1 15 38.9 16.1"/><polygon class="ab89fa7a-b5aa-42c3-80ba-f29d0c78f855" points="38.9 16.1 37.1 15 42 12.2 43.8 13.2 38.9 16.1"/><polygon class="af8a7d55-a15b-40dc-98ff-e872c0f1a8f2" points="43.8 13.2 47.5 15.3 49.7 14.1 49.7 14.6 47.4 16 43.6 13.8 38.9 16.6 38.9 16.1 43.8 13.2"/><polygon class="a50849fc-5d18-43a2-ad74-8ff8e8f84ee6" points="49.3 16.4 51.5 15.2 53.3 16.2 51.1 17.4 49.3 16.4"/><polygon class="af8a7d55-a15b-40dc-98ff-e872c0f1a8f2" points="47.4 15.3 45.6 14.3 49.3 16.4 51.1 17.4 47.4 15.3"/><polygon class="a50849fc-5d18-43a2-ad74-8ff8e8f84ee6" points="42.5 18.1 42.5 18.7 40.7 17.6 40.7 17.1 42.5 18.1"/><polygon class="ab89fa7a-b5aa-42c3-80ba-f29d0c78f855" points="42.5 18.1 40.7 17.1 45.6 14.3 47.4 15.3 42.5 18.1"/><polygon class="af8a7d55-a15b-40dc-98ff-e872c0f1a8f2" points="47.4 15.3 51.1 17.4 53.3 16.2 53.3 16.7 51 18.1 47.2 15.9 42.5 18.7 42.5 18.1 47.4 15.3"/><polygon class="a50849fc-5d18-43a2-ad74-8ff8e8f84ee6" points="52.9 18.5 55.1 17.3 56.9 18.3 54.7 19.5 52.9 18.5"/><polygon class="af8a7d55-a15b-40dc-98ff-e872c0f1a8f2" points="51 17.4 49.2 16.4 52.9 18.5 54.7 19.5 51 17.4"/><polygon class="a50849fc-5d18-43a2-ad74-8ff8e8f84ee6" points="46.1 20.2 46.1 20.8 44.3 19.7 44.3 19.2 46.1 20.2"/><polygon class="ab89fa7a-b5aa-42c3-80ba-f29d0c78f855" points="46.1 20.2 44.3 19.2 49.2 16.4 51 17.4 46.1 20.2"/><polygon class="af8a7d55-a15b-40dc-98ff-e872c0f1a8f2" points="51 17.4 54.7 19.5 56.9 18.3 56.9 18.8 54.6 20.2 50.8 18 46.1 20.8 46.1 20.2 51 17.4"/><polygon class="a50849fc-5d18-43a2-ad74-8ff8e8f84ee6" points="56.6 20.6 58.7 19.4 60.5 20.4 58.4 21.6 56.6 20.6"/><polygon class="af8a7d55-a15b-40dc-98ff-e872c0f1a8f2" points="54.7 19.5 52.9 18.4 56.6 20.6 58.4 21.6 54.7 19.5"/><polygon class="a50849fc-5d18-43a2-ad74-8ff8e8f84ee6" points="49.7 22.3 49.7 22.9 47.9 21.8 47.9 21.3 49.7 22.3"/><polygon class="ab89fa7a-b5aa-42c3-80ba-f29d0c78f855" points="49.7 22.3 47.9 21.3 52.9 18.4 54.7 19.5 49.7 22.3"/><polygon class="af8a7d55-a15b-40dc-98ff-e872c0f1a8f2" points="54.7 19.5 58.4 21.6 60.5 20.4 60.5 20.9 58.2 22.3 54.5 20.1 49.7 22.9 49.7 22.3 54.7 19.5"/><path class="ff53de79-38bc-4488-8850-b3e3c6ced9f1" d="M194.8,364.1l-29.1-16.9h-6l-9.9,5.8v6.9l29.1,16.8h6l9.9-5.7v-6.9Z" transform="translate(-142.8 -343.2)"/><g class="f937e2c7-2ae1-4bf3-bfa9-6e7960060bd4"><path class="f1efff0f-99c5-4688-9258-fcfb3c472f7b" d="M149.8,356.4v0Z" transform="translate(-142.8 -343.2)"/><polygon class="b285cd73-4055-426d-8473-0838518af442" points="52 24.3 52 27.8 42.1 33.5 42.2 30.1 52 24.3"/><polygon class="f1efff0f-99c5-4688-9258-fcfb3c472f7b" points="36.1 30.1 36.1 33.5 7 16.7 7 13.2 36.1 30.1"/><path class="fe18663c-6f20-4848-8bf3-e6e678935682" d="M184.9,373.3v3.4h-6v-3.4Z" transform="translate(-142.8 -343.2)"/><path class="ee18e91a-8c8a-4310-a1e9-0b55d7bcd3f1" d="M194.8,364.1v3.4l-9.9,5.8h-6l-29.1-16.9v-3.5l9.9-5.7h6Z" transform="translate(-142.8 -343.2)"/></g><path class="ff53de79-38bc-4488-8850-b3e3c6ced9f1" d="M194.8,360l-29.1-16.8h-6l-9.9,5.7v7l29.1,16.8h6l9.9-5.7v-7Z" transform="translate(-142.8 -343.2)"/><g class="f937e2c7-2ae1-4bf3-bfa9-6e7960060bd4"><path class="f1efff0f-99c5-4688-9258-fcfb3c472f7b" d="M149.8,352.4v0Z" transform="translate(-142.8 -343.2)"/><polygon class="b285cd73-4055-426d-8473-0838518af442" points="52 20.3 52 23.8 42.1 29.5 42.2 26 52 20.3"/><polygon class="f1efff0f-99c5-4688-9258-fcfb3c472f7b" points="36.1 26 36.1 29.5 7 12.7 7 9.2 36.1 26"/><path class="fe18663c-6f20-4848-8bf3-e6e678935682" d="M184.9,369.2v3.5h-6v-3.5Z" transform="translate(-142.8 -343.2)"/><path class="fefda1d5-db13-4b7f-b72c-da6350852d8c" d="M194.8,360v3.5l-9.9,5.7h-6l-29.1-16.8v-3.5l9.9-5.7h6Z" transform="translate(-142.8 -343.2)"/></g><polygon class="a50849fc-5d18-43a2-ad74-8ff8e8f84ee6" points="3.9 25.2 2.1 24.2 5.9 17.7 7.7 18.8 3.9 25.2"/><polygon class="ab89fa7a-b5aa-42c3-80ba-f29d0c78f855" points="5.9 17.7 10.8 14.9 12.6 15.9 7.7 18.8 5.9 17.7"/><polygon class="a50849fc-5d18-43a2-ad74-8ff8e8f84ee6" points="1.8 26.4 1.8 27 0 25.9 0 25.4 1.8 26.4"/><polygon class="ab89fa7a-b5aa-42c3-80ba-f29d0c78f855" points="1.8 26.4 0 25.4 2.1 24.2 3.9 25.2 1.8 26.4"/><polygon class="af8a7d55-a15b-40dc-98ff-e872c0f1a8f2" points="3.9 25.2 7.7 18.8 12.6 15.9 12.6 16.4 7.8 19.2 4.1 25.6 1.8 27 1.8 26.4 3.9 25.2"/><polygon class="a50849fc-5d18-43a2-ad74-8ff8e8f84ee6" points="7.6 27.3 5.8 26.3 9.5 19.8 11.3 20.8 7.6 27.3"/><polygon class="ab89fa7a-b5aa-42c3-80ba-f29d0c78f855" points="9.5 19.8 14.4 17 16.2 18 11.3 20.8 9.5 19.8"/><polygon class="a50849fc-5d18-43a2-ad74-8ff8e8f84ee6" points="5.4 28.5 5.4 29.1 3.6 28 3.6 27.5 5.4 28.5"/><polygon class="ab89fa7a-b5aa-42c3-80ba-f29d0c78f855" points="5.4 28.5 3.6 27.5 5.8 26.3 7.6 27.3 5.4 28.5"/><polygon class="af8a7d55-a15b-40dc-98ff-e872c0f1a8f2" points="7.6 27.3 11.3 20.8 16.2 18 16.2 18.5 11.5 21.3 7.8 27.7 5.4 29.1 5.4 28.5 7.6 27.3"/><polygon class="a50849fc-5d18-43a2-ad74-8ff8e8f84ee6" points="11.2 29.4 9.4 28.4 13.1 21.9 14.9 23 11.2 29.4"/><polygon class="ab89fa7a-b5aa-42c3-80ba-f29d0c78f855" points="13.1 21.9 18.1 19.1 19.9 20.1 14.9 23 13.1 21.9"/><polygon class="a50849fc-5d18-43a2-ad74-8ff8e8f84ee6" points="9.1 30.7 9.1 31.2 7.3 30.1 7.3 29.6 9.1 30.7"/><polygon class="ab89fa7a-b5aa-42c3-80ba-f29d0c78f855" points="9.1 30.7 7.3 29.6 9.4 28.4 11.2 29.4 9.1 30.7"/><polygon class="af8a7d55-a15b-40dc-98ff-e872c0f1a8f2" points="11.2 29.4 14.9 23 19.9 20.1 19.9 20.6 15.1 23.4 11.4 29.8 9.1 31.2 9.1 30.7 11.2 29.4"/><polygon class="a50849fc-5d18-43a2-ad74-8ff8e8f84ee6" points="14.9 31.6 13.1 30.5 16.8 24 18.6 25.1 14.9 31.6"/><polygon class="ab89fa7a-b5aa-42c3-80ba-f29d0c78f855" points="16.8 24 21.7 21.2 23.5 22.2 18.6 25.1 16.8 24"/><polygon class="a50849fc-5d18-43a2-ad74-8ff8e8f84ee6" points="12.7 32.8 12.7 33.3 10.9 32.3 10.9 31.7 12.7 32.8"/><polygon class="ab89fa7a-b5aa-42c3-80ba-f29d0c78f855" points="12.7 32.8 10.9 31.7 13.1 30.5 14.9 31.6 12.7 32.8"/><polygon class="af8a7d55-a15b-40dc-98ff-e872c0f1a8f2" points="14.9 31.6 18.6 25.1 23.5 22.2 23.5 22.8 18.8 25.5 15.1 32 12.7 33.3 12.7 32.8 14.9 31.6"/><polygon class="a50849fc-5d18-43a2-ad74-8ff8e8f84ee6" points="18.5 33.6 16.7 32.6 20.4 26.1 22.2 27.2 18.5 33.6"/><polygon class="ab89fa7a-b5aa-42c3-80ba-f29d0c78f855" points="20.4 26.1 25.3 23.3 27.1 24.3 22.2 27.2 20.4 26.1"/><polygon class="a50849fc-5d18-43a2-ad74-8ff8e8f84ee6" points="16.4 34.9 16.4 35.4 14.6 34.3 14.6 33.8 16.4 34.9"/><polygon class="ab89fa7a-b5aa-42c3-80ba-f29d0c78f855" points="16.4 34.9 14.6 33.8 16.7 32.6 18.5 33.6 16.4 34.9"/><polygon class="af8a7d55-a15b-40dc-98ff-e872c0f1a8f2" points="18.5 33.6 22.2 27.2 27.1 24.3 27.1 24.8 22.4 27.6 18.7 34 16.4 35.4 16.4 34.9 18.5 33.6"/><polygon class="a50849fc-5d18-43a2-ad74-8ff8e8f84ee6" points="22.1 35.7 20.3 34.7 24.1 28.2 25.9 29.3 22.1 35.7"/><polygon class="ab89fa7a-b5aa-42c3-80ba-f29d0c78f855" points="24.1 28.2 29 25.4 30.8 26.4 25.9 29.3 24.1 28.2"/><polygon class="a50849fc-5d18-43a2-ad74-8ff8e8f84ee6" points="20 37 20 37.5 18.2 36.4 18.2 35.9 20 37"/><polygon class="ab89fa7a-b5aa-42c3-80ba-f29d0c78f855" points="20 37 18.2 35.9 20.3 34.7 22.1 35.7 20 37"/><polygon class="af8a7d55-a15b-40dc-98ff-e872c0f1a8f2" points="22.1 35.7 25.9 29.3 30.8 26.4 30.8 26.9 26.1 29.7 22.3 36.1 20 37.5 20 37 22.1 35.7"/><polygon class="a50849fc-5d18-43a2-ad74-8ff8e8f84ee6" points="25.8 37.9 24 36.8 27.7 30.3 29.5 31.4 25.8 37.9"/><polygon class="ab89fa7a-b5aa-42c3-80ba-f29d0c78f855" points="27.7 30.3 32.6 27.5 34.4 28.5 29.5 31.4 27.7 30.3"/><polygon class="a50849fc-5d18-43a2-ad74-8ff8e8f84ee6" points="23.7 39.1 23.7 39.6 21.9 38.5 21.9 38 23.7 39.1"/><polygon class="ab89fa7a-b5aa-42c3-80ba-f29d0c78f855" points="23.7 39.1 21.9 38 24 36.8 25.8 37.9 23.7 39.1"/><polygon class="af8a7d55-a15b-40dc-98ff-e872c0f1a8f2" points="25.8 37.9 29.5 31.4 34.4 28.5 34.4 29.1 29.7 31.8 26 38.3 23.7 39.6 23.7 39.1 25.8 37.9"/><polygon class="ee18e91a-8c8a-4310-a1e9-0b55d7bcd3f1" points="48.7 21.1 43.5 24.1 44.5 24.7 48.7 22.3 48.7 21.1"/><polygon class="fe18663c-6f20-4848-8bf3-e6e678935682" points="48.7 22.3 49.7 22.8 49.7 22.8 49.7 21.7 48.7 21.1 48.7 22.3 48.7 22.3"/><polygon class="fefda1d5-db13-4b7f-b72c-da6350852d8c" points="49.7 22.8 49.7 22.8 49.7 22.8 48.7 22.3 48.7 22.3 44.5 24.7 44.5 25.8 49.7 22.8"/><path class="fe18663c-6f20-4848-8bf3-e6e678935682" d="M151.8,349.9a4.3,4.3,0,0,1,3.5,0,1.3,1.3,0,0,1,.7.8h0c.1-.4-.2-.8-.7-1.2a4.3,4.3,0,0,0-3.5,0,1.4,1.4,0,0,0-.8,1.1.1.1,0,0,0,.1.1h0A1.3,1.3,0,0,1,151.8,349.9Z" transform="translate(-142.8 -343.2)"/><path class="a50849fc-5d18-43a2-ad74-8ff8e8f84ee6" d="M151.2,350.9l.2.2h0l.4.2a3.6,3.6,0,0,0,3.5,0l.3-.2h.1c0-.1.1-.1.1-.2h.1a.1.1,0,0,1,.1-.1,1.3,1.3,0,0,0-.7-.8,4.3,4.3,0,0,0-3.5,0,1.3,1.3,0,0,0-.7.8.1.1,0,0,0,.1.1Z" transform="translate(-142.8 -343.2)"/><path class="b8952a55-3d03-45ff-a51b-9bf584a8d7a3" d="M157.9,351.7a1.7,1.7,0,0,0,1.7,0L166,348c.5-.3.5-.7,0-1h0a1.7,1.7,0,0,0-1.7,0l-3.2,1.9-3.2,1.8C157.4,351,157.4,351.4,157.9,351.7Z" transform="translate(-142.8 -343.2)"/><polygon class="e898e53c-cc25-454e-89e2-47c888502d6d" points="43.6 18.3 44.9 17.6 24.8 6 23.5 6.8 43.6 18.3"/><polygon class="e898e53c-cc25-454e-89e2-47c888502d6d" points="42.3 19.1 22.2 7.5 20.9 8.3 41 19.8 41.9 19.4 42.3 19.1"/><polygon class="e898e53c-cc25-454e-89e2-47c888502d6d" points="19.6 9 18.8 9.5 18.3 9.8 38.4 21.4 39.7 20.6 19.6 9"/></svg>