<svg id="f176a0d0-68b2-4544-986e-3ae9dd867adb" data-name="Layer 1" xmlns="http://www.w3.org/2000/svg" viewBox="0 0 87.5 55.6"><defs><style>.ab4e01c7-bfb7-4b39-bb50-8935aba96dab{fill:#1e1616;}.bfd447a3-efa0-4724-934b-eb729e945370{fill:#292c36;}.a3ad9760-f60f-4b49-819d-763201ce13b0{fill:#ccc;}.aa8e3b6d-e7da-4881-bc05-76340220f9b3{fill:#676767;}.af68c030-d4d8-4e92-bdf1-2ad4d06d9e08{fill:#a0a0a0;}.b7827371-3fa0-4928-9d3a-37fc9df90c5b{fill:#373c48;}.a8d5f3f9-b657-4bf5-b1d9-2114351f7747{fill:#1377d9;}.a66dd32a-c786-41d9-8c37-df77ff71f3f2{fill:#4e5463;}.e3b84ca9-528d-454e-b31f-fd9c5f5e119c{fill:#596177;}.bc00c953-8adb-4455-9361-7d5de6fa0ae0{fill:#fff;}</style></defs><polygon class="ab4e01c7-bfb7-4b39-bb50-8935aba96dab" points="38.1 6 38.1 8.8 36.9 4.7 36.9 1.9 38.1 6"/><polygon class="bfd447a3-efa0-4724-934b-eb729e945370" points="50.1 1.9 50.1 4.7 48.9 8.8 48.9 6 50.1 1.9"/><polygon class="a3ad9760-f60f-4b49-819d-763201ce13b0" points="54.5 7.5 56.6 6.3 58.4 7.3 56.3 8.5 54.5 7.5"/><polygon class="aa8e3b6d-e7da-4881-bc05-76340220f9b3" points="52.5 6.4 50.7 5.4 54.5 7.5 56.3 8.5 52.5 6.4"/><polygon class="a3ad9760-f60f-4b49-819d-763201ce13b0" points="47.6 9.2 47.6 9.8 45.8 8.7 45.8 8.2 47.6 9.2"/><polygon class="af68c030-d4d8-4e92-bdf1-2ad4d06d9e08" points="47.6 9.2 45.8 8.2 50.7 5.4 52.5 6.4 47.6 9.2"/><polygon class="aa8e3b6d-e7da-4881-bc05-76340220f9b3" points="52.5 6.4 56.3 8.5 58.4 7.3 58.4 7.8 56.1 9.2 52.4 7 47.6 9.8 47.6 9.2 52.5 6.4"/><polygon class="a3ad9760-f60f-4b49-819d-763201ce13b0" points="58.1 9.6 60.2 8.3 62 9.4 59.9 10.6 58.1 9.6"/><polygon class="aa8e3b6d-e7da-4881-bc05-76340220f9b3" points="56.1 8.5 54.3 7.4 58.1 9.6 59.9 10.6 56.1 8.5"/><polygon class="a3ad9760-f60f-4b49-819d-763201ce13b0" points="51.2 11.3 51.2 11.8 49.4 10.8 49.4 10.3 51.2 11.3"/><polygon class="af68c030-d4d8-4e92-bdf1-2ad4d06d9e08" points="51.2 11.3 49.4 10.3 54.3 7.4 56.1 8.5 51.2 11.3"/><polygon class="aa8e3b6d-e7da-4881-bc05-76340220f9b3" points="56.1 8.5 59.9 10.6 62 9.4 62 9.9 59.7 11.2 55.9 9.1 51.2 11.8 51.2 11.3 56.1 8.5"/><polygon class="a3ad9760-f60f-4b49-819d-763201ce13b0" points="61.7 11.7 63.8 10.4 65.6 11.5 63.5 12.7 61.7 11.7"/><polygon class="aa8e3b6d-e7da-4881-bc05-76340220f9b3" points="59.7 10.6 57.9 9.5 61.7 11.7 63.5 12.7 59.7 10.6"/><polygon class="a3ad9760-f60f-4b49-819d-763201ce13b0" points="54.8 13.4 54.8 13.9 53 12.9 53 12.4 54.8 13.4"/><polygon class="af68c030-d4d8-4e92-bdf1-2ad4d06d9e08" points="54.8 13.4 53 12.4 57.9 9.5 59.7 10.6 54.8 13.4"/><polygon class="aa8e3b6d-e7da-4881-bc05-76340220f9b3" points="59.7 10.6 63.5 12.7 65.6 11.5 65.6 12 63.3 13.3 59.6 11.2 54.8 13.9 54.8 13.4 59.7 10.6"/><polygon class="a3ad9760-f60f-4b49-819d-763201ce13b0" points="65.4 13.8 67.5 12.5 69.3 13.6 67.2 14.8 65.4 13.8"/><polygon class="aa8e3b6d-e7da-4881-bc05-76340220f9b3" points="63.4 12.7 61.6 11.6 65.4 13.8 67.2 14.8 63.4 12.7"/><polygon class="a3ad9760-f60f-4b49-819d-763201ce13b0" points="58.5 15.5 58.5 16 56.7 15 56.7 14.5 58.5 15.5"/><polygon class="af68c030-d4d8-4e92-bdf1-2ad4d06d9e08" points="58.5 15.5 56.7 14.5 61.6 11.6 63.4 12.7 58.5 15.5"/><polygon class="aa8e3b6d-e7da-4881-bc05-76340220f9b3" points="63.4 12.7 67.2 14.8 69.3 13.6 69.3 14.1 67 15.4 63.2 13.3 58.5 16 58.5 15.5 63.4 12.7"/><polygon class="a3ad9760-f60f-4b49-819d-763201ce13b0" points="69 15.9 71.1 14.6 72.9 15.7 70.8 16.9 69 15.9"/><polygon class="aa8e3b6d-e7da-4881-bc05-76340220f9b3" points="67 14.8 65.2 13.7 69 15.9 70.8 16.9 67 14.8"/><polygon class="a3ad9760-f60f-4b49-819d-763201ce13b0" points="62.1 17.6 62.1 18.1 60.3 17.1 60.3 16.6 62.1 17.6"/><polygon class="af68c030-d4d8-4e92-bdf1-2ad4d06d9e08" points="62.1 17.6 60.3 16.6 65.2 13.7 67 14.8 62.1 17.6"/><polygon class="aa8e3b6d-e7da-4881-bc05-76340220f9b3" points="67 14.8 70.8 16.9 72.9 15.7 72.9 16.2 70.6 17.5 66.8 15.4 62.1 18.1 62.1 17.6 67 14.8"/><polygon class="a3ad9760-f60f-4b49-819d-763201ce13b0" points="72.6 18 74.7 16.7 76.5 17.8 74.4 19 72.6 18"/><polygon class="aa8e3b6d-e7da-4881-bc05-76340220f9b3" points="70.6 16.9 68.8 15.8 72.6 18 74.4 19 70.6 16.9"/><polygon class="a3ad9760-f60f-4b49-819d-763201ce13b0" points="65.7 19.7 65.7 20.2 63.9 19.2 63.9 18.7 65.7 19.7"/><polygon class="af68c030-d4d8-4e92-bdf1-2ad4d06d9e08" points="65.7 19.7 63.9 18.7 68.8 15.8 70.6 16.9 65.7 19.7"/><polygon class="aa8e3b6d-e7da-4881-bc05-76340220f9b3" points="70.6 16.9 74.4 19 76.5 17.8 76.5 18.3 74.2 19.6 70.4 17.5 65.7 20.2 65.7 19.7 70.6 16.9"/><polygon class="a3ad9760-f60f-4b49-819d-763201ce13b0" points="76.2 20 78.3 18.8 80.1 19.9 78 21.1 76.2 20"/><polygon class="aa8e3b6d-e7da-4881-bc05-76340220f9b3" points="74.2 19 72.4 17.9 76.2 20 78 21.1 74.2 19"/><polygon class="a3ad9760-f60f-4b49-819d-763201ce13b0" points="69.3 21.8 69.3 22.3 67.5 21.3 67.5 20.8 69.3 21.8"/><polygon class="af68c030-d4d8-4e92-bdf1-2ad4d06d9e08" points="69.3 21.8 67.5 20.8 72.4 17.9 74.2 19 69.3 21.8"/><polygon class="aa8e3b6d-e7da-4881-bc05-76340220f9b3" points="74.2 19 78 21.1 80.1 19.9 80.1 20.4 77.8 21.7 74 19.6 69.3 22.3 69.3 21.8 74.2 19"/><polygon class="a3ad9760-f60f-4b49-819d-763201ce13b0" points="79.8 22.1 82 20.9 83.8 22 81.6 23.2 79.8 22.1"/><polygon class="aa8e3b6d-e7da-4881-bc05-76340220f9b3" points="77.9 21 76.1 20 79.8 22.1 81.6 23.2 77.9 21"/><polygon class="a3ad9760-f60f-4b49-819d-763201ce13b0" points="73 23.9 73 24.4 71.2 23.4 71.2 22.8 73 23.9"/><polygon class="af68c030-d4d8-4e92-bdf1-2ad4d06d9e08" points="73 23.9 71.2 22.8 76.1 20 77.9 21 73 23.9"/><polygon class="aa8e3b6d-e7da-4881-bc05-76340220f9b3" points="77.9 21 81.6 23.2 83.8 22 83.8 22.5 81.4 23.8 77.7 21.7 73 24.4 73 23.9 77.9 21"/><polygon class="a3ad9760-f60f-4b49-819d-763201ce13b0" points="32.2 7.5 30.1 6.3 28.3 7.3 30.4 8.5 32.2 7.5"/><polygon class="aa8e3b6d-e7da-4881-bc05-76340220f9b3" points="34.2 6.4 36 5.4 32.2 7.5 30.4 8.5 34.2 6.4"/><polygon class="a3ad9760-f60f-4b49-819d-763201ce13b0" points="39.1 9.2 39.1 9.8 40.9 8.7 40.9 8.2 39.1 9.2"/><polygon class="af68c030-d4d8-4e92-bdf1-2ad4d06d9e08" points="39.1 9.2 40.9 8.2 36 5.4 34.2 6.4 39.1 9.2"/><polygon class="aa8e3b6d-e7da-4881-bc05-76340220f9b3" points="34.2 6.4 30.4 8.5 28.3 7.3 28.3 7.8 30.6 9.2 34.4 7 39.1 9.8 39.1 9.2 34.2 6.4"/><polygon class="a3ad9760-f60f-4b49-819d-763201ce13b0" points="28.6 9.6 26.5 8.3 24.7 9.4 26.8 10.6 28.6 9.6"/><polygon class="aa8e3b6d-e7da-4881-bc05-76340220f9b3" points="30.6 8.5 32.4 7.4 28.6 9.6 26.8 10.6 30.6 8.5"/><polygon class="a3ad9760-f60f-4b49-819d-763201ce13b0" points="35.5 11.3 35.5 11.8 37.3 10.8 37.3 10.3 35.5 11.3"/><polygon class="af68c030-d4d8-4e92-bdf1-2ad4d06d9e08" points="35.5 11.3 37.3 10.3 32.4 7.4 30.6 8.5 35.5 11.3"/><polygon class="aa8e3b6d-e7da-4881-bc05-76340220f9b3" points="30.6 8.5 26.8 10.6 24.7 9.4 24.7 9.9 27 11.2 30.8 9.1 35.5 11.8 35.5 11.3 30.6 8.5"/><polygon class="a3ad9760-f60f-4b49-819d-763201ce13b0" points="25 11.7 22.9 10.4 21.1 11.5 23.2 12.7 25 11.7"/><polygon class="aa8e3b6d-e7da-4881-bc05-76340220f9b3" points="27 10.6 28.8 9.5 25 11.7 23.2 12.7 27 10.6"/><polygon class="a3ad9760-f60f-4b49-819d-763201ce13b0" points="31.9 13.4 31.9 13.9 33.7 12.9 33.7 12.4 31.9 13.4"/><polygon class="af68c030-d4d8-4e92-bdf1-2ad4d06d9e08" points="31.9 13.4 33.7 12.4 28.8 9.5 27 10.6 31.9 13.4"/><polygon class="aa8e3b6d-e7da-4881-bc05-76340220f9b3" points="27 10.6 23.2 12.7 21.1 11.5 21.1 12 23.4 13.3 27.2 11.2 31.9 13.9 31.9 13.4 27 10.6"/><polygon class="a3ad9760-f60f-4b49-819d-763201ce13b0" points="21.4 13.8 19.2 12.5 17.4 13.6 19.6 14.8 21.4 13.8"/><polygon class="aa8e3b6d-e7da-4881-bc05-76340220f9b3" points="23.3 12.7 25.1 11.6 21.4 13.8 19.6 14.8 23.3 12.7"/><polygon class="a3ad9760-f60f-4b49-819d-763201ce13b0" points="28.3 15.5 28.3 16 30.1 15 30.1 14.5 28.3 15.5"/><polygon class="af68c030-d4d8-4e92-bdf1-2ad4d06d9e08" points="28.3 15.5 30.1 14.5 25.1 11.6 23.3 12.7 28.3 15.5"/><polygon class="aa8e3b6d-e7da-4881-bc05-76340220f9b3" points="23.3 12.7 19.6 14.8 17.4 13.6 17.4 14.1 19.8 15.4 23.5 13.3 28.3 16 28.3 15.5 23.3 12.7"/><polygon class="a3ad9760-f60f-4b49-819d-763201ce13b0" points="17.8 15.9 15.6 14.6 13.8 15.7 16 16.9 17.8 15.9"/><polygon class="aa8e3b6d-e7da-4881-bc05-76340220f9b3" points="19.7 14.8 21.5 13.7 17.8 15.9 16 16.9 19.7 14.8"/><polygon class="a3ad9760-f60f-4b49-819d-763201ce13b0" points="24.6 17.6 24.6 18.1 26.4 17.1 26.4 16.6 24.6 17.6"/><polygon class="af68c030-d4d8-4e92-bdf1-2ad4d06d9e08" points="24.6 17.6 26.4 16.6 21.5 13.7 19.7 14.8 24.6 17.6"/><polygon class="aa8e3b6d-e7da-4881-bc05-76340220f9b3" points="19.7 14.8 16 16.9 13.8 15.7 13.8 16.2 16.1 17.5 19.9 15.4 24.6 18.1 24.6 17.6 19.7 14.8"/><polygon class="a3ad9760-f60f-4b49-819d-763201ce13b0" points="14.2 18 12 16.7 10.2 17.8 12.4 19 14.2 18"/><polygon class="aa8e3b6d-e7da-4881-bc05-76340220f9b3" points="16.1 16.9 17.9 15.8 14.2 18 12.4 19 16.1 16.9"/><polygon class="a3ad9760-f60f-4b49-819d-763201ce13b0" points="21.1 19.7 21.1 20.2 22.9 19.2 22.9 18.7 21.1 19.7"/><polygon class="af68c030-d4d8-4e92-bdf1-2ad4d06d9e08" points="21.1 19.7 22.9 18.7 17.9 15.8 16.1 16.9 21.1 19.7"/><polygon class="aa8e3b6d-e7da-4881-bc05-76340220f9b3" points="16.1 16.9 12.4 19 10.2 17.8 10.2 18.3 12.6 19.6 16.3 17.5 21.1 20.2 21.1 19.7 16.1 16.9"/><polygon class="a3ad9760-f60f-4b49-819d-763201ce13b0" points="10.6 20 8.4 18.8 6.6 19.9 8.8 21.1 10.6 20"/><polygon class="aa8e3b6d-e7da-4881-bc05-76340220f9b3" points="12.5 19 14.3 17.9 10.6 20 8.8 21.1 12.5 19"/><polygon class="a3ad9760-f60f-4b49-819d-763201ce13b0" points="17.4 21.8 17.4 22.3 19.2 21.3 19.2 20.8 17.4 21.8"/><polygon class="af68c030-d4d8-4e92-bdf1-2ad4d06d9e08" points="17.4 21.8 19.2 20.8 14.3 17.9 12.5 19 17.4 21.8"/><polygon class="aa8e3b6d-e7da-4881-bc05-76340220f9b3" points="12.5 19 8.8 21.1 6.6 19.9 6.6 20.4 8.9 21.7 12.7 19.6 17.4 22.3 17.4 21.8 12.5 19"/><polygon class="a3ad9760-f60f-4b49-819d-763201ce13b0" points="6.9 22.1 4.8 20.9 3 22 5.1 23.2 6.9 22.1"/><polygon class="aa8e3b6d-e7da-4881-bc05-76340220f9b3" points="8.9 21 10.7 20 6.9 22.1 5.1 23.2 8.9 21"/><polygon class="a3ad9760-f60f-4b49-819d-763201ce13b0" points="13.8 23.9 13.8 24.4 15.6 23.4 15.6 22.8 13.8 23.9"/><polygon class="af68c030-d4d8-4e92-bdf1-2ad4d06d9e08" points="13.8 23.9 15.6 22.8 10.7 20 8.9 21 13.8 23.9"/><polygon class="aa8e3b6d-e7da-4881-bc05-76340220f9b3" points="8.9 21 5.1 23.2 3 22 3 22.5 5.3 23.8 9 21.7 13.8 24.4 13.8 23.9 8.9 21"/><polygon class="bfd447a3-efa0-4724-934b-eb729e945370" points="86.1 25.4 86.1 28.1 84.1 31.9 84.1 29.2 86.1 25.4"/><polygon class="ab4e01c7-bfb7-4b39-bb50-8935aba96dab" points="84.1 29.2 84.1 31.9 77 31.2 77 28.5 84.1 29.2"/><polygon class="ab4e01c7-bfb7-4b39-bb50-8935aba96dab" points="3.3 29.1 3.3 31.9 1.2 28.1 1.2 25.3 3.3 29.1"/><polygon class="bfd447a3-efa0-4724-934b-eb729e945370" points="10.2 28.4 10.2 31.2 3.3 31.9 3.3 29.1 10.2 28.4"/><polygon class="bfd447a3-efa0-4724-934b-eb729e945370" points="77 28.5 77 31.2 49.2 47.4 49.2 44.6 77 28.5"/><polygon class="ab4e01c7-bfb7-4b39-bb50-8935aba96dab" points="38.4 44.7 38.4 47.5 10.2 31.2 10.2 28.4 38.4 44.7"/><polygon class="ab4e01c7-bfb7-4b39-bb50-8935aba96dab" points="43.8 49.9 43.8 52.6 37.2 51.4 37.3 48.7 43.8 49.9"/><polygon class="bfd447a3-efa0-4724-934b-eb729e945370" points="50.4 48.7 50.4 51.4 43.8 52.6 43.8 49.9 50.4 48.7"/><polygon class="b7827371-3fa0-4928-9d3a-37fc9df90c5b" points="84 21.5 86.1 25.4 84.1 29.2 77 28.5 49.2 44.6 50.4 48.7 43.8 49.9 37.3 48.7 38.4 44.7 10.2 28.4 3.3 29.1 1.2 25.3 3.3 21.5 10.3 22.2 38.1 6 36.9 1.9 43.5 0.7 50.1 1.9 48.9 6 77 22.2 84 21.5"/><polygon class="a8d5f3f9-b657-4bf5-b1d9-2114351f7747" points="46.5 44 76.2 26.8 82.3 27.4 83.4 25.3 82.3 23.1 76.1 23.7 46.2 6.4 47.2 2.9 47.2 2.9 43.5 2.2 39.8 2.9 40.9 6.4 11.2 23.7 5 23.1 5 23.1 3.9 25.2 5.1 27.4 5.1 27.4 11.1 26.8 41.1 44.1 40.1 47.5 43.8 48.2 47.5 47.5 46.5 44"/><polygon class="a66dd32a-c786-41d9-8c37-df77ff71f3f2" points="45.9 4.3 46.2 3.3 46.2 0.5 45.3 3.9 45.9 4.3"/><polygon class="b7827371-3fa0-4928-9d3a-37fc9df90c5b" points="40.8 0.5 40.8 3.3 41.1 4.3 41.8 3.9 40.8 0.5"/><polygon class="a66dd32a-c786-41d9-8c37-df77ff71f3f2" points="81.7 24.1 81.7 26.9 82.5 25.3 82.5 22.5 81.7 24.1"/><polygon class="b7827371-3fa0-4928-9d3a-37fc9df90c5b" points="75.9 23.5 75.9 26.3 81.7 26.9 81.7 24.1 75.9 23.5"/><polygon class="a66dd32a-c786-41d9-8c37-df77ff71f3f2" points="5.7 24.1 5.7 26.9 11.3 26.3 11.4 23.5 5.7 24.1"/><polygon class="b7827371-3fa0-4928-9d3a-37fc9df90c5b" points="4.8 22.5 4.8 25.3 5.7 26.9 5.7 24.1 4.8 22.5"/><polygon class="a66dd32a-c786-41d9-8c37-df77ff71f3f2" points="45.6 41.2 46.3 43.5 75.9 26.3 75.9 23.5 45.6 41.2"/><polygon class="b7827371-3fa0-4928-9d3a-37fc9df90c5b" points="11.4 23.5 11.3 26.3 41.4 43.6 42 41.2 11.4 23.5"/><path class="e3b84ca9-528d-454e-b31f-fd9c5f5e119c" d="M412.7,376.3l-5.8.6L377,359.6l-.7-.4,1-3.3-2.7-.5-2.8.5,1,3.3-.7.5-29.6,17.2-5.8-.6-.9,1.6.9,1.5,5.7-.5,30.7,17.7-.7,2.4-.2.8,2.7.5,2.7-.5-.3-.9-.7-2.4,30.3-17.6,5.9.6.8-1.6ZM399,378.2l-24.1,14h0L350,377.8l24.7-14.3,24.9,14.3Z" transform="translate(-331.1 -355.4)"/><polygon class="e3b84ca9-528d-454e-b31f-fd9c5f5e119c" points="68 22.5 43.7 8.4 19.5 22.5 43.8 36.5 68 22.5"/><polygon class="bfd447a3-efa0-4724-934b-eb729e945370" points="41.1 44.5 41.1 47.3 43.8 47.8 43.8 45 41.1 44.5"/><polygon class="b7827371-3fa0-4928-9d3a-37fc9df90c5b" points="43.8 47.8 46.6 47.3 46.6 44.5 43.8 45 43.8 47.8"/><path class="bc00c953-8adb-4455-9361-7d5de6fa0ae0" d="M399,378.2l.6-.4-24.9-14.3L350,377.8l24.9,14.4h0Zm-48.4-.4,24.1-14,24.3,14-24.1,14.1Z" transform="translate(-331.1 -355.4)"/><path class="b7827371-3fa0-4928-9d3a-37fc9df90c5b" d="M376.5,360.7a3.6,3.6,0,0,0-3.5,0,1.2,1.2,0,0,0-.7.7h-.1a1.2,1.2,0,0,1,.8-1.2,3.6,3.6,0,0,1,3.5,0c.5.3.7.6.7,1v.2h0A1.6,1.6,0,0,0,376.5,360.7Z" transform="translate(-331.1 -355.4)"/><path class="a3ad9760-f60f-4b49-819d-763201ce13b0" d="M377,361.6v.2h-.1l-.3.2a3.8,3.8,0,0,1-3.6,0l-.3-.2h0l-.2-.2h-.1a1.2,1.2,0,0,1,.7-.7,3.6,3.6,0,0,1,3.5,0,1.6,1.6,0,0,1,.7.7.1.1,0,0,0-.1.1C377.1,361.6,377.1,361.6,377,361.6Z" transform="translate(-331.1 -355.4)"/><path class="b7827371-3fa0-4928-9d3a-37fc9df90c5b" d="M404.9,377.4a3.6,3.6,0,0,0-3.5,0,1.5,1.5,0,0,0-.7.7h0a1.1,1.1,0,0,1,.7-1.2,3.6,3.6,0,0,1,3.5,0,1.3,1.3,0,0,1,.7,1v.2h0A1.5,1.5,0,0,0,404.9,377.4Z" transform="translate(-331.1 -355.4)"/><path class="a3ad9760-f60f-4b49-819d-763201ce13b0" d="M405.4,378.4h-.1a.1.1,0,0,1-.1.1l-.3.3a4.3,4.3,0,0,1-3.5,0l-.4-.3h0c-.1-.1-.1-.2-.2-.2h0v-.2a1.5,1.5,0,0,1,.7-.7,3.6,3.6,0,0,1,3.5,0,1.5,1.5,0,0,1,.7.7c0,.1-.1.1-.1.2Z" transform="translate(-331.1 -355.4)"/><path class="b7827371-3fa0-4928-9d3a-37fc9df90c5b" d="M376.5,393.7a4.3,4.3,0,0,0-3.5,0,1.7,1.7,0,0,0-.7.8h0c0-.1,0-.1-.1-.1a1.2,1.2,0,0,1,.8-1.2,3.6,3.6,0,0,1,3.5,0c.5.3.7.6.7,1h0v.2h0C377.1,394.2,376.8,394,376.5,393.7Z" transform="translate(-331.1 -355.4)"/><path class="a66dd32a-c786-41d9-8c37-df77ff71f3f2" d="M377,394.7a.3.3,0,0,1-.1.2h-.1l-.3.2a3.8,3.8,0,0,1-3.6,0l-.3-.2h0a.2.2,0,0,1-.2-.2h-.1a1.7,1.7,0,0,1,.7-.8,4.3,4.3,0,0,1,3.5,0c.3.3.6.5.7.8a.1.1,0,0,0-.1.1Z" transform="translate(-331.1 -355.4)"/><path class="b7827371-3fa0-4928-9d3a-37fc9df90c5b" d="M348.1,377.4a3.6,3.6,0,0,0-3.5,0,1.5,1.5,0,0,0-.7.7h0a1.1,1.1,0,0,1,.7-1.2,3.6,3.6,0,0,1,3.5,0,1.4,1.4,0,0,1,.8,1c0,.1-.1.1-.1.2h0A1.5,1.5,0,0,0,348.1,377.4Z" transform="translate(-331.1 -355.4)"/><path class="a66dd32a-c786-41d9-8c37-df77ff71f3f2" d="M348.7,378.4h-.2c0,.1,0,.1-.1.1l-.3.3a4.3,4.3,0,0,1-3.5,0l-.3-.3h-.1c-.1-.1-.1-.2-.2-.2h0c0-.1-.1-.1-.1-.2a1.5,1.5,0,0,1,.7-.7,3.6,3.6,0,0,1,3.5,0,1.5,1.5,0,0,1,.7.7v.2Z" transform="translate(-331.1 -355.4)"/><polygon class="a3ad9760-f60f-4b49-819d-763201ce13b0" points="7.6 41.2 5.8 40.2 9.5 33.7 11.3 34.8 7.6 41.2"/><polygon class="af68c030-d4d8-4e92-bdf1-2ad4d06d9e08" points="9.5 33.7 14.4 30.9 16.2 31.9 11.3 34.8 9.5 33.7"/><polygon class="a3ad9760-f60f-4b49-819d-763201ce13b0" points="5.4 42.5 5.4 43 3.6 41.9 3.6 41.4 5.4 42.5"/><polygon class="af68c030-d4d8-4e92-bdf1-2ad4d06d9e08" points="5.4 42.5 3.6 41.4 5.8 40.2 7.6 41.2 5.4 42.5"/><polygon class="aa8e3b6d-e7da-4881-bc05-76340220f9b3" points="7.6 41.2 11.3 34.8 16.2 31.9 16.2 32.4 11.5 35.2 7.8 41.6 5.4 43 5.4 42.5 7.6 41.2"/><polygon class="a3ad9760-f60f-4b49-819d-763201ce13b0" points="3.9 39.1 2.1 38.1 5.9 31.6 7.7 32.7 3.9 39.1"/><polygon class="af68c030-d4d8-4e92-bdf1-2ad4d06d9e08" points="5.9 31.6 10.8 28.8 12.6 29.8 7.7 32.7 5.9 31.6"/><polygon class="a3ad9760-f60f-4b49-819d-763201ce13b0" points="1.8 40.4 1.8 40.9 0 39.8 0 39.3 1.8 40.4"/><polygon class="af68c030-d4d8-4e92-bdf1-2ad4d06d9e08" points="1.8 40.4 0 39.3 2.1 38.1 3.9 39.1 1.8 40.4"/><polygon class="aa8e3b6d-e7da-4881-bc05-76340220f9b3" points="3.9 39.1 7.7 32.7 12.6 29.8 12.6 30.3 7.8 33.1 4.1 39.5 1.8 40.9 1.8 40.4 3.9 39.1"/><polygon class="a3ad9760-f60f-4b49-819d-763201ce13b0" points="11.2 43.3 9.4 42.3 13.1 35.8 14.9 36.9 11.2 43.3"/><polygon class="af68c030-d4d8-4e92-bdf1-2ad4d06d9e08" points="13.1 35.8 18.1 33 19.9 34 14.9 36.9 13.1 35.8"/><polygon class="a3ad9760-f60f-4b49-819d-763201ce13b0" points="9.1 44.5 9.1 45.1 7.3 44 7.3 43.5 9.1 44.5"/><polygon class="af68c030-d4d8-4e92-bdf1-2ad4d06d9e08" points="9.1 44.5 7.3 43.5 9.4 42.3 11.2 43.3 9.1 44.5"/><polygon class="aa8e3b6d-e7da-4881-bc05-76340220f9b3" points="11.2 43.3 14.9 36.9 19.9 34 19.9 34.5 15.1 37.3 11.4 43.7 9.1 45.1 9.1 44.5 11.2 43.3"/><polygon class="a3ad9760-f60f-4b49-819d-763201ce13b0" points="14.9 45.4 13.1 44.4 16.8 37.9 18.6 39 14.9 45.4"/><polygon class="af68c030-d4d8-4e92-bdf1-2ad4d06d9e08" points="16.8 37.9 21.7 35.1 23.5 36.1 18.6 39 16.8 37.9"/><polygon class="a3ad9760-f60f-4b49-819d-763201ce13b0" points="12.7 46.7 12.7 47.2 10.9 46.1 10.9 45.6 12.7 46.7"/><polygon class="af68c030-d4d8-4e92-bdf1-2ad4d06d9e08" points="12.7 46.7 10.9 45.6 13.1 44.4 14.9 45.4 12.7 46.7"/><polygon class="aa8e3b6d-e7da-4881-bc05-76340220f9b3" points="14.9 45.4 18.6 39 23.5 36.1 23.5 36.7 18.8 39.4 15 45.9 12.7 47.2 12.7 46.7 14.9 45.4"/><polygon class="a3ad9760-f60f-4b49-819d-763201ce13b0" points="18.5 47.6 16.7 46.5 20.4 40 22.2 41.1 18.5 47.6"/><polygon class="af68c030-d4d8-4e92-bdf1-2ad4d06d9e08" points="20.4 40 25.4 37.2 27.2 38.3 22.2 41.1 20.4 40"/><polygon class="a3ad9760-f60f-4b49-819d-763201ce13b0" points="16.4 48.8 16.4 49.3 14.6 48.3 14.6 47.7 16.4 48.8"/><polygon class="af68c030-d4d8-4e92-bdf1-2ad4d06d9e08" points="16.4 48.8 14.6 47.7 16.7 46.5 18.5 47.6 16.4 48.8"/><polygon class="aa8e3b6d-e7da-4881-bc05-76340220f9b3" points="18.5 47.6 22.2 41.1 27.2 38.3 27.2 38.8 22.4 41.5 18.7 48 16.4 49.3 16.4 48.8 18.5 47.6"/><polygon class="a3ad9760-f60f-4b49-819d-763201ce13b0" points="22.1 49.6 20.3 48.6 24.1 42.1 25.9 43.2 22.1 49.6"/><polygon class="af68c030-d4d8-4e92-bdf1-2ad4d06d9e08" points="24.1 42.1 29 39.3 30.8 40.3 25.9 43.2 24.1 42.1"/><polygon class="a3ad9760-f60f-4b49-819d-763201ce13b0" points="20 50.9 20 51.4 18.2 50.3 18.2 49.8 20 50.9"/><polygon class="af68c030-d4d8-4e92-bdf1-2ad4d06d9e08" points="20 50.9 18.2 49.8 20.3 48.6 22.1 49.6 20 50.9"/><polygon class="aa8e3b6d-e7da-4881-bc05-76340220f9b3" points="22.1 49.6 25.9 43.2 30.8 40.3 30.8 40.9 26 43.6 22.3 50.1 20 51.4 20 50.9 22.1 49.6"/><polygon class="a3ad9760-f60f-4b49-819d-763201ce13b0" points="25.8 51.7 24 50.7 27.7 44.2 29.5 45.3 25.8 51.7"/><polygon class="af68c030-d4d8-4e92-bdf1-2ad4d06d9e08" points="27.7 44.2 32.6 41.4 34.4 42.4 29.5 45.3 27.7 44.2"/><polygon class="a3ad9760-f60f-4b49-819d-763201ce13b0" points="23.7 53 23.7 53.5 21.9 52.4 21.9 51.9 23.7 53"/><polygon class="af68c030-d4d8-4e92-bdf1-2ad4d06d9e08" points="23.7 53 21.9 51.9 24 50.7 25.8 51.7 23.7 53"/><polygon class="aa8e3b6d-e7da-4881-bc05-76340220f9b3" points="25.8 51.7 29.5 45.3 34.4 42.4 34.4 43 29.7 45.7 26 52.2 23.7 53.5 23.7 53 25.8 51.7"/><polygon class="a3ad9760-f60f-4b49-819d-763201ce13b0" points="29.4 53.9 27.6 52.8 31.4 46.4 33.2 47.4 29.4 53.9"/><polygon class="af68c030-d4d8-4e92-bdf1-2ad4d06d9e08" points="31.4 46.4 36.3 43.5 38.1 44.6 33.2 47.4 31.4 46.4"/><polygon class="a3ad9760-f60f-4b49-819d-763201ce13b0" points="27.3 55.1 27.3 55.6 25.5 54.6 25.5 54 27.3 55.1"/><polygon class="af68c030-d4d8-4e92-bdf1-2ad4d06d9e08" points="27.3 55.1 25.5 54 27.6 52.8 29.4 53.9 27.3 55.1"/><polygon class="aa8e3b6d-e7da-4881-bc05-76340220f9b3" points="29.4 53.9 33.2 47.4 38.1 44.6 38.1 45.1 33.3 47.8 29.6 54.3 27.3 55.6 27.3 55.1 29.4 53.9"/><polygon class="a3ad9760-f60f-4b49-819d-763201ce13b0" points="79.9 41.2 81.7 40.1 78 33.7 76.2 34.7 79.9 41.2"/><polygon class="af68c030-d4d8-4e92-bdf1-2ad4d06d9e08" points="78 33.7 73.1 30.8 71.3 31.9 76.2 34.7 78 33.7"/><polygon class="a3ad9760-f60f-4b49-819d-763201ce13b0" points="82.1 42.4 82.1 42.9 83.9 41.9 83.9 41.4 82.1 42.4"/><polygon class="af68c030-d4d8-4e92-bdf1-2ad4d06d9e08" points="82.1 42.4 83.9 41.4 81.7 40.1 79.9 41.2 82.1 42.4"/><polygon class="aa8e3b6d-e7da-4881-bc05-76340220f9b3" points="79.9 41.2 76.2 34.7 71.3 31.9 71.3 32.4 76 35.1 79.8 41.6 82.1 42.9 82.1 42.4 79.9 41.2"/><polygon class="a3ad9760-f60f-4b49-819d-763201ce13b0" points="83.6 39.1 85.4 38 81.7 31.6 79.9 32.6 83.6 39.1"/><polygon class="af68c030-d4d8-4e92-bdf1-2ad4d06d9e08" points="81.7 31.6 76.7 28.7 74.9 29.8 79.9 32.6 81.7 31.6"/><polygon class="a3ad9760-f60f-4b49-819d-763201ce13b0" points="85.7 40.3 85.7 40.8 87.5 39.8 87.5 39.3 85.7 40.3"/><polygon class="af68c030-d4d8-4e92-bdf1-2ad4d06d9e08" points="85.7 40.3 87.5 39.3 85.4 38 83.6 39.1 85.7 40.3"/><polygon class="aa8e3b6d-e7da-4881-bc05-76340220f9b3" points="83.6 39.1 79.9 32.6 74.9 29.8 74.9 30.3 79.7 33 83.4 39.5 85.7 40.8 85.7 40.3 83.6 39.1"/><polygon class="a3ad9760-f60f-4b49-819d-763201ce13b0" points="76.3 43.3 78.1 42.2 74.4 35.8 72.6 36.8 76.3 43.3"/><polygon class="af68c030-d4d8-4e92-bdf1-2ad4d06d9e08" points="74.4 35.8 69.4 32.9 67.6 34 72.6 36.8 74.4 35.8"/><polygon class="a3ad9760-f60f-4b49-819d-763201ce13b0" points="78.4 44.5 78.4 45 80.2 44 80.2 43.5 78.4 44.5"/><polygon class="af68c030-d4d8-4e92-bdf1-2ad4d06d9e08" points="78.4 44.5 80.2 43.5 78.1 42.2 76.3 43.3 78.4 44.5"/><polygon class="aa8e3b6d-e7da-4881-bc05-76340220f9b3" points="76.3 43.3 72.6 36.8 67.6 34 67.6 34.5 72.4 37.2 76.1 43.7 78.4 45 78.4 44.5 76.3 43.3"/><polygon class="a3ad9760-f60f-4b49-819d-763201ce13b0" points="72.7 45.4 74.5 44.4 70.7 37.9 68.9 38.9 72.7 45.4"/><polygon class="af68c030-d4d8-4e92-bdf1-2ad4d06d9e08" points="70.7 37.9 65.8 35.1 64 36.1 68.9 38.9 70.7 37.9"/><polygon class="a3ad9760-f60f-4b49-819d-763201ce13b0" points="74.8 46.6 74.8 47.2 76.6 46.1 76.6 45.6 74.8 46.6"/><polygon class="af68c030-d4d8-4e92-bdf1-2ad4d06d9e08" points="74.8 46.6 76.6 45.6 74.5 44.4 72.7 45.4 74.8 46.6"/><polygon class="aa8e3b6d-e7da-4881-bc05-76340220f9b3" points="72.7 45.4 68.9 38.9 64 36.1 64 36.6 68.7 39.4 72.5 45.8 74.8 47.2 74.8 46.6 72.7 45.4"/><polygon class="a3ad9760-f60f-4b49-819d-763201ce13b0" points="69 47.5 70.8 46.5 67.1 40 65.3 41.1 69 47.5"/><polygon class="af68c030-d4d8-4e92-bdf1-2ad4d06d9e08" points="67.1 40 62.1 37.2 60.3 38.2 65.3 41.1 67.1 40"/><polygon class="a3ad9760-f60f-4b49-819d-763201ce13b0" points="71.1 48.8 71.1 49.3 72.9 48.2 72.9 47.7 71.1 48.8"/><polygon class="af68c030-d4d8-4e92-bdf1-2ad4d06d9e08" points="71.1 48.8 72.9 47.7 70.8 46.5 69 47.5 71.1 48.8"/><polygon class="aa8e3b6d-e7da-4881-bc05-76340220f9b3" points="69 47.5 65.3 41.1 60.3 38.2 60.3 38.7 65.1 41.5 68.8 47.9 71.1 49.3 71.1 48.8 69 47.5"/><polygon class="a3ad9760-f60f-4b49-819d-763201ce13b0" points="65.4 49.6 67.2 48.6 63.5 42.1 61.7 43.1 65.4 49.6"/><polygon class="af68c030-d4d8-4e92-bdf1-2ad4d06d9e08" points="63.5 42.1 58.5 39.3 56.7 40.3 61.7 43.1 63.5 42.1"/><polygon class="a3ad9760-f60f-4b49-819d-763201ce13b0" points="67.5 50.8 67.5 51.4 69.3 50.3 69.3 49.8 67.5 50.8"/><polygon class="af68c030-d4d8-4e92-bdf1-2ad4d06d9e08" points="67.5 50.8 69.3 49.8 67.2 48.6 65.4 49.6 67.5 50.8"/><polygon class="aa8e3b6d-e7da-4881-bc05-76340220f9b3" points="65.4 49.6 61.7 43.1 56.7 40.3 56.7 40.8 61.5 43.6 65.2 50 67.5 51.4 67.5 50.8 65.4 49.6"/><polygon class="a3ad9760-f60f-4b49-819d-763201ce13b0" points="61.7 51.7 63.5 50.7 59.8 44.2 58 45.2 61.7 51.7"/><polygon class="af68c030-d4d8-4e92-bdf1-2ad4d06d9e08" points="59.8 44.2 54.9 41.4 53.1 42.4 58 45.2 59.8 44.2"/><polygon class="a3ad9760-f60f-4b49-819d-763201ce13b0" points="63.9 52.9 63.9 53.5 65.7 52.4 65.7 51.9 63.9 52.9"/><polygon class="af68c030-d4d8-4e92-bdf1-2ad4d06d9e08" points="63.9 52.9 65.7 51.9 63.5 50.7 61.7 51.7 63.9 52.9"/><polygon class="aa8e3b6d-e7da-4881-bc05-76340220f9b3" points="61.7 51.7 58 45.2 53.1 42.4 53.1 42.9 57.8 45.7 61.5 52.1 63.9 53.5 63.9 52.9 61.7 51.7"/><polygon class="a3ad9760-f60f-4b49-819d-763201ce13b0" points="58.1 53.8 59.9 52.8 56.2 46.3 54.4 47.4 58.1 53.8"/><polygon class="af68c030-d4d8-4e92-bdf1-2ad4d06d9e08" points="56.2 46.3 51.2 43.5 49.4 44.5 54.4 47.4 56.2 46.3"/><polygon class="a3ad9760-f60f-4b49-819d-763201ce13b0" points="60.2 55 60.2 55.6 62 54.5 62 54 60.2 55"/><polygon class="af68c030-d4d8-4e92-bdf1-2ad4d06d9e08" points="60.2 55 62 54 59.9 52.8 58.1 53.8 60.2 55"/><polygon class="aa8e3b6d-e7da-4881-bc05-76340220f9b3" points="58.1 53.8 54.4 47.4 49.4 44.5 49.4 45 54.2 47.8 57.9 54.2 60.2 55.6 60.2 55 58.1 53.8"/><polygon class="ab4e01c7-bfb7-4b39-bb50-8935aba96dab" points="56.1 33.9 51 36.9 52 37.5 56.1 35 56.1 33.9"/><polygon class="b7827371-3fa0-4928-9d3a-37fc9df90c5b" points="56.1 35 57.1 35.6 57.1 35.6 57.1 34.5 56.1 33.9 56.1 35 56.1 35"/><polygon class="e3b84ca9-528d-454e-b31f-fd9c5f5e119c" points="57.1 35.6 57.1 35.6 57.1 35.6 56.1 35 56.1 35 52 37.5 52 38.6 57.1 35.6"/><polygon class="ab4e01c7-bfb7-4b39-bb50-8935aba96dab" points="67.8 27.1 62.7 30 63.7 30.6 67.8 28.2 67.8 27.1"/><polygon class="b7827371-3fa0-4928-9d3a-37fc9df90c5b" points="67.8 28.2 68.8 28.8 68.8 28.8 68.8 27.7 67.8 27.1 67.8 28.2 67.8 28.2"/><polygon class="e3b84ca9-528d-454e-b31f-fd9c5f5e119c" points="68.8 28.8 68.8 28.8 68.8 28.8 67.8 28.2 67.8 28.2 63.7 30.6 63.7 31.8 68.8 28.8"/><polygon class="a3ad9760-f60f-4b49-819d-763201ce13b0" points="68 22.5 43.7 8.4 19.5 22.5 43.8 36.5 68 22.5"/><polygon class="aa8e3b6d-e7da-4881-bc05-76340220f9b3" points="62.4 23.8 63.7 23 43 11 41.7 11.8 62.4 23.8"/><polygon class="aa8e3b6d-e7da-4881-bc05-76340220f9b3" points="61.1 24.5 40.4 12.5 39.1 13.3 59.8 25.3 60.6 24.8 61.1 24.5"/><polygon class="aa8e3b6d-e7da-4881-bc05-76340220f9b3" points="37.8 14 37 14.5 36.5 14.8 57.2 26.8 58.5 26 37.8 14"/><polygon class="aa8e3b6d-e7da-4881-bc05-76340220f9b3" points="35.2 15.6 33.9 16.3 54.6 28.3 55.9 27.5 35.2 15.6"/><polygon class="aa8e3b6d-e7da-4881-bc05-76340220f9b3" points="32.6 17.1 31.3 17.8 52 29.8 53.3 29 32.6 17.1"/><polygon class="aa8e3b6d-e7da-4881-bc05-76340220f9b3" points="30 18.6 28.7 19.3 49.4 31.3 50.7 30.5 30 18.6"/><polygon class="aa8e3b6d-e7da-4881-bc05-76340220f9b3" points="48.1 32 27.4 20.1 26.1 20.8 46.8 32.8 48.1 32"/><polygon class="aa8e3b6d-e7da-4881-bc05-76340220f9b3" points="24.8 21.6 23.5 22.3 44.2 34.3 45.5 33.6 24.8 21.6"/></svg>