<svg id="b3985cc8-d70e-47ee-bdb6-a11614e9b1f5" data-name="Layer 1" xmlns="http://www.w3.org/2000/svg" viewBox="0 0 60.5 72.6"><defs><style>.ea745811-478f-411e-a3e0-8a741de0d6a5{fill:#a0a0a0;}.bb0a03b3-658f-4fd8-aa07-5962a3e4f6bc{fill:#676767;}.b46f23b2-87b4-4b4a-845c-732a9b3bc25d{fill:#ccc;}.e045643f-fd08-4962-8132-38c3f3192d07{fill:#545454;}.aa1248f5-0078-4ce8-89dc-5e021682b806{isolation:isolate;}.b1e4c2cd-55f4-418b-8ee1-efb50825581e{fill:#292c36;}.aeb52a84-afc0-4a41-a629-51b2a291e81e{fill:#4e5463;}.b0ef928c-644b-4058-94e2-dfd4e49bd348{fill:#373c48;}.fca55740-7cd4-4c5d-a0e7-1596c13d13e1{fill:#1e1616;}.e443ba07-d919-4345-8c5f-a591c1cd19d7{fill:#596177;}</style></defs><polygon class="ea745811-478f-411e-a3e0-8a741de0d6a5" points="25.7 41 23.5 39.8 21.7 40.8 23.9 42 25.7 41"/><polygon class="bb0a03b3-658f-4fd8-aa07-5962a3e4f6bc" points="27.6 39.9 29.4 38.9 25.7 41 23.9 42 27.6 39.9"/><polygon class="b46f23b2-87b4-4b4a-845c-732a9b3bc25d" points="32.5 42.7 32.5 43.3 34.3 42.2 34.3 41.7 32.5 42.7"/><polygon class="ea745811-478f-411e-a3e0-8a741de0d6a5" points="32.5 42.7 34.3 41.7 29.4 38.9 27.6 39.9 32.5 42.7"/><polygon class="bb0a03b3-658f-4fd8-aa07-5962a3e4f6bc" points="27.6 39.9 23.9 42 21.7 40.8 21.7 41.3 24.1 42.7 27.8 40.5 32.5 43.3 32.5 42.7 27.6 39.9"/><polygon class="ea745811-478f-411e-a3e0-8a741de0d6a5" points="22.1 43.1 19.9 41.9 18.1 42.9 20.3 44.1 22.1 43.1"/><polygon class="bb0a03b3-658f-4fd8-aa07-5962a3e4f6bc" points="24 42 25.8 41 22.1 43.1 20.3 44.1 24 42"/><polygon class="b46f23b2-87b4-4b4a-845c-732a9b3bc25d" points="28.9 44.8 28.9 45.4 30.7 44.3 30.7 43.8 28.9 44.8"/><polygon class="ea745811-478f-411e-a3e0-8a741de0d6a5" points="28.9 44.8 30.7 43.8 25.8 41 24 42 28.9 44.8"/><polygon class="bb0a03b3-658f-4fd8-aa07-5962a3e4f6bc" points="24 42 20.3 44.1 18.1 42.9 18.1 43.4 20.4 44.8 24.2 42.6 28.9 45.4 28.9 44.8 24 42"/><polygon class="ea745811-478f-411e-a3e0-8a741de0d6a5" points="18.4 45.2 16.3 44 14.5 45 16.6 46.2 18.4 45.2"/><polygon class="bb0a03b3-658f-4fd8-aa07-5962a3e4f6bc" points="20.4 44.1 22.2 43 18.4 45.2 16.6 46.2 20.4 44.1"/><polygon class="b46f23b2-87b4-4b4a-845c-732a9b3bc25d" points="25.3 46.9 25.3 47.5 27.1 46.4 27.1 45.9 25.3 46.9"/><polygon class="ea745811-478f-411e-a3e0-8a741de0d6a5" points="25.3 46.9 27.1 45.9 22.2 43 20.4 44.1 25.3 46.9"/><polygon class="bb0a03b3-658f-4fd8-aa07-5962a3e4f6bc" points="20.4 44.1 16.6 46.2 14.5 45 14.5 45.5 16.8 46.9 20.5 44.7 25.3 47.5 25.3 46.9 20.4 44.1"/><polygon class="ea745811-478f-411e-a3e0-8a741de0d6a5" points="14.8 47.3 12.7 46.1 10.9 47.1 13 48.3 14.8 47.3"/><polygon class="bb0a03b3-658f-4fd8-aa07-5962a3e4f6bc" points="16.7 46.2 18.5 45.1 14.8 47.3 13 48.3 16.7 46.2"/><polygon class="b46f23b2-87b4-4b4a-845c-732a9b3bc25d" points="21.7 49 21.7 49.6 23.5 48.5 23.5 48 21.7 49"/><polygon class="ea745811-478f-411e-a3e0-8a741de0d6a5" points="21.7 49 23.5 48 18.5 45.1 16.7 46.2 21.7 49"/><polygon class="bb0a03b3-658f-4fd8-aa07-5962a3e4f6bc" points="16.7 46.2 13 48.3 10.9 47.1 10.9 47.6 13.2 49 16.9 46.8 21.7 49.6 21.7 49 16.7 46.2"/><polygon class="b46f23b2-87b4-4b4a-845c-732a9b3bc25d" points="11.2 49.4 9.1 48.2 7.3 49.2 9.4 50.4 11.2 49.4"/><polygon class="bb0a03b3-658f-4fd8-aa07-5962a3e4f6bc" points="13.2 48.3 15 47.2 11.2 49.4 9.4 50.4 13.2 48.3"/><polygon class="b46f23b2-87b4-4b4a-845c-732a9b3bc25d" points="18.1 51.1 18.1 51.6 19.9 50.6 19.9 50.1 18.1 51.1"/><polygon class="ea745811-478f-411e-a3e0-8a741de0d6a5" points="18.1 51.1 19.9 50.1 15 47.2 13.2 48.3 18.1 51.1"/><polygon class="bb0a03b3-658f-4fd8-aa07-5962a3e4f6bc" points="13.2 48.3 9.4 50.4 7.3 49.2 7.3 49.7 9.6 51.1 13.3 48.9 18.1 51.6 18.1 51.1 13.2 48.3"/><polygon class="b46f23b2-87b4-4b4a-845c-732a9b3bc25d" points="7.6 51.5 5.5 50.3 3.7 51.3 5.8 52.5 7.6 51.5"/><polygon class="bb0a03b3-658f-4fd8-aa07-5962a3e4f6bc" points="9.5 50.4 11.3 49.3 7.6 51.5 5.8 52.5 9.5 50.4"/><polygon class="b46f23b2-87b4-4b4a-845c-732a9b3bc25d" points="14.5 53.2 14.5 53.7 16.3 52.7 16.3 52.2 14.5 53.2"/><polygon class="ea745811-478f-411e-a3e0-8a741de0d6a5" points="14.5 53.2 16.3 52.2 11.3 49.3 9.5 50.4 14.5 53.2"/><polygon class="bb0a03b3-658f-4fd8-aa07-5962a3e4f6bc" points="9.5 50.4 5.8 52.5 3.7 51.3 3.7 51.8 6 53.2 9.7 51 14.5 53.7 14.5 53.2 9.5 50.4"/><polygon class="b46f23b2-87b4-4b4a-845c-732a9b3bc25d" points="3.9 53.6 1.8 52.3 0 53.4 2.1 54.6 3.9 53.6"/><polygon class="bb0a03b3-658f-4fd8-aa07-5962a3e4f6bc" points="5.9 52.5 7.7 51.4 3.9 53.6 2.1 54.6 5.9 52.5"/><polygon class="b46f23b2-87b4-4b4a-845c-732a9b3bc25d" points="10.8 55.3 10.8 55.8 12.6 54.8 12.6 54.3 10.8 55.3"/><polygon class="ea745811-478f-411e-a3e0-8a741de0d6a5" points="10.8 55.3 12.6 54.3 7.7 51.4 5.9 52.5 10.8 55.3"/><polygon class="bb0a03b3-658f-4fd8-aa07-5962a3e4f6bc" points="5.9 52.5 2.1 54.6 0 53.4 0 53.9 2.3 55.2 6.1 53.1 10.8 55.8 10.8 55.3 5.9 52.5"/><path class="e045643f-fd08-4962-8132-38c3f3192d07" d="M269.8,80.5l29.1-16.8h6l9.9,5.7v6.9L285.7,93.2h-6l-9.9-5.8V80.5Z" transform="translate(-261.3 -26.6)"/><g class="aa1248f5-0078-4ce8-89dc-5e021682b806"><path class="b1e4c2cd-55f4-418b-8ee1-efb50825581e" d="M314.8,72.9v0Z" transform="translate(-261.3 -26.6)"/><polygon class="aeb52a84-afc0-4a41-a629-51b2a291e81e" points="8.5 57.3 8.5 60.8 18.4 66.5 18.4 63 8.5 57.3"/><polygon class="b1e4c2cd-55f4-418b-8ee1-efb50825581e" points="24.4 63 24.4 66.5 53.5 49.7 53.5 46.2 24.4 63"/><path class="b0ef928c-644b-4058-94e2-dfd4e49bd348" d="M279.7,89.7v3.5h6V89.7Z" transform="translate(-261.3 -26.6)"/><path class="fca55740-7cd4-4c5d-a0e7-1596c13d13e1" d="M269.8,80.5V84l9.9,5.7h6l29.1-16.8V69.4l-9.9-5.7h-6Z" transform="translate(-261.3 -26.6)"/></g><path class="e045643f-fd08-4962-8132-38c3f3192d07" d="M269.8,43.5l29.1-16.8h6l9.9,5.7V72.3L285.7,89.1h-6l-9.9-5.7V43.5Z" transform="translate(-261.3 -26.6)"/><g class="aa1248f5-0078-4ce8-89dc-5e021682b806"><path class="b1e4c2cd-55f4-418b-8ee1-efb50825581e" d="M314.8,35.9v0Z" transform="translate(-261.3 -26.6)"/><polygon class="aeb52a84-afc0-4a41-a629-51b2a291e81e" points="8.5 20.3 8.5 56.8 18.4 62.5 18.4 26 8.5 20.3"/><polygon class="b1e4c2cd-55f4-418b-8ee1-efb50825581e" points="24.4 26 24.4 62.5 53.5 45.7 53.5 9.2 24.4 26"/><path class="b0ef928c-644b-4058-94e2-dfd4e49bd348" d="M279.7,52.7V89.1h6V52.7Z" transform="translate(-261.3 -26.6)"/><path class="e443ba07-d919-4345-8c5f-a591c1cd19d7" d="M269.8,43.5V47l9.9,5.7h6l29.1-16.8V32.4l-9.9-5.8h-6Z" transform="translate(-261.3 -26.6)"/></g><polygon class="b46f23b2-87b4-4b4a-845c-732a9b3bc25d" points="56.6 58.2 58.4 57.2 54.7 50.7 52.9 51.7 56.6 58.2"/><polygon class="ea745811-478f-411e-a3e0-8a741de0d6a5" points="54.7 50.7 49.8 47.9 48 48.9 52.9 51.7 54.7 50.7"/><polygon class="b46f23b2-87b4-4b4a-845c-732a9b3bc25d" points="58.7 59.4 58.7 59.9 60.5 58.9 60.5 58.4 58.7 59.4"/><polygon class="ea745811-478f-411e-a3e0-8a741de0d6a5" points="58.7 59.4 60.5 58.4 58.4 57.2 56.6 58.2 58.7 59.4"/><polygon class="bb0a03b3-658f-4fd8-aa07-5962a3e4f6bc" points="56.6 58.2 52.9 51.7 48 48.9 48 49.4 52.7 52.1 56.4 58.6 58.7 59.9 58.7 59.4 56.6 58.2"/><polygon class="b46f23b2-87b4-4b4a-845c-732a9b3bc25d" points="53 60.3 54.8 59.2 51 52.8 49.2 53.8 53 60.3"/><polygon class="ea745811-478f-411e-a3e0-8a741de0d6a5" points="51 52.8 46.1 49.9 44.3 51 49.2 53.8 51 52.8"/><polygon class="b46f23b2-87b4-4b4a-845c-732a9b3bc25d" points="55.1 61.5 55.1 62 56.9 61 56.9 60.5 55.1 61.5"/><polygon class="ea745811-478f-411e-a3e0-8a741de0d6a5" points="55.1 61.5 56.9 60.5 54.8 59.2 53 60.3 55.1 61.5"/><polygon class="bb0a03b3-658f-4fd8-aa07-5962a3e4f6bc" points="53 60.3 49.2 53.8 44.3 51 44.3 51.5 49 54.2 52.8 60.7 55.1 62 55.1 61.5 53 60.3"/><polygon class="b46f23b2-87b4-4b4a-845c-732a9b3bc25d" points="49.3 62.4 51.1 61.4 47.4 54.9 45.6 56 49.3 62.4"/><polygon class="ea745811-478f-411e-a3e0-8a741de0d6a5" points="47.4 54.9 42.5 52.1 40.7 53.1 45.6 56 47.4 54.9"/><polygon class="b46f23b2-87b4-4b4a-845c-732a9b3bc25d" points="51.4 63.6 51.4 64.2 53.2 63.1 53.2 62.6 51.4 63.6"/><polygon class="ea745811-478f-411e-a3e0-8a741de0d6a5" points="51.4 63.6 53.2 62.6 51.1 61.4 49.3 62.4 51.4 63.6"/><polygon class="bb0a03b3-658f-4fd8-aa07-5962a3e4f6bc" points="49.3 62.4 45.6 56 40.7 53.1 40.7 53.6 45.4 56.4 49.1 62.8 51.4 64.2 51.4 63.6 49.3 62.4"/><polygon class="b46f23b2-87b4-4b4a-845c-732a9b3bc25d" points="45.7 64.5 47.5 63.5 43.7 57 41.9 58.1 45.7 64.5"/><polygon class="ea745811-478f-411e-a3e0-8a741de0d6a5" points="43.7 57 38.8 54.2 37 55.2 41.9 58.1 43.7 57"/><polygon class="b46f23b2-87b4-4b4a-845c-732a9b3bc25d" points="47.8 65.8 47.8 66.3 49.6 65.2 49.6 64.7 47.8 65.8"/><polygon class="ea745811-478f-411e-a3e0-8a741de0d6a5" points="47.8 65.8 49.6 64.7 47.5 63.5 45.7 64.5 47.8 65.8"/><polygon class="bb0a03b3-658f-4fd8-aa07-5962a3e4f6bc" points="45.7 64.5 41.9 58.1 37 55.2 37 55.7 41.8 58.5 45.5 64.9 47.8 66.3 47.8 65.8 45.7 64.5"/><polygon class="b46f23b2-87b4-4b4a-845c-732a9b3bc25d" points="42 66.6 43.9 65.6 40.1 59.1 38.3 60.2 42 66.6"/><polygon class="ea745811-478f-411e-a3e0-8a741de0d6a5" points="40.1 59.1 35.2 56.3 33.4 57.3 38.3 60.2 40.1 59.1"/><polygon class="b46f23b2-87b4-4b4a-845c-732a9b3bc25d" points="44.2 67.8 44.2 68.4 46 67.3 46 66.8 44.2 67.8"/><polygon class="ea745811-478f-411e-a3e0-8a741de0d6a5" points="44.2 67.8 46 66.8 43.9 65.6 42 66.6 44.2 67.8"/><polygon class="bb0a03b3-658f-4fd8-aa07-5962a3e4f6bc" points="42 66.6 38.3 60.2 33.4 57.3 33.4 57.8 38.1 60.6 41.9 67 44.2 68.4 44.2 67.8 42 66.6"/><polygon class="b46f23b2-87b4-4b4a-845c-732a9b3bc25d" points="38.4 68.7 40.2 67.7 36.5 61.2 34.7 62.3 38.4 68.7"/><polygon class="ea745811-478f-411e-a3e0-8a741de0d6a5" points="36.5 61.2 31.5 58.4 29.7 59.4 34.7 62.3 36.5 61.2"/><polygon class="b46f23b2-87b4-4b4a-845c-732a9b3bc25d" points="40.5 69.9 40.5 70.5 42.3 69.4 42.3 68.9 40.5 69.9"/><polygon class="ea745811-478f-411e-a3e0-8a741de0d6a5" points="40.5 69.9 42.3 68.9 40.2 67.7 38.4 68.7 40.5 69.9"/><polygon class="bb0a03b3-658f-4fd8-aa07-5962a3e4f6bc" points="38.4 68.7 34.7 62.3 29.7 59.4 29.7 59.9 34.5 62.7 38.2 69.1 40.5 70.5 40.5 69.9 38.4 68.7"/><polygon class="b46f23b2-87b4-4b4a-845c-732a9b3bc25d" points="34.8 70.8 36.6 69.8 32.8 63.3 31 64.4 34.8 70.8"/><polygon class="ea745811-478f-411e-a3e0-8a741de0d6a5" points="32.8 63.3 27.9 60.5 26.1 61.5 31 64.4 32.8 63.3"/><polygon class="b46f23b2-87b4-4b4a-845c-732a9b3bc25d" points="36.9 72.1 36.9 72.6 38.7 71.5 38.7 71 36.9 72.1"/><polygon class="ea745811-478f-411e-a3e0-8a741de0d6a5" points="36.9 72.1 38.7 71 36.6 69.8 34.8 70.8 36.9 72.1"/><polygon class="bb0a03b3-658f-4fd8-aa07-5962a3e4f6bc" points="34.8 70.8 31 64.4 26.1 61.5 26.1 62 30.8 64.8 34.6 71.2 36.9 72.6 36.9 72.1 34.8 70.8"/><path class="fca55740-7cd4-4c5d-a0e7-1596c13d13e1" d="M302.8,28.7c-.8.5-.8,1.2,0,1.7a3.4,3.4,0,0,0,2.8,0c.8-.5.8-1.2,0-1.7h0A3.4,3.4,0,0,0,302.8,28.7Z" transform="translate(-261.3 -26.6)"/><path class="fca55740-7cd4-4c5d-a0e7-1596c13d13e1" d="M311.1,31.9a3,3,0,0,0-2.9,0c-.7.4-.7,1.1.1,1.6a3.4,3.4,0,0,0,2.8,0h0C311.8,33,311.8,32.3,311.1,31.9Z" transform="translate(-261.3 -26.6)"/><path class="fca55740-7cd4-4c5d-a0e7-1596c13d13e1" d="M298.6,32.8a3.4,3.4,0,0,0,2.8,0c.8-.5.8-1.2,0-1.6a2.8,2.8,0,0,0-2.8,0C297.8,31.6,297.8,32.3,298.6,32.8Z" transform="translate(-261.3 -26.6)"/><path class="fca55740-7cd4-4c5d-a0e7-1596c13d13e1" d="M306.9,34.3a3.7,3.7,0,0,0-2.9,0c-.7.5-.7,1.2,0,1.6a3,3,0,0,0,2.9,0h0C307.6,35.5,307.6,34.8,306.9,34.3Z" transform="translate(-261.3 -26.6)"/><path class="fca55740-7cd4-4c5d-a0e7-1596c13d13e1" d="M294.4,35.2a2.8,2.8,0,0,0,2.8,0c.8-.4.8-1.1,0-1.6a3.4,3.4,0,0,0-2.8,0C293.6,34.1,293.6,34.8,294.4,35.2Z" transform="translate(-261.3 -26.6)"/><path class="fca55740-7cd4-4c5d-a0e7-1596c13d13e1" d="M302.6,36.8a2.8,2.8,0,0,0-2.8,0c-.7.4-.7,1.1,0,1.6a3.7,3.7,0,0,0,2.9,0h0C303.4,37.9,303.4,37.2,302.6,36.8Z" transform="translate(-261.3 -26.6)"/><path class="fca55740-7cd4-4c5d-a0e7-1596c13d13e1" d="M290.2,37.7a3.4,3.4,0,0,0,2.8,0c.8-.5.8-1.2,0-1.6a2.8,2.8,0,0,0-2.8,0C289.4,36.5,289.4,37.2,290.2,37.7Z" transform="translate(-261.3 -26.6)"/><path class="fca55740-7cd4-4c5d-a0e7-1596c13d13e1" d="M298.4,39.2a2.8,2.8,0,0,0-2.8,0,.9.9,0,0,0,0,1.6,3,3,0,0,0,2.9,0h0A.9.9,0,0,0,298.4,39.2Z" transform="translate(-261.3 -26.6)"/><path class="fca55740-7cd4-4c5d-a0e7-1596c13d13e1" d="M286,40.1a2.8,2.8,0,0,0,2.8,0,.8.8,0,0,0,0-1.6,2.8,2.8,0,0,0-2.8,0A.8.8,0,0,0,286,40.1Z" transform="translate(-261.3 -26.6)"/><path class="fca55740-7cd4-4c5d-a0e7-1596c13d13e1" d="M294.2,41.6a3.4,3.4,0,0,0-2.8,0,1,1,0,0,0,0,1.7,3.7,3.7,0,0,0,2.9,0h0C295,42.8,295,42.1,294.2,41.6Z" transform="translate(-261.3 -26.6)"/><path class="fca55740-7cd4-4c5d-a0e7-1596c13d13e1" d="M281.8,42.6a3.4,3.4,0,0,0,2.8,0c.8-.5.8-1.2,0-1.7a3.4,3.4,0,0,0-2.8,0h0C281,41.4,281,42.1,281.8,42.6Z" transform="translate(-261.3 -26.6)"/><path class="fca55740-7cd4-4c5d-a0e7-1596c13d13e1" d="M290,44.1a2.8,2.8,0,0,0-2.8,0,.9.9,0,0,0,0,1.6,2.8,2.8,0,0,0,2.8,0A.8.8,0,0,0,290,44.1Z" transform="translate(-261.3 -26.6)"/><path class="fca55740-7cd4-4c5d-a0e7-1596c13d13e1" d="M277.6,45a2.8,2.8,0,0,0,2.8,0,.8.8,0,0,0,0-1.6,2.8,2.8,0,0,0-2.8,0h0A.8.8,0,0,0,277.6,45Z" transform="translate(-261.3 -26.6)"/><path class="fca55740-7cd4-4c5d-a0e7-1596c13d13e1" d="M285.8,46.5a3.4,3.4,0,0,0-2.8,0c-.8.5-.7,1.2,0,1.7a3.4,3.4,0,0,0,2.8,0C286.6,47.7,286.6,47,285.8,46.5Z" transform="translate(-261.3 -26.6)"/><path class="fca55740-7cd4-4c5d-a0e7-1596c13d13e1" d="M273.4,47.5a3.4,3.4,0,0,0,2.8,0c.8-.5.8-1.2,0-1.7a3.4,3.4,0,0,0-2.8,0h0C272.6,46.3,272.6,47,273.4,47.5Z" transform="translate(-261.3 -26.6)"/><path class="fca55740-7cd4-4c5d-a0e7-1596c13d13e1" d="M281.6,50.6c.8-.5.8-1.2,0-1.6a2.8,2.8,0,0,0-2.8,0c-.8.4-.8,1.1,0,1.6h0A3.4,3.4,0,0,0,281.6,50.6Z" transform="translate(-261.3 -26.6)"/></svg>