<svg id="f4e5ad1c-9f13-44cd-a68e-76f3d6577601" data-name="Layer 1" xmlns="http://www.w3.org/2000/svg" xmlns:xlink="http://www.w3.org/1999/xlink" viewBox="0 0 504 288"><defs><style>.b0664365-c8ca-4a07-9d5a-35139d24e4d0{fill:url(#e1e83caa-a58e-4ebd-9b47-00bb6549dedf);}.a6b94093-0172-4486-a2ea-fc8f36876b46{fill:url(#b1369bf7-a9d2-4166-b656-5b121665f567);}</style><radialGradient id="e1e83caa-a58e-4ebd-9b47-00bb6549dedf" cx="255.97" cy="-0.85" r="583.64" gradientUnits="userSpaceOnUse"><stop offset="0" stop-color="#fff"/><stop offset="0.19" stop-color="#f9f9fa"/><stop offset="0.46" stop-color="#e7e9eb"/><stop offset="0.76" stop-color="#cacfd4"/><stop offset="1" stop-color="#aeb6bd"/></radialGradient><radialGradient id="b1369bf7-a9d2-4166-b656-5b121665f567" cx="249.45" cy="36.28" r="427.5" xlink:href="#e1e83caa-a58e-4ebd-9b47-00bb6549dedf"/></defs><rect class="b0664365-c8ca-4a07-9d5a-35139d24e4d0" width="504" height="288"/><path class="a6b94093-0172-4486-a2ea-fc8f36876b46" d="M251.9,0,0,251.9v4.3L256.2,0Zm13,0L0,264.9v4.2L269.1,0ZM239,0,0,239v4.2L243.2,0ZM213,0,0,213v4.3L217.3,0Zm13,0L0,226v4.2L230.2,0ZM187.1,0,0,187.1v4.2L191.3,0Zm90.8,0L0,277.9v4.2L282.1,0ZM200.1,0,0,200.1v4.2L204.3,0ZM355.6,0,67.6,288h4.3L359.9,0ZM342.7,0,54.7,288h4.2L346.9,0Zm25.9,0L80.6,288h4.2L372.8,0ZM303.8,0,15.8,288H20L308,0Zm25.9,0L41.7,288H46L334,0ZM290.8,0,2.8,288H7.1L295.1,0Zm25.9,0L28.7,288H33L321,0ZM135.2,0,0,135.2v4.3L139.5,0Zm38.9,0L0,174.1v4.3L178.4,0ZM57.5,0,0,57.5v4.2L61.7,0ZM70.4,0,0,70.4v4.3L74.7,0ZM5.6,0,0,5.6V9.8L9.8,0ZM83.4,0,0,83.4v4.2L87.6,0ZM31.5,0,0,31.5v4.3L35.8,0ZM18.6,0,0,18.6v4.2L22.8,0ZM44.5,0,0,44.5v4.2L48.7,0ZM148.2,0,0,148.2v4.3L152.5,0Zm13,0L0,161.2v4.2L165.4,0ZM381.6,0,93.6,288h4.2L385.8,0ZM122.3,0,0,122.3v4.2L126.5,0ZM96.4,0,0,96.3v4.3L100.6,0Zm12.9,0L0,109.3v4.3L113.6,0ZM344.1,288,504,128.1v-4.2L339.9,288Zm38.9,0L504,167v-4.2L378.8,288Zm-12.9,0L504,154.1v-4.3L365.8,288Zm25.9,0L504,180v-4.2L391.8,288ZM394.5,0l-288,288h4.3L398.8,0ZM318.2,288,504,102.2V98L314,288Zm13,0L504,115.2v-4.3L326.9,288Zm25.9,0L504,141.1v-4.2L352.9,288Zm51.9,0,95-95v-4.3L404.7,288Zm64.8,0L504,257.8v-4.3L469.5,288Zm13,0L504,270.8v-4.3L482.5,288Zm12.9,0,4.3-4.3v-4.2l-8.5,8.5Zm-51.8,0L504,231.9v-4.3L443.6,288Zm12.9,0L504,244.8v-4.2L456.6,288Zm-25.9,0L504,218.9v-4.2L430.7,288Zm-13,0L504,205.9v-4.2L417.7,288Zm-116.7,0L504,89.2V85L301,288ZM446.4,0l-288,288h4.2L450.6,0Zm13,0-288,288h4.2L463.6,0Zm12.9,0-288,288h4.3L476.6,0ZM407.5,0l-288,288h4.2L411.7,0Zm77.8,0-288,288h4.2L489.5,0ZM433.4,0l-288,288h4.3L437.7,0ZM420.5,0l-288,288h4.2L424.7,0ZM279.3,288,504,63.3V59.1L275.1,288Zm-12.9,0L504,50.4V46.1L262.1,288ZM498.3,0l-288,288h4.2L502.5,0ZM253.4,288,504,37.4V33.1L249.1,288Zm38.9,0L504,76.3V72L288,288Zm-69.1,0h4.3L504,11.5V7.2Zm17.2,0L504,24.4V20.2L236.2,288Z" transform="translate(0 0)"/></svg>