<svg id="b5438d4c-906d-4f1d-b290-229a5b15b8b8" data-name="Layer 1" xmlns="http://www.w3.org/2000/svg" viewBox="0 0 1899.7 1848.1"><defs><style>.bdd4a224-3f7c-4c62-aa8b-d0f613a2251e{fill:#9eacd2;}.f7ea1ce1-2fcb-4e23-86d0-1b277ab19679{fill:#6276b6;}.a0756666-bc7d-41ec-934d-11aa69f7525b{fill:#333063;}.a5aaf51f-bbae-4ee6-8feb-0331832c1d4f{fill:#375293;}.fcf56ccc-1fee-4ca4-85f5-a87056bd9880{fill:#a6def4;}.ab5e53dc-d1b4-41b0-bed4-bc57359c5c71{fill:#4780bf;}.af1176c8-2153-4bcd-9046-00540e40b0f5{fill:#fff;opacity:0.5;isolation:isolate;}.bdc336b7-8e50-412d-8731-f205275be8e8{fill:#4f4f90;}.aef8d247-a40a-426f-b7c4-ec8632eedc32{fill:#82bce4;}.bf7563fe-7cb0-4186-9f1b-9cc609b8457c{fill:#26396e;}.e588e874-a14c-4548-b332-11b49d403888{fill:#0d1b46;}.aebdd353-81ca-4b27-81d5-cfb0066ce2b5{fill:#cdecf7;}.bfd5ae4d-e651-4051-8ea3-69dbe6721e00{fill:#44afe1;}.e49cc97d-b577-4b03-95fe-2acdc342a297{fill:#206fa9;}.f8c89019-61a2-4249-9134-7b1deb416c89{fill:#ca517e;}.f2f24fdd-0595-404f-b043-70b12bb25fc7{fill:#0094c4;}</style></defs><g id="b7638506-60cd-4a45-8d71-4346d76288b4" data-name="ab8f41fa-dac8-410e-a546-adabfe6a99cf"><polygon class="bdd4a224-3f7c-4c62-aa8b-d0f613a2251e" points="709.8 1222.1 843 1132.1 1274.8 1311.9 1141.6 1401.8 709.8 1222.1"/><polygon class="f7ea1ce1-2fcb-4e23-86d0-1b277ab19679" points="774.2 1192.6 878.7 1122.1 1232.9 1270 1128.4 1340.5 774.2 1192.6"/><polygon class="a0756666-bc7d-41ec-934d-11aa69f7525b" points="1232.9 1305.6 1128.4 1376.1 1128.4 1340.5 1232.9 1270 1232.9 1305.6"/><polygon class="a5aaf51f-bbae-4ee6-8feb-0331832c1d4f" points="1128.4 1340.5 1128.4 1376.1 774.2 1227.5 774.2 1192.6 1128.4 1340.5"/><path class="a5aaf51f-bbae-4ee6-8feb-0331832c1d4f" d="M609.9,148.4,492.4,887.5c0,19.7,13.3,23.4,13.3,23.4l1100,461.2c23.9,4.1,21.2-18.7,21.2-18.7L1744.5,620c0-22.3-14.7-25.6-14.7-25.6L631.9,134S609.9,124.8,609.9,148.4Z"/><path class="a5aaf51f-bbae-4ee6-8feb-0331832c1d4f" d="M1654.5,1346.5l-36.8,24.8c8.5-2.7,9-13.9,9-13.9L1744.5,621l30.9-21.2-117.5,738.4S1658.6,1343.8,1654.5,1346.5Z"/><path class="a5aaf51f-bbae-4ee6-8feb-0331832c1d4f" d="M1734,596.5s10.6,5.4,10.5,24.5l30.9-21c0-13.9-6.9-21.2-11-24.3Z"/><path class="fcf56ccc-1fee-4ca4-85f5-a87056bd9880" d="M1764.7,575.9a18.5,18.5,0,0,0-3.3-2.1L663.5,113.1s-13.3-7.7-26.8,1.4L617,127.8s-7.1,3.8-6.5,14.7c0,0,2.2-14.8,21.1-8.5L1734,596.5Z"/><polygon class="ab5e53dc-d1b4-41b0-bed4-bc57359c5c71" points="1629.7 1336.5 1741.4 640.6 607.1 166.4 496.4 862.7 1629.7 1336.5"/><path class="af1176c8-2153-4bcd-9046-00540e40b0f5" d="M1729.8,594.4s14.7,3.3,14.7,25.6l-117.6,733.4s-.5,22.7-21.2,18.7L505.7,910.9s-13.3-3.7-13.3-23.4l961.2-408.6Z"/><polyline class="a5aaf51f-bbae-4ee6-8feb-0331832c1d4f" points="1080.2 1288.6 1080.2 1150.8 904.8 1077.2 904.8 1215.3 1080.2 1288.6"/><polygon class="a0756666-bc7d-41ec-934d-11aa69f7525b" points="1126.1 1257.7 1126.1 1170.1 1080.2 1150.8 1080.2 1288.6 1126.1 1257.7"/><path class="bdd4a224-3f7c-4c62-aa8b-d0f613a2251e" d="M544.1,1261.6,299.3,1428.3s-13.3,10.2,1.6,19l691,288.8c12.6,5.3,23.9-2.1,23.9-2.1l252-171.4c13.1-9.1-5.7-17.2-5.7-17.2L575.2,1258A34.4,34.4,0,0,0,544.1,1261.6Z"/><path class="fcf56ccc-1fee-4ca4-85f5-a87056bd9880" d="M565.3,1233.4,352.7,1377.9s-14.1,10.7,1.7,20l647.7,270.9c13.3,5.5,25.3-2.3,25.3-2.3L1247.6,1517c13.8-9.6-6.1-18.1-6.1-18.1L598,1229.6A35.9,35.9,0,0,0,565.3,1233.4Z"/><path class="f7ea1ce1-2fcb-4e23-86d0-1b277ab19679" d="M347,1386.5c-.5,3.5.9,7.6,7.4,11.4l647.7,270.9a27.6,27.6,0,0,0,19,.5v32.1a27,27,0,0,1-19-.6L354.4,1430.1C339,1422.9,347,1386.5,347,1386.5Z"/><path class="a5aaf51f-bbae-4ee6-8feb-0331832c1d4f" d="M1018.8,1669.9a28.1,28.1,0,0,0,8.6-3.4L1247.6,1517c3.4-2.3,4.7-4.7,4.8-6.8,11.8,29.6-4.8,38.9-4.8,38.9l-220.2,149.5a28.1,28.1,0,0,1-8.6,3.4Z"/><path class="bdc336b7-8e50-412d-8731-f205275be8e8" d="M1136.3,1522.5l-25.9-11.5a.7.7,0,0,1-.5-.8c0-.1.1-.2.1-.3a.6.6,0,0,1,0-.8.6.6,0,0,1,0-.8.5.5,0,0,1,0-.7.6.6,0,0,1,0-.8.6.6,0,0,1,0-.8.6.6,0,0,1,0-.8.6.6,0,0,1,0-.8.6.6,0,0,1,0-.8c-.4-.4-.1-1,.8-1.6l24.6-16.2a4.7,4.7,0,0,1,3.8-.5l25.4,10.7a1.4,1.4,0,0,1,.9,1.7.8.8,0,0,1-.1.8c.1.2.2.5,0,.7a.8.8,0,0,1,.1.8,1.1,1.1,0,0,1,0,.8c0,.3.1.5-.1.8a.8.8,0,0,1,.1.8,1.1,1.1,0,0,1,0,.8c0,.2.1.5,0,.7a1.2,1.2,0,0,1-.6,1.4l-24.8,16.7A5.5,5.5,0,0,1,1136.3,1522.5Z"/><path class="bdc336b7-8e50-412d-8731-f205275be8e8" d="M1091.7,1474.7l-24.8,16.7a4.6,4.6,0,0,1-3.8.5l-25.9-11.5a.7.7,0,0,1-.5-.8c0-.1.1-.2.1-.3a.6.6,0,0,1,0-.8c-.2-.2-.2-.4,0-.7a.6.6,0,0,1,0-.8.6.6,0,0,1,0-.8.6.6,0,0,1,0-.8.6.6,0,0,1,0-.8.6.6,0,0,1,0-.8c-.2-.2-.2-.4,0-.7s-.1-1.1.9-1.6l24.5-16.3a4.7,4.7,0,0,1,3.8-.5l25.4,10.7c.7.3,1.2,1.1.9,1.7a1.1,1.1,0,0,1,0,.8,1.1,1.1,0,0,1,0,.8,1.1,1.1,0,0,1,0,.8.9.9,0,0,1,0,.7,1.1,1.1,0,0,1,0,.8,1.1,1.1,0,0,1,0,.8,1.1,1.1,0,0,1,0,.8,1.1,1.1,0,0,1,0,.8C1092.5,1473.8,1092.4,1474.3,1091.7,1474.7Z"/><path class="bdc336b7-8e50-412d-8731-f205275be8e8" d="M1055.2,1459.4l-24.8,16.7a4.6,4.6,0,0,1-3.8.5l-26-11.4a.9.9,0,0,1-.4-1.2c-.2-.2-.1-.5,0-.7s-.1-.5,0-.8-.1-.5,0-.8-.1-.5,0-.8-.1-.5,0-.8-.1-.5,0-.7-.1-.5,0-.8-.1-.5,0-.8a1.9,1.9,0,0,1,.9-1.6l24.6-16.3a4.8,4.8,0,0,1,3.7-.5l25.4,10.8a1.2,1.2,0,0,1,1,1.4c0,.1,0,.2-.1.2a1.1,1.1,0,0,1,0,.8,1.1,1.1,0,0,1,0,.8,1.1,1.1,0,0,1,0,.8,1.1,1.1,0,0,1,0,.8.9.9,0,0,1,0,.7,1.1,1.1,0,0,1,0,.8,1.1,1.1,0,0,1,0,.8,1.1,1.1,0,0,1,0,.8A1,1,0,0,1,1055.2,1459.4Z"/><path class="bdc336b7-8e50-412d-8731-f205275be8e8" d="M1018.6,1444.2l-24.8,16.6a4.6,4.6,0,0,1-3.8.5l-25.9-11.4c-.6-.3-.7-.7-.5-1.1a1.1,1.1,0,0,1,0-.8,1.1,1.1,0,0,1,0-.8,1.1,1.1,0,0,1,0-.8,1.1,1.1,0,0,1,0-.8.9.9,0,0,1,0-.7,1.1,1.1,0,0,1,0-.8,1.1,1.1,0,0,1,0-.8,1.1,1.1,0,0,1,0-.8c-.3-.4,0-1.1.9-1.6l24.6-16.3a5.6,5.6,0,0,1,3.8-.5l25.4,10.8a1.3,1.3,0,0,1,.9,1.5h-.1c.1.3.2.6,0,.8s.2.6,0,.8.2.5,0,.8a.6.6,0,0,1,0,.8.6.6,0,0,1,0,.8c.1.2.2.5,0,.7s.2.6,0,.8.2.6,0,.8A1.1,1.1,0,0,1,1018.6,1444.2Z"/><path class="bdc336b7-8e50-412d-8731-f205275be8e8" d="M982,1428.9l-24.8,16.7a5.5,5.5,0,0,1-3.8.5l-25.9-11.5c-.6-.3-.7-.7-.4-1.1a.6.6,0,0,1,0-.8.6.6,0,0,1,0-.8.6.6,0,0,1,0-.8c-.2-.2-.2-.4,0-.7a.6.6,0,0,1,0-.8.6.6,0,0,1,0-.8.6.6,0,0,1,0-.8.6.6,0,0,1,0-.8c-.4-.4-.1-1,.8-1.6l24.6-16.2a5.6,5.6,0,0,1,3.8-.6l25.4,10.8a1.4,1.4,0,0,1,.9,1.7.9.9,0,0,1,0,.7,1.1,1.1,0,0,1,0,.8,1.1,1.1,0,0,1,0,.8,1.1,1.1,0,0,1,0,.8,1.1,1.1,0,0,1,0,.8,1.1,1.1,0,0,1,0,.8.9.9,0,0,1,0,.7,1.1,1.1,0,0,1,0,.8A1.2,1.2,0,0,1,982,1428.9Z"/><path class="bdc336b7-8e50-412d-8731-f205275be8e8" d="M945.4,1413.6l-24.8,16.7a5,5,0,0,1-3.8.5l-25.9-11.5c-.6-.2-.7-.6-.4-1.1a.6.6,0,0,1,0-.8.6.6,0,0,1,0-.8c-.2-.2-.2-.4,0-.7a.6.6,0,0,1,0-.8.6.6,0,0,1,0-.8.6.6,0,0,1,0-.8.6.6,0,0,1,0-.8.6.6,0,0,1,0-.8c-.4-.4-.1-1,.8-1.6l24.6-16.2a4.7,4.7,0,0,1,3.8-.5l25.4,10.7a1.4,1.4,0,0,1,.9,1.7,1.1,1.1,0,0,1,0,.8,1.1,1.1,0,0,1,0,.8.9.9,0,0,1,0,.7,1.1,1.1,0,0,1,0,.8,1.1,1.1,0,0,1,0,.8,1.1,1.1,0,0,1,0,.8.9.9,0,0,1,0,.7,1.1,1.1,0,0,1,0,.8,1,1,0,0,1-.4,1.4Z"/><path class="bdc336b7-8e50-412d-8731-f205275be8e8" d="M908.8,1398.3,884,1415a4.6,4.6,0,0,1-3.8.5L854.3,1404a.7.7,0,0,1-.5-.8c0-.1.1-.2.1-.3a.6.6,0,0,1,0-.8.5.5,0,0,1,0-.7.6.6,0,0,1,0-.8.6.6,0,0,1,0-.8.6.6,0,0,1,0-.8.6.6,0,0,1,0-.8.5.5,0,0,1,0-.7.6.6,0,0,1,0-.8c-.3-.5,0-1.1.9-1.6l24.5-16.3a4.7,4.7,0,0,1,3.8-.5l25.4,10.7c.7.3,1.2,1.1.9,1.7a1.1,1.1,0,0,1,0,.8,1.1,1.1,0,0,1,0,.8.9.9,0,0,1,0,.7,1.1,1.1,0,0,1,0,.8,1.1,1.1,0,0,1,0,.8,1.1,1.1,0,0,1,0,.8,1.1,1.1,0,0,1,0,.8,1.1,1.1,0,0,1,0,.8C909.6,1397.4,909.5,1397.9,908.8,1398.3Z"/><path class="bdc336b7-8e50-412d-8731-f205275be8e8" d="M872.3,1383l-24.8,16.7a4.6,4.6,0,0,1-3.8.5l-26-11.5a.7.7,0,0,1-.5-.8c0-.1.1-.2.1-.3s-.1-.5,0-.7-.1-.5,0-.8-.1-.5,0-.8-.1-.5,0-.8-.1-.5,0-.8-.1-.5,0-.7-.1-.5,0-.8-.1-.5,0-.8a1.9,1.9,0,0,1,.9-1.6l24.6-16.3a4.8,4.8,0,0,1,3.7-.5l25.4,10.7c.7.3,1.2,1.1.9,1.7a1.1,1.1,0,0,1,0,.8,1.1,1.1,0,0,1,0,.8,1.1,1.1,0,0,1,0,.8.9.9,0,0,1,0,.7,1.1,1.1,0,0,1,0,.8,1.1,1.1,0,0,1,0,.8,1.1,1.1,0,0,1,0,.8,1.1,1.1,0,0,1,0,.8A1,1,0,0,1,872.3,1383Z"/><path class="bdc336b7-8e50-412d-8731-f205275be8e8" d="M799.1,1352.4l-24.8,16.8a5,5,0,0,1-3.8.4l-25.9-11.4c-.6-.3-.7-.7-.4-1.1a.6.6,0,0,1,0-.8.6.6,0,0,1,0-.8.6.6,0,0,1,0-.8.6.6,0,0,1,0-.8c-.2-.2-.2-.4,0-.7a.6.6,0,0,1,0-.8.6.6,0,0,1,0-.8.6.6,0,0,1,0-.8c-.4-.4-.1-1.1.8-1.6l24.6-16.3a5.6,5.6,0,0,1,3.8-.5l25.4,10.8a1.4,1.4,0,0,1,.9,1.7.9.9,0,0,1,0,.7,1.1,1.1,0,0,1,0,.8,1.1,1.1,0,0,1,0,.8,1.1,1.1,0,0,1,0,.8,1.1,1.1,0,0,1,0,.8.9.9,0,0,1,0,.7,1.1,1.1,0,0,1,0,.8,1.1,1.1,0,0,1,0,.8A1,1,0,0,1,799.1,1352.4Z"/><path class="bdc336b7-8e50-412d-8731-f205275be8e8" d="M762.5,1337.2l-24.8,16.7a5.5,5.5,0,0,1-3.8.5L708,1342.9a.7.7,0,0,1-.5-.8c0-.1.1-.2.1-.3a.6.6,0,0,1,0-.8.6.6,0,0,1,0-.8.5.5,0,0,1,0-.7.6.6,0,0,1,0-.8.6.6,0,0,1,0-.8.6.6,0,0,1,0-.8.6.6,0,0,1,0-.8.6.6,0,0,1,0-.8c-.4-.4-.1-1,.8-1.6l24.6-16.3a6.2,6.2,0,0,1,3.8-.5l25.4,10.8a1.4,1.4,0,0,1,.9,1.7,1.1,1.1,0,0,1,0,.8.9.9,0,0,1,0,.7,1.1,1.1,0,0,1,0,.8,1.1,1.1,0,0,1,0,.8,1.1,1.1,0,0,1,0,.8,1.1,1.1,0,0,1,0,.8.9.9,0,0,1,0,.7,1.1,1.1,0,0,1,0,.8,1,1,0,0,1-.4,1.4Z"/><path class="bdc336b7-8e50-412d-8731-f205275be8e8" d="M725.9,1321.9l-24.8,16.7a4.4,4.4,0,0,1-3.7.5l-26-11.5a.7.7,0,0,1-.4-1h0a.6.6,0,0,1,0-.8.6.6,0,0,1,0-.8c-.2-.2-.2-.4,0-.7a.6.6,0,0,1,0-.8.6.6,0,0,1,0-.8.6.6,0,0,1,0-.8.6.6,0,0,1,0-.8.5.5,0,0,1,0-.7c-.3-.5,0-1.1.9-1.6l24.5-16.3a4.7,4.7,0,0,1,3.8-.5l25.4,10.7c.7.3,1.2,1.1.9,1.7a1.1,1.1,0,0,1,0,.8,1.1,1.1,0,0,1,0,.8.9.9,0,0,1,0,.7,1.1,1.1,0,0,1,0,.8,1.1,1.1,0,0,1,0,.8,1.1,1.1,0,0,1,0,.8,1.1,1.1,0,0,1,0,.8.9.9,0,0,1,0,.7,1,1,0,0,1-.4,1.4Z"/><path class="bdc336b7-8e50-412d-8731-f205275be8e8" d="M652.8,1291.3,628,1308a4.6,4.6,0,0,1-3.8.5L598.3,1297c-.6-.2-.7-.6-.4-1.1a.5.5,0,0,1,0-.7.6.6,0,0,1,0-.8.6.6,0,0,1,0-.8.6.6,0,0,1,0-.8.6.6,0,0,1,0-.8.5.5,0,0,1,0-.7.6.6,0,0,1,0-.8.6.6,0,0,1,0-.8c-.4-.5-.1-1.1.8-1.6l24.6-16.3a4.7,4.7,0,0,1,3.8-.5l25.4,10.8a1.3,1.3,0,0,1,.9,1.5h-.1c.1.3.2.5,0,.8s.2.5,0,.8a.6.6,0,0,1,0,.8.6.6,0,0,1,0,.8c.1.2.2.5,0,.7s.2.6,0,.8.2.5,0,.8.2.5,0,.8A1,1,0,0,1,652.8,1291.3Z"/><path class="bdc336b7-8e50-412d-8731-f205275be8e8" d="M1093.8,1544.5a.9.9,0,0,1,0-.7,1.1,1.1,0,0,1,0-.8,1.1,1.1,0,0,1,0-.8,1.1,1.1,0,0,1,0-.8,1.1,1.1,0,0,1,0-.8.9.9,0,0,1,0-.7,1.1,1.1,0,0,1,0-.8,1.1,1.1,0,0,1,0-.8c-.3-.4,0-1.1.9-1.6l24.6-16.3a4.8,4.8,0,0,1,3.7-.5l25.4,10.8c.7.3,1.2,1,.9,1.6a1.1,1.1,0,0,1,0,.8,1.1,1.1,0,0,1,0,.8,1.1,1.1,0,0,1,0,.8,1.1,1.1,0,0,1,0,.8,1.1,1.1,0,0,1,0,.8.9.9,0,0,1,0,.7,1.1,1.1,0,0,1,0,.8,1.1,1.1,0,0,1,0,.8.8.8,0,0,1-.3,1.2h-.2l-24.8,16.7a4.6,4.6,0,0,1-3.8.5l-26-11.4A.9.9,0,0,1,1093.8,1544.5Z"/><path class="bdc336b7-8e50-412d-8731-f205275be8e8" d="M1112.2,1524.7l-24.8,16.6a4.6,4.6,0,0,1-3.8.5l-25.9-11.4c-.6-.3-.7-.7-.5-1.1a1.1,1.1,0,0,1,0-.8,1.1,1.1,0,0,1,0-.8,1.1,1.1,0,0,1,0-.8,1.1,1.1,0,0,1,0-.8.9.9,0,0,1,0-.7,1.1,1.1,0,0,1,0-.8,1.1,1.1,0,0,1,0-.8,1.1,1.1,0,0,1,0-.8c-.3-.4,0-1,.9-1.6l24.6-16.3a5.6,5.6,0,0,1,3.8-.5l25.4,10.8c.7.3,1.2,1,.8,1.7s.2.5,0,.7.2.6,0,.8.2.5,0,.8.2.5,0,.8a.6.6,0,0,1,0,.8c.1.2.2.5,0,.7s.2.6,0,.8.2.6,0,.8A1.1,1.1,0,0,1,1112.2,1524.7Z"/><path class="bdc336b7-8e50-412d-8731-f205275be8e8" d="M1075.6,1509.4l-24.8,16.7a5.5,5.5,0,0,1-3.8.5l-25.9-11.5c-.6-.3-.7-.7-.4-1.1a.6.6,0,0,1,0-.8.6.6,0,0,1,0-.8.6.6,0,0,1,0-.8.5.5,0,0,1,0-.7.6.6,0,0,1,0-.8.6.6,0,0,1,0-.8.6.6,0,0,1,0-.8.6.6,0,0,1,0-.8c-.4-.4-.1-1,.8-1.6l24.6-16.3a6.2,6.2,0,0,1,3.8-.5l25.4,10.8a1.4,1.4,0,0,1,.9,1.7.9.9,0,0,1,0,.7,1.1,1.1,0,0,1,0,.8,1.1,1.1,0,0,1,0,.8,1.1,1.1,0,0,1,0,.8,1.1,1.1,0,0,1,0,.8,1.1,1.1,0,0,1,0,.8,1.1,1.1,0,0,1,0,.8.9.9,0,0,1,0,.7A1.2,1.2,0,0,1,1075.6,1509.4Z"/><path class="bdc336b7-8e50-412d-8731-f205275be8e8" d="M1039,1494.1l-24.8,16.7a4.6,4.6,0,0,1-3.8.5l-25.9-11.5c-.6-.2-.6-.6-.4-1.1a.6.6,0,0,1,0-.8.6.6,0,0,1,0-.8c-.2-.2-.2-.4,0-.7a.6.6,0,0,1,0-.8.6.6,0,0,1,0-.8.6.6,0,0,1,0-.8.6.6,0,0,1,0-.8.5.5,0,0,1,0-.7c-.4-.5-.1-1.1.9-1.6l24.5-16.3a4.7,4.7,0,0,1,3.8-.5l25.4,10.7c.7.3,1.2,1.1.9,1.7a1.1,1.1,0,0,1,0,.8,1.1,1.1,0,0,1,0,.8.9.9,0,0,1,0,.7,1.1,1.1,0,0,1,0,.8,1.1,1.1,0,0,1,0,.8,1.1,1.1,0,0,1,0,.8,1.1,1.1,0,0,1,0,.8,1.1,1.1,0,0,1,0,.8C1039.8,1493.2,1039.7,1493.7,1039,1494.1Z"/><path class="bdc336b7-8e50-412d-8731-f205275be8e8" d="M1002.4,1478.8l-24.8,16.7a4.4,4.4,0,0,1-3.7.5l-26-11.5a.7.7,0,0,1-.5-.8c0-.1.1-.2.1-.3s-.1-.5,0-.8-.1-.5,0-.7-.1-.5,0-.8-.1-.5,0-.8-.1-.5,0-.8-.1-.5,0-.8-.1-.5,0-.7-.1-.5,0-.8a1.9,1.9,0,0,1,.9-1.6l24.5-16.3a4.7,4.7,0,0,1,3.8-.5l25.4,10.7c.7.3,1.2,1.1.9,1.7a1.1,1.1,0,0,1,0,.8,1.1,1.1,0,0,1,0,.8,1.1,1.1,0,0,1,0,.8.9.9,0,0,1,0,.7,1.1,1.1,0,0,1,0,.8,1.1,1.1,0,0,1,0,.8,1.1,1.1,0,0,1,0,.8,1.1,1.1,0,0,1,0,.8C1003.2,1477.9,1003.1,1478.4,1002.4,1478.8Z"/><path class="bdc336b7-8e50-412d-8731-f205275be8e8" d="M965.9,1463.5l-24.8,16.7a4.6,4.6,0,0,1-3.8.5l-26-11.5a.7.7,0,0,1-.5-.8c0-.1.1-.2.1-.3a.9.9,0,0,1,0-.7,1.1,1.1,0,0,1,0-.8,1.1,1.1,0,0,1,0-.8,1.1,1.1,0,0,1,0-.8,1.1,1.1,0,0,1,0-.8.9.9,0,0,1,0-.7,1.1,1.1,0,0,1,0-.8,1.1,1.1,0,0,1,0-.8c-.3-.5,0-1.1.9-1.6l24.6-16.3a4.8,4.8,0,0,1,3.7-.5l25.5,10.7a1.4,1.4,0,0,1,.8,1.7,1.1,1.1,0,0,1,0,.8,1.1,1.1,0,0,1,0,.8,1.1,1.1,0,0,1,0,.8,1.1,1.1,0,0,1,0,.8.9.9,0,0,1,0,.7,1.1,1.1,0,0,1,0,.8,1.1,1.1,0,0,1,0,.8,1.1,1.1,0,0,1,0,.8A1,1,0,0,1,965.9,1463.5Z"/><path class="bdc336b7-8e50-412d-8731-f205275be8e8" d="M929.3,1448.2l-24.8,16.7a4.6,4.6,0,0,1-3.8.5L874.8,1454c-.6-.3-.7-.7-.4-1.1a.6.6,0,0,1,0-.8.6.6,0,0,1,0-.8.6.6,0,0,1,0-.8.6.6,0,0,1,0-.8.5.5,0,0,1,0-.7.6.6,0,0,1,0-.8.6.6,0,0,1,0-.8.6.6,0,0,1,0-.8c-.4-.4-.1-1.1.8-1.6l24.6-16.3a5.6,5.6,0,0,1,3.8-.5L929,1439c.7.3,1.2,1,.8,1.6s.2.6,0,.8.2.6,0,.8.2.5,0,.8a.6.6,0,0,1,0,.8.6.6,0,0,1,0,.8c.1.2.2.5,0,.7s.2.6,0,.8.2.5,0,.8a.8.8,0,0,1-.3,1.2Z"/><path class="bdc336b7-8e50-412d-8731-f205275be8e8" d="M892.7,1433l-24.8,16.7a5,5,0,0,1-3.8.4l-25.9-11.4c-.6-.3-.7-.7-.4-1.1a.6.6,0,0,1,0-.8.6.6,0,0,1,0-.8.6.6,0,0,1,0-.8.6.6,0,0,1,0-.8c-.2-.2-.2-.4,0-.7a.6.6,0,0,1,0-.8.6.6,0,0,1,0-.8.6.6,0,0,1,0-.8c-.4-.4-.1-1,.8-1.6l24.6-16.3a5.6,5.6,0,0,1,3.8-.5l25.4,10.8a1.4,1.4,0,0,1,.9,1.7.9.9,0,0,1,0,.7,1.1,1.1,0,0,1,0,.8,1.1,1.1,0,0,1,0,.8,1.1,1.1,0,0,1,0,.8,1.1,1.1,0,0,1,0,.8,1.1,1.1,0,0,1,0,.8.9.9,0,0,1,0,.7,1.1,1.1,0,0,1,0,.8A1.2,1.2,0,0,1,892.7,1433Z"/><path class="bdc336b7-8e50-412d-8731-f205275be8e8" d="M819.5,1402.4l-24.8,16.7a4.4,4.4,0,0,1-3.7.5l-26-11.5a.7.7,0,0,1-.5-.8v-.3c-.2-.2-.1-.5,0-.8s-.1-.5,0-.7-.1-.5,0-.8-.1-.5,0-.8-.1-.5,0-.8-.1-.5,0-.8-.1-.5,0-.8-.1-.5,0-.7a2,2,0,0,1,.9-1.6l24.5-16.3a4.7,4.7,0,0,1,3.8-.5l25.4,10.7c.7.3,1.2,1.1.9,1.7a1.1,1.1,0,0,1,0,.8,1.1,1.1,0,0,1,0,.8.9.9,0,0,1,0,.7,1.1,1.1,0,0,1,0,.8,1.1,1.1,0,0,1,0,.8,1.1,1.1,0,0,1,0,.8,1.1,1.1,0,0,1,0,.8.9.9,0,0,1,0,.7,1,1,0,0,1-.4,1.4Z"/><path class="bdc336b7-8e50-412d-8731-f205275be8e8" d="M709.8,1356.6,685,1373.2a4.6,4.6,0,0,1-3.8.5l-25.9-11.4c-.6-.3-.7-.7-.4-1.1a.6.6,0,0,1,0-.8.6.6,0,0,1,0-.8.6.6,0,0,1,0-.8.6.6,0,0,1,0-.8.5.5,0,0,1,0-.7.6.6,0,0,1,0-.8.6.6,0,0,1,0-.8.6.6,0,0,1,0-.8c-.4-.4-.1-1.1.8-1.6l24.6-16.3a5.6,5.6,0,0,1,3.8-.5l25.4,10.8c.7.3,1.2,1,.9,1.6a1.1,1.1,0,0,1,0,.8,1.1,1.1,0,0,1,0,.8,1.1,1.1,0,0,1,0,.8,1.1,1.1,0,0,1,0,.8,1.1,1.1,0,0,1,0,.8.9.9,0,0,1,0,.7,1.1,1.1,0,0,1,0,.8,1.1,1.1,0,0,1,0,.8A1.2,1.2,0,0,1,709.8,1356.6Z"/><path class="bdc336b7-8e50-412d-8731-f205275be8e8" d="M673.2,1341.3,648.4,1358a5.5,5.5,0,0,1-3.8.5L618.7,1347c-.6-.3-.7-.7-.4-1.1a.6.6,0,0,1,0-.8.6.6,0,0,1,0-.8.6.6,0,0,1,0-.8.5.5,0,0,1,0-.7.6.6,0,0,1,0-.8.6.6,0,0,1,0-.8.6.6,0,0,1,0-.8.6.6,0,0,1,0-.8c-.4-.4-.1-1,.9-1.6l24.5-16.3a6.2,6.2,0,0,1,3.8-.5l25.4,10.8a1.4,1.4,0,0,1,.9,1.7,1.1,1.1,0,0,1,0,.8.9.9,0,0,1,0,.7,1.1,1.1,0,0,1,0,.8,1.1,1.1,0,0,1,0,.8,1.1,1.1,0,0,1,0,.8,1.1,1.1,0,0,1,0,.8,1.1,1.1,0,0,1,0,.8.9.9,0,0,1,0,.7,1,1,0,0,1-.4,1.4Z"/><path class="bdc336b7-8e50-412d-8731-f205275be8e8" d="M1011,1594a1.1,1.1,0,0,1,0-.8,1.1,1.1,0,0,1,0-.8,1.1,1.1,0,0,1,0-.8,1.1,1.1,0,0,1,0-.8,1.1,1.1,0,0,1,0-.8.9.9,0,0,1,0-.7,1.1,1.1,0,0,1,0-.8,1.1,1.1,0,0,1,0-.8c-.3-.4,0-1.1.9-1.6l24.6-16.3a4.8,4.8,0,0,1,3.7-.5l25.4,10.8a1.2,1.2,0,0,1,1,1.4c0,.1,0,.2-.1.2a1.1,1.1,0,0,1,0,.8,1.1,1.1,0,0,1,0,.8,1.1,1.1,0,0,1,0,.8,1.1,1.1,0,0,1,0,.8.9.9,0,0,1,0,.7,1.1,1.1,0,0,1,0,.8,1.1,1.1,0,0,1,0,.8,1.1,1.1,0,0,1,0,.8,1,1,0,0,1-.5,1.3l-24.8,16.7a4.6,4.6,0,0,1-3.8.5l-26-11.4a.7.7,0,0,1-.4-1Z"/><path class="bdc336b7-8e50-412d-8731-f205275be8e8" d="M1047.6,1567.5a.6.6,0,0,1,0-.8.6.6,0,0,1,0-.8.6.6,0,0,1,0-.8.6.6,0,0,1,0-.8c-.2-.2-.2-.4,0-.7a.6.6,0,0,1,0-.8.6.6,0,0,1,0-.8.6.6,0,0,1,0-.8c-.4-.4,0-1.1.9-1.6l24.5-16.3a6.2,6.2,0,0,1,3.8-.5l25.4,10.8a1.4,1.4,0,0,1,.9,1.7.9.9,0,0,1,0,.7,1.1,1.1,0,0,1,0,.8,1.1,1.1,0,0,1,0,.8,1.1,1.1,0,0,1,0,.8,1.1,1.1,0,0,1,0,.8.9.9,0,0,1,0,.7,1.1,1.1,0,0,1,0,.8,1.1,1.1,0,0,1,0,.8,1,1,0,0,1-.4,1.4h-.2l-24.8,16.6a4.4,4.4,0,0,1-3.7.5l-26-11.4a.7.7,0,0,1-.4-1Z"/><path class="bdc336b7-8e50-412d-8731-f205275be8e8" d="M1066,1547.6l-24.8,16.7a5,5,0,0,1-3.8.5l-26-11.5a.7.7,0,0,1-.4-1h0a1.1,1.1,0,0,1,0-.8,1.1,1.1,0,0,1,0-.8.9.9,0,0,1,0-.7,1.1,1.1,0,0,1,0-.8,1.1,1.1,0,0,1,0-.8,1.1,1.1,0,0,1,0-.8,1.1,1.1,0,0,1,0-.8,1.1,1.1,0,0,1,0-.8c-.3-.4,0-1,.9-1.6l24.6-16.2a4.8,4.8,0,0,1,3.7-.5l25.4,10.7a1.4,1.4,0,0,1,.9,1.7,1.1,1.1,0,0,1,0,.8.9.9,0,0,1,0,.7,1.1,1.1,0,0,1,0,.8,1.1,1.1,0,0,1,0,.8,1.1,1.1,0,0,1,0,.8,1.1,1.1,0,0,1,0,.8,1.1,1.1,0,0,1,0,.8.9.9,0,0,1,0,.7A1.1,1.1,0,0,1,1066,1547.6Z"/><path class="bdc336b7-8e50-412d-8731-f205275be8e8" d="M1128.9,1488.7a1,1,0,0,1-.6,1.3l-24.8,16.7a4.6,4.6,0,0,1-3.8.5l-25.9-11.5c-.6-.2-.7-.6-.4-1.1a.6.6,0,0,1,0-.8.6.6,0,0,1,0-.8c-.2-.2-.2-.4,0-.7a.6.6,0,0,1,0-.8.6.6,0,0,1,0-.8.6.6,0,0,1,0-.8.5.5,0,0,1,0-.7.6.6,0,0,1,0-.8c-.4-.5-.1-1.1.8-1.6l24.6-16.3a4.7,4.7,0,0,1,3.8-.5l25.4,10.7c.7.3,1.2,1.1.9,1.7a1.1,1.1,0,0,1,0,.8,1.1,1.1,0,0,1,0,.8.9.9,0,0,1,0,.7,1.1,1.1,0,0,1,0,.8,1.1,1.1,0,0,1,0,.8,1.1,1.1,0,0,1,0,.8,1.1,1.1,0,0,1,0,.8A1.1,1.1,0,0,1,1128.9,1488.7Z"/><path class="bdc336b7-8e50-412d-8731-f205275be8e8" d="M836.2,1366.4a.8.8,0,0,1-.3,1.2h-.2l-24.8,16.7a4.6,4.6,0,0,1-3.8.5l-25.9-11.4a2.5,2.5,0,0,1-.5-1.9,1.1,1.1,0,0,1,0-.8,1.1,1.1,0,0,1,0-.8,1.1,1.1,0,0,1,0-.8,1.1,1.1,0,0,1,0-.8.9.9,0,0,1,0-.7,1.1,1.1,0,0,1,0-.8,1.1,1.1,0,0,1,0-.8c-.3-.4,0-1.1.9-1.6l24.6-16.3a5.6,5.6,0,0,1,3.8-.5l25.4,10.8a1.3,1.3,0,0,1,.9,1.5h-.1c.1.3.2.6,0,.8s.2.5,0,.8.2.5,0,.8a.6.6,0,0,1,0,.8c.1.2.2.5,0,.7s.2.6,0,.8.2.6,0,.8S836.4,1366.1,836.2,1366.4Z"/><path class="bdc336b7-8e50-412d-8731-f205275be8e8" d="M689.9,1305.3c.2.4.1.9-.5,1.3l-24.8,16.7a4.6,4.6,0,0,1-3.8.5l-26-11.5a.7.7,0,0,1-.5-.8v-.3a1.1,1.1,0,0,1,0-.8.9.9,0,0,1,0-.7,1.1,1.1,0,0,1,0-.8,1.1,1.1,0,0,1,0-.8,1.1,1.1,0,0,1,0-.8,1.1,1.1,0,0,1,0-.8,1.1,1.1,0,0,1,0-.8.9.9,0,0,1,0-.7c-.3-.5,0-1.1.9-1.6l24.6-16.3a4.8,4.8,0,0,1,3.7-.5l25.5,10.7a1.4,1.4,0,0,1,.8,1.7,1.1,1.1,0,0,1,0,.8,1.1,1.1,0,0,1,0,.8,1.1,1.1,0,0,1,0,.8.9.9,0,0,1,0,.7,1.1,1.1,0,0,1,0,.8,1.1,1.1,0,0,1,0,.8,1.1,1.1,0,0,1,0,.8A1.1,1.1,0,0,1,689.9,1305.3Z"/><path class="bdc336b7-8e50-412d-8731-f205275be8e8" d="M856.7,1416.3a1,1,0,0,1-.4,1.4h-.2l-24.8,16.7a5,5,0,0,1-3.8.5l-25.9-11.5a.7.7,0,0,1-.5-.8c0-.1.1-.2.1-.3a.6.6,0,0,1,0-.8.6.6,0,0,1,0-.8.6.6,0,0,1,0-.8c-.2-.2-.2-.4,0-.7a.6.6,0,0,1,0-.8.6.6,0,0,1,0-.8.6.6,0,0,1,0-.8.6.6,0,0,1,0-.8c-.4-.4-.1-1,.9-1.5l24.5-16.4a6.2,6.2,0,0,1,3.8-.5l25.4,10.8a1.4,1.4,0,0,1,.9,1.7,1.1,1.1,0,0,1,0,.8.9.9,0,0,1,0,.7,1.1,1.1,0,0,1,0,.8,1.1,1.1,0,0,1,0,.8,1.1,1.1,0,0,1,0,.8,1.1,1.1,0,0,1,0,.8.9.9,0,0,1,0,.7A1.1,1.1,0,0,1,856.7,1416.3Z"/><path class="bdc336b7-8e50-412d-8731-f205275be8e8" d="M783.5,1385.8c.2.4.1.9-.5,1.3l-24.8,16.7a4.6,4.6,0,0,1-3.8.5l-26-11.5a.7.7,0,0,1-.5-.8v-.3a1.1,1.1,0,0,1,0-.8.9.9,0,0,1,0-.7,1.1,1.1,0,0,1,0-.8,1.1,1.1,0,0,1,0-.8,1.1,1.1,0,0,1,0-.8,1.1,1.1,0,0,1,0-.8.9.9,0,0,1,0-.7,1.1,1.1,0,0,1,0-.8c-.3-.5,0-1.1.9-1.6l24.6-16.3a4.7,4.7,0,0,1,3.8-.5l25.4,10.7a1.4,1.4,0,0,1,.8,1.7,1.1,1.1,0,0,1,0,.8,1.1,1.1,0,0,1,0,.8,1.1,1.1,0,0,1,0,.8.9.9,0,0,1,0,.7,1.1,1.1,0,0,1,0,.8,1.1,1.1,0,0,1,0,.8,1.1,1.1,0,0,1,0,.8A1.1,1.1,0,0,1,783.5,1385.8Z"/><path class="bdc336b7-8e50-412d-8731-f205275be8e8" d="M746.9,1370.5a1,1,0,0,1-.5,1.3l-24.8,16.7a4.6,4.6,0,0,1-3.8.5l-25.9-11.4c-.6-.3-.7-.7-.4-1.2s-.2-.4,0-.7a.6.6,0,0,1,0-.8.6.6,0,0,1,0-.8.6.6,0,0,1,0-.8.6.6,0,0,1,0-.8.6.6,0,0,1,0-.8c-.2-.2-.2-.4,0-.7a.6.6,0,0,1,0-.8c-.4-.4-.1-1.1.8-1.6l24.6-16.3a4.7,4.7,0,0,1,3.8-.5l25.4,10.7c.7.3,1.2,1.1.8,1.7s.2.6,0,.8.2.5,0,.8a.6.6,0,0,1,0,.8.6.6,0,0,1,0,.8c.1.2.2.5,0,.7s.2.6,0,.8.2.5,0,.8S747.1,1370.2,746.9,1370.5Z"/><path class="bdc336b7-8e50-412d-8731-f205275be8e8" d="M637.2,1324.6a1,1,0,0,1-.4,1.4h-.2l-24.8,16.7a4.4,4.4,0,0,1-3.7.5l-26-11.5a.7.7,0,0,1-.4-1h0c-.2-.2-.1-.5,0-.8s-.1-.5,0-.8-.1-.5,0-.7-.1-.5,0-.8-.1-.5,0-.8-.1-.5,0-.8-.1-.5,0-.8-.1-.5,0-.7a2,2,0,0,1,.9-1.6l24.6-16.3a4.8,4.8,0,0,1,3.7-.5l25.4,10.7a1.4,1.4,0,0,1,.9,1.7,1.1,1.1,0,0,1,0,.8,1.1,1.1,0,0,1,0,.8.9.9,0,0,1,0,.7,1.1,1.1,0,0,1,0,.8,1.1,1.1,0,0,1,0,.8,1.1,1.1,0,0,1,0,.8,1.1,1.1,0,0,1,0,.8A.9.9,0,0,1,637.2,1324.6Z"/><path class="bdc336b7-8e50-412d-8731-f205275be8e8" d="M956.2,1607.1c-.3-.5,0-1.1.9-1.6l24.5-16.3a4.7,4.7,0,0,1,3.8-.5l25.4,10.7c.7.3,1.2,1.1.9,1.7a1.1,1.1,0,0,1,0,.8,1.1,1.1,0,0,1,0,.8,1.1,1.1,0,0,1,0,.8.9.9,0,0,1,0,.7,1.1,1.1,0,0,1,0,.8,1.1,1.1,0,0,1,0,.8,1.1,1.1,0,0,1,0,.8.9.9,0,0,1,0,.7,1,1,0,0,1-.4,1.4h-.2l-24.7,16.7a4.6,4.6,0,0,1-3.8.5l-26-11.5a.7.7,0,0,1-.5-.8c0-.1.1-.2.1-.3s-.1-.5,0-.7-.1-.5,0-.8-.1-.5,0-.8-.1-.5,0-.8-.1-.5,0-.8-.1-.5,0-.8-.1-.5,0-.7A1.1,1.1,0,0,1,956.2,1607.1Z"/><path class="bdc336b7-8e50-412d-8731-f205275be8e8" d="M846.5,1561.2c-.4-.4-.1-1.1.8-1.6l24.6-16.3a6.2,6.2,0,0,1,3.8-.5l25.4,10.8a1.4,1.4,0,0,1,.9,1.7.9.9,0,0,1,0,.7,1.1,1.1,0,0,1,0,.8,1.1,1.1,0,0,1,0,.8,1.1,1.1,0,0,1,0,.8,1.1,1.1,0,0,1,0,.8.9.9,0,0,1,0,.7,1.1,1.1,0,0,1,0,.8,1.1,1.1,0,0,1,0,.8,1,1,0,0,1-.6,1.4l-24.8,16.6a4.6,4.6,0,0,1-3.8.5l-25.9-11.4c-.6-.3-.7-.7-.4-1.1a.6.6,0,0,1,0-.8.6.6,0,0,1,0-.8.6.6,0,0,1,0-.8.6.6,0,0,1,0-.8c-.2-.2-.2-.4,0-.7a.6.6,0,0,1,0-.8.6.6,0,0,1,0-.8A.6.6,0,0,1,846.5,1561.2Z"/><path class="bdc336b7-8e50-412d-8731-f205275be8e8" d="M591.1,1454.2c-.3-.4,0-1,.9-1.5l24.6-16.3a4.7,4.7,0,0,1,3.8-.5l244.1,102.4a1.4,1.4,0,0,1,.9,1.7,1.1,1.1,0,0,1,0,.8.9.9,0,0,1,0,.7,1.1,1.1,0,0,1,0,.8,1.1,1.1,0,0,1,0,.8,1.1,1.1,0,0,1,0,.8,1.1,1.1,0,0,1,0,.8,1.1,1.1,0,0,1,0,.8.9.9,0,0,1,0,.7,1,1,0,0,1-.4,1.4h-.2L840,1564.3a5,5,0,0,1-3.8.5L591.6,1461.6c-.4,0-.6-.4-.6-.8v-.3a1.1,1.1,0,0,1,0-.8,1.1,1.1,0,0,1,0-.8.9.9,0,0,1,0-.7,1.1,1.1,0,0,1,0-.8,1.1,1.1,0,0,1,0-.8,1.1,1.1,0,0,1,0-.8,1.1,1.1,0,0,1,0-.8A1.1,1.1,0,0,1,591.1,1454.2Z"/><path class="bdc336b7-8e50-412d-8731-f205275be8e8" d="M553.8,1439c-.3-.5,0-1.1.9-1.6l24.6-16.3a4.7,4.7,0,0,1,3.8-.5l25.4,10.7a1.4,1.4,0,0,1,.9,1.7h-.1c.1.3.2.5,0,.8a.6.6,0,0,1,0,.8c.1.2.2.5,0,.7s.2.6,0,.8.2.6,0,.8.2.5,0,.8.2.5,0,.8.2.5,0,.7a1.1,1.1,0,0,1-.5,1.4L584,1457.3a4.6,4.6,0,0,1-3.8.5l-25.9-11.5c-.4,0-.6-.4-.6-.8v-.3a1.1,1.1,0,0,1,0-.8.9.9,0,0,1,0-.7,1.1,1.1,0,0,1,0-.8,1.1,1.1,0,0,1,0-.8,1.1,1.1,0,0,1,0-.8,1.1,1.1,0,0,1,0-.8.9.9,0,0,1,0-.7A1.1,1.1,0,0,1,553.8,1439Z"/><path class="bdc336b7-8e50-412d-8731-f205275be8e8" d="M444.1,1393.1c-.3-.4,0-1.1.9-1.6l24.5-16.3a5.6,5.6,0,0,1,3.8-.5l25.4,10.8a1.4,1.4,0,0,1,.9,1.7.9.9,0,0,1,0,.7,1.1,1.1,0,0,1,0,.8,1.1,1.1,0,0,1,0,.8,1.1,1.1,0,0,1,0,.8,1.1,1.1,0,0,1,0,.8.9.9,0,0,1,0,.7,1.1,1.1,0,0,1,0,.8,1.1,1.1,0,0,1,0,.8,1,1,0,0,1-.4,1.4H499l-24.8,16.6a4.4,4.4,0,0,1-3.7.5l-26-11.4a.7.7,0,0,1-.4-1h0c-.2-.2-.1-.5,0-.8s-.1-.5,0-.8-.1-.5,0-.8a.6.6,0,0,1,0-.8c-.2-.2-.1-.4,0-.7s-.1-.5,0-.8a.6.6,0,0,1,0-.8C443.9,1393.7,444,1393.4,444.1,1393.1Z"/><path class="bdc336b7-8e50-412d-8731-f205275be8e8" d="M755,1480.7c-.4-.4-.1-1.1.8-1.6l24.6-16.3a5.6,5.6,0,0,1,3.8-.5l25.4,10.8a1.4,1.4,0,0,1,.9,1.7,1.1,1.1,0,0,1,0,.8.9.9,0,0,1,0,.7,1.1,1.1,0,0,1,0,.8,1.1,1.1,0,0,1,0,.8,1.1,1.1,0,0,1,0,.8.9.9,0,0,1,0,.7,1.1,1.1,0,0,1,0,.8,1.1,1.1,0,0,1,0,.8,1,1,0,0,1-.6,1.3l-24.8,16.8a5,5,0,0,1-3.8.4l-25.9-11.4c-.6-.3-.7-.7-.4-1.1a.6.6,0,0,1,0-.8.6.6,0,0,1,0-.8.6.6,0,0,1,0-.8.6.6,0,0,1,0-.8c-.2-.2-.2-.4,0-.7a.6.6,0,0,1,0-.8.6.6,0,0,1,0-.8A.6.6,0,0,1,755,1480.7Z"/><path class="bdc336b7-8e50-412d-8731-f205275be8e8" d="M535.5,1389c-.4-.4-.1-1,.9-1.6l24.5-16.3a5.6,5.6,0,0,1,3.8-.5l25.4,10.8a1.4,1.4,0,0,1,.9,1.7.9.9,0,0,1,0,.7,1.1,1.1,0,0,1,0,.8,1.1,1.1,0,0,1,0,.8,1.1,1.1,0,0,1,0,.8,1.1,1.1,0,0,1,0,.8.9.9,0,0,1,0,.7,1.1,1.1,0,0,1,0,.8,1.1,1.1,0,0,1,0,.8,1,1,0,0,1-.4,1.4h-.2l-24.8,16.7a5,5,0,0,1-3.8.4l-25.9-11.4c-.6-.3-.7-.7-.4-1.1a.6.6,0,0,1,0-.8.6.6,0,0,1,0-.8.6.6,0,0,1,0-.8.5.5,0,0,1,0-.7.6.6,0,0,1,0-.8.6.6,0,0,1,0-.8.6.6,0,0,1,0-.8.5.5,0,0,1,0-.8Z"/><path class="bdc336b7-8e50-412d-8731-f205275be8e8" d="M755,1439c-.4-.5-.1-1.1.8-1.6l24.6-16.3a4.7,4.7,0,0,1,3.8-.5l25.4,10.7c.7.3,1.2,1.1.9,1.7a1.1,1.1,0,0,1,0,.8,1.1,1.1,0,0,1,0,.8.9.9,0,0,1,0,.7,1.1,1.1,0,0,1,0,.8,1.1,1.1,0,0,1,0,.8,1.1,1.1,0,0,1,0,.8,1.1,1.1,0,0,1,0,.8.9.9,0,0,1,0,.7,1.2,1.2,0,0,1-.6,1.4l-24.8,16.7a4.6,4.6,0,0,1-3.8.5l-25.9-11.5c-.6-.2-.7-.6-.4-1.1a.6.6,0,0,1,0-.8.5.5,0,0,1,0-.7.6.6,0,0,1,0-.8.6.6,0,0,1,0-.8.6.6,0,0,1,0-.8.6.6,0,0,1,0-.8.5.5,0,0,1,0-.7A.6.6,0,0,1,755,1439Z"/><path class="bdc336b7-8e50-412d-8731-f205275be8e8" d="M920.5,1590.2l24.6-16.3a4.8,4.8,0,0,1,3.7-.5l25.4,10.7c.7.3,1.2,1.1.9,1.7s.2.6,0,.8.2.5,0,.8.2.5,0,.8.2.5,0,.7.2.6,0,.8.2.6,0,.8.2.5,0,.8.2.5,0,.8a1,1,0,0,1-.5,1.3l-24.8,16.7a4.6,4.6,0,0,1-3.8.5l-25.9-11.5c-.4,0-.6-.4-.6-.8v-.3a.9.9,0,0,1,0-.7,1.1,1.1,0,0,1,0-.8,1.1,1.1,0,0,1,0-.8,1.1,1.1,0,0,1,0-.8,1.1,1.1,0,0,1,0-.8.9.9,0,0,1,0-.7,1.1,1.1,0,0,1,0-.8,1.1,1.1,0,0,1,0-.8C919.3,1591.4,919.6,1590.7,920.5,1590.2Z"/><path class="bdc336b7-8e50-412d-8731-f205275be8e8" d="M883.9,1574.9l24.6-16.3a5.6,5.6,0,0,1,3.8-.5l25.4,10.8c.7.3,1.2,1,.8,1.6s.2.6,0,.8a.6.6,0,0,1,0,.8c.1.3.2.5,0,.8a.6.6,0,0,1,0,.8c.1.2.2.5,0,.7a.6.6,0,0,1,0,.8.6.6,0,0,1,0,.8.6.6,0,0,1,0,.8.8.8,0,0,1-.3,1.2H938l-24.8,16.7a4.6,4.6,0,0,1-3.8.5l-25.9-11.4c-.6-.3-.7-.7-.4-1.1a.6.6,0,0,1,0-.8.6.6,0,0,1,0-.8.6.6,0,0,1,0-.8.6.6,0,0,1,0-.8.5.5,0,0,1,0-.7.6.6,0,0,1,0-.8.6.6,0,0,1,0-.8.6.6,0,0,1,0-.8C882.7,1576.1,883,1575.4,883.9,1574.9Z"/><path class="bdc336b7-8e50-412d-8731-f205275be8e8" d="M518.1,1422.1l24.6-16.3a4.7,4.7,0,0,1,3.8-.5l25.4,10.7c.7.3,1.2,1.1.9,1.7a1.1,1.1,0,0,1,0,.8,1.1,1.1,0,0,1,0,.8,1.1,1.1,0,0,1,0,.8.9.9,0,0,1,0,.7,1.1,1.1,0,0,1,0,.8,1.1,1.1,0,0,1,0,.8,1.1,1.1,0,0,1,0,.8,1.1,1.1,0,0,1,0,.8,1,1,0,0,1-.6,1.3L547.4,1442a4.6,4.6,0,0,1-3.8.5L517.7,1431c-.6-.2-.7-.6-.4-1.1a.5.5,0,0,1,0-.7.6.6,0,0,1,0-.8.6.6,0,0,1,0-.8.6.6,0,0,1,0-.8.6.6,0,0,1,0-.8.5.5,0,0,1,0-.7.6.6,0,0,1,0-.8.6.6,0,0,1,0-.8C516.9,1423.3,517.2,1422.6,518.1,1422.1Z"/><path class="bdc336b7-8e50-412d-8731-f205275be8e8" d="M481.5,1406.8l24.6-16.3a4.7,4.7,0,0,1,3.8-.5l25.4,10.8a1.2,1.2,0,0,1,1,1.4c0,.1,0,.2-.1.2a1.1,1.1,0,0,1,0,.8,1.1,1.1,0,0,1,0,.8,1.1,1.1,0,0,1,0,.8,1.1,1.1,0,0,1,0,.8.9.9,0,0,1,0,.7,1.1,1.1,0,0,1,0,.8,1.1,1.1,0,0,1,0,.8,1.1,1.1,0,0,1,0,.8,1,1,0,0,1-.5,1.3h-.1l-24.8,16.7a4.6,4.6,0,0,1-3.8.5l-25.9-11.4c-.6-.3-.7-.7-.4-1.1a.6.6,0,0,1,0-.8.6.6,0,0,1,0-.8.6.6,0,0,1,0-.8.6.6,0,0,1,0-.8.5.5,0,0,1,0-.7.6.6,0,0,1,0-.8.6.6,0,0,1,0-.8.6.6,0,0,1,0-.8C480.3,1408,480.6,1407.3,481.5,1406.8Z"/><path class="bdc336b7-8e50-412d-8731-f205275be8e8" d="M600.7,1303.1c.1.3.2.5,0,.8s.2.5,0,.8.2.5,0,.7.2.6,0,.8.2.6,0,.8.2.5,0,.8a.6.6,0,0,1,0,.8.6.6,0,0,1,0,.8c.2.4.1.9-.5,1.3l-24.8,16.7a4.6,4.6,0,0,1-3.8.5l-25.9-11.5c-.6-.2-.7-.6-.4-1.1a.6.6,0,0,1,0-.8.5.5,0,0,1,0-.7.6.6,0,0,1,0-.8.6.6,0,0,1,0-.8.6.6,0,0,1,0-.8.6.6,0,0,1,0-.8.5.5,0,0,1,0-.7.6.6,0,0,1,0-.8c-.4-.5-.1-1.1.8-1.6l24.6-16.3a4.7,4.7,0,0,1,3.8-.5l25.4,10.7C600.6,1301.7,601.1,1302.5,600.7,1303.1Z"/><path class="bdc336b7-8e50-412d-8731-f205275be8e8" d="M975.3,1570.8l24.6-16.3a5.6,5.6,0,0,1,3.8-.5l25.4,10.8a1.3,1.3,0,0,1,.9,1.5h-.1c.1.3.2.6,0,.8s.2.6,0,.8.2.5,0,.8.2.5,0,.8a.6.6,0,0,1,0,.8c.1.2.2.5,0,.7s.2.6,0,.8.2.6,0,.8a1.1,1.1,0,0,1-.5,1.4l-24.8,16.6a4.6,4.6,0,0,1-3.8.5l-25.9-11.4c-.6-.3-.7-.7-.5-1.1a1.1,1.1,0,0,1,0-.8,1.1,1.1,0,0,1,0-.8,1.1,1.1,0,0,1,0-.8,1.1,1.1,0,0,1,0-.8.9.9,0,0,1,0-.7,1.1,1.1,0,0,1,0-.8,1.1,1.1,0,0,1,0-.8,1.1,1.1,0,0,1,0-.8C974.1,1572,974.4,1571.3,975.3,1570.8Z"/><path class="bdc336b7-8e50-412d-8731-f205275be8e8" d="M938.7,1555.5l24.6-16.3a6.2,6.2,0,0,1,3.8-.5l25.4,10.8a1.4,1.4,0,0,1,.9,1.7c0,.2.1.5,0,.7s.1.6,0,.8.1.6,0,.8a1.1,1.1,0,0,1,0,.8,1.1,1.1,0,0,1,0,.8,1.1,1.1,0,0,1,0,.8c0,.2.1.5,0,.7s.1.6,0,.8a1.2,1.2,0,0,1-.6,1.4L968,1575.5a5,5,0,0,1-3.8.4l-25.9-11.4c-.6-.3-.7-.7-.4-1.1a.6.6,0,0,1,0-.8.6.6,0,0,1,0-.8.6.6,0,0,1,0-.8.5.5,0,0,1,0-.7.6.6,0,0,1,0-.8.6.6,0,0,1,0-.8.6.6,0,0,1,0-.8.6.6,0,0,1,0-.8C937.5,1556.7,937.8,1556.1,938.7,1555.5Z"/><path class="bdc336b7-8e50-412d-8731-f205275be8e8" d="M902.1,1540.2l24.6-16.2a4.7,4.7,0,0,1,3.8-.5l25.4,10.7a1.4,1.4,0,0,1,.9,1.7,1.1,1.1,0,0,1,0,.8,1.1,1.1,0,0,1,0,.8.9.9,0,0,1,0,.7,1.1,1.1,0,0,1,0,.8,1.1,1.1,0,0,1,0,.8,1.1,1.1,0,0,1,0,.8,1.1,1.1,0,0,1,0,.8.9.9,0,0,1,0,.7,1,1,0,0,1-.6,1.4l-24.8,16.7a4.6,4.6,0,0,1-3.8.5l-25.9-11.5a.7.7,0,0,1-.5-.8c0-.1.1-.2.1-.3a.6.6,0,0,1,0-.8.6.6,0,0,1,0-.8.5.5,0,0,1,0-.7.6.6,0,0,1,0-.8.6.6,0,0,1,0-.8.6.6,0,0,1,0-.8.6.6,0,0,1,0-.8.6.6,0,0,1,0-.8C900.9,1541.4,901.2,1540.8,902.1,1540.2Z"/><path class="bdc336b7-8e50-412d-8731-f205275be8e8" d="M865.6,1525l24.5-16.3a4.7,4.7,0,0,1,3.8-.5l25.4,10.7c.7.3,1.2,1.1.9,1.7a1.1,1.1,0,0,1,0,.8,1.1,1.1,0,0,1,0,.8,1.1,1.1,0,0,1,0,.8.9.9,0,0,1,0,.7,1.1,1.1,0,0,1,0,.8,1.1,1.1,0,0,1,0,.8,1.1,1.1,0,0,1,0,.8,1.1,1.1,0,0,1,0,.8c.2.4.1.9-.6,1.3l-24.8,16.7a4.6,4.6,0,0,1-3.8.5l-25.9-11.5a.7.7,0,0,1-.5-.8c0-.1.1-.2.1-.3s-.1-.5,0-.8-.1-.5,0-.8-.1-.4,0-.7-.1-.5,0-.8-.1-.5,0-.8-.1-.5,0-.8-.1-.5,0-.8-.1-.5,0-.7A2,2,0,0,1,865.6,1525Z"/><path class="bdc336b7-8e50-412d-8731-f205275be8e8" d="M829,1509.7l24.6-16.3a4.8,4.8,0,0,1,3.7-.5l25.4,10.7c.7.3,1.2,1.1.9,1.7a1.1,1.1,0,0,1,0,.8,1.1,1.1,0,0,1,0,.8,1.1,1.1,0,0,1,0,.8,1.1,1.1,0,0,1,0,.8.9.9,0,0,1,0,.7,1.1,1.1,0,0,1,0,.8,1.1,1.1,0,0,1,0,.8,1.1,1.1,0,0,1,0,.8c.2.4.1.9-.5,1.3l-24.8,16.7a4.6,4.6,0,0,1-3.8.5l-26-11.5a.7.7,0,0,1-.5-.8v-.3a.9.9,0,0,1,0-.7,1.1,1.1,0,0,1,0-.8,1.1,1.1,0,0,1,0-.8,1.1,1.1,0,0,1,0-.8,1.1,1.1,0,0,1,0-.8,1.1,1.1,0,0,1,0-.8.9.9,0,0,1,0-.7,1.1,1.1,0,0,1,0-.8C827.8,1510.8,828.1,1510.2,829,1509.7Z"/><path class="bdc336b7-8e50-412d-8731-f205275be8e8" d="M792.4,1494.4l24.6-16.3a4.7,4.7,0,0,1,3.8-.5l25.4,10.8a1.4,1.4,0,0,1,.9,1.7H847c.1.2.2.5,0,.7s.2.5,0,.8a.6.6,0,0,1,0,.8.6.6,0,0,1,0,.8.6.6,0,0,1,0,.8c.1.2.2.5,0,.7s.2.6,0,.8.2.5,0,.8a1,1,0,0,1-.5,1.3l-24.8,16.7a4.6,4.6,0,0,1-3.8.5L792,1503.4c-.6-.3-.7-.7-.4-1.1a.6.6,0,0,1,0-.8.6.6,0,0,1,0-.8.6.6,0,0,1,0-.8.6.6,0,0,1,0-.8.6.6,0,0,1,0-.8.5.5,0,0,1,0-.7.6.6,0,0,1,0-.8.6.6,0,0,1,0-.8C791.2,1495.6,791.5,1494.9,792.4,1494.4Z"/><path class="bdc336b7-8e50-412d-8731-f205275be8e8" d="M719.3,1463.8l24.5-16.2a5.6,5.6,0,0,1,3.8-.6l25.4,10.8a1.4,1.4,0,0,1,.9,1.7.9.9,0,0,1,0,.7,1.1,1.1,0,0,1,0,.8,1.1,1.1,0,0,1,0,.8,1.1,1.1,0,0,1,0,.8,1.1,1.1,0,0,1,0,.8,1.1,1.1,0,0,1,0,.8,1.1,1.1,0,0,1,0,.8.9.9,0,0,1,0,.7,1,1,0,0,1-.4,1.4h-.2l-24.8,16.7a5,5,0,0,1-3.8.5l-25.9-11.5c-.6-.3-.7-.7-.4-1.1a.6.6,0,0,1,0-.8.6.6,0,0,1,0-.8.6.6,0,0,1,0-.8.5.5,0,0,1,0-.7.6.6,0,0,1,0-.8.6.6,0,0,1,0-.8.6.6,0,0,1,0-.8.6.6,0,0,1,0-.8C718,1465,718.3,1464.4,719.3,1463.8Z"/><path class="bdc336b7-8e50-412d-8731-f205275be8e8" d="M682.7,1448.6l24.5-16.3a4.7,4.7,0,0,1,3.8-.5l25.4,10.7c.7.3,1.2,1.1.9,1.7a1.1,1.1,0,0,1,0,.8,1.1,1.1,0,0,1,0,.8.9.9,0,0,1,0,.7,1.1,1.1,0,0,1,0,.8,1.1,1.1,0,0,1,0,.8,1.1,1.1,0,0,1,0,.8,1.1,1.1,0,0,1,0,.8.9.9,0,0,1,0,.7,1,1,0,0,1-.4,1.4h-.2l-24.8,16.7a4.6,4.6,0,0,1-3.8.5l-25.9-11.5a.7.7,0,0,1-.5-.8c0-.1.1-.2.1-.3s-.1-.5,0-.8-.1-.5,0-.8-.1-.5,0-.7-.1-.5,0-.8-.1-.5,0-.8-.1-.5,0-.8-.1-.5,0-.8-.1-.5,0-.7A2,2,0,0,1,682.7,1448.6Z"/><path class="bdc336b7-8e50-412d-8731-f205275be8e8" d="M646.1,1433.3l24.6-16.3a4.8,4.8,0,0,1,3.7-.5l25.4,10.7a1.4,1.4,0,0,1,1,1.6h-.1a1.1,1.1,0,0,1,0,.8,1.1,1.1,0,0,1,0,.8,1.1,1.1,0,0,1,0,.8.9.9,0,0,1,0,.7,1.1,1.1,0,0,1,0,.8,1.1,1.1,0,0,1,0,.8,1.1,1.1,0,0,1,0,.8,1.1,1.1,0,0,1,0,.8c.2.4.1.9-.5,1.3l-24.8,16.7a4.6,4.6,0,0,1-3.8.5l-26-11.5a.7.7,0,0,1-.5-.8c0-.1.1-.2.1-.3a1.1,1.1,0,0,1,0-.8.9.9,0,0,1,0-.7,1.1,1.1,0,0,1,0-.8,1.1,1.1,0,0,1,0-.8,1.1,1.1,0,0,1,0-.8,1.1,1.1,0,0,1,0-.8.9.9,0,0,1,0-.7,1.1,1.1,0,0,1,0-.8C644.9,1434.4,645.2,1433.8,646.1,1433.3Z"/><path class="bdc336b7-8e50-412d-8731-f205275be8e8" d="M609.5,1418l24.6-16.3a4.7,4.7,0,0,1,3.8-.5l25.4,10.7a1.4,1.4,0,0,1,.9,1.7h-.1c.1.3.2.6,0,.8s.2.5,0,.8.2.5,0,.8a.6.6,0,0,1,0,.8c.1.2.2.5,0,.7s.2.6,0,.8.2.5,0,.8.2.5,0,.8.1.9-.5,1.3l-24.8,16.7a4.6,4.6,0,0,1-3.8.5L609.1,1427c-.6-.3-.7-.7-.4-1.2a.5.5,0,0,1,0-.7.6.6,0,0,1,0-.8.6.6,0,0,1,0-.8.6.6,0,0,1,0-.8.6.6,0,0,1,0-.8.5.5,0,0,1,0-.7.6.6,0,0,1,0-.8.6.6,0,0,1,0-.8C608.3,1419.1,608.6,1418.5,609.5,1418Z"/><path class="bdc336b7-8e50-412d-8731-f205275be8e8" d="M572.9,1402.7l24.6-16.3a5.6,5.6,0,0,1,3.8-.5l25.4,10.8c.7.3,1.2,1,.9,1.6a1.1,1.1,0,0,1,0,.8,1.1,1.1,0,0,1,0,.8,1.1,1.1,0,0,1,0,.8,1.1,1.1,0,0,1,0,.8,1.1,1.1,0,0,1,0,.8.9.9,0,0,1,0,.7,1.1,1.1,0,0,1,0,.8,1.1,1.1,0,0,1,0,.8,1.2,1.2,0,0,1-.6,1.4l-24.8,16.6a4.6,4.6,0,0,1-3.8.5l-25.9-11.4c-.6-.3-.7-.7-.4-1.1a.6.6,0,0,1,0-.8.6.6,0,0,1,0-.8.6.6,0,0,1,0-.8.6.6,0,0,1,0-.8.5.5,0,0,1,0-.7.6.6,0,0,1,0-.8.6.6,0,0,1,0-.8.6.6,0,0,1,0-.8C571.7,1403.9,572,1403.2,572.9,1402.7Z"/><path class="bdc336b7-8e50-412d-8731-f205275be8e8" d="M499.8,1372.1l24.5-16.2a4.7,4.7,0,0,1,3.8-.5l25.4,10.7a1.4,1.4,0,0,1,.9,1.7,1.1,1.1,0,0,1,0,.8,1.1,1.1,0,0,1,0,.8.9.9,0,0,1,0,.7,1.1,1.1,0,0,1,0,.8,1.1,1.1,0,0,1,0,.8,1.1,1.1,0,0,1,0,.8,1.1,1.1,0,0,1,0,.8.9.9,0,0,1,0,.7,1,1,0,0,1-.4,1.4h-.2L529,1392.1a4.8,4.8,0,0,1-3.7.5l-26-11.5a.7.7,0,0,1-.4-1h0c-.2-.2-.1-.5,0-.8s-.1-.5,0-.8-.1-.5,0-.8-.1-.5,0-.7-.1-.5,0-.8-.1-.5,0-.8-.1-.5,0-.8-.1-.5,0-.8A2,2,0,0,1,499.8,1372.1Z"/><path class="bdc336b7-8e50-412d-8731-f205275be8e8" d="M517.9,1352.5c.1.3.2.5,0,.8a.6.6,0,0,1,0,.8c.1.2.2.5,0,.7s.2.6,0,.8.2.5,0,.8.2.5,0,.8a.6.6,0,0,1,0,.8.6.6,0,0,1,0,.8c.2.4.1.9-.5,1.3l-24.8,16.7a4.6,4.6,0,0,1-3.8.5l-25.9-11.5a.7.7,0,0,1-.5-.8v-.3a.6.6,0,0,1,0-.8.6.6,0,0,1,0-.8c-.2-.2-.2-.4,0-.7a.6.6,0,0,1,0-.8.6.6,0,0,1,0-.8.6.6,0,0,1,0-.8.6.6,0,0,1,0-.8.5.5,0,0,1,0-.7c-.4-.5-.1-1.1.8-1.6l24.6-16.3a4.7,4.7,0,0,1,3.8-.5l25.4,10.7a1.4,1.4,0,0,1,.9,1.7Z"/><path class="bdc336b7-8e50-412d-8731-f205275be8e8" d="M975.3,1529.1l24.6-16.3a4.7,4.7,0,0,1,3.8-.5l25.4,10.7a1.4,1.4,0,0,1,.9,1.7h-.1a.6.6,0,0,1,0,.8.6.6,0,0,1,0,.8c.1.2.2.5,0,.7s.2.6,0,.8.2.5,0,.8.2.5,0,.8a.6.6,0,0,1,0,.8.6.6,0,0,1,0,.8c.2.4.1.9-.5,1.3l-24.8,16.7a4.6,4.6,0,0,1-3.8.5L974.9,1538c-.4,0-.6-.4-.6-.8s.1-.2.1-.3a1.1,1.1,0,0,1,0-.8.9.9,0,0,1,0-.7,1.1,1.1,0,0,1,0-.8,1.1,1.1,0,0,1,0-.8,1.1,1.1,0,0,1,0-.8,1.1,1.1,0,0,1,0-.8,1.1,1.1,0,0,1,0-.8.9.9,0,0,1,0-.7C974.1,1530.2,974.4,1529.6,975.3,1529.1Z"/><path class="bdc336b7-8e50-412d-8731-f205275be8e8" d="M938.7,1513.8l24.6-16.3a4.7,4.7,0,0,1,3.8-.5l25.4,10.7c.7.3,1.2,1.1.9,1.7a1.1,1.1,0,0,1,0,.8,1.1,1.1,0,0,1,0,.8,1.1,1.1,0,0,1,0,.8c0,.2.1.5,0,.7s.1.6,0,.8a1.1,1.1,0,0,1,0,.8,1.1,1.1,0,0,1,0,.8,1.1,1.1,0,0,1,0,.8,1.1,1.1,0,0,1-.6,1.3L968,1533.7a4.6,4.6,0,0,1-3.8.5l-25.9-11.5c-.6-.2-.7-.6-.4-1.1a.6.6,0,0,1,0-.8c-.2-.2-.2-.4,0-.7a.6.6,0,0,1,0-.8.6.6,0,0,1,0-.8.6.6,0,0,1,0-.8.6.6,0,0,1,0-.8.5.5,0,0,1,0-.7.6.6,0,0,1,0-.8C937.5,1514.9,937.8,1514.3,938.7,1513.8Z"/><path class="bdc336b7-8e50-412d-8731-f205275be8e8" d="M902.1,1498.5l24.6-16.3a4.7,4.7,0,0,1,3.8-.5l25.4,10.8c.7.3,1.2,1,.9,1.6a1.1,1.1,0,0,1,0,.8,1.1,1.1,0,0,1,0,.8,1.1,1.1,0,0,1,0,.8,1.1,1.1,0,0,1,0,.8.9.9,0,0,1,0,.7,1.1,1.1,0,0,1,0,.8,1.1,1.1,0,0,1,0,.8,1.1,1.1,0,0,1,0,.8,1,1,0,0,1-.5,1.3h-.1l-24.8,16.7a4.6,4.6,0,0,1-3.8.5l-25.9-11.5c-.6-.2-.7-.6-.4-1.1s-.2-.4,0-.7a.6.6,0,0,1,0-.8.6.6,0,0,1,0-.8.6.6,0,0,1,0-.8.6.6,0,0,1,0-.8.5.5,0,0,1,0-.7.6.6,0,0,1,0-.8.6.6,0,0,1,0-.8C900.9,1499.7,901.2,1499,902.1,1498.5Z"/><path class="bdc336b7-8e50-412d-8731-f205275be8e8" d="M865.6,1483.2l24.5-16.3a5.6,5.6,0,0,1,3.8-.5l25.4,10.8a1.4,1.4,0,0,1,.9,1.7.9.9,0,0,1,0,.7,1.1,1.1,0,0,1,0,.8,1.1,1.1,0,0,1,0,.8,1.1,1.1,0,0,1,0,.8,1.1,1.1,0,0,1,0,.8.9.9,0,0,1,0,.7,1.1,1.1,0,0,1,0,.8,1.1,1.1,0,0,1,0,.8,1,1,0,0,1-.4,1.4h-.2l-24.8,16.7a5,5,0,0,1-3.8.4l-25.9-11.4a.7.7,0,0,1-.4-1h0c-.2-.3-.1-.5,0-.8s-.1-.5,0-.8-.1-.5,0-.8-.1-.5,0-.8-.1-.5,0-.7-.1-.5,0-.8-.1-.5,0-.8-.1-.5,0-.8A1.9,1.9,0,0,1,865.6,1483.2Z"/><path class="bdc336b7-8e50-412d-8731-f205275be8e8" d="M829,1467.9l24.6-16.3a5.4,5.4,0,0,1,3.7-.5l25.4,10.8a1.4,1.4,0,0,1,.9,1.7,1.1,1.1,0,0,1,0,.8.9.9,0,0,1,0,.7,1.1,1.1,0,0,1,0,.8,1.1,1.1,0,0,1,0,.8,1.1,1.1,0,0,1,0,.8,1.1,1.1,0,0,1,0,.8.9.9,0,0,1,0,.7,1.1,1.1,0,0,1,0,.8,1.1,1.1,0,0,1-.5,1.4l-24.8,16.7c-1.2.6-2.9.9-3.8.4l-26-11.4a.7.7,0,0,1-.4-1h0a1.1,1.1,0,0,1,0-.8,1.1,1.1,0,0,1,0-.8,1.1,1.1,0,0,1,0-.8.9.9,0,0,1,0-.7,1.1,1.1,0,0,1,0-.8,1.1,1.1,0,0,1,0-.8,1.1,1.1,0,0,1,0-.8,1.1,1.1,0,0,1,0-.8C827.8,1469.1,828.1,1468.5,829,1467.9Z"/><path class="bdc336b7-8e50-412d-8731-f205275be8e8" d="M792.4,1452.7l24.6-16.3a4.7,4.7,0,0,1,3.8-.5l25.4,10.7a1.4,1.4,0,0,1,.9,1.7H847a.6.6,0,0,1,0,.8c.1.2.2.5,0,.7s.2.6,0,.8.2.6,0,.8.2.5,0,.8.2.5,0,.8a.6.6,0,0,1,0,.8c.1.2.2.5,0,.7a1.1,1.1,0,0,1-.5,1.4l-24.8,16.7a5,5,0,0,1-3.8.5L792,1461.6a.7.7,0,0,1-.5-.8v-.3a.6.6,0,0,1,0-.8.6.6,0,0,1,0-.8.5.5,0,0,1,0-.7.6.6,0,0,1,0-.8.6.6,0,0,1,0-.8.6.6,0,0,1,0-.8.6.6,0,0,1,0-.8.6.6,0,0,1,0-.8C791.2,1453.8,791.5,1453.2,792.4,1452.7Z"/><path class="bdc336b7-8e50-412d-8731-f205275be8e8" d="M719.3,1422.1l24.5-16.3a4.7,4.7,0,0,1,3.8-.5L773,1416c.7.3,1.2,1.1.9,1.7a1.1,1.1,0,0,1,0,.8,1.1,1.1,0,0,1,0,.8,1.1,1.1,0,0,1,0,.8.9.9,0,0,1,0,.7,1.1,1.1,0,0,1,0,.8,1.1,1.1,0,0,1,0,.8,1.1,1.1,0,0,1,0,.8,1.1,1.1,0,0,1,0,.8.8.8,0,0,1-.3,1.2h-.3L748.5,1442a4.6,4.6,0,0,1-3.8.5L718.8,1431c-.6-.2-.7-.6-.4-1.1a.5.5,0,0,1,0-.7.6.6,0,0,1,0-.8.6.6,0,0,1,0-.8.6.6,0,0,1,0-.8.6.6,0,0,1,0-.8.5.5,0,0,1,0-.7.6.6,0,0,1,0-.8.6.6,0,0,1,0-.8C718,1423.3,718.3,1422.6,719.3,1422.1Z"/><path class="bdc336b7-8e50-412d-8731-f205275be8e8" d="M682.7,1406.8l24.5-16.3a4.7,4.7,0,0,1,3.8-.5l25.4,10.8a1.2,1.2,0,0,1,1,1.4c0,.1,0,.2-.1.2a1.1,1.1,0,0,1,0,.8,1.1,1.1,0,0,1,0,.8,1.1,1.1,0,0,1,0,.8,1.1,1.1,0,0,1,0,.8.9.9,0,0,1,0,.7,1.1,1.1,0,0,1,0,.8,1.1,1.1,0,0,1,0,.8,1.1,1.1,0,0,1,0,.8.8.8,0,0,1-.3,1.2h-.3l-24.8,16.7a4.6,4.6,0,0,1-3.8.5l-25.9-11.4a.7.7,0,0,1-.4-1h0c-.2-.3-.1-.5,0-.8s-.1-.5,0-.8-.1-.5,0-.8-.1-.5,0-.8-.1-.5,0-.7a1.1,1.1,0,0,1,0-.8c-.2-.3-.1-.5,0-.8s-.1-.5,0-.8A1.9,1.9,0,0,1,682.7,1406.8Z"/><path class="bdc336b7-8e50-412d-8731-f205275be8e8" d="M646.1,1391.5l24.6-16.3a5.4,5.4,0,0,1,3.7-.5l25.4,10.8a1.4,1.4,0,0,1,1,1.6h-.1a.9.9,0,0,1,0,.7,1.1,1.1,0,0,1,0,.8,1.1,1.1,0,0,1,0,.8,1.1,1.1,0,0,1,0,.8,1.1,1.1,0,0,1,0,.8.9.9,0,0,1,0,.7,1.1,1.1,0,0,1,0,.8,1.1,1.1,0,0,1,0,.8,1.1,1.1,0,0,1-.5,1.4l-24.8,16.6a4.6,4.6,0,0,1-3.8.5l-26-11.4a.7.7,0,0,1-.4-1h0a1.1,1.1,0,0,1,0-.8,1.1,1.1,0,0,1,0-.8,1.1,1.1,0,0,1,0-.8,1.1,1.1,0,0,1,0-.8.9.9,0,0,1,0-.7,1.1,1.1,0,0,1,0-.8,1.1,1.1,0,0,1,0-.8,1.1,1.1,0,0,1,0-.8C644.9,1392.7,645.2,1392,646.1,1391.5Z"/><path class="bdc336b7-8e50-412d-8731-f205275be8e8" d="M609.5,1376.2l24.6-16.2a5.1,5.1,0,0,1,3.8-.6l25.4,10.8a1.4,1.4,0,0,1,.9,1.7h-.1a.6.6,0,0,1,0,.8.6.6,0,0,1,0,.8c.1.2.2.5,0,.7s.2.5,0,.8.2.5,0,.8a.6.6,0,0,1,0,.8c.1.2.2.5,0,.7s.2.6,0,.8a1.1,1.1,0,0,1-.5,1.4l-24.8,16.7a5.5,5.5,0,0,1-3.8.5l-25.9-11.5c-.6-.3-.7-.7-.4-1.1a.6.6,0,0,1,0-.8.6.6,0,0,1,0-.8.6.6,0,0,1,0-.8c-.2-.2-.2-.4,0-.7a.6.6,0,0,1,0-.8.6.6,0,0,1,0-.8.6.6,0,0,1,0-.8.6.6,0,0,1,0-.8C608.3,1377.4,608.6,1376.8,609.5,1376.2Z"/><path class="bdc336b7-8e50-412d-8731-f205275be8e8" d="M572.9,1361l24.6-16.3a4.7,4.7,0,0,1,3.8-.5l25.4,10.7c.7.3,1.2,1.1.9,1.7a1.1,1.1,0,0,1,0,.8,1.1,1.1,0,0,1,0,.8.9.9,0,0,1,0,.7,1.1,1.1,0,0,1,0,.8,1.1,1.1,0,0,1,0,.8,1.1,1.1,0,0,1,0,.8,1.1,1.1,0,0,1,0,.8.9.9,0,0,1,0,.7,1.2,1.2,0,0,1-.6,1.4l-24.8,16.7a5,5,0,0,1-3.8.5l-25.9-11.5a.7.7,0,0,1-.5-.8c0-.1.1-.2.1-.3a.6.6,0,0,1,0-.8.6.6,0,0,1,0-.8.5.5,0,0,1,0-.7.6.6,0,0,1,0-.8.6.6,0,0,1,0-.8.6.6,0,0,1,0-.8.6.6,0,0,1,0-.8.5.5,0,0,1,0-.7C571.7,1362.1,572,1361.5,572.9,1361Z"/><path class="bdc336b7-8e50-412d-8731-f205275be8e8" d="M536.4,1345.7l24.5-16.3a4.7,4.7,0,0,1,3.8-.5l25.4,10.7c.7.3,1.2,1.1.9,1.7a1.1,1.1,0,0,1,0,.8,1.1,1.1,0,0,1,0,.8,1.1,1.1,0,0,1,0,.8.9.9,0,0,1,0,.7,1.1,1.1,0,0,1,0,.8,1.1,1.1,0,0,1,0,.8,1.1,1.1,0,0,1,0,.8,1.1,1.1,0,0,1,0,.8c.2.4.1.9-.6,1.3l-24.8,16.7a4.6,4.6,0,0,1-3.8.5l-25.9-11.5c-.6-.2-.7-.6-.4-1.1a.6.6,0,0,1,0-.8c-.2-.2-.2-.4,0-.7a.6.6,0,0,1,0-.8.6.6,0,0,1,0-.8.6.6,0,0,1,0-.8.6.6,0,0,1,0-.8.5.5,0,0,1,0-.7.6.6,0,0,1,0-.8C535.1,1346.8,535.4,1346.2,536.4,1345.7Z"/><path class="bdc336b7-8e50-412d-8731-f205275be8e8" d="M554.5,1326a1.1,1.1,0,0,1,0,.8,1.1,1.1,0,0,1,0,.8,1.1,1.1,0,0,1,0,.8.9.9,0,0,1,0,.7,1.1,1.1,0,0,1,0,.8,1.1,1.1,0,0,1,0,.8,1.1,1.1,0,0,1,0,.8,1.1,1.1,0,0,1,0,.8,1,1,0,0,1-.5,1.3l-24.8,16.7a4.6,4.6,0,0,1-3.8.5l-26-11.5a.7.7,0,0,1-.5-.8v-.3a.9.9,0,0,1,0-.7,1.1,1.1,0,0,1,0-.8,1.1,1.1,0,0,1,0-.8,1.1,1.1,0,0,1,0-.8,1.1,1.1,0,0,1,0-.8,1.1,1.1,0,0,1,0-.8.9.9,0,0,1,0-.7,1.1,1.1,0,0,1,0-.8c-.3-.5,0-1.1.9-1.6l24.6-16.3a4.8,4.8,0,0,1,3.7-.5l25.4,10.8C554.3,1324.7,554.8,1325.4,554.5,1326Z"/><path class="aef8d247-a40a-426f-b7c4-ec8632eedc32" d="M1110.8,1502c-1.1.7-1.4,1.6-.4,2l25.9,11.4a4.6,4.6,0,0,0,3.8-.5l24.8-16.7c1.2-.6.6-1.8-.3-2.2l-25.4-10.7a4.7,4.7,0,0,0-3.8.5Z"/><path class="aef8d247-a40a-426f-b7c4-ec8632eedc32" d="M1074.2,1486.8c-1.1.6-1.3,1.5-.4,1.9l25.9,11.5a5.5,5.5,0,0,0,3.8-.5l24.8-16.7c1.2-.7.6-1.9-.3-2.3l-25.4-10.7a4.7,4.7,0,0,0-3.8.5Z"/><path class="aef8d247-a40a-426f-b7c4-ec8632eedc32" d="M1037.7,1471.5c-1.2.6-1.4,1.5-.5,1.9l25.9,11.5a5,5,0,0,0,3.8-.5l24.8-16.7c1.2-.7.6-1.9-.3-2.3l-25.4-10.7a4.7,4.7,0,0,0-3.8.5Z"/><path class="aef8d247-a40a-426f-b7c4-ec8632eedc32" d="M1001.1,1456.2c-1.2.7-1.4,1.5-.5,1.9l26,11.5a4.6,4.6,0,0,0,3.8-.5l24.8-16.7c1.1-.7.5-1.9-.4-2.2l-25.4-10.8a4.8,4.8,0,0,0-3.7.5Z"/><path class="aef8d247-a40a-426f-b7c4-ec8632eedc32" d="M964.5,1440.9c-1.2.7-1.4,1.5-.4,1.9l25.9,11.5a4.6,4.6,0,0,0,3.8-.5l24.8-16.7c1.1-.7.6-1.8-.3-2.2l-25.4-10.8a5.6,5.6,0,0,0-3.8.5Z"/><path class="aef8d247-a40a-426f-b7c4-ec8632eedc32" d="M927.9,1425.6c-1.1.7-1.3,1.6-.4,2l25.9,11.4a4.6,4.6,0,0,0,3.8-.5l24.8-16.7c1.2-.6.6-1.8-.3-2.2l-25.4-10.8a5.6,5.6,0,0,0-3.8.6Z"/><path class="aef8d247-a40a-426f-b7c4-ec8632eedc32" d="M891.3,1410.3c-1.1.7-1.3,1.6-.4,2l25.9,11.4a5,5,0,0,0,3.8-.4l24.8-16.8c1.2-.6.6-1.8-.3-2.2l-25.4-10.7a4.7,4.7,0,0,0-3.8.5Z"/><path class="aef8d247-a40a-426f-b7c4-ec8632eedc32" d="M854.8,1395.1c-1.2.6-1.4,1.5-.5,1.9l25.9,11.5a5,5,0,0,0,3.8-.5l24.8-16.7c1.2-.7.6-1.9-.3-2.3l-25.4-10.7a4.7,4.7,0,0,0-3.8.5Z"/><path class="aef8d247-a40a-426f-b7c4-ec8632eedc32" d="M818.2,1379.8c-1.2.7-1.4,1.5-.5,1.9l26,11.5a5,5,0,0,0,3.8-.5l24.8-16.7c1.1-.7.6-1.9-.4-2.3L846.5,1363a4.7,4.7,0,0,0-3.8.5Z"/><path class="aef8d247-a40a-426f-b7c4-ec8632eedc32" d="M781.6,1364.5c-1.2.7-1.4,1.5-.4,1.9l25.9,11.5a4.6,4.6,0,0,0,3.8-.5l24.8-16.7a1.2,1.2,0,0,0,.5-1.6,1.6,1.6,0,0,0-.8-.6L810,1347.7a5.6,5.6,0,0,0-3.8.5Z"/><path class="aef8d247-a40a-426f-b7c4-ec8632eedc32" d="M745,1349.2c-1.1.7-1.3,1.5-.4,2l25.9,11.4a4.6,4.6,0,0,0,3.8-.5l24.8-16.7c1.2-.6.6-1.8-.3-2.2l-25.4-10.8a5.6,5.6,0,0,0-3.8.5Z"/><path class="aef8d247-a40a-426f-b7c4-ec8632eedc32" d="M708.4,1333.9c-1.1.7-1.3,1.6-.4,2l25.9,11.4a4.6,4.6,0,0,0,3.8-.5l24.8-16.7c1.2-.6.6-1.8-.3-2.2l-25.4-10.8a6.2,6.2,0,0,0-3.8.5Z"/><path class="aef8d247-a40a-426f-b7c4-ec8632eedc32" d="M671.9,1318.7c-1.2.6-1.4,1.5-.5,1.9l25.9,11.4a5,5,0,0,0,3.8-.4l24.8-16.7c1.2-.7.6-1.9-.3-2.3l-25.4-10.7a4.7,4.7,0,0,0-3.8.5Z"/><path class="aef8d247-a40a-426f-b7c4-ec8632eedc32" d="M635.3,1303.4c-1.2.6-1.4,1.5-.5,1.9l26,11.5a5,5,0,0,0,3.8-.5l24.8-16.7c1.1-.7.6-1.9-.4-2.3l-25.4-10.7a4.7,4.7,0,0,0-3.8.5Z"/><path class="aef8d247-a40a-426f-b7c4-ec8632eedc32" d="M598.7,1288.1c-1.2.7-1.4,1.5-.4,1.9l25.9,11.5a4.6,4.6,0,0,0,3.8-.5l24.8-16.7c1.2-.7.6-1.9-.3-2.2l-25.4-10.8a4.7,4.7,0,0,0-3.8.5Z"/><path class="aef8d247-a40a-426f-b7c4-ec8632eedc32" d="M957.1,1605.5c-1.2.6-1.4,1.5-.5,1.9l26,11.5a5,5,0,0,0,3.8-.5l24.7-16.7c1.2-.7.6-1.9-.3-2.3l-25.4-10.7a4.7,4.7,0,0,0-3.8.5Z"/><path class="aef8d247-a40a-426f-b7c4-ec8632eedc32" d="M920.5,1590.2c-1.2.7-1.4,1.5-.5,1.9l26,11.5a4.6,4.6,0,0,0,3.8-.5l24.8-16.7c1.1-.7.6-1.9-.4-2.3l-25.4-10.7a4.8,4.8,0,0,0-3.7.5Z"/><path class="aef8d247-a40a-426f-b7c4-ec8632eedc32" d="M883.9,1574.9c-1.2.7-1.3,1.5-.4,1.9l25.9,11.5a4.6,4.6,0,0,0,3.8-.5l24.8-16.7c1.2-.7.6-1.9-.3-2.2l-25.4-10.8a5.6,5.6,0,0,0-3.8.5Z"/><path class="aef8d247-a40a-426f-b7c4-ec8632eedc32" d="M847.3,1559.6c-1.1.7-1.3,1.5-.4,1.9l25.9,11.5a4.6,4.6,0,0,0,3.8-.5l24.8-16.7c1.2-.6.6-1.8-.3-2.2l-25.4-10.8a6.2,6.2,0,0,0-3.8.5Z"/><path class="aef8d247-a40a-426f-b7c4-ec8632eedc32" d="M592,1452.7c-1.2.6-1.4,1.5-.4,1.9l244.6,103.1a4.6,4.6,0,0,0,3.8-.5l24.8-16.7c1.2-.6.6-1.8-.3-2.2L620.4,1435.9a4.7,4.7,0,0,0-3.8.5Z"/><path class="aef8d247-a40a-426f-b7c4-ec8632eedc32" d="M554.7,1437.4c-1.2.6-1.4,1.5-.4,1.9l25.9,11.5a5,5,0,0,0,3.8-.5l24.8-16.7a1.3,1.3,0,0,0,.4-1.8,1.8,1.8,0,0,0-.7-.5l-25.4-10.7a4.7,4.7,0,0,0-3.8.5Z"/><path class="aef8d247-a40a-426f-b7c4-ec8632eedc32" d="M518.1,1422.1c-1.2.7-1.4,1.5-.4,1.9l25.9,11.5a4.6,4.6,0,0,0,3.8-.5l24.8-16.7c1.2-.7.6-1.9-.3-2.3l-25.4-10.7a4.7,4.7,0,0,0-3.8.5Z"/><path class="aef8d247-a40a-426f-b7c4-ec8632eedc32" d="M481.5,1406.8c-1.1.7-1.3,1.5-.4,1.9l25.9,11.5a4.6,4.6,0,0,0,3.8-.5l24.8-16.7c1.2-.7.6-1.9-.3-2.2L509.9,1390a4.7,4.7,0,0,0-3.8.5Z"/><path class="aef8d247-a40a-426f-b7c4-ec8632eedc32" d="M445,1391.5c-1.2.7-1.4,1.5-.5,2l26,11.4a4.4,4.4,0,0,0,3.7-.5l24.8-16.7c1.2-.6.6-1.8-.3-2.2l-25.4-10.8a5.6,5.6,0,0,0-3.8.5Z"/><path class="aef8d247-a40a-426f-b7c4-ec8632eedc32" d="M1094.7,1536.7c-1.2.7-1.4,1.5-.5,1.9l26,11.5a4.6,4.6,0,0,0,3.8-.5l24.7-16.7c1.2-.7.7-1.9-.3-2.2l-25.4-10.8a4.7,4.7,0,0,0-3.8.5Z"/><path class="aef8d247-a40a-426f-b7c4-ec8632eedc32" d="M1058.1,1521.4c-1.2.7-1.4,1.5-.4,1.9l25.9,11.5a4.6,4.6,0,0,0,3.8-.5l24.8-16.7c1.1-.6.6-1.8-.3-2.2l-25.4-10.8a5.6,5.6,0,0,0-3.8.5Z"/><path class="aef8d247-a40a-426f-b7c4-ec8632eedc32" d="M1021.5,1506.1c-1.1.7-1.3,1.6-.4,2l25.9,11.4a4.6,4.6,0,0,0,3.8-.5l24.8-16.7c1.2-.6.6-1.8-.3-2.2l-25.4-10.8a6.2,6.2,0,0,0-3.8.5Z"/><path class="aef8d247-a40a-426f-b7c4-ec8632eedc32" d="M984.9,1490.9c-1.1.6-1.3,1.5-.4,1.9l25.9,11.4a4.6,4.6,0,0,0,3.8-.5l24.8-16.6c1.2-.7.6-1.9-.3-2.3l-25.4-10.7a4.7,4.7,0,0,0-3.8.5Z"/><path class="aef8d247-a40a-426f-b7c4-ec8632eedc32" d="M948.4,1475.6c-1.2.6-1.4,1.5-.5,1.9l25.9,11.5a5.5,5.5,0,0,0,3.8-.5l24.8-16.7c1.2-.7.6-1.9-.3-2.3l-25.4-10.7a4.7,4.7,0,0,0-3.8.5Z"/><path class="aef8d247-a40a-426f-b7c4-ec8632eedc32" d="M911.8,1460.3c-1.2.7-1.4,1.5-.5,1.9l26,11.5a5,5,0,0,0,3.8-.5l24.8-16.7a1.3,1.3,0,0,0,.4-1.8,1.8,1.8,0,0,0-.7-.5l-25.5-10.7a4.8,4.8,0,0,0-3.7.5Z"/><path class="aef8d247-a40a-426f-b7c4-ec8632eedc32" d="M875.2,1445c-1.2.7-1.4,1.5-.4,1.9l25.9,11.5a4.6,4.6,0,0,0,3.8-.5l24.8-16.7c1.1-.7.6-1.8-.3-2.2l-25.4-10.8a5.6,5.6,0,0,0-3.8.5Z"/><path class="aef8d247-a40a-426f-b7c4-ec8632eedc32" d="M838.6,1429.7c-1.1.7-1.3,1.6-.4,2l25.9,11.4a4.6,4.6,0,0,0,3.8-.5l24.8-16.7c1.2-.6.6-1.8-.3-2.2L867,1412.9a5.6,5.6,0,0,0-3.8.5Z"/><path class="aef8d247-a40a-426f-b7c4-ec8632eedc32" d="M802.1,1414.5c-1.2.6-1.4,1.5-.5,1.9l25.9,11.4a4.6,4.6,0,0,0,3.8-.5l24.8-16.7c1.2-.6.6-1.8-.3-2.2l-25.4-10.8a6.2,6.2,0,0,0-3.8.5Z"/><path class="aef8d247-a40a-426f-b7c4-ec8632eedc32" d="M765.5,1399.2c-1.2.6-1.4,1.5-.5,1.9l26,11.4a4.7,4.7,0,0,0,3.7-.4l24.8-16.7c1.2-.7.6-1.9-.3-2.3l-25.4-10.7a4.7,4.7,0,0,0-3.8.5Z"/><path class="aef8d247-a40a-426f-b7c4-ec8632eedc32" d="M728.9,1383.9c-1.2.7-1.4,1.5-.5,1.9l26,11.5a5,5,0,0,0,3.8-.5l24.8-16.7c1.1-.7.6-1.9-.4-2.3l-25.4-10.7a4.8,4.8,0,0,0-3.7.5Z"/><path class="aef8d247-a40a-426f-b7c4-ec8632eedc32" d="M692.3,1368.6c-1.2.7-1.4,1.5-.4,1.9l25.9,11.5a4.6,4.6,0,0,0,3.8-.5l24.8-16.7c1.2-.7.6-1.9-.3-2.3l-25.4-10.7a4.7,4.7,0,0,0-3.8.5Z"/><path class="aef8d247-a40a-426f-b7c4-ec8632eedc32" d="M655.7,1353.3c-1.1.7-1.3,1.5-.4,1.9l25.9,11.5a4.6,4.6,0,0,0,3.8-.5l24.8-16.7c1.2-.6.6-1.8-.3-2.2l-25.4-10.8a5.6,5.6,0,0,0-3.8.5Z"/><path class="aef8d247-a40a-426f-b7c4-ec8632eedc32" d="M619.2,1338c-1.2.7-1.4,1.6-.5,2l25.9,11.4a4.6,4.6,0,0,0,3.8-.5l24.8-16.7c1.2-.6.6-1.8-.3-2.2l-25.4-10.8a6.2,6.2,0,0,0-3.8.5Z"/><path class="aef8d247-a40a-426f-b7c4-ec8632eedc32" d="M582.6,1322.8c-1.2.6-1.4,1.5-.5,1.9l26,11.4a4.4,4.4,0,0,0,3.7-.5l24.8-16.6c1.2-.7.7-1.9-.3-2.3L610.9,1306a4.8,4.8,0,0,0-3.7.5Z"/><path class="aef8d247-a40a-426f-b7c4-ec8632eedc32" d="M546.1,1307.5c-1.2.6-1.4,1.5-.4,1.9l25.9,11.4a5,5,0,0,0,3.8-.4l24.8-16.7c1.2-.7.6-1.9-.3-2.3l-25.4-10.7a4.7,4.7,0,0,0-3.8.5Z"/><path class="aef8d247-a40a-426f-b7c4-ec8632eedc32" d="M1011.9,1586.1c-1.2.7-1.4,1.5-.5,1.9l26,11.5a4.6,4.6,0,0,0,3.8-.5l24.8-16.7c1.1-.7.6-1.9-.4-2.2l-25.4-10.8a4.7,4.7,0,0,0-3.8.5Z"/><path class="aef8d247-a40a-426f-b7c4-ec8632eedc32" d="M975.3,1570.8c-1.2.7-1.4,1.5-.4,1.9l25.9,11.5a4.6,4.6,0,0,0,3.8-.5l24.8-16.7c1.1-.7.6-1.8-.3-2.2l-25.5-10.8a5.4,5.4,0,0,0-3.7.5Z"/><path class="aef8d247-a40a-426f-b7c4-ec8632eedc32" d="M938.7,1555.5c-1.1.7-1.3,1.5-.4,2l25.9,11.4a4.6,4.6,0,0,0,3.8-.5l24.8-16.7c1.2-.6.6-1.8-.3-2.2l-25.4-10.8a6.2,6.2,0,0,0-3.8.5Z"/><path class="aef8d247-a40a-426f-b7c4-ec8632eedc32" d="M902.1,1540.2c-1.1.7-1.3,1.6-.4,2l25.9,11.4a4.6,4.6,0,0,0,3.8-.5l24.8-16.6c1.2-.7.6-1.9-.3-2.3l-25.4-10.7a4.7,4.7,0,0,0-3.8.5Z"/><path class="aef8d247-a40a-426f-b7c4-ec8632eedc32" d="M865.6,1525c-1.2.6-1.4,1.5-.5,1.9l25.9,11.5a5,5,0,0,0,3.8-.5l24.8-16.7c1.2-.7.6-1.9-.3-2.3l-25.4-10.7a4.7,4.7,0,0,0-3.8.5Z"/><path class="aef8d247-a40a-426f-b7c4-ec8632eedc32" d="M829,1509.7c-1.2.7-1.4,1.5-.5,1.9l26,11.5a5,5,0,0,0,3.8-.5l24.8-16.7c1.1-.7.6-1.9-.4-2.3l-25.4-10.7a4.8,4.8,0,0,0-3.7.5Z"/><path class="aef8d247-a40a-426f-b7c4-ec8632eedc32" d="M792.4,1494.4c-1.2.7-1.4,1.5-.4,1.9l25.9,11.5a4.6,4.6,0,0,0,3.8-.5l24.8-16.7c1.1-.7.6-1.8-.3-2.2l-25.4-10.8a4.7,4.7,0,0,0-3.8.5Z"/><path class="aef8d247-a40a-426f-b7c4-ec8632eedc32" d="M755.8,1479.1c-1.1.7-1.3,1.5-.4,2l25.9,11.4a4.6,4.6,0,0,0,3.8-.5l24.8-16.7c1.2-.6.6-1.8-.3-2.2l-25.4-10.8a5.6,5.6,0,0,0-3.8.5Z"/><path class="aef8d247-a40a-426f-b7c4-ec8632eedc32" d="M719.3,1463.8c-1.2.7-1.4,1.6-.5,2l25.9,11.4a4.6,4.6,0,0,0,3.8-.5l24.8-16.7c1.2-.6.6-1.8-.3-2.2L747.6,1447a5.6,5.6,0,0,0-3.8.6Z"/><path class="aef8d247-a40a-426f-b7c4-ec8632eedc32" d="M682.7,1448.6c-1.2.6-1.4,1.5-.5,1.9l25.9,11.4a5,5,0,0,0,3.8-.4l24.8-16.8c1.2-.6.6-1.8-.3-2.2L711,1431.8a4.7,4.7,0,0,0-3.8.5Z"/><path class="aef8d247-a40a-426f-b7c4-ec8632eedc32" d="M646.1,1433.3c-1.2.6-1.4,1.5-.5,1.9l26,11.5a5,5,0,0,0,3.8-.5l24.8-16.7c1.1-.7.6-1.9-.4-2.3l-25.4-10.7a4.8,4.8,0,0,0-3.7.5Z"/><path class="aef8d247-a40a-426f-b7c4-ec8632eedc32" d="M609.5,1418c-1.2.7-1.4,1.5-.4,1.9l25.9,11.5a5,5,0,0,0,3.8-.5l24.8-16.7a1.3,1.3,0,0,0,.4-1.8,1.8,1.8,0,0,0-.7-.5l-25.4-10.7a4.7,4.7,0,0,0-3.8.5Z"/><path class="aef8d247-a40a-426f-b7c4-ec8632eedc32" d="M572.9,1402.7c-1.1.7-1.3,1.5-.4,1.9l25.9,11.5a4.6,4.6,0,0,0,3.8-.5l24.8-16.7c1.2-.7.6-1.9-.3-2.2l-25.4-10.8a5.6,5.6,0,0,0-3.8.5Z"/><path class="aef8d247-a40a-426f-b7c4-ec8632eedc32" d="M536.4,1387.4c-1.2.7-1.4,1.6-.5,2l25.9,11.4a4.6,4.6,0,0,0,3.8-.5l24.8-16.7c1.2-.6.6-1.8-.3-2.2l-25.4-10.8a5.6,5.6,0,0,0-3.8.5Z"/><path class="aef8d247-a40a-426f-b7c4-ec8632eedc32" d="M499.8,1372.1c-1.2.7-1.4,1.6-.5,2l26,11.4a4.4,4.4,0,0,0,3.7-.5l24.8-16.7c1.2-.6.7-1.8-.3-2.2l-25.4-10.7a4.7,4.7,0,0,0-3.8.5Z"/><path class="aef8d247-a40a-426f-b7c4-ec8632eedc32" d="M463.3,1356.9c-1.2.6-1.4,1.5-.4,1.9l25.9,11.4c.9.5,2.6.2,3.8-.4l24.8-16.7c1.2-.7.6-1.9-.3-2.3l-25.4-10.7a4.7,4.7,0,0,0-3.8.5Z"/><path class="aef8d247-a40a-426f-b7c4-ec8632eedc32" d="M1048.5,1559.6c-1.2.7-1.4,1.5-.5,1.9l25.9,11.5a4.6,4.6,0,0,0,3.8-.5l24.8-16.7c1.2-.6.6-1.8-.3-2.2l-25.4-10.8a6.2,6.2,0,0,0-3.8.5Z"/><path class="aef8d247-a40a-426f-b7c4-ec8632eedc32" d="M1011.9,1544.3c-1.2.7-1.4,1.6-.5,2l26,11.4a4.6,4.6,0,0,0,3.8-.5l24.8-16.7c1.1-.6.6-1.8-.4-2.2l-25.4-10.7a4.7,4.7,0,0,0-3.8.5Z"/><path class="aef8d247-a40a-426f-b7c4-ec8632eedc32" d="M975.3,1529.1c-1.2.6-1.4,1.5-.4,1.9l25.9,11.5a5,5,0,0,0,3.8-.5l24.8-16.7a1.3,1.3,0,0,0,.4-1.8,1.8,1.8,0,0,0-.7-.5l-25.5-10.7a4.8,4.8,0,0,0-3.7.5Z"/><path class="aef8d247-a40a-426f-b7c4-ec8632eedc32" d="M938.7,1513.8c-1.1.6-1.3,1.5-.4,1.9l25.9,11.5a5,5,0,0,0,3.8-.5l24.8-16.7c1.2-.7.6-1.9-.3-2.3L967.1,1497a4.7,4.7,0,0,0-3.8.5Z"/><path class="aef8d247-a40a-426f-b7c4-ec8632eedc32" d="M902.1,1498.5c-1.1.7-1.3,1.5-.4,1.9l25.9,11.5a4.6,4.6,0,0,0,3.8-.5l24.8-16.7c1.2-.7.6-1.9-.3-2.2l-25.4-10.8a4.7,4.7,0,0,0-3.8.5Z"/><path class="aef8d247-a40a-426f-b7c4-ec8632eedc32" d="M865.6,1483.2c-1.2.7-1.4,1.5-.5,1.9l25.9,11.5a4.6,4.6,0,0,0,3.8-.5l24.8-16.7c1.2-.7.6-1.8-.3-2.2l-25.4-10.8a5.6,5.6,0,0,0-3.8.5Z"/><path class="aef8d247-a40a-426f-b7c4-ec8632eedc32" d="M829,1467.9c-1.2.7-1.4,1.6-.5,2l26,11.4a4.6,4.6,0,0,0,3.8-.5l24.8-16.7c1.1-.6.6-1.8-.4-2.2l-25.4-10.8a5.4,5.4,0,0,0-3.7.5Z"/><path class="aef8d247-a40a-426f-b7c4-ec8632eedc32" d="M792.4,1452.7c-1.2.6-1.4,1.5-.4,1.9l25.9,11.4a4.6,4.6,0,0,0,3.8-.5l24.8-16.6a1.3,1.3,0,0,0,.4-1.8,1.8,1.8,0,0,0-.7-.5l-25.4-10.7a4.7,4.7,0,0,0-3.8.5Z"/><path class="aef8d247-a40a-426f-b7c4-ec8632eedc32" d="M755.8,1437.4c-1.1.6-1.3,1.5-.4,1.9l25.9,11.5a5,5,0,0,0,3.8-.5l24.8-16.7c1.2-.7.6-1.9-.3-2.3l-25.4-10.7a4.7,4.7,0,0,0-3.8.5Z"/><path class="aef8d247-a40a-426f-b7c4-ec8632eedc32" d="M719.3,1422.1c-1.2.7-1.4,1.5-.5,1.9l25.9,11.5a4.6,4.6,0,0,0,3.8-.5l24.8-16.7c1.2-.7.6-1.9-.3-2.3l-25.4-10.7a4.7,4.7,0,0,0-3.8.5Z"/><path class="aef8d247-a40a-426f-b7c4-ec8632eedc32" d="M682.7,1406.8c-1.2.7-1.4,1.5-.5,1.9l25.9,11.5a4.6,4.6,0,0,0,3.8-.5l24.8-16.7c1.2-.7.6-1.9-.3-2.2L711,1390a4.7,4.7,0,0,0-3.8.5Z"/><path class="aef8d247-a40a-426f-b7c4-ec8632eedc32" d="M646.1,1391.5c-1.2.7-1.4,1.5-.5,2l26,11.4a4.6,4.6,0,0,0,3.8-.5l24.8-16.7c1.1-.6.6-1.8-.4-2.2l-25.4-10.8a5.4,5.4,0,0,0-3.7.5Z"/><path class="aef8d247-a40a-426f-b7c4-ec8632eedc32" d="M609.5,1376.2c-1.2.7-1.4,1.6-.4,2l25.9,11.4a4.6,4.6,0,0,0,3.8-.5l24.8-16.7c1.1-.6.6-1.8-.3-2.2l-25.4-10.8a5.1,5.1,0,0,0-3.8.6Z"/><path class="aef8d247-a40a-426f-b7c4-ec8632eedc32" d="M572.9,1361c-1.1.6-1.3,1.5-.4,1.9l25.9,11.4a5,5,0,0,0,3.8-.4l24.8-16.7c1.2-.7.6-1.9-.3-2.3l-25.4-10.7a4.7,4.7,0,0,0-3.8.5Z"/><path class="aef8d247-a40a-426f-b7c4-ec8632eedc32" d="M536.4,1345.7c-1.2.6-1.4,1.5-.5,1.9l25.9,11.5a5,5,0,0,0,3.8-.5l24.8-16.7c1.2-.7.6-1.9-.3-2.3l-25.4-10.7a4.7,4.7,0,0,0-3.8.5Z"/><path class="aef8d247-a40a-426f-b7c4-ec8632eedc32" d="M499.9,1330.4c-1.2.7-1.4,1.5-.5,1.9l26,11.5a4.6,4.6,0,0,0,3.8-.5l24.8-16.7c1.1-.7.6-1.9-.4-2.2l-25.4-10.8a4.8,4.8,0,0,0-3.7.5Z"/><path class="bdd4a224-3f7c-4c62-aa8b-d0f613a2251e" d="M372.6,1225.4c5,17.6.9,37.5-17.6,57.2s-45.4,23.3-64.3,39.7c-22.9,19.8-40.5,45.3-72.3,50.9-26.6,4.7-71.2-1.5-87.5-26.8-21.6-33.3,14-82.4,39.7-108.5,17.4-17.7,39.5-30.9,61.2-42.6,14.1-7.6,35.2-26,51.4-26.6C321.6,1167.3,363.2,1192.2,372.6,1225.4Z"/><path class="a5aaf51f-bbae-4ee6-8feb-0331832c1d4f" d="M141.4,1319.3h0a65.8,65.8,0,0,0,91.1,18h0l89.8-60.2c30.1-20.2,32.6-55.6,12.4-85.7,0,0-49-67.3-153.2,14.8C181.5,1206.1,102.9,1262.6,141.4,1319.3Z"/><path class="bf7563fe-7cb0-4186-9f1b-9cc609b8457c" d="M209.9,1300.8c16.3-11,35.4-30.2,28-51.9s-28.2-38.8-45-51.3c95.1-67.3,141.8-6.3,141.8-6.3,20.2,30.1,17.7,65.5-12.4,85.7l-89.8,60.2a65.5,65.5,0,0,1-91-17.8h-.1c-5.8-10.4-9-17-9.5-22.1C152.3,1310.6,186.1,1316.7,209.9,1300.8Z"/><path class="e588e874-a14c-4548-b332-11b49d403888" d="M294.9,1210s-4.1,2.4-7.6-.6l-8.6-7.3s-3.6-2.8,0-5.3a168,168,0,0,1,39.4-20,55,55,0,0,1,16.6,14.5S316.9,1196.2,294.9,1210Z"/><path class="fcf56ccc-1fee-4ca4-85f5-a87056bd9880" d="M323.5,1184.1s3.1,3.6-2.8,6.5l-30.1,14.7s-1.8,1-4.2-.9c0,0-6.2-3.4-1.4-6.2l31-15.2S321.1,1180.5,323.5,1184.1Z"/><path class="e588e874-a14c-4548-b332-11b49d403888" d="M295.7,1291a31.8,31.8,0,0,0,.3-6.2,42.2,42.2,0,0,0-.3-7.1,57.7,57.7,0,0,0-1.1-9.2,67.4,67.4,0,0,0-3.1-10.6,69.8,69.8,0,0,0-5.2-11.1,187.4,187.4,0,0,0-14-22.5c-2.6-3.7-5.6-7.2-8.4-10.6a102.6,102.6,0,0,0-9.1-9.5c-3.1-2.9-6.4-5.4-9.4-7.9a40.7,40.7,0,0,0-9.3-5.8,42.9,42.9,0,0,0-8.5-3.7,32.2,32.2,0,0,0-6.9-2l-6.1-.9,5.9,1.7a42,42,0,0,1,6.5,2.6,54.6,54.6,0,0,1,7.9,4.3c2.9,1.5,5.6,4,8.7,6.2a65.3,65.3,0,0,1,8.7,8.1c2.9,3,5.8,6.1,8.6,9.4a120.8,120.8,0,0,1,8,10.5,219.9,219.9,0,0,1,14.2,21.8c2,3.7,4.2,7.1,5.6,10.6a58.6,58.6,0,0,1,3.6,9.9c.7,3.3,1.5,6.2,1.9,8.9s.8,5,1,6.9C295.6,1288.7,295.7,1291,295.7,1291Z"/><polygon class="aebdd353-81ca-4b27-81d5-cfb0066ce2b5" points="1414.8 1107 1473.7 673.2 803.8 390.8 745 828.5 1414.8 1107"/><polygon class="bfd5ae4d-e651-4051-8ea3-69dbe6721e00" points="1468.6 710.8 1473.7 673.2 803.8 390.8 798.2 432.5 1468.6 710.8"/><polygon class="e49cc97d-b577-4b03-95fe-2acdc342a297" points="1439.3 1090.5 1414.9 1107 1473.7 673.2 1498.1 656.7 1439.3 1090.5"/><polygon class="fcf56ccc-1fee-4ca4-85f5-a87056bd9880" points="828.3 374.4 803.8 390.9 1473.7 673.2 1498.1 656.7 828.3 374.4"/><polygon class="f8c89019-61a2-4249-9134-7b1deb416c89" points="1387.1 851.5 1400.2 755.1 1251.4 692.4 1238.3 789.6 1387.1 851.5"/><polygon class="f8c89019-61a2-4249-9134-7b1deb416c89" points="1367.7 999.9 1380.7 903.6 1232 840.8 1218.9 938.1 1367.7 999.9"/><path class="f2f24fdd-0595-404f-b043-70b12bb25fc7" d="M896.9,443.9c-5.4,5.5-3.7,15.9,2,20.9a12.8,12.8,0,0,0,6.8,3.3c6.7.6,12.4-5.1,12.3-12a14.8,14.8,0,0,0-4.7-11.5c-3.3-3.1-8.4-5-12.8-3.1A14.1,14.1,0,0,0,896.9,443.9Z"/><path class="f2f24fdd-0595-404f-b043-70b12bb25fc7" d="M863,430.2c-5.4,5.5-3.7,15.9,2,20.9a12.8,12.8,0,0,0,6.8,3.3c6.7.6,12.4-5.1,12.3-12a14.8,14.8,0,0,0-4.7-11.5c-3.3-3.1-8.4-5-12.8-3.1A12.6,12.6,0,0,0,863,430.2Z"/><path class="f2f24fdd-0595-404f-b043-70b12bb25fc7" d="M830.7,416.5c-5.4,5.5-3.7,15.9,2,20.9a13.5,13.5,0,0,0,6.9,3.3c6.6.6,12.3-5.1,12.3-12a15.3,15.3,0,0,0-4.8-11.5c-3.3-3.1-8.4-4.9-12.8-3.1A14.1,14.1,0,0,0,830.7,416.5Z"/><path class="bfd5ae4d-e651-4051-8ea3-69dbe6721e00" d="M971.9,591c-47.6-19.9-87.4-36.3-124.6-51.4l1.4-10.6c37.4,15.1,77.1,31.5,124.7,51.4C972.9,583.9,972.5,587.5,971.9,591Z"/><path class="bfd5ae4d-e651-4051-8ea3-69dbe6721e00" d="M1011.7,596.5l73,30.8,49.2,20.8c-.5,3.5-1.2,7-1.8,10.4l-51.4-21.7L1010,607C1010.5,603.5,1011.1,600,1011.7,596.5Z"/><path class="bfd5ae4d-e651-4051-8ea3-69dbe6721e00" d="M1158.2,658.3l52.6,22-1.5,10.7-52.5-22C1157.3,665.4,1157.8,661.9,1158.2,658.3Z"/><path class="bfd5ae4d-e651-4051-8ea3-69dbe6721e00" d="M898,590.7c-19.2-8-37.1-15.3-54.6-22.3l1.4-10.6c17.7,7.1,35.7,14.4,55,22.4C899,583.6,898.5,587.1,898,590.7Z"/><path class="bfd5ae4d-e651-4051-8ea3-69dbe6721e00" d="M1045.4,652.3c-38.9-16.4-80.4-33.9-121.8-51.1.6-3.4,1.3-6.9,1.9-10.4,41.5,17.2,83.3,34.8,122.4,51.3C1047,645.5,1046.1,648.9,1045.4,652.3Z"/><path class="bfd5ae4d-e651-4051-8ea3-69dbe6721e00" d="M1074.1,653.2l7,3c41.3,17.4,83.7,35.3,125.8,52.9l-1.5,10.6c-42.9-17.9-86.2-36.2-128.3-54l-4.9-2.1C1072.7,660.1,1073.3,656.6,1074.1,653.2Z"/><path class="bfd5ae4d-e651-4051-8ea3-69dbe6721e00" d="M994.7,661.3c-62.5-26.3-110.6-46.2-155.1-64.2l1.4-10.6c44.5,18,92.3,37.8,154.4,63.9C995,654,994.8,657.6,994.7,661.3Z"/><path class="bfd5ae4d-e651-4051-8ea3-69dbe6721e00" d="M1017.2,659.5l60.2,25.5,50.4,21.3c-.6,3.4-1.4,6.9-2,10.4l-52.4-22.2L1016,670.3A99.1,99.1,0,0,1,1017.2,659.5Z"/><path class="bfd5ae4d-e651-4051-8ea3-69dbe6721e00" d="M1152.5,716.7l50.5,21.1-1.5,10.6L1150.4,727C1151.2,723.6,1152,720.2,1152.5,716.7Z"/><path class="bfd5ae4d-e651-4051-8ea3-69dbe6721e00" d="M945.8,745.7c-45.5-19.1-83.7-34.9-119.6-49.4l1.5-10.6c36,14.6,74.4,30.4,120,49.5C947.2,738.7,946.6,742.2,945.8,745.7Z"/><path class="bfd5ae4d-e651-4051-8ea3-69dbe6721e00" d="M986,751.3l73.5,31,48.1,20.3a89.8,89.8,0,0,0-2.2,10.3l-50-21.1-70.9-29.9A96.5,96.5,0,0,1,986,751.3Z"/><path class="bfd5ae4d-e651-4051-8ea3-69dbe6721e00" d="M1133.6,813.6l55.9,23.4-1.4,10.6c-18.7-7.7-37.3-15.6-56-23.4A62.9,62.9,0,0,1,1133.6,813.6Z"/><path class="bfd5ae4d-e651-4051-8ea3-69dbe6721e00" d="M872.9,745.7c-17.7-7.3-34.3-14.1-50.5-20.6l1.4-10.6L875,735.4A89.5,89.5,0,0,1,872.9,745.7Z"/><path class="bfd5ae4d-e651-4051-8ea3-69dbe6721e00" d="M1020.7,807.6c-39.1-16.6-81-34.2-122.7-51.5.8-3.5,1.5-6.9,2-10.4,41.5,17.2,83.1,34.7,122,51.2C1021.7,800.4,1021.3,804,1020.7,807.6Z"/><path class="bfd5ae4d-e651-4051-8ea3-69dbe6721e00" d="M1049.4,808.4l6.5,2.8c42.5,17.9,86.4,36.5,129.7,54.5l-1.4,10.7c-44.2-18.4-89-37.4-132.3-55.7l-4-1.7C1048.4,815.5,1048.8,811.9,1049.4,808.4Z"/><path class="bfd5ae4d-e651-4051-8ea3-69dbe6721e00" d="M968.9,816.1c-60.3-25.4-107.1-44.8-150.4-62.3l1.4-10.6c43.6,17.6,90.5,37.1,151.1,62.5C970.4,809.2,969.7,812.6,968.9,816.1Z"/><path class="bfd5ae4d-e651-4051-8ea3-69dbe6721e00" d="M993.1,815l59,25,46.2,19.4c-.3,3.6-.7,7.1-1.2,10.6v.2l-49-20.7-56.5-23.9C992.1,822.1,992.8,818.6,993.1,815Z"/><path class="bfd5ae4d-e651-4051-8ea3-69dbe6721e00" d="M1127.8,871.9l53.9,22.6-1.4,10.6-54-22.6C1126.7,878.9,1127.1,875.4,1127.8,871.9Z"/></g></svg>