<svg xmlns="http://www.w3.org/2000/svg" viewBox="0 0 137.2 142"><defs><style>.ae76595f-a6a3-473d-b63b-3131573496bd{isolation:isolate;}.f28ddb1c-8404-4065-940f-97ce7ac311c3{fill:#c2c2c2;}.ff7899ba-1f4a-4dc5-b142-43f958db9e5e{fill:#a1a1a1;}.b806dbfa-70b2-4edf-aad6-e9e5a216feb2{fill:#7f7e7e;opacity:0.5;}.aed40f82-bbf8-4175-b889-dca73e45f77b{fill:#a2a2a2;}.aec40216-605d-4300-aa17-eb05d749ed94{fill:gray;}.a6f069cb-7b68-4266-a82b-4d36070c5c6c{fill:#dff0f4;}.b9ca7e9f-fec6-43c3-b206-486c065dd200{fill:#515151;}.fd2abed0-c2b6-4f0c-987f-3c22d5281d93{mix-blend-mode:screen;}.a07f1b15-eb4e-4949-bc85-43fe9e62c29b{fill:#757575;opacity:0.4;}.e42eab26-8b5d-4832-86f9-85f50ef56afa{fill:#bac3c4;}</style></defs><g class="ae76595f-a6a3-473d-b63b-3131573496bd"><g id="fa905d02-be6d-479e-9d1d-af4f096907c1" data-name="Layer 1"><path class="f28ddb1c-8404-4065-940f-97ce7ac311c3" d="M64.3,90.6v7.8s.3,3.7-5.2,5-13.2,3.5-13.2,3.5l30.4,9.2,14.6-4.8s4.7-1.9,4.7-6.6V95.6Z" transform="translate(-2.1 -2.2)"/><path class="ff7899ba-1f4a-4dc5-b142-43f958db9e5e" d="M76.3,116.5h-.1l-30.4-9.3a.3.3,0,0,1-.3-.3c0-.2.1-.4.3-.4s7.8-2.3,13.3-3.5,4.8-4.4,4.8-4.6V90.3h.4l31.3,5c.2,0,.3.2.3.4v9.1c0,4.9-4.8,6.9-5,7l-14.6,4.8Zm-29-9.6,29,8.8,14.5-4.8s4.4-1.9,4.4-6.2V95.9L64.7,91v7.4s.3,4.1-5.5,5.3Z" transform="translate(-2.1 -2.2)"/><path class="b806dbfa-70b2-4edf-aad6-e9e5a216feb2" d="M63.4,101c6.8,2.2,27.2,7.3,30.4,8.2a6.6,6.6,0,0,0,1.8-4.5V95.6l-31.3-5v7.8A4.1,4.1,0,0,1,63.4,101Z" transform="translate(-2.1 -2.2)"/><path class="aed40f82-bbf8-4175-b889-dca73e45f77b" d="M130.5,19.4,43,2.7a8.4,8.4,0,0,0-5.4.9h0L31.7,6.9l2.5,2.6a18.4,18.4,0,0,0-.4,4.1V72.3s-1.2,4.3,2.6,6.1S124,105.9,126,106.5l3.2,3.5,6.5-3.7.8-.4h0a5.6,5.6,0,0,0,2.4-4.7v-73S139.1,20.4,130.5,19.4Z" transform="translate(-2.1 -2.2)"/><path class="aec40216-605d-4300-aa17-eb05d749ed94" d="M129.2,110.4l-.3-.2-3.1-3.3c-3.4-1.1-85.8-26.4-89.5-28.2s-3-5.9-2.9-6.4V13.6a26.9,26.9,0,0,1,.3-4L31.4,7.2a.4.4,0,0,1-.1-.3c0-.2.1-.3.2-.3l5.9-3.4a9.2,9.2,0,0,1,5.7-.9L130.6,19a9.2,9.2,0,0,1,8.7,9.2v73a6.1,6.1,0,0,1-2.6,5.1l-.8.4-6.5,3.6C129.4,110.4,129.3,110.4,129.2,110.4ZM32.3,7l2.2,2.2c0,.1.1.3.1.4a17.5,17.5,0,0,0-.4,4V72.3h0c-.1.2-1,4,2.4,5.6s88.6,27.9,89.5,28.1l.2.2,3,3.2,6.3-3.5.6-.4a5,5,0,0,0,2.3-4.4v-73c0-.3,0-7.5-8.1-8.4L42.9,3.1a8.6,8.6,0,0,0-5.1.8Z" transform="translate(-2.1 -2.2)"/><path class="aed40f82-bbf8-4175-b889-dca73e45f77b" d="M130.5,19.4,43,2.7a8.4,8.4,0,0,0-5.4.9h0L31.7,6.9l2.5,2.6a18.4,18.4,0,0,0-.4,4.1V72.3s-1.2,4.3,2.6,6.1S124,105.9,126,106.5l3.2,3.5,6.5-3.7.8-.4h0a5.6,5.6,0,0,0,2.4-4.7v-73S139.1,20.4,130.5,19.4Z" transform="translate(-2.1 -2.2)"/><path class="aec40216-605d-4300-aa17-eb05d749ed94" d="M129.2,110.4l-.3-.2-3.1-3.3c-3.4-1.1-85.8-26.4-89.5-28.2s-3-5.9-2.9-6.4V13.6a26.9,26.9,0,0,1,.3-4L31.4,7.2a.4.4,0,0,1-.1-.3c0-.2.1-.3.2-.3l5.9-3.4a9.2,9.2,0,0,1,5.7-.9L130.6,19a9.2,9.2,0,0,1,8.7,9.2v73a6.1,6.1,0,0,1-2.6,5.1l-.8.4-6.5,3.6C129.4,110.4,129.3,110.4,129.2,110.4ZM32.3,7l2.2,2.2c0,.1.1.3.1.4a17.5,17.5,0,0,0-.4,4V72.3h0c-.1.2-1,4,2.4,5.6s88.6,27.9,89.5,28.1l.2.2,3,3.2,6.3-3.5.6-.4a5,5,0,0,0,2.3-4.4v-73c0-.3,0-7.5-8.1-8.4L42.9,3.1a8.6,8.6,0,0,0-5.1.8Z" transform="translate(-2.1 -2.2)"/><path class="a6f069cb-7b68-4266-a82b-4d36070c5c6c" d="M27.4,17.2V81.4s-.5,3.4,5.1,5.4c4,1.4,87,23.3,87,23.3s12.7,3.4,12.9-5.3V33.4s1.1-8.9-7.7-9.6L36.6,6.3a8.8,8.8,0,0,0-5.8,1.1C28.4,9,27.4,13.1,27.4,17.2Z" transform="translate(-2.1 -2.2)"/><path class="ff7899ba-1f4a-4dc5-b142-43f958db9e5e" d="M124.8,111.2h0a23.2,23.2,0,0,1-5.3-.7c-3.4-.9-83.1-21.9-87-23.3-5.8-2.1-5.4-5.7-5.4-5.8V17.2c0-2.3.3-8,3.6-10.1a8.6,8.6,0,0,1,6.1-1.2l88.2,17.5a8.5,8.5,0,0,1,6.1,2.9c2.4,3,1.9,7,1.9,7.2v71.3C132.8,109,130,111.2,124.8,111.2ZM35.2,6.6A7.5,7.5,0,0,0,31,7.8c-2,1.3-3.2,4.8-3.2,9.4V81.4c0,.2-.3,3.2,4.9,5s86.1,23.1,86.9,23.3a20.5,20.5,0,0,0,5.1.7h0c4.7,0,7.2-1.9,7.3-5.6V33.4s.5-3.9-1.7-6.6a8,8,0,0,0-5.6-2.6L36.5,6.7Z" transform="translate(-2.1 -2.2)"/><path class="b9ca7e9f-fec6-43c3-b206-486c065dd200" d="M131.1,36.1s1.1-8.7-7.5-9.4L37.8,9.7a8.5,8.5,0,0,0-5.7,1.1c-2.3,1.5-3.3,5.5-3.3,9.5V71.8L131.1,96.7Z" transform="translate(-2.1 -2.2)"/><path class="b9ca7e9f-fec6-43c3-b206-486c065dd200" d="M131.1,97.1H131L28.8,72.2c-.2,0-.3-.2-.3-.4V20.3c0-2.3.3-7.8,3.5-9.8a8.2,8.2,0,0,1,5.9-1.2l85.9,17a7.8,7.8,0,0,1,5.9,2.9c2.4,2.8,1.9,6.8,1.9,6.9V96.7a.5.5,0,0,1-.2.4ZM29.3,71.5,130.7,96.2V36.1c0-.1.4-3.8-1.7-6.4a7.4,7.4,0,0,0-5.4-2.6l-85.9-17a8,8,0,0,0-5.4,1c-1.9,1.3-3.1,4.7-3.1,9.2Z" transform="translate(-2.1 -2.2)"/><g class="fd2abed0-c2b6-4f0c-987f-3c22d5281d93"><path class="a07f1b15-eb4e-4949-bc85-43fe9e62c29b" d="M70.3,34.9,95.6,21.2l-3.9-.8C81,25.8,70.1,31.1,59.4,36.7S39,47.7,28.8,53.3v5C42.9,50.9,56.4,42.6,70.3,34.9Z" transform="translate(-2.1 -2.2)"/><path class="a07f1b15-eb4e-4949-bc85-43fe9e62c29b" d="M112.6,68.7l18.5-9V42.1c-11.5,6-23,11.8-34.4,17.8S74.4,72,63.4,78.4l-2.2,1.3,20.1,4.9C91.7,79.3,102.1,73.8,112.6,68.7Z" transform="translate(-2.1 -2.2)"/></g><polygon class="e42eab26-8b5d-4832-86f9-85f50ef56afa" points="25.7 107.2 0.4 114.9 0.4 117 77.1 138.1 102.6 127 102.6 124.9 25.7 107.2"/><path class="ff7899ba-1f4a-4dc5-b142-43f958db9e5e" d="M79.3,140.7h-.2L2.4,119.6c-.2-.1-.3-.2-.3-.4v-2.1c0-.2.1-.3.3-.4L27.7,109h.2l77,17.7a.4.4,0,0,1,.3.4v2c0,.2-.1.4-.3.4L79.4,140.7ZM2.9,118.9l76.3,21,25.2-11v-1.5L27.8,109.8,2.9,117.4Z" transform="translate(-2.1 -2.2)"/><polygon class="a6f069cb-7b68-4266-a82b-4d36070c5c6c" points="25.7 105.1 0.4 114.9 77.1 136 102.6 124.9 25.7 105.1"/><path class="ff7899ba-1f4a-4dc5-b142-43f958db9e5e" d="M79.3,138.6h-.2L2.4,117.5c-.2-.1-.3-.2-.3-.4s.1-.3.3-.4l25.3-9.8h.2l77,19.8.3.3c0,.2-.1.4-.3.4L79.4,138.6ZM3.8,117l75.4,20.8,24.3-10.6L27.9,107.7Z" transform="translate(-2.1 -2.2)"/><polygon class="a6f069cb-7b68-4266-a82b-4d36070c5c6c" points="77 123.1 82.4 121.2 73.7 119 68.5 120.8 77 123.1"/><path class="ff7899ba-1f4a-4dc5-b142-43f958db9e5e" d="M79.1,125.7H79l-8.5-2.3c-.1-.1-.3-.2-.3-.4s.1-.3.3-.4l5.2-1.8h.2l8.7,2.2a.4.4,0,0,1,.3.4.5.5,0,0,1-.3.4l-5.4,1.9ZM72,123l7.1,1.9,4-1.5-7.3-1.8Z" transform="translate(-2.1 -2.2)"/><polygon class="a6f069cb-7b68-4266-a82b-4d36070c5c6c" points="34.7 111.6 39 110.1 30.3 107.9 26.2 109.3 34.7 111.6"/><path class="ff7899ba-1f4a-4dc5-b142-43f958db9e5e" d="M36.8,114.2h-.1l-8.5-2.3a.4.4,0,0,1-.3-.4.5.5,0,0,1,.3-.4l4.1-1.4h.2l8.7,2.2c.2,0,.3.2.3.4a.5.5,0,0,1-.3.4l-4.3,1.5Zm-7.1-2.7,7.1,1.9,2.9-1.1-7.3-1.8Z" transform="translate(-2.1 -2.2)"/><polygon class="a6f069cb-7b68-4266-a82b-4d36070c5c6c" points="43.1 113.9 47.7 112.3 39 110.1 34.7 111.6 43.1 113.9"/><path class="ff7899ba-1f4a-4dc5-b142-43f958db9e5e" d="M45.3,116.5h-.2l-8.4-2.3c-.2,0-.3-.2-.3-.4a.5.5,0,0,1,.3-.4l4.3-1.5h.2l8.7,2.2c.1.1.3.2.3.4s-.1.3-.3.4l-4.5,1.6Zm-7.2-2.7,7.1,1.9,3.2-1.1-7.3-1.9Z" transform="translate(-2.1 -2.2)"/><polygon class="a6f069cb-7b68-4266-a82b-4d36070c5c6c" points="85.4 125.4 91 123.4 82.4 121.2 77 123.1 85.4 125.4"/><path class="ff7899ba-1f4a-4dc5-b142-43f958db9e5e" d="M87.5,128h-.1L79,125.7c-.2-.1-.3-.2-.3-.4s.1-.3.3-.4l5.3-1.9h.3l8.6,2.2c.2.1.3.2.3.4s-.1.3-.2.4l-5.6,2Zm-7.1-2.8,7.1,2,4.3-1.5-7.3-1.9Z" transform="translate(-2.1 -2.2)"/><polygon class="a6f069cb-7b68-4266-a82b-4d36070c5c6c" points="51.6 116.2 56.3 114.5 47.7 112.3 43.1 113.9 51.6 116.2"/><path class="ff7899ba-1f4a-4dc5-b142-43f958db9e5e" d="M53.7,118.8h-.1l-8.5-2.3c-.1,0-.2-.2-.2-.4s.1-.3.2-.4l4.5-1.6h.3l8.6,2.2c.2.1.3.2.3.4s-.1.3-.2.4l-4.8,1.7Zm-7.1-2.7,7.1,1.9,3.4-1.2-7.3-1.9Z" transform="translate(-2.1 -2.2)"/><polygon class="a6f069cb-7b68-4266-a82b-4d36070c5c6c" points="60 118.5 65 116.7 56.3 114.5 51.6 116.2 60 118.5"/><path class="ff7899ba-1f4a-4dc5-b142-43f958db9e5e" d="M62.2,121.1h-.1l-8.5-2.3c-.2-.1-.3-.2-.3-.4s.1-.3.3-.4l4.7-1.7h.2l8.7,2.3a.3.3,0,0,1,.3.3c0,.2-.1.4-.2.4l-5,1.8Zm-7.1-2.7,7.1,1.9,3.6-1.3-7.3-1.9Z" transform="translate(-2.1 -2.2)"/><polygon class="a6f069cb-7b68-4266-a82b-4d36070c5c6c" points="68.5 120.8 73.7 119 65 116.7 60 118.5 68.5 120.8"/><path class="ff7899ba-1f4a-4dc5-b142-43f958db9e5e" d="M70.6,123.4h-.1l-8.4-2.3c-.2-.1-.3-.2-.3-.4a.5.5,0,0,1,.2-.4l5-1.7h.2l8.7,2.2a.3.3,0,0,1,.3.3c0,.2-.1.4-.3.4l-5.1,1.9Zm-7.1-2.7,7.1,1.9,3.8-1.4-7.3-1.8Z" transform="translate(-2.1 -2.2)"/><polygon class="a6f069cb-7b68-4266-a82b-4d36070c5c6c" points="34.7 111.6 27.3 114.3 35.7 116.5 43.1 113.9 34.7 111.6"/><path class="ff7899ba-1f4a-4dc5-b142-43f958db9e5e" d="M37.8,119.1h-.1l-8.4-2.3a.3.3,0,0,1-.3-.3c0-.2.1-.4.3-.4l7.4-2.7h.2l8.5,2.3.3.4c0,.2-.1.3-.3.4L38,119.1Zm-7.1-2.7,7.1,1.9,6.1-2.1-7.1-2Z" transform="translate(-2.1 -2.2)"/><polygon class="a6f069cb-7b68-4266-a82b-4d36070c5c6c" points="26.2 109.3 18.8 112 27.3 114.3 34.7 111.6 26.2 109.3"/><path class="ff7899ba-1f4a-4dc5-b142-43f958db9e5e" d="M29.4,116.8h-.1l-8.5-2.3-.3-.3c0-.2.1-.4.3-.4l7.4-2.7h.2l8.5,2.3c.2.1.3.2.3.4s-.1.3-.3.4l-7.4,2.6Zm-7.1-2.7,7.1,1.9,6.1-2.1-7.1-2Z" transform="translate(-2.1 -2.2)"/><polygon class="a6f069cb-7b68-4266-a82b-4d36070c5c6c" points="69.6 125.7 78 128 85.4 125.4 77 123.1 69.6 125.7"/><path class="ff7899ba-1f4a-4dc5-b142-43f958db9e5e" d="M80.1,130.6H80l-8.4-2.3a.3.3,0,0,1-.3-.3c0-.2.1-.4.2-.4l7.5-2.7h.2l8.4,2.3c.2.1.3.2.3.4s-.1.3-.2.4l-7.4,2.6ZM73,127.9l7.1,1.9,6.1-2.2-7.1-1.9Z" transform="translate(-2.1 -2.2)"/><polygon class="a6f069cb-7b68-4266-a82b-4d36070c5c6c" points="43.1 113.9 35.7 116.5 44.2 118.8 51.6 116.2 43.1 113.9"/><path class="ff7899ba-1f4a-4dc5-b142-43f958db9e5e" d="M46.3,121.4h-.1l-8.5-2.3-.3-.3c0-.2.1-.4.3-.4l7.4-2.7h.3l8.4,2.3c.2.1.3.2.3.4s-.1.3-.3.4l-7.4,2.6Zm-7.1-2.7,7.1,1.9,6.1-2.1-7.1-2Z" transform="translate(-2.1 -2.2)"/><polygon class="a6f069cb-7b68-4266-a82b-4d36070c5c6c" points="51.6 116.2 44.2 118.8 52.6 121.1 60 118.5 51.6 116.2"/><path class="ff7899ba-1f4a-4dc5-b142-43f958db9e5e" d="M54.8,123.7h-.1l-8.5-2.3a.3.3,0,0,1-.3-.3c0-.2.1-.4.3-.4l7.4-2.7h.2l8.5,2.3c.1.1.3.2.3.4s-.1.3-.3.4l-7.4,2.6ZM47.6,121l7.1,1.9,6.1-2.1-7.1-2Z" transform="translate(-2.1 -2.2)"/><polygon class="a6f069cb-7b68-4266-a82b-4d36070c5c6c" points="60 118.5 52.6 121.1 61.1 123.4 68.5 120.8 60 118.5"/><path class="ff7899ba-1f4a-4dc5-b142-43f958db9e5e" d="M63.2,126h-.1l-8.4-2.3a.3.3,0,0,1-.3-.3c0-.2.1-.4.2-.4l7.4-2.7h.3l8.4,2.3c.2.1.3.2.3.4a.5.5,0,0,1-.2.4L63.4,126Zm-7.1-2.7,7.1,1.9,6.1-2.1-7.1-2Z" transform="translate(-2.1 -2.2)"/><polygon class="a6f069cb-7b68-4266-a82b-4d36070c5c6c" points="68.5 120.8 61.1 123.4 69.6 125.7 77 123.1 68.5 120.8"/><path class="ff7899ba-1f4a-4dc5-b142-43f958db9e5e" d="M71.7,128.3h-.1L63.1,126a.3.3,0,0,1-.3-.3c0-.2.1-.4.3-.4l7.4-2.7h.2l8.5,2.3c.2.1.3.2.3.4s-.1.3-.3.4l-7.4,2.6Zm-7.1-2.7,7.1,1.9,6-2.1-7.1-2Z" transform="translate(-2.1 -2.2)"/><polygon class="a6f069cb-7b68-4266-a82b-4d36070c5c6c" points="69.6 125.7 64.5 127.6 72.9 129.9 78 128 69.6 125.7"/><path class="ff7899ba-1f4a-4dc5-b142-43f958db9e5e" d="M75,132.5h-.1l-8.4-2.3a.3.3,0,0,1-.3-.3c0-.2.1-.4.2-.4l5.1-1.8h.3l8.4,2.3c.2.1.3.2.3.4a.5.5,0,0,1-.2.4l-5.2,1.8Zm-7.1-2.8,7.1,1.9,3.8-1.3-7.1-1.9Z" transform="translate(-2.1 -2.2)"/><polygon class="a6f069cb-7b68-4266-a82b-4d36070c5c6c" points="72.9 129.9 81 132.1 85.8 130.1 78 128 72.9 129.9"/><path class="ff7899ba-1f4a-4dc5-b142-43f958db9e5e" d="M83.1,134.7H83l-8.1-2.3a.3.3,0,0,1-.3-.3c0-.2.1-.4.3-.4l5.1-1.8h.2l7.8,2.1c.1.1.3.2.3.4s-.1.3-.3.4l-4.7,1.9ZM76.3,132l6.8,1.8,3.5-1.4-6.4-1.7Z" transform="translate(-2.1 -2.2)"/><polygon class="a6f069cb-7b68-4266-a82b-4d36070c5c6c" points="30.3 107.9 26 106.8 22.2 108.2 26.2 109.3 30.3 107.9"/><path class="ff7899ba-1f4a-4dc5-b142-43f958db9e5e" d="M28.3,111.9h-.1l-4-1.1c-.2,0-.3-.2-.3-.4a.8.8,0,0,1,.2-.4l3.9-1.4h.2l4.3,1.1a.3.3,0,0,1,.3.3c0,.2-.1.4-.2.4l-4.1,1.5Zm-2.7-1.5,2.7.7,2.8-1-2.9-.7Z" transform="translate(-2.1 -2.2)"/><polygon class="a6f069cb-7b68-4266-a82b-4d36070c5c6c" points="52.6 121.1 47.6 122.9 56 125.3 61.1 123.4 52.6 121.1"/><path class="ff7899ba-1f4a-4dc5-b142-43f958db9e5e" d="M58.1,127.8H58l-8.4-2.3a.3.3,0,0,1-.3-.3c0-.2.1-.4.3-.4l5-1.8h.3l8.4,2.2c.2.1.3.2.3.4s-.1.4-.2.4l-5.1,1.8ZM51,125.1l7.1,1.9,3.8-1.3-7.1-1.9Z" transform="translate(-2.1 -2.2)"/><polygon class="a6f069cb-7b68-4266-a82b-4d36070c5c6c" points="91 123.4 85.4 125.4 92.6 127.4 98 125.2 91 123.4"/><path class="ff7899ba-1f4a-4dc5-b142-43f958db9e5e" d="M94.7,130h-.1L87.4,128l-.3-.4c0-.2.1-.3.3-.4l5.6-2h.2l7,1.8c.2,0,.3.2.3.4a.8.8,0,0,1-.2.4l-5.4,2.1Zm-5.8-2.5,5.8,1.6,4.1-1.6L93.2,126Z" transform="translate(-2.1 -2.2)"/><polygon class="a6f069cb-7b68-4266-a82b-4d36070c5c6c" points="78 128 85.8 130.1 92.6 127.4 85.4 125.4 78 128"/><path class="ff7899ba-1f4a-4dc5-b142-43f958db9e5e" d="M87.9,132.7h-.1L80,130.6a.4.4,0,0,1-.3-.4.3.3,0,0,1,.3-.3l7.4-2.7h.2l7.3,2c.1,0,.2.2.2.3s0,.4-.2.4L88,132.7Zm-6.4-2.5,6.4,1.7,5.6-2.3L87.6,128Z" transform="translate(-2.1 -2.2)"/><polygon class="a6f069cb-7b68-4266-a82b-4d36070c5c6c" points="61.1 123.4 56 125.3 64.5 127.6 69.6 125.7 61.1 123.4"/><path class="ff7899ba-1f4a-4dc5-b142-43f958db9e5e" d="M66.6,130.2h-.1L58,127.8a.5.5,0,0,1-.3-.3c0-.2.1-.4.3-.4l5.1-1.8h.2l8.5,2.3c.2.1.3.2.3.4s-.1.4-.3.4l-5.1,1.8Zm-7.1-2.8,7.1,1.9,3.7-1.3-7.1-1.9Z" transform="translate(-2.1 -2.2)"/><polygon class="a6f069cb-7b68-4266-a82b-4d36070c5c6c" points="18.8 112 13.8 113.7 22.3 116 27.3 114.3 18.8 112"/><path class="ff7899ba-1f4a-4dc5-b142-43f958db9e5e" d="M24.4,118.6h-.1l-8.5-2.3c-.1,0-.2-.2-.2-.4s.1-.3.2-.4l5-1.7H21l8.5,2.3a.3.3,0,0,1,.3.3c0,.2-.1.4-.3.4l-5,1.8Zm-7.1-2.7,7.1,1.9,3.7-1.3-7.2-1.9Z" transform="translate(-2.1 -2.2)"/><polygon class="a6f069cb-7b68-4266-a82b-4d36070c5c6c" points="15 110.9 10.2 112.7 13.8 113.7 18.8 112 15 110.9"/><path class="ff7899ba-1f4a-4dc5-b142-43f958db9e5e" d="M16,116.3h-.2l-3.6-1-.3-.3c0-.2.1-.4.3-.4l4.8-1.9h.2l3.8,1.1a.3.3,0,0,1,.3.3c0,.2-.1.4-.2.4l-5,1.8Zm-2.4-1.4,2.3.6,3.7-1.3-2.4-.7Z" transform="translate(-2.1 -2.2)"/><polygon class="a6f069cb-7b68-4266-a82b-4d36070c5c6c" points="26.2 109.3 22.2 108.2 15 110.9 18.8 112 26.2 109.3"/><path class="ff7899ba-1f4a-4dc5-b142-43f958db9e5e" d="M20.9,114.5h-.1l-3.8-1a.4.4,0,0,1-.3-.4.5.5,0,0,1,.3-.4l7.1-2.7h.3l4,1.1c.2.1.3.2.3.4a.5.5,0,0,1-.2.4l-7.4,2.6Zm-2.5-1.4,2.5.6,6.1-2.1-2.7-.8Z" transform="translate(-2.1 -2.2)"/><polygon class="a6f069cb-7b68-4266-a82b-4d36070c5c6c" points="35.7 116.5 30.7 118.3 39.1 120.6 44.2 118.8 35.7 116.5"/><path class="ff7899ba-1f4a-4dc5-b142-43f958db9e5e" d="M41.3,123.2h-.1l-8.5-2.3a.4.4,0,0,1-.3-.4.3.3,0,0,1,.3-.3l5-1.8a.2.2,0,0,1,.3,0l8.4,2.3a.3.3,0,0,1,.3.3c0,.2-.1.4-.3.4l-5,1.8Zm-7.1-2.7,7,1.9,3.8-1.3-7.1-1.9Z" transform="translate(-2.1 -2.2)"/><polygon class="a6f069cb-7b68-4266-a82b-4d36070c5c6c" points="27.3 114.3 22.3 116 30.7 118.3 35.7 116.5 27.3 114.3"/><path class="ff7899ba-1f4a-4dc5-b142-43f958db9e5e" d="M32.8,120.9h-.1l-8.4-2.3c-.2,0-.3-.2-.3-.4a.5.5,0,0,1,.3-.4l5-1.7h.2l8.5,2.3c.1,0,.2.2.2.3a.3.3,0,0,1-.2.4l-5,1.8Zm-7.1-2.7,7.1,1.9,3.7-1.3-7.1-1.9Z" transform="translate(-2.1 -2.2)"/><polygon class="a6f069cb-7b68-4266-a82b-4d36070c5c6c" points="44.2 118.8 39.1 120.6 47.6 122.9 52.6 121.1 44.2 118.8"/><path class="ff7899ba-1f4a-4dc5-b142-43f958db9e5e" d="M49.7,125.5h-.1l-8.4-2.3a.3.3,0,0,1-.3-.3c0-.2.1-.4.2-.4l5.1-1.8c0-.1.1-.1.2,0l8.5,2.3a.3.3,0,0,1,.3.3c0,.2-.1.4-.3.4l-5.1,1.8Zm-7.1-2.7,7.1,1.9,3.7-1.3-7.1-1.9Z" transform="translate(-2.1 -2.2)"/><path class="a6f069cb-7b68-4266-a82b-4d36070c5c6c" d="M123.8,132.8s-2.1-4.7-10.5-3S96.5,135.7,97,140.3s7.1,3.9,12.1,2.4S126.6,138.1,123.8,132.8Z" transform="translate(-2.1 -2.2)"/><path class="ff7899ba-1f4a-4dc5-b142-43f958db9e5e" d="M102.5,144.2h0c-4.6,0-5.7-2.1-5.9-3.9-.6-4.9,8.1-9.3,16.6-10.9a13.7,13.7,0,0,1,3.4-.4c5.8,0,7.5,3.5,7.5,3.7a3,3,0,0,1,.2,2.9c-1.5,3.7-9.9,6-14.4,7.3l-.7.2A25.3,25.3,0,0,1,102.5,144.2Zm14.1-14.4-3.3.3c-8.2,1.7-16.4,5.9-15.9,10.1.2,2.1,1.9,3.2,5.1,3.2h0a24.5,24.5,0,0,0,6.5-1.1l.7-.2c4.1-1.1,12.5-3.5,13.9-6.8a2.4,2.4,0,0,0-.2-2.3C123.4,132.9,121.9,129.8,116.6,129.8Z" transform="translate(-2.1 -2.2)"/><path class="b806dbfa-70b2-4edf-aad6-e9e5a216feb2" d="M123.8,132.8s-2.1-4.7-10.5-3S96.5,135.7,97,140.3s7.1,3.9,12.1,2.4S126.6,138.1,123.8,132.8Zm-15.7,7.5c-3.5,1-8.1,1.5-8.4-1.7s5.4-6.1,11.3-7.2,7.2,2.1,7.2,2.1C120.2,137.1,111.5,139.4,108.1,140.3Z" transform="translate(-2.1 -2.2)"/></g></g></svg>