<svg xmlns="http://www.w3.org/2000/svg" xmlns:xlink="http://www.w3.org/1999/xlink" viewBox="0 0 243.4 299.9"><defs><style>.aeb504ee-4973-4148-8011-0bee81080052{isolation:isolate;}.a9eb0cad-3385-45e5-9c8a-2afa9526fffa{fill:#1b2328;}.a02a6e6e-c0a0-47f7-a408-d67879ce252d,.a9eb0cad-3385-45e5-9c8a-2afa9526fffa{stroke:#f9fbfc;stroke-miterlimit:10;}.a02a6e6e-c0a0-47f7-a408-d67879ce252d{fill:#fff;}.b3f031e1-9a0b-46dc-957e-2a85bac32839,.bbff060c-cff0-4e85-9319-1fa853bf3e82{mix-blend-mode:screen;}.b3f031e1-9a0b-46dc-957e-2a85bac32839{fill:url(#bd75c55a-379f-48f5-89b4-24e29a018e42);}.bbff060c-cff0-4e85-9319-1fa853bf3e82{fill:url(#adf31455-5522-40c6-8e25-e85e3d1ba3b3);}</style><linearGradient id="bd75c55a-379f-48f5-89b4-24e29a018e42" y1="93.44" x2="237.06" y2="93.44" gradientUnits="userSpaceOnUse"><stop offset="0" stop-color="#1b28a8"/><stop offset="0.5" stop-color="#5766ff"/><stop offset="1" stop-color="#85f3ff"/></linearGradient><linearGradient id="adf31455-5522-40c6-8e25-e85e3d1ba3b3" x1="49.76" y1="93.44" x2="237.06" y2="93.44" xlink:href="#bd75c55a-379f-48f5-89b4-24e29a018e42"/></defs><g class="aeb504ee-4973-4148-8011-0bee81080052"><g id="b3458d73-bd96-441a-9d23-2a305b97b584" data-name="EasyTech_logo"><g id="ab40e9d6-c783-4801-9be7-b6bf19210fcf" data-name="WHITE"><path class="a9eb0cad-3385-45e5-9c8a-2afa9526fffa" d="M128.2,318.3v7.6h-.7v-2.4a4.7,4.7,0,0,1-4.4,2.5c-2.7,0-4.3-1.4-4.3-3.3s1.1-3.3,4.3-3.3h4.3v-1.1q0-3.6-3.6-3.6a5.9,5.9,0,0,0-4.2,1.6l-.4-.6a7,7,0,0,1,4.6-1.7C126.6,314,128.2,315.5,128.2,318.3Zm-.8,4.2V320h-4.3c-2.5,0-3.5,1.1-3.5,2.6s1.3,2.7,3.5,2.7A4.2,4.2,0,0,0,127.4,322.5Z" transform="translate(-101.7 -31)"/><path class="a9eb0cad-3385-45e5-9c8a-2afa9526fffa" d="M133.1,309h.8v16.9h-.8Z" transform="translate(-101.7 -31)"/><path class="a9eb0cad-3385-45e5-9c8a-2afa9526fffa" d="M138.9,309h.8v16.9h-.8Z" transform="translate(-101.7 -31)"/><path class="a9eb0cad-3385-45e5-9c8a-2afa9526fffa" d="M159.6,314.1l-6.2,13.6c-.9,2-2,2.7-3.5,2.7a3.4,3.4,0,0,1-2.6-1l.4-.6a3.1,3.1,0,0,0,2.2.9c1.2,0,2-.5,2.8-2.2l.7-1.6-5.3-11.8h.8l5,10.9,4.9-10.9Z" transform="translate(-101.7 -31)"/><path class="a9eb0cad-3385-45e5-9c8a-2afa9526fffa" d="M160.6,320a5.8,5.8,0,1,1,5.8,6A5.7,5.7,0,0,1,160.6,320Zm10.8,0c0-3.2-2.1-5.3-5-5.3a5,5,0,0,0-5.1,5.3,5,5,0,0,0,5.1,5.3A5,5,0,0,0,171.4,320Z" transform="translate(-101.7 -31)"/><path class="a9eb0cad-3385-45e5-9c8a-2afa9526fffa" d="M186,314.1v11.8h-.7V323a4.6,4.6,0,0,1-4.6,3c-3,0-4.9-1.7-4.9-5v-6.9h.7V321c0,2.8,1.5,4.3,4.2,4.3s4.6-1.9,4.6-4.8v-6.4Z" transform="translate(-101.7 -31)"/><path class="a9eb0cad-3385-45e5-9c8a-2afa9526fffa" d="M195.5,320a5.8,5.8,0,0,1,5.9-6,5.4,5.4,0,0,1,4.3,2l-.5.5a4.6,4.6,0,0,0-3.8-1.8,5.3,5.3,0,0,0,0,10.6,4.6,4.6,0,0,0,3.8-1.8l.5.5a5.4,5.4,0,0,1-4.3,2A5.8,5.8,0,0,1,195.5,320Z" transform="translate(-101.7 -31)"/><path class="a9eb0cad-3385-45e5-9c8a-2afa9526fffa" d="M207.8,320a5.8,5.8,0,1,1,5.8,6A5.7,5.7,0,0,1,207.8,320Zm10.8,0c0-3.2-2.1-5.3-5-5.3a5,5,0,0,0-5.1,5.3,5,5,0,0,0,5.1,5.3A5,5,0,0,0,218.6,320Z" transform="translate(-101.7 -31)"/><path class="a9eb0cad-3385-45e5-9c8a-2afa9526fffa" d="M233.2,314.1v11.8h-.7V323a4.6,4.6,0,0,1-4.6,3c-3,0-4.9-1.7-4.9-5v-6.9h.7V321c0,2.8,1.5,4.3,4.2,4.3s4.6-1.9,4.6-4.8v-6.4Z" transform="translate(-101.7 -31)"/><path class="a9eb0cad-3385-45e5-9c8a-2afa9526fffa" d="M238.3,309h.7v16.9h-.7Z" transform="translate(-101.7 -31)"/><path class="a9eb0cad-3385-45e5-9c8a-2afa9526fffa" d="M254.4,309v16.9h-.8v-3.2a5.5,5.5,0,0,1-5.1,3.3,6,6,0,0,1,0-12,5.3,5.3,0,0,1,5.1,3.3V309Zm-.8,11a5,5,0,0,0-5.1-5.3c-2.9,0-5,2.1-5,5.3a5,5,0,0,0,5,5.3A5,5,0,0,0,253.6,320Z" transform="translate(-101.7 -31)"/><path class="a9eb0cad-3385-45e5-9c8a-2afa9526fffa" d="M273.4,318.3v7.6h-.7v-2.4a4.5,4.5,0,0,1-4.4,2.5c-2.7,0-4.2-1.4-4.2-3.3s1-3.3,4.3-3.3h4.3v-1.1c0-2.4-1.3-3.6-3.7-3.6a5.9,5.9,0,0,0-4.2,1.6l-.4-.6A7,7,0,0,1,269,314C271.9,314,273.4,315.5,273.4,318.3Zm-.7,4.2V320h-4.3c-2.6,0-3.6,1.1-3.6,2.6s1.3,2.7,3.5,2.7A4.4,4.4,0,0,0,272.7,322.5Z" transform="translate(-101.7 -31)"/><path class="a9eb0cad-3385-45e5-9c8a-2afa9526fffa" d="M276.5,324.4l.4-.6a6.7,6.7,0,0,0,4.3,1.5c2.7,0,3.7-1,3.7-2.4,0-3.8-8-1.1-8-5.8,0-1.6,1.4-3.1,4.4-3.1a6.9,6.9,0,0,1,3.9,1.2l-.3.6a5.9,5.9,0,0,0-3.6-1.1c-2.5,0-3.6,1.1-3.6,2.4,0,3.9,8,1.3,8,5.8,0,1.8-1.5,3.1-4.5,3.1A7,7,0,0,1,276.5,324.4Z" transform="translate(-101.7 -31)"/><path class="a9eb0cad-3385-45e5-9c8a-2afa9526fffa" d="M293.1,319.3l-3.3,3v3.6H289V309h.8v12.4l8-7.3h1l-5.1,4.7,5.6,7.1h-.9Z" transform="translate(-101.7 -31)"/><path class="a9eb0cad-3385-45e5-9c8a-2afa9526fffa" d="M308.9,312.1v2h3.9v.6h-3.9v11.2h-.7V314.7h-2.3v-.6h2.3V312a2.8,2.8,0,0,1,3-3.1,3.8,3.8,0,0,1,2.4.8l-.4.6a3.2,3.2,0,0,0-2-.7C309.7,309.6,308.9,310.5,308.9,312.1Z" transform="translate(-101.7 -31)"/><path class="a9eb0cad-3385-45e5-9c8a-2afa9526fffa" d="M313.6,320a5.9,5.9,0,1,1,5.8,6A5.7,5.7,0,0,1,313.6,320Zm10.9,0a5.1,5.1,0,1,0-5.1,5.3A5,5,0,0,0,324.5,320Z" transform="translate(-101.7 -31)"/><path class="a9eb0cad-3385-45e5-9c8a-2afa9526fffa" d="M334.3,314v.7h-.2c-2.8,0-4.4,1.9-4.4,4.9v6.3H329V314.1h.7v2.8A4.6,4.6,0,0,1,334.3,314Z" transform="translate(-101.7 -31)"/><path class="a02a6e6e-c0a0-47f7-a408-d67879ce252d" d="M116.7,260l-1.1,5.4h14.3l-1.3,6.8H114.3l-1.2,5.9H130l-1.5,7H102.7l6.5-32.2h25.1l-1.4,7.1Z" transform="translate(-101.7 -31)"/><path class="a02a6e6e-c0a0-47f7-a408-d67879ce252d" d="M164.4,260.2l-5,24.9h-8.2l.5-2.4a10.5,10.5,0,0,1-7.2,2.8c-5.4,0-10.6-4.1-10.6-11.4s6.1-14.3,13.5-14.3c3.4,0,6.1,1,7.7,3.4l.6-3Zm-11,11.3a4.3,4.3,0,0,0-4.7-4.7c-3.5,0-5.9,2.8-5.9,6.9s1.7,4.8,4.7,4.8S153.4,275.7,153.4,271.5Z" transform="translate(-101.7 -31)"/><path class="a02a6e6e-c0a0-47f7-a408-d67879ce252d" d="M164,283.1l3.2-6.1a17.2,17.2,0,0,0,8.6,2.2c2.8,0,4-.6,4-1.7,0-2.9-12.9-.3-12.9-8.7,0-6,5.7-9,13.3-9a22.2,22.2,0,0,1,9.4,1.9l-3.1,6.2a14.1,14.1,0,0,0-7.4-1.9c-2.8,0-4,.8-4,1.9,0,2.9,12.9.3,12.9,8.6,0,6-5.8,9-13.2,9C170.4,285.5,166.1,284.4,164,283.1Z" transform="translate(-101.7 -31)"/><path class="a02a6e6e-c0a0-47f7-a408-d67879ce252d" d="M220.9,260.2l-15.9,26c-3.9,6.3-7.2,8.2-12.4,8.2a11.7,11.7,0,0,1-7-2.2l3.9-6.1a5.6,5.6,0,0,0,3.8,1.4,4.2,4.2,0,0,0,3.7-2.2l-5.6-25.1H200l3.2,15.3,9.2-15.3Z" transform="translate(-101.7 -31)"/><path class="a02a6e6e-c0a0-47f7-a408-d67879ce252d" d="M243.8,260.1h-9.9l1.5-7.2h28.8l-1.5,7.2h-9.8l-5,25h-9.1Z" transform="translate(-101.7 -31)"/><path class="a02a6e6e-c0a0-47f7-a408-d67879ce252d" d="M285.9,274.8H267.6c.3,2.7,2.2,4,5.6,4a10.1,10.1,0,0,0,6.1-2l3.6,5.5a17.6,17.6,0,0,1-10.6,3.2c-8,0-13.3-4.4-13.3-11.4s6.1-14.3,15.1-14.3,12.3,4.4,12.3,10.9A24.2,24.2,0,0,1,285.9,274.8Zm-17.8-4.6h10.2c.1-2.7-1.8-4.2-4.6-4.2A5.6,5.6,0,0,0,268.1,270.2Z" transform="translate(-101.7 -31)"/><path class="a02a6e6e-c0a0-47f7-a408-d67879ce252d" d="M288.3,274.1c0-8.2,6.4-14.3,15.4-14.3,5.7,0,10,2.4,11.8,6.7l-7.4,3.6a4.8,4.8,0,0,0-4.8-3.3c-3.6,0-6.1,2.8-6.1,6.8s1.7,4.9,4.8,4.9a5.8,5.8,0,0,0,5.4-3.3l6.4,3.9c-2.4,4-6.9,6.4-12.4,6.4C293.5,285.5,288.3,281,288.3,274.1Z" transform="translate(-101.7 -31)"/><path class="a02a6e6e-c0a0-47f7-a408-d67879ce252d" d="M344.6,268.3a16.9,16.9,0,0,1-.3,3l-2.8,13.8h-8.7l2.6-13a10,10,0,0,0,.2-1.6c0-2.2-1.1-3.3-3.5-3.3s-5,1.8-5.8,5.6l-2.5,12.3h-8.7l6.8-34.1h8.7l-2.2,11.2a11.4,11.4,0,0,1,7.2-2.4C340.9,259.8,344.6,262.7,344.6,268.3Z" transform="translate(-101.7 -31)"/><polygon class="b3f031e1-9a0b-46dc-957e-2a85bac32839" points="237.1 0 0 89.2 169.3 186.9 237.1 0"/><polygon class="bbff060c-cff0-4e85-9319-1fa853bf3e82" points="237.1 0 49.8 117.9 84.8 186.9 237.1 0"/></g></g></g></svg>