<svg xmlns="http://www.w3.org/2000/svg" xmlns:xlink="http://www.w3.org/1999/xlink" viewBox="0 0 242.9 299.4"><defs><style>.be5b1fb1-3e18-471b-ba10-97b54f35d0c1{isolation:isolate;}.a6a6011f-f12f-4ae1-9e1e-40aa88b859e2,.a8674bdd-199c-4a62-8b04-c0330b05981b{mix-blend-mode:screen;}.a8674bdd-199c-4a62-8b04-c0330b05981b{fill:url(#fd823395-7769-4a28-8e08-2ba1c91146d2);}.a6a6011f-f12f-4ae1-9e1e-40aa88b859e2{fill:url(#afc8992b-1e09-45b3-96f5-3c4e58e5478b);}</style><linearGradient id="fd823395-7769-4a28-8e08-2ba1c91146d2" y1="93.44" x2="237.06" y2="93.44" gradientUnits="userSpaceOnUse"><stop offset="0" stop-color="#1b28a8"/><stop offset="0.5" stop-color="#5766ff"/><stop offset="1" stop-color="#85f3ff"/></linearGradient><linearGradient id="afc8992b-1e09-45b3-96f5-3c4e58e5478b" x1="49.76" y1="93.44" x2="237.06" y2="93.44" xlink:href="#fd823395-7769-4a28-8e08-2ba1c91146d2"/></defs><g class="be5b1fb1-3e18-471b-ba10-97b54f35d0c1"><g id="f1c6eb5f-20bc-4f49-a26a-3ee563a9275f" data-name="EasyTech_logo"><g id="a12a4af1-be7a-472e-b984-b9a1976d6ce3" data-name="BLACK"><path d="M143.8,257v7.6h-.7v-2.3c-.7,1.5-2.2,2.4-4.4,2.4s-4.3-1.3-4.3-3.3,1.1-3.3,4.4-3.3h4.3V257c0-2.4-1.3-3.6-3.7-3.6a5.9,5.9,0,0,0-4.2,1.6l-.4-.5a6.6,6.6,0,0,1,4.6-1.8C142.3,252.7,143.8,254.2,143.8,257Zm-.7,4.2v-2.4h-4.3c-2.6,0-3.6,1.1-3.6,2.5s1.3,2.8,3.5,2.8A4.5,4.5,0,0,0,143.1,261.2Z" transform="translate(-117.3 30.3)"/><path d="M148.7,247.7h.8v16.9h-.8Z" transform="translate(-117.3 30.3)"/><path d="M154.5,247.7h.8v16.9h-.8Z" transform="translate(-117.3 30.3)"/><path d="M175.2,252.8,169,266.4c-.9,2.1-2,2.7-3.4,2.7a3.6,3.6,0,0,1-2.7-1l.5-.6a2.7,2.7,0,0,0,2.2,1c1.1,0,1.9-.6,2.7-2.3l.8-1.6-5.4-11.8h.8l5,11,4.9-11Z" transform="translate(-117.3 30.3)"/><path d="M176.2,258.7a5.8,5.8,0,1,1,5.8,6A5.7,5.7,0,0,1,176.2,258.7Zm10.9,0a5,5,0,0,0-5.1-5.3,5,5,0,0,0-5,5.3c0,3.2,2.1,5.3,5,5.3A5,5,0,0,0,187.1,258.7Z" transform="translate(-117.3 30.3)"/><path d="M201.6,252.8v11.8h-.7v-2.8a4.7,4.7,0,0,1-4.6,2.9c-3,0-4.9-1.7-4.9-4.9v-7h.7v6.9c0,2.8,1.6,4.3,4.2,4.3s4.6-1.9,4.6-4.8v-6.4Z" transform="translate(-117.3 30.3)"/><path d="M211.1,258.7a5.8,5.8,0,0,1,5.9-6,5.2,5.2,0,0,1,4.4,2.1l-.6.4a4.6,4.6,0,0,0-3.8-1.8,5,5,0,0,0-5.1,5.3A5,5,0,0,0,217,264a4.4,4.4,0,0,0,3.8-1.8l.6.5a5.4,5.4,0,0,1-4.4,2A5.7,5.7,0,0,1,211.1,258.7Z" transform="translate(-117.3 30.3)"/><path d="M223.4,258.7a5.8,5.8,0,1,1,5.8,6A5.7,5.7,0,0,1,223.4,258.7Zm10.9,0a5.1,5.1,0,1,0-10.2,0,5.1,5.1,0,1,0,10.2,0Z" transform="translate(-117.3 30.3)"/><path d="M248.8,252.8v11.8h-.7v-2.8a4.7,4.7,0,0,1-4.6,2.9c-3,0-4.9-1.7-4.9-4.9v-7h.7v6.9c0,2.8,1.6,4.3,4.2,4.3s4.6-1.9,4.6-4.8v-6.4Z" transform="translate(-117.3 30.3)"/><path d="M253.9,247.7h.7v16.9h-.7Z" transform="translate(-117.3 30.3)"/><path d="M270,247.7v16.9h-.7v-3.2a5.4,5.4,0,0,1-5.2,3.3,5.7,5.7,0,0,1-5.7-6,5.7,5.7,0,0,1,5.7-6,5.5,5.5,0,0,1,5.1,3.3v-8.3Zm-.8,11a5,5,0,0,0-5-5.3,5,5,0,0,0-5.1,5.3,5,5,0,0,0,5.1,5.3C267.1,264,269.2,261.9,269.2,258.7Z" transform="translate(-117.3 30.3)"/><path d="M289,257v7.6h-.7v-2.3c-.7,1.5-2.2,2.4-4.4,2.4s-4.2-1.3-4.2-3.3,1.1-3.3,4.3-3.3h4.3V257c0-2.4-1.3-3.6-3.7-3.6a5.9,5.9,0,0,0-4.2,1.6l-.4-.5a7,7,0,0,1,4.7-1.8C287.5,252.7,289,254.2,289,257Zm-.7,4.2v-2.4H284c-2.6,0-3.6,1.1-3.6,2.5s1.4,2.8,3.6,2.8A4.3,4.3,0,0,0,288.3,261.2Z" transform="translate(-117.3 30.3)"/><path d="M292.1,263.1l.4-.6a6.7,6.7,0,0,0,4.3,1.5c2.7,0,3.8-1,3.8-2.4,0-3.7-8-1.1-8-5.7,0-1.7,1.3-3.2,4.3-3.2a7,7,0,0,1,4,1.2l-.4.6a6.4,6.4,0,0,0-3.6-1.1c-2.5,0-3.6,1.1-3.6,2.4,0,3.9,8,1.3,8,5.8,0,1.8-1.5,3.1-4.5,3.1A7.4,7.4,0,0,1,292.1,263.1Z" transform="translate(-117.3 30.3)"/><path d="M308.7,258l-3.3,3v3.6h-.7V247.7h.7v12.4l8-7.3h1l-5.1,4.8,5.7,7h-1Z" transform="translate(-117.3 30.3)"/><path d="M324.6,250.8v2h3.8v.7h-3.8v11.1h-.8V253.5h-2.2v-.7h2.2v-2.1a2.8,2.8,0,0,1,3-3,3.3,3.3,0,0,1,2.4.8l-.4.5a3.2,3.2,0,0,0-1.9-.7C325.3,248.3,324.6,249.2,324.6,250.8Z" transform="translate(-117.3 30.3)"/><path d="M329.3,258.7a5.8,5.8,0,1,1,5.8,6A5.7,5.7,0,0,1,329.3,258.7Zm10.8,0a5,5,0,0,0-5-5.3,5,5,0,0,0-5.1,5.3,5,5,0,0,0,5.1,5.3C338,264,340.1,261.9,340.1,258.7Z" transform="translate(-117.3 30.3)"/><path d="M349.9,252.7v.8h-.2c-2.7,0-4.4,1.8-4.4,4.9v6.2h-.7V252.8h.7v2.9A4.5,4.5,0,0,1,349.9,252.7Z" transform="translate(-117.3 30.3)"/><path d="M132.3,198.7l-1,5.4h14.3l-1.4,6.8H129.9l-1.2,5.9h16.9l-1.5,7H118.4l6.4-32.1H150l-1.4,7Z" transform="translate(-117.3 30.3)"/><path d="M180,198.9l-4.9,24.9h-8.3l.5-2.3a10.1,10.1,0,0,1-7.2,2.7c-5.4,0-10.5-4.1-10.5-11.3s6-14.4,13.5-14.4c3.3,0,6,1,7.6,3.4l.6-3Zm-11,11.4c0-2.9-1.7-4.8-4.7-4.8s-5.9,2.8-5.9,7a4.3,4.3,0,0,0,4.7,4.7C166.6,217.2,169,214.4,169,210.3Z" transform="translate(-117.3 30.3)"/><path d="M179.6,221.8l3.2-6.1a17.8,17.8,0,0,0,8.6,2.3c2.9,0,4-.7,4-1.8,0-2.9-12.9-.2-12.9-8.7,0-5.9,5.7-9,13.3-9a20.7,20.7,0,0,1,9.4,2l-3,6.1a14.3,14.3,0,0,0-7.4-1.9c-2.9,0-4,.9-4,1.9,0,3,12.8.3,12.8,8.6,0,6-5.8,9-13.2,9C186,224.2,181.8,223.2,179.6,221.8Z" transform="translate(-117.3 30.3)"/><path d="M236.5,198.9l-15.9,26c-3.9,6.4-7.1,8.2-12.4,8.2-2.6,0-5.5-.8-7-2.1l3.9-6.2a5.6,5.6,0,0,0,3.9,1.4,3.8,3.8,0,0,0,3.6-2.2L207,198.9h8.7l3.1,15.3,9.2-15.3Z" transform="translate(-117.3 30.3)"/><path d="M259.4,198.9h-9.9l1.5-7.2h28.8l-1.5,7.2h-9.8l-5,24.9h-9.1Z" transform="translate(-117.3 30.3)"/><path d="M301.5,213.5H283.2c.3,2.8,2.2,4.1,5.7,4.1a9.3,9.3,0,0,0,6-2.1l3.6,5.5a17.4,17.4,0,0,1-10.6,3.2c-8,0-13.2-4.4-13.2-11.3s6.1-14.4,15-14.4,12.3,4.4,12.3,10.9A17,17,0,0,1,301.5,213.5Zm-17.8-4.6H294c0-2.6-1.9-4.2-4.7-4.2A5.6,5.6,0,0,0,283.7,208.9Z" transform="translate(-117.3 30.3)"/><path d="M303.9,212.9c0-8.2,6.5-14.4,15.5-14.4,5.6,0,9.9,2.5,11.8,6.8l-7.5,3.5a4.7,4.7,0,0,0-4.8-3.3c-3.5,0-6.1,2.8-6.1,6.9s1.7,4.8,4.9,4.8a5.6,5.6,0,0,0,5.3-3.3l6.4,3.9c-2.4,4-6.9,6.4-12.3,6.4C309.1,224.2,303.9,219.7,303.9,212.9Z" transform="translate(-117.3 30.3)"/><path d="M360.3,207a10.3,10.3,0,0,1-.4,3l-2.7,13.8h-8.8l2.6-12.9a5.2,5.2,0,0,0,.2-1.7c0-2.2-1.1-3.3-3.4-3.3s-5.1,1.8-5.9,5.6l-2.5,12.3h-8.7l6.8-34.1h8.7L344,201a11.7,11.7,0,0,1,7.3-2.5C356.5,198.5,360.3,201.4,360.3,207Z" transform="translate(-117.3 30.3)"/><polygon class="a8674bdd-199c-4a62-8b04-c0330b05981b" points="237.1 0 0 89.2 169.3 186.9 237.1 0"/><polygon class="a6a6011f-f12f-4ae1-9e1e-40aa88b859e2" points="237.1 0 49.8 117.9 84.8 186.9 237.1 0"/></g></g></g></svg>