<svg id="a504835a-0f7b-40d2-93a8-6fe635ad0db6" data-name="Layer 1" xmlns="http://www.w3.org/2000/svg" viewBox="0 0 421.6 125.5"><defs><style>.e446f753-a984-4980-afff-f16af3a21de2{fill:#1b2328;stroke:#000;}.e446f753-a984-4980-afff-f16af3a21de2,.eb26015a-fa45-4a77-be87-ee59ecbbada2{stroke-miterlimit:10;stroke-width:1.74px;}.eb26015a-fa45-4a77-be87-ee59ecbbada2{stroke:#272525;}</style></defs><g id="b28ffb41-8adf-43b3-8be3-6820dfe0e7b3" data-name="b53ce1ef-119c-4b41-89ff-4699ee95d0d5"><g id="b94d4976-f4ce-4e14-8950-ff51274769c4" data-name="ed2a5506-bc72-4d2c-bb82-5ec8a93772c7"><path class="e446f753-a984-4980-afff-f16af3a21de2" d="M297.3,139.8V153H296v-4.1c-1.3,2.6-3.9,4.3-7.6,4.3s-7.4-2.4-7.4-5.8,1.9-5.6,7.5-5.6H296v-2c0-4.1-2.2-6.2-6.4-6.2a10.8,10.8,0,0,0-7.3,2.7l-.7-.9a12,12,0,0,1,8.1-3C294.6,132.4,297.3,134.9,297.3,139.8Zm-1.3,7.3v-4.3h-7.5c-4.5,0-6.2,1.9-6.2,4.5s2.3,4.7,6.2,4.7A7.5,7.5,0,0,0,296,147.1Z" transform="translate(-252 -36.1)"/><path class="e446f753-a984-4980-afff-f16af3a21de2" d="M305.8,123.7h1.3V153h-1.3Z" transform="translate(-252 -36.1)"/><path class="e446f753-a984-4980-afff-f16af3a21de2" d="M315.9,123.7h1.3V153h-1.3Z" transform="translate(-252 -36.1)"/><path class="e446f753-a984-4980-afff-f16af3a21de2" d="M351.8,132.5l-10.7,23.6c-1.6,3.6-3.6,4.7-6.1,4.7a6.1,6.1,0,0,1-4.6-1.8l.8-1a4.6,4.6,0,0,0,3.8,1.7c2,0,3.4-.9,4.8-3.9l1.3-2.8-9.3-20.5h1.4l8.6,19,8.6-19Z" transform="translate(-252 -36.1)"/><path class="e446f753-a984-4980-afff-f16af3a21de2" d="M353.5,142.8c0-6.1,4.3-10.4,10-10.4s10.1,4.3,10.1,10.4-4.2,10.4-10.1,10.4S353.5,148.8,353.5,142.8Zm18.8,0c0-5.5-3.7-9.2-8.8-9.2s-8.7,3.7-8.7,9.2,3.7,9.2,8.7,9.2S372.3,148.2,372.3,142.8Z" transform="translate(-252 -36.1)"/><path class="e446f753-a984-4980-afff-f16af3a21de2" d="M397.6,132.5V153h-1.3v-4.9c-1.2,3.1-4.1,5.1-8,5.1a8.5,8.5,0,0,1-8.5-8.6V132.5h1.3v12c0,4.9,2.7,7.5,7.3,7.5s7.9-3.4,7.9-8.4V132.5Z" transform="translate(-252 -36.1)"/><path class="e446f753-a984-4980-afff-f16af3a21de2" d="M414,142.8c0-6.2,4.4-10.4,10.2-10.4a9.3,9.3,0,0,1,7.6,3.5l-1,.8a7.8,7.8,0,0,0-6.6-3.1c-5.1,0-8.8,3.7-8.8,9.2s3.7,9.2,8.8,9.2a7.8,7.8,0,0,0,6.6-3.2l1,.8a9,9,0,0,1-7.6,3.6,10,10,0,0,1-10.2-9.8Z" transform="translate(-252 -36.1)"/><path class="e446f753-a984-4980-afff-f16af3a21de2" d="M435.3,142.8c0-6.1,4.4-10.4,10.1-10.4s10.1,4.3,10.1,10.4-4.3,10.4-10.1,10.4a10,10,0,0,1-10.1-9.9Zm18.9,0c0-5.5-3.8-9.2-8.8-9.2s-8.7,3.7-8.7,9.2,3.7,9.2,8.7,9.2S454.2,148.2,454.2,142.8Z" transform="translate(-252 -36.1)"/><path class="e446f753-a984-4980-afff-f16af3a21de2" d="M479.5,132.5V153h-1.3v-4.9c-1.2,3.1-4.1,5.1-8,5.1a8.5,8.5,0,0,1-8.5-8.6V132.5H463v12c0,4.9,2.7,7.5,7.2,7.5s8-3.4,8-8.4V132.5Z" transform="translate(-252 -36.1)"/><path class="e446f753-a984-4980-afff-f16af3a21de2" d="M488.3,123.7h1.3V153h-1.3Z" transform="translate(-252 -36.1)"/><path class="e446f753-a984-4980-afff-f16af3a21de2" d="M516.2,123.7V153h-1.3v-5.6a9.1,9.1,0,0,1-8.8,5.8c-5.7,0-10.1-4.3-10.1-10.4s4.4-10.4,10.1-10.4a9.3,9.3,0,0,1,8.8,5.6V123.7Zm-1.3,19.1c0-5.5-3.8-9.2-8.8-9.2s-8.8,3.7-8.8,9.2,3.8,9.2,8.8,9.2,8.8-3.8,8.8-9.2Z" transform="translate(-252 -36.1)"/><path class="e446f753-a984-4980-afff-f16af3a21de2" d="M549.2,139.8V153H548v-4.1c-1.3,2.6-3.9,4.3-7.6,4.3s-7.4-2.4-7.4-5.8,1.9-5.6,7.5-5.6h7.4v-2c0-4.1-2.1-6.2-6.3-6.2a10.8,10.8,0,0,0-7.3,2.7l-.7-.9a11.5,11.5,0,0,1,8.1-3C546.6,132.4,549.2,134.9,549.2,139.8Zm-1.3,7.3v-4.3h-7.4c-4.5,0-6.2,1.9-6.2,4.5s2.3,4.7,6.1,4.7,6.3-1.7,7.5-4.9Z" transform="translate(-252 -36.1)"/><path class="e446f753-a984-4980-afff-f16af3a21de2" d="M554.6,150.4l.7-1a11.4,11.4,0,0,0,7.5,2.6c4.6,0,6.4-1.7,6.4-4.3,0-6.4-13.8-1.9-13.8-9.9,0-2.9,2.3-5.4,7.5-5.4a12,12,0,0,1,6.9,2.1l-.7,1a10,10,0,0,0-6.3-1.9c-4.2,0-6.1,1.8-6.1,4.2,0,6.7,13.8,2.2,13.8,9.9,0,3.2-2.6,5.5-7.8,5.5C559.4,153.2,556.2,152,554.6,150.4Z" transform="translate(-252 -36.1)"/><path class="e446f753-a984-4980-afff-f16af3a21de2" d="M583.4,141.5l-5.7,5.3V153h-1.3V123.7h1.3v21.5l13.9-12.7h1.7l-8.9,8.2,9.8,12.3h-1.6Z" transform="translate(-252 -36.1)"/><path class="e446f753-a984-4980-afff-f16af3a21de2" d="M610.9,129v3.5h6.7v1.2h-6.7V153h-1.3V133.7h-3.9v-1.2h3.9v-3.6c0-3.2,1.9-5.3,5.2-5.3a5.6,5.6,0,0,1,4.1,1.4l-.7,1a5.1,5.1,0,0,0-3.3-1.3C612.2,124.7,610.9,126.2,610.9,129Z" transform="translate(-252 -36.1)"/><path class="e446f753-a984-4980-afff-f16af3a21de2" d="M619,142.8c0-6.1,4.3-10.4,10.1-10.4s10.1,4.3,10.1,10.4-4.3,10.4-10.1,10.4S619,148.8,619,142.8Zm18.9,0c0-5.5-3.8-9.2-8.8-9.2s-8.8,3.7-8.8,9.2,3.8,9.2,8.8,9.2,8.8-3.8,8.8-9.2Z" transform="translate(-252 -36.1)"/><path class="e446f753-a984-4980-afff-f16af3a21de2" d="M654.9,132.4v1.3h-.4c-4.8,0-7.6,3.2-7.6,8.4V153h-1.3V132.5h1.3v5C648.1,134.2,650.9,132.4,654.9,132.4Z" transform="translate(-252 -36.1)"/><path class="eb26015a-fa45-4a77-be87-ee59ecbbada2" d="M277.4,52.6,275.5,62h24.8L298,73.8H273.1l-2,10.2h29.3l-2.6,12.2H253.1l11.2-55.8H308l-2.5,12.2Z" transform="translate(-252 -36.1)"/><path class="eb26015a-fa45-4a77-be87-ee59ecbbada2" d="M360.1,53l-8.6,43.2H337.1l.9-4.1a17.7,17.7,0,0,1-12.5,4.8c-9.3,0-18.3-7.1-18.3-19.7,0-14.3,10.6-24.9,23.5-24.9,5.8,0,10.5,1.7,13.2,5.9l1-5.2ZM341,72.7c0-5-3-8.3-8.2-8.3s-10.3,4.9-10.3,12.1c0,5,3.1,8.2,8.3,8.2s10.2-4.8,10.2-12Z" transform="translate(-252 -36.1)"/><path class="eb26015a-fa45-4a77-be87-ee59ecbbada2" d="M359.4,92.7l5.5-10.6a30.3,30.3,0,0,0,15,4c4.9,0,6.9-1.2,6.9-3.1,0-5-22.4-.4-22.4-15,0-10.4,10-15.7,23-15.7,6.2,0,12.2,1.2,16.5,3.4l-5.4,10.6A26,26,0,0,0,385.7,63c-5,0-7,1.5-7,3.3,0,5.2,22.4.6,22.4,15,0,10.4-10.2,15.6-23,15.6C370.5,96.9,363.1,95.1,359.4,92.7Z" transform="translate(-252 -36.1)"/><path class="eb26015a-fa45-4a77-be87-ee59ecbbada2" d="M458.1,53,430.5,98.1c-6.8,11-12.4,14.3-21.5,14.3-4.5,0-9.5-1.5-12.2-3.8l6.8-10.7a10.1,10.1,0,0,0,6.7,2.5c2.8,0,4.6-1.2,6.4-3.9L406.9,53H422l5.4,26.5L443.3,53Z" transform="translate(-252 -36.1)"/><path class="eb26015a-fa45-4a77-be87-ee59ecbbada2" d="M497.8,52.9H480.7l2.5-12.5h50l-2.5,12.5H513.6l-8.7,43.3H489.1Z" transform="translate(-252 -36.1)"/><path class="eb26015a-fa45-4a77-be87-ee59ecbbada2" d="M570.9,78.3H539.1c.6,4.8,3.9,7.1,9.8,7.1a16.1,16.1,0,0,0,10.5-3.6l6.3,9.5a30.3,30.3,0,0,1-18.4,5.6c-13.9,0-23-7.6-23-19.7,0-14.3,10.6-24.9,26.1-24.9,13.2,0,21.3,7.6,21.3,18.9A33.6,33.6,0,0,1,570.9,78.3ZM540,70.4h17.8c.1-4.7-3.2-7.4-8.1-7.4S541.4,66.1,540,70.4Z" transform="translate(-252 -36.1)"/><path class="eb26015a-fa45-4a77-be87-ee59ecbbada2" d="M575.1,77.2c0-14.2,11.1-24.9,26.8-24.9,9.8,0,17.2,4.3,20.4,11.7l-12.9,6.1a8.4,8.4,0,0,0-8.3-5.7c-6.2,0-10.6,4.9-10.6,11.9,0,5.1,2.9,8.4,8.4,8.4,3.9,0,7-1.6,9.3-5.6l11.1,6.7c-4.1,7-11.9,11.1-21.4,11.1C584.1,96.9,575.1,89.1,575.1,77.2Z" transform="translate(-252 -36.1)"/><path class="eb26015a-fa45-4a77-be87-ee59ecbbada2" d="M672.8,67.1a23.1,23.1,0,0,1-.6,5.2l-4.7,23.9H652.3l4.5-22.5a14.3,14.3,0,0,0,.3-2.9c0-3.7-1.9-5.7-6-5.7s-8.7,3.1-10.1,9.7l-4.3,21.4H621.5L633.3,37h15.2l-3.9,19.6a19.8,19.8,0,0,1,12.6-4.3C666.3,52.3,672.8,57.3,672.8,67.1Z" transform="translate(-252 -36.1)"/></g></g></svg>