<svg xmlns="http://www.w3.org/2000/svg" xmlns:xlink="http://www.w3.org/1999/xlink" viewBox="0 0 673.7 186.9"><defs><style>.e790df0d-19bf-476c-a479-db7ed328afab{isolation:isolate;}.e7df0b22-85c9-4654-a68b-de7bbf9386a5,.f4f751ee-3b42-4f9d-b622-868cc3189168{fill:#fff;stroke-miterlimit:10;stroke-width:1.74px;}.e7df0b22-85c9-4654-a68b-de7bbf9386a5{stroke:#fff;}.f4f751ee-3b42-4f9d-b622-868cc3189168{stroke:#fcfcfc;}.af9febd7-2358-4926-8bec-65a2b9cafca9,.f145fe9f-0418-48e1-aa29-efd54544412a{mix-blend-mode:screen;}.af9febd7-2358-4926-8bec-65a2b9cafca9{fill:url(#a6b0b34e-a564-48b9-8104-e7eaa90d87bf);}.f145fe9f-0418-48e1-aa29-efd54544412a{fill:url(#ebbee070-a57a-4661-b59b-500d8c6bea05);}</style><linearGradient id="a6b0b34e-a564-48b9-8104-e7eaa90d87bf" y1="93.44" x2="237.06" y2="93.44" gradientUnits="userSpaceOnUse"><stop offset="0" stop-color="#1b28a8"/><stop offset="0.5" stop-color="#5766ff"/><stop offset="1" stop-color="#85f3ff"/></linearGradient><linearGradient id="ebbee070-a57a-4661-b59b-500d8c6bea05" x1="49.76" y1="93.44" x2="237.06" y2="93.44" xlink:href="#a6b0b34e-a564-48b9-8104-e7eaa90d87bf"/></defs><g class="e790df0d-19bf-476c-a479-db7ed328afab"><g id="ed9fe142-e79e-47d2-81d5-e6b39f00ef6c" data-name="EasyTech_logo"><g id="b65347d9-069e-4cbb-80cd-17fee0df0faf" data-name="WHITE lateral"><path class="e7df0b22-85c9-4654-a68b-de7bbf9386a5" d="M285.5,208.4v13.2h-1.3v-4.1c-1.3,2.6-3.9,4.3-7.6,4.3s-7.4-2.4-7.4-5.8,1.9-5.6,7.5-5.6h7.5v-2c0-4.1-2.2-6.2-6.4-6.2a11.1,11.1,0,0,0-7.3,2.7l-.7-.9a11.9,11.9,0,0,1,8.1-3C282.8,201,285.5,203.5,285.5,208.4Zm-1.3,7.3v-4.3h-7.5c-4.5,0-6.2,1.9-6.2,4.5s2.3,4.7,6.2,4.7A7.4,7.4,0,0,0,284.2,215.7Z" transform="translate(11.8 -68.6)"/><path class="e7df0b22-85c9-4654-a68b-de7bbf9386a5" d="M294,192.3h1.3v29.3H294Z" transform="translate(11.8 -68.6)"/><path class="e7df0b22-85c9-4654-a68b-de7bbf9386a5" d="M304.1,192.3h1.3v29.3h-1.3Z" transform="translate(11.8 -68.6)"/><path class="e7df0b22-85c9-4654-a68b-de7bbf9386a5" d="M340,201.1l-10.7,23.6c-1.6,3.6-3.6,4.7-6.1,4.7a6.2,6.2,0,0,1-4.6-1.8l.8-1a4.7,4.7,0,0,0,3.8,1.7c2,0,3.4-.9,4.8-3.9l1.3-2.8L320,201.1h1.4l8.6,19,8.6-19Z" transform="translate(11.8 -68.6)"/><path class="e7df0b22-85c9-4654-a68b-de7bbf9386a5" d="M341.7,211.4c0-6.1,4.3-10.4,10-10.4s10.1,4.3,10.1,10.4-4.2,10.4-10.1,10.4S341.7,217.4,341.7,211.4Zm18.8,0c0-5.5-3.7-9.2-8.8-9.2s-8.7,3.7-8.7,9.2,3.7,9.2,8.7,9.2S360.5,216.8,360.5,211.4Z" transform="translate(11.8 -68.6)"/><path class="e7df0b22-85c9-4654-a68b-de7bbf9386a5" d="M385.8,201.1v20.5h-1.3v-4.9c-1.2,3.1-4.1,5.1-8,5.1s-8.5-3-8.5-8.6V201.1h1.3v12c0,4.9,2.7,7.5,7.3,7.5s7.9-3.4,7.9-8.4V201.1Z" transform="translate(11.8 -68.6)"/><path class="e7df0b22-85c9-4654-a68b-de7bbf9386a5" d="M402.2,211.4c0-6.2,4.4-10.4,10.2-10.4a9.2,9.2,0,0,1,7.6,3.5l-1,.8a7.8,7.8,0,0,0-6.6-3.1c-5.1,0-8.8,3.7-8.8,9.2s3.7,9.2,8.8,9.2a7.6,7.6,0,0,0,6.6-3.2l1,.8a9,9,0,0,1-7.6,3.6A10,10,0,0,1,402.2,211.4Z" transform="translate(11.8 -68.6)"/><path class="e7df0b22-85c9-4654-a68b-de7bbf9386a5" d="M423.5,211.4c0-6.1,4.4-10.4,10.1-10.4s10.1,4.3,10.1,10.4-4.3,10.4-10.1,10.4A10,10,0,0,1,423.5,211.4Zm18.9,0c0-5.5-3.8-9.2-8.8-9.2s-8.7,3.7-8.7,9.2,3.7,9.2,8.7,9.2S442.4,216.8,442.4,211.4Z" transform="translate(11.8 -68.6)"/><path class="e7df0b22-85c9-4654-a68b-de7bbf9386a5" d="M467.7,201.1v20.5h-1.3v-4.9c-1.2,3.1-4.1,5.1-8,5.1s-8.5-3-8.5-8.6V201.1h1.3v12c0,4.9,2.7,7.5,7.2,7.5s8-3.4,8-8.4V201.1Z" transform="translate(11.8 -68.6)"/><path class="e7df0b22-85c9-4654-a68b-de7bbf9386a5" d="M476.5,192.3h1.3v29.3h-1.3Z" transform="translate(11.8 -68.6)"/><path class="e7df0b22-85c9-4654-a68b-de7bbf9386a5" d="M504.4,192.3v29.3h-1.3V216a9.3,9.3,0,0,1-8.8,5.8c-5.7,0-10.1-4.3-10.1-10.4s4.4-10.4,10.1-10.4a9.4,9.4,0,0,1,8.8,5.6V192.3Zm-1.3,19.1c0-5.5-3.8-9.2-8.8-9.2s-8.8,3.7-8.8,9.2,3.8,9.2,8.8,9.2S503.1,216.8,503.1,211.4Z" transform="translate(11.8 -68.6)"/><path class="e7df0b22-85c9-4654-a68b-de7bbf9386a5" d="M537.4,208.4v13.2h-1.2v-4.1c-1.3,2.6-3.9,4.3-7.6,4.3s-7.4-2.4-7.4-5.8,1.9-5.6,7.5-5.6h7.4v-2c0-4.1-2.1-6.2-6.3-6.2a10.9,10.9,0,0,0-7.3,2.7l-.7-.9a11.7,11.7,0,0,1,8.1-3C534.8,201,537.4,203.5,537.4,208.4Zm-1.3,7.3v-4.3h-7.4c-4.5,0-6.2,1.9-6.2,4.5s2.3,4.7,6.1,4.7S534.9,218.9,536.1,215.7Z" transform="translate(11.8 -68.6)"/><path class="e7df0b22-85c9-4654-a68b-de7bbf9386a5" d="M542.8,219l.7-1a11.4,11.4,0,0,0,7.5,2.6c4.6,0,6.4-1.7,6.4-4.3,0-6.4-13.8-1.9-13.8-9.9,0-2.9,2.3-5.4,7.5-5.4a11.8,11.8,0,0,1,6.9,2.1l-.7,1a10.4,10.4,0,0,0-6.3-1.9c-4.2,0-6.1,1.8-6.1,4.2,0,6.7,13.8,2.2,13.8,9.9,0,3.2-2.6,5.5-7.8,5.5C547.6,221.8,544.4,220.6,542.8,219Z" transform="translate(11.8 -68.6)"/><path class="e7df0b22-85c9-4654-a68b-de7bbf9386a5" d="M571.6,210.1l-5.7,5.3v6.2h-1.3V192.3h1.3v21.5l13.9-12.7h1.7l-8.9,8.2,9.8,12.3h-1.6Z" transform="translate(11.8 -68.6)"/><path class="e7df0b22-85c9-4654-a68b-de7bbf9386a5" d="M599.1,197.6v3.5h6.7v1.2h-6.7v19.3h-1.3V202.3h-3.9v-1.2h3.9v-3.6c0-3.2,1.9-5.3,5.2-5.3a5.9,5.9,0,0,1,4.1,1.4l-.7,1a4.9,4.9,0,0,0-3.3-1.3C600.4,193.3,599.1,194.8,599.1,197.6Z" transform="translate(11.8 -68.6)"/><path class="e7df0b22-85c9-4654-a68b-de7bbf9386a5" d="M607.2,211.4c0-6.1,4.3-10.4,10.1-10.4s10.1,4.3,10.1,10.4-4.3,10.4-10.1,10.4S607.2,217.4,607.2,211.4Zm18.9,0c0-5.5-3.8-9.2-8.8-9.2s-8.8,3.7-8.8,9.2,3.8,9.2,8.8,9.2S626.1,216.8,626.1,211.4Z" transform="translate(11.8 -68.6)"/><path class="e7df0b22-85c9-4654-a68b-de7bbf9386a5" d="M643.1,201v1.3h-.4c-4.8,0-7.6,3.2-7.6,8.4v10.9h-1.3V201.1h1.3v5C636.3,202.8,639.1,201,643.1,201Z" transform="translate(11.8 -68.6)"/><path class="f4f751ee-3b42-4f9d-b622-868cc3189168" d="M265.6,121.2l-1.9,9.4h24.8l-2.3,11.8H261.3l-2,10.2h29.3L286,164.8H241.3L252.5,109h43.7l-2.5,12.2Z" transform="translate(11.8 -68.6)"/><path class="f4f751ee-3b42-4f9d-b622-868cc3189168" d="M348.3,121.6l-8.6,43.2H325.3l.9-4.1a17.7,17.7,0,0,1-12.5,4.8c-9.3,0-18.3-7.1-18.3-19.7,0-14.3,10.6-24.9,23.5-24.9,5.8,0,10.5,1.7,13.2,5.9l1-5.2Zm-19.1,19.7c0-5-3-8.3-8.2-8.3s-10.3,4.9-10.3,12.1c0,5,3.1,8.2,8.3,8.2S329.2,148.5,329.2,141.3Z" transform="translate(11.8 -68.6)"/><path class="f4f751ee-3b42-4f9d-b622-868cc3189168" d="M347.6,161.3l5.5-10.6a30.3,30.3,0,0,0,15,4c4.9,0,6.9-1.2,6.9-3.1,0-5-22.4-.4-22.4-15,0-10.4,10-15.7,23-15.7,6.2,0,12.2,1.2,16.5,3.4l-5.4,10.6a25.4,25.4,0,0,0-12.8-3.3c-5,0-7,1.5-7,3.3,0,5.2,22.4.6,22.4,15,0,10.4-10.2,15.6-23,15.6C358.7,165.5,351.3,163.7,347.6,161.3Z" transform="translate(11.8 -68.6)"/><path class="f4f751ee-3b42-4f9d-b622-868cc3189168" d="M446.3,121.6l-27.6,45.1c-6.8,11-12.4,14.3-21.5,14.3-4.5,0-9.5-1.5-12.2-3.8l6.8-10.7a9.9,9.9,0,0,0,6.7,2.5c2.8,0,4.6-1.2,6.4-3.9l-9.8-43.5h15.1l5.4,26.5,15.9-26.5Z" transform="translate(11.8 -68.6)"/><path class="f4f751ee-3b42-4f9d-b622-868cc3189168" d="M486,121.5H468.9l2.5-12.5h50l-2.5,12.5H501.8l-8.7,43.3H477.3Z" transform="translate(11.8 -68.6)"/><path class="f4f751ee-3b42-4f9d-b622-868cc3189168" d="M559.1,146.9H527.3c.6,4.8,3.9,7.1,9.8,7.1a16.3,16.3,0,0,0,10.5-3.6l6.3,9.5a30.5,30.5,0,0,1-18.4,5.6c-13.9,0-23-7.6-23-19.7,0-14.3,10.6-24.9,26.1-24.9,13.2,0,21.3,7.6,21.3,18.9A37.5,37.5,0,0,1,559.1,146.9ZM528.2,139H546c.1-4.7-3.2-7.4-8.1-7.4S529.6,134.7,528.2,139Z" transform="translate(11.8 -68.6)"/><path class="f4f751ee-3b42-4f9d-b622-868cc3189168" d="M563.3,145.8c0-14.2,11.1-24.9,26.8-24.9,9.8,0,17.2,4.3,20.4,11.7l-12.9,6.1a8.4,8.4,0,0,0-8.3-5.7c-6.2,0-10.6,4.9-10.6,11.9,0,5.1,2.9,8.4,8.4,8.4,3.9,0,7-1.6,9.3-5.6l11.1,6.7c-4.1,7-11.9,11.1-21.4,11.1C572.3,165.5,563.3,157.7,563.3,145.8Z" transform="translate(11.8 -68.6)"/><path class="f4f751ee-3b42-4f9d-b622-868cc3189168" d="M661,135.7a25.2,25.2,0,0,1-.6,5.2l-4.7,23.9H640.5l4.5-22.5a15,15,0,0,0,.3-2.9c0-3.7-1.9-5.7-6-5.7s-8.7,3.1-10.1,9.7l-4.3,21.4H609.7l11.8-59.2h15.2l-3.9,19.6a19.8,19.8,0,0,1,12.6-4.3C654.5,120.9,661,125.9,661,135.7Z" transform="translate(11.8 -68.6)"/><polygon class="af9febd7-2358-4926-8bec-65a2b9cafca9" points="237.1 0 0 89.2 169.3 186.9 237.1 0"/><polygon class="f145fe9f-0418-48e1-aa29-efd54544412a" points="237.1 0 49.8 117.9 84.8 186.9 237.1 0"/></g></g></g></svg>