<svg xmlns="http://www.w3.org/2000/svg" xmlns:xlink="http://www.w3.org/1999/xlink" viewBox="0 0 35.6 150.9"><defs><style>.ae2435ed-b570-48cc-903d-eb810687f4c5{isolation:isolate;}.fae724a9-333e-4faf-8571-d5c01d5c935a{fill:url(#abdadc09-a5b6-4dca-a69d-9a9ee0838520);}.a0f52657-cbc5-415b-ad95-91533b36b60e,.aa195c89-7061-4587-a075-48ed074242ac,.acf19009-553f-431f-8b3e-6ef7454a4ebd,.ad7f8791-32a5-4e5a-b3fd-8ec91e938671,.aee15790-a1e1-43f6-a915-7afdfc665cbf,.b2d39191-761f-4f1c-867f-f35be440141d,.b7407f6a-d1f5-42e4-b6a9-9ef91b4d335b,.bc45f1a7-f10b-44e4-8610-05a4a6b5e412,.bde5be33-4a58-4b88-ad6b-0fd2d6d5f7db,.e188567b-501b-430c-82b7-5d1d5f61b843,.e3d91543-6383-499a-a28e-522a39b3f9a1,.e434a474-ba58-486c-9f60-dc79c0dddc6b,.e79e795f-d0e2-4d5c-a87f-d5e22566a9ec,.fc0867a7-e63e-4c96-b897-8a281cfa3740,.fd004a27-d4d9-43c8-adc6-652e1cb6a1bf{mix-blend-mode:soft-light;}.b7407f6a-d1f5-42e4-b6a9-9ef91b4d335b{fill:url(#b43fd03d-2e11-4354-8b45-3a59c06a1317);}.e524dd86-4b88-474b-b54a-c5133e5aec0a{fill:url(#b2ac747e-f80b-49b4-9e82-14f86cdd4028);}.a778f27d-eb75-4a3c-a994-42e93cda0910,.a8f584f6-1275-47ae-aebd-0fca2432862a,.a9bed321-5529-4436-96a2-9be669c5fdd5,.ad74d4bf-edd3-40ee-b1af-663b0a5654b1,.b836e2e0-b76f-4967-95ab-f590632c309d,.bde5be33-4a58-4b88-ad6b-0fd2d6d5f7db,.ec3dee09-b75d-48e2-9535-5dd7f6b1c75a,.fb8052ba-a363-460d-aa2f-3905a9b6a06d,.fd004a27-d4d9-43c8-adc6-652e1cb6a1bf{opacity:0.5;}.a778f27d-eb75-4a3c-a994-42e93cda0910,.a8f584f6-1275-47ae-aebd-0fca2432862a,.a9bed321-5529-4436-96a2-9be669c5fdd5,.ad74d4bf-edd3-40ee-b1af-663b0a5654b1,.b836e2e0-b76f-4967-95ab-f590632c309d,.ec3dee09-b75d-48e2-9535-5dd7f6b1c75a,.fb8052ba-a363-460d-aa2f-3905a9b6a06d{mix-blend-mode:multiply;}.a778f27d-eb75-4a3c-a994-42e93cda0910{fill:url(#a9c596d8-cd59-4423-9c66-3b67257e98e1);}.e75b6e45-75c3-44f4-b398-7e9954caf677{fill:url(#b6fff74b-e786-4e89-b86e-24c4853696c3);}.b836e2e0-b76f-4967-95ab-f590632c309d{fill:url(#aea2f14f-ddc8-421c-83f8-d3a2d00227b2);}.a1e2dde8-4ece-47c1-94c1-0a0a2b89cf44{fill:url(#fc28eb1d-51b8-4a56-b7c3-2e8909399ffd);}.fb8052ba-a363-460d-aa2f-3905a9b6a06d{fill:url(#f8cb91ea-8b80-4dbe-92de-711d693e702c);}.e073fc8c-8414-47ed-8b2e-9ba42c02d562{fill:url(#ef103b3a-d3b4-4f2e-83cd-3d91c9283f02);}.ad74d4bf-edd3-40ee-b1af-663b0a5654b1{fill:url(#a0569aac-446c-4c86-bae5-28323db36629);}.b50b93c5-e287-4e1a-958e-19274e88a4e0{fill:url(#a348dbc6-068d-4d97-9e78-bba0e0007fa0);}.ec3dee09-b75d-48e2-9535-5dd7f6b1c75a{fill:url(#b8edbd85-b7bb-4a11-bedf-4157339b3cde);}.ad7f8791-32a5-4e5a-b3fd-8ec91e938671{fill:url(#a65129a4-e5e0-4ec6-b87c-e34e239d4fa2);}.e79e795f-d0e2-4d5c-a87f-d5e22566a9ec{fill:url(#ae403c2c-4e59-4207-b58c-e70ea38445b9);}.b2d39191-761f-4f1c-867f-f35be440141d{fill:url(#e6be9e40-90c3-4abe-af51-b3170ebd9bc2);}.e3d91543-6383-499a-a28e-522a39b3f9a1{fill:url(#b7877047-1c85-4bcb-8a42-c86b29ae4056);}.e188567b-501b-430c-82b7-5d1d5f61b843{fill:url(#a9c7f84d-5c6b-4ce5-bfd0-577651b399a8);}.aee15790-a1e1-43f6-a915-7afdfc665cbf{fill:url(#b0cac4b2-1b6d-4aac-93a3-bcb0657a4968);}.f1739584-aa58-474c-a8cf-28975fa85137{fill:url(#e98b9998-267e-4f21-b7da-891487125f3d);}.aaed6713-4bda-41b1-bd7b-05ba6406762e{fill:url(#a98f205a-43a4-4077-b319-d74598029aed);}.acf19009-553f-431f-8b3e-6ef7454a4ebd{fill:url(#e351d906-6614-4320-acc8-00b477bdd837);}.fc0867a7-e63e-4c96-b897-8a281cfa3740{fill:url(#abd5c946-e789-458f-a11d-3c8a15d56627);}.a9bed321-5529-4436-96a2-9be669c5fdd5{fill:url(#bd3bd172-c03b-4f3c-a96d-31869f04c521);}.a0f52657-cbc5-415b-ad95-91533b36b60e,.b4cc6cc0-968e-44f9-9a0e-f883d269017f,.f0aa5c18-62df-4812-b3f3-dafa1f130713{opacity:0.6;}.b4cc6cc0-968e-44f9-9a0e-f883d269017f{fill:url(#bb0ee447-5329-4004-bc6b-138845f9da5c);}.f0aa5c18-62df-4812-b3f3-dafa1f130713{fill:url(#fc813695-c96c-40be-80a0-b2940cedb9c6);}.f0c730dd-1f0a-4f65-8dcb-b580c9d5b239{fill:url(#aa3cb962-e6ac-4d2f-bd11-1433ed34044a);}.beac2c1a-4cbf-4235-9624-bc887d3546bf,.ebdfe6b7-cee0-4e7c-8afd-68df56bbd63f,.efd44753-0ecc-4da0-9e92-cc2a65ecdae3,.fad07e16-64aa-4509-aeea-7e59629d0ed3{opacity:0.9;}.beac2c1a-4cbf-4235-9624-bc887d3546bf{fill:url(#aa50c97b-fde6-4978-a4b3-e95b60b1c152);}.efd44753-0ecc-4da0-9e92-cc2a65ecdae3{fill:url(#bb47ed54-8926-42ce-8068-bfd102b02baa);}.fad07e16-64aa-4509-aeea-7e59629d0ed3{fill:url(#b9c050e0-1f6b-471c-a69b-02a75f1c33eb);}.ebdfe6b7-cee0-4e7c-8afd-68df56bbd63f{fill:url(#e69e5bed-0482-45d8-a81b-800590f7a4bd);}.e31ef358-b7d6-417f-8b6b-b9231310f408{opacity:0.8;fill:url(#b8d7a8e4-bdb5-4aeb-9c50-04dd0b8b30b5);}.bc45f1a7-f10b-44e4-8610-05a4a6b5e412{fill:url(#f0e325e9-8832-4c68-8b49-2ec51d962488);}.a8f584f6-1275-47ae-aebd-0fca2432862a{fill:url(#ecada886-ed67-4218-86ab-9b06764009a1);}.e6dcffae-d1ff-4bdc-a35c-51f39ff72df1{fill:url(#bc1153e2-7619-4da5-9d31-484acf90a756);}.aa195c89-7061-4587-a075-48ed074242ac{fill:url(#bc02a7e2-6edc-40ac-a3f2-2b5a7d3ae834);}.fd004a27-d4d9-43c8-adc6-652e1cb6a1bf{fill:url(#ab59dbc8-b403-4087-8104-11b9d1b1b8d6);}.bde5be33-4a58-4b88-ad6b-0fd2d6d5f7db{fill:url(#e7f76411-c890-4732-814a-aa2b5024aef4);}.e434a474-ba58-486c-9f60-dc79c0dddc6b{fill:url(#ab18c5a4-32bd-49a9-bf2e-6acf9c27131d);}.a0f52657-cbc5-415b-ad95-91533b36b60e{fill:url(#be9261a3-e489-4aa8-a96f-6224dca188b6);}</style><linearGradient id="abdadc09-a5b6-4dca-a69d-9a9ee0838520" x1="255.93" y1="208.33" x2="267.81" y2="208.33" gradientTransform="translate(-240.3 -90.5) rotate(1.5)" gradientUnits="userSpaceOnUse"><stop offset="0.13" stop-color="#0e0e0e"/><stop offset="0.83" stop-color="#666"/><stop offset="1" stop-color="#262823"/></linearGradient><linearGradient id="b43fd03d-2e11-4354-8b45-3a59c06a1317" x1="257.72" y1="207.36" x2="255.93" y2="207.36" gradientTransform="translate(-240.3 -90.5) rotate(1.5)" gradientUnits="userSpaceOnUse"><stop offset="0" stop-color="gray"/><stop offset="0.98" stop-color="#fff"/></linearGradient><linearGradient id="b2ac747e-f80b-49b4-9e82-14f86cdd4028" x1="250.37" y1="180.24" x2="272.92" y2="180.24" gradientTransform="translate(-41.8 5.4) rotate(1.5)" gradientUnits="userSpaceOnUse"><stop offset="0" stop-color="#0e0e0e"/><stop offset="0.83" stop-color="#666"/><stop offset="1" stop-color="#262823"/></linearGradient><linearGradient id="a9c596d8-cd59-4423-9c66-3b67257e98e1" x1="261.65" y1="182.18" x2="261.65" y2="183.92" gradientTransform="translate(-46.6 12.2)" xlink:href="#b43fd03d-2e11-4354-8b45-3a59c06a1317"/><linearGradient id="b6fff74b-e786-4e89-b86e-24c4853696c3" x1="250.37" y1="185.48" x2="272.92" y2="185.48" xlink:href="#b2ac747e-f80b-49b4-9e82-14f86cdd4028"/><linearGradient id="aea2f14f-ddc8-421c-83f8-d3a2d00227b2" x1="261.65" y1="187.42" x2="261.65" y2="189.16" gradientTransform="translate(-46.8 12.2)" xlink:href="#b43fd03d-2e11-4354-8b45-3a59c06a1317"/><linearGradient id="fc28eb1d-51b8-4a56-b7c3-2e8909399ffd" x1="250.48" y1="190.84" x2="273.03" y2="190.84" xlink:href="#b2ac747e-f80b-49b4-9e82-14f86cdd4028"/><linearGradient id="f8cb91ea-8b80-4dbe-92de-711d693e702c" x1="261.65" y1="192.78" x2="261.65" y2="194.52" gradientTransform="translate(-46.9 12.2)" xlink:href="#b43fd03d-2e11-4354-8b45-3a59c06a1317"/><linearGradient id="ef103b3a-d3b4-4f2e-83cd-3d91c9283f02" x1="250.48" y1="196.46" x2="273.03" y2="196.46" xlink:href="#b2ac747e-f80b-49b4-9e82-14f86cdd4028"/><linearGradient id="a0569aac-446c-4c86-bae5-28323db36629" x1="261.65" y1="198.4" x2="261.65" y2="200.14" gradientTransform="translate(-47 12.2)" xlink:href="#b43fd03d-2e11-4354-8b45-3a59c06a1317"/><linearGradient id="a348dbc6-068d-4d97-9e78-bba0e0007fa0" x1="250.48" y1="202.03" x2="273.03" y2="202.03" xlink:href="#b2ac747e-f80b-49b4-9e82-14f86cdd4028"/><linearGradient id="b8edbd85-b7bb-4a11-bedf-4157339b3cde" x1="261.65" y1="203.97" x2="261.65" y2="205.71" gradientTransform="translate(-47.2 12.2)" xlink:href="#b43fd03d-2e11-4354-8b45-3a59c06a1317"/><linearGradient id="a65129a4-e5e0-4ec6-b87c-e34e239d4fa2" x1="251.79" y1="180.24" x2="250.38" y2="180.24" gradientTransform="translate(-41.8 5.4) rotate(1.5)" xlink:href="#b43fd03d-2e11-4354-8b45-3a59c06a1317"/><linearGradient id="ae403c2c-4e59-4207-b58c-e70ea38445b9" x1="251.79" y1="185.48" x2="250.38" y2="185.48" gradientTransform="translate(-41.8 5.4) rotate(1.5)" xlink:href="#b43fd03d-2e11-4354-8b45-3a59c06a1317"/><linearGradient id="e6be9e40-90c3-4abe-af51-b3170ebd9bc2" x1="251.79" y1="190.84" x2="250.49" y2="190.84" gradientTransform="translate(-41.8 5.4) rotate(1.5)" xlink:href="#b43fd03d-2e11-4354-8b45-3a59c06a1317"/><linearGradient id="b7877047-1c85-4bcb-8a42-c86b29ae4056" x1="251.79" y1="196.46" x2="250.49" y2="196.46" gradientTransform="translate(-41.8 5.4) rotate(1.5)" xlink:href="#b43fd03d-2e11-4354-8b45-3a59c06a1317"/><linearGradient id="a9c7f84d-5c6b-4ce5-bfd0-577651b399a8" x1="251.79" y1="202.03" x2="250.49" y2="202.03" gradientTransform="translate(-41.8 5.4) rotate(1.5)" xlink:href="#b43fd03d-2e11-4354-8b45-3a59c06a1317"/><linearGradient id="b0cac4b2-1b6d-4aac-93a3-bcb0657a4968" x1="261.43" y1="111.61" x2="261.43" y2="110.59" gradientTransform="translate(-44.7 12.2)" xlink:href="#b43fd03d-2e11-4354-8b45-3a59c06a1317"/><linearGradient id="e98b9998-267e-4f21-b7da-891487125f3d" x1="249.26" y1="122.53" x2="273.55" y2="122.53" gradientTransform="translate(-45 12.2)" gradientUnits="userSpaceOnUse"><stop offset="0" stop-color="#6c6c6c"/><stop offset="0.53" stop-color="#b8b8b8"/></linearGradient><linearGradient id="a98f205a-43a4-4077-b319-d74598029aed" x1="250.02" y1="122.53" x2="272.92" y2="122.53" gradientTransform="translate(-45 12.2)" gradientUnits="userSpaceOnUse"><stop offset="0.14" stop-color="#675b53"/><stop offset="0.81" stop-color="gray"/><stop offset="1" stop-color="#6b6058"/></linearGradient><linearGradient id="e351d906-6614-4320-acc8-00b477bdd837" x1="-45.76" y1="122.83" x2="-33.64" y2="122.83" gradientTransform="matrix(1, 0, 0, -1, 261.5, 257.71)" gradientUnits="userSpaceOnUse"><stop offset="0.15" stop-color="#fff"/><stop offset="0.83" stop-color="gray"/><stop offset="1" stop-color="gray"/></linearGradient><linearGradient id="abd5c946-e789-458f-a11d-3c8a15d56627" x1="265.4" y1="122.53" x2="270.06" y2="122.53" gradientTransform="translate(-45 12.4)" gradientUnits="userSpaceOnUse"><stop offset="0" stop-color="gray"/><stop offset="0.52" stop-color="#fff"/><stop offset="1" stop-color="gray"/></linearGradient><linearGradient id="bd3bd172-c03b-4f3c-a96d-31869f04c521" x1="261.53" y1="134.3" x2="261.53" y2="133.62" gradientTransform="translate(-45.3 12.2)" xlink:href="#b43fd03d-2e11-4354-8b45-3a59c06a1317"/><linearGradient id="bb0ee447-5329-4004-bc6b-138845f9da5c" x1="245.03" y1="110.89" x2="278.27" y2="110.89" gradientTransform="translate(-41.8 5.4) rotate(1.5)" gradientUnits="userSpaceOnUse"><stop offset="0" stop-color="#675b53"/><stop offset="0.48" stop-color="#aea7a3"/><stop offset="1" stop-color="#f0f0f0"/></linearGradient><linearGradient id="fc813695-c96c-40be-80a0-b2940cedb9c6" x1="252.19" y1="88.55" x2="271.12" y2="88.55" xlink:href="#bb0ee447-5329-4004-bc6b-138845f9da5c"/><linearGradient id="aa3cb962-e6ac-4d2f-bd11-1433ed34044a" x1="253.04" y1="102.02" x2="270.1" y2="102.02" gradientTransform="translate(-44.5 12.2)" gradientUnits="userSpaceOnUse"><stop offset="0" stop-color="#999"/><stop offset="0.22" stop-color="#aea7a3"/><stop offset="1" stop-color="#f0f0f0"/></linearGradient><linearGradient id="aa50c97b-fde6-4978-a4b3-e95b60b1c152" x1="255.25" y1="102.02" x2="256.95" y2="102.02" gradientTransform="translate(-44.5 12.1)" gradientUnits="userSpaceOnUse"><stop offset="0" stop-color="#bf272d"/><stop offset="0.48" stop-color="#ff7baa"/><stop offset="1" stop-color="#f0f0f0"/></linearGradient><linearGradient id="bb47ed54-8926-42ce-8068-bfd102b02baa" x1="258.75" y1="102.02" x2="260.45" y2="102.02" gradientTransform="translate(-44.5 12.2)" gradientUnits="userSpaceOnUse"><stop offset="0" stop-color="#006837"/><stop offset="0.48" stop-color="#39b34a"/><stop offset="1" stop-color="#f0f0f0"/></linearGradient><linearGradient id="b9c050e0-1f6b-471c-a69b-02a75f1c33eb" x1="262.45" y1="102.02" x2="264.15" y2="102.02" gradientTransform="translate(-44.5 12.3)" gradientUnits="userSpaceOnUse"><stop offset="0" stop-color="#2e3190"/><stop offset="0.48" stop-color="#29a9e0"/><stop offset="1" stop-color="#f0f0f0"/></linearGradient><linearGradient id="e69e5bed-0482-45d8-a81b-800590f7a4bd" x1="266.22" y1="102.02" x2="267.93" y2="102.02" gradientTransform="translate(-44.5 12.4)" gradientUnits="userSpaceOnUse"><stop offset="0" stop-color="#ef5a24"/><stop offset="0.48" stop-color="#f5911e"/><stop offset="1" stop-color="#f0f0f0"/></linearGradient><linearGradient id="b8d7a8e4-bdb5-4aeb-9c50-04dd0b8b30b5" x1="254.89" y1="107.99" x2="268.42" y2="107.99" gradientTransform="translate(-44.7 12.2)" gradientUnits="userSpaceOnUse"><stop offset="0" stop-color="#cacaca"/><stop offset="0.48" stop-color="#aea7a3"/><stop offset="1" stop-color="#f0f0f0"/></linearGradient><linearGradient id="f0e325e9-8832-4c68-8b49-2ec51d962488" x1="261.96" y1="107.99" x2="267.73" y2="107.99" gradientTransform="translate(-44.7 12.3)" xlink:href="#abd5c946-e789-458f-a11d-3c8a15d56627"/><linearGradient id="ecada886-ed67-4218-86ab-9b06764009a1" x1="261.65" y1="176.27" x2="261.65" y2="179.21" gradientTransform="translate(-46.5 12.2)" xlink:href="#b43fd03d-2e11-4354-8b45-3a59c06a1317"/><linearGradient id="bc1153e2-7619-4da5-9d31-484acf90a756" x1="245.03" y1="156.04" x2="278.27" y2="156.04" gradientTransform="translate(-41.8 5.4) rotate(1.5)" gradientUnits="userSpaceOnUse"><stop offset="0.21" stop-color="#0e0e0e"/><stop offset="0.83" stop-color="#666"/><stop offset="1" stop-color="#262823"/></linearGradient><linearGradient id="bc02a7e2-6edc-40ac-a3f2-2b5a7d3ae834" x1="261.65" y1="137.13" x2="261.65" y2="133.2" gradientTransform="translate(-41.8 5.4) rotate(1.5)" xlink:href="#b43fd03d-2e11-4354-8b45-3a59c06a1317"/><linearGradient id="ab59dbc8-b403-4087-8104-11b9d1b1b8d6" x1="269.91" y1="88.55" x2="271.12" y2="88.55" gradientTransform="translate(-41.8 5.4) rotate(1.5)" xlink:href="#b43fd03d-2e11-4354-8b45-3a59c06a1317"/><linearGradient id="e7f76411-c890-4732-814a-aa2b5024aef4" x1="261.65" y1="84.58" x2="261.65" y2="83.93" gradientTransform="translate(-41.8 5.4) rotate(1.5)" xlink:href="#b43fd03d-2e11-4354-8b45-3a59c06a1317"/><linearGradient id="ab18c5a4-32bd-49a9-bf2e-6acf9c27131d" x1="246.61" y1="156.04" x2="245.03" y2="156.04" gradientTransform="translate(-41.8 5.4) rotate(1.5)" xlink:href="#b43fd03d-2e11-4354-8b45-3a59c06a1317"/><linearGradient id="be9261a3-e489-4aa8-a96f-6224dca188b6" x1="261.65" y1="176.88" x2="261.65" y2="178.87" gradientTransform="translate(-41.8 5.4) rotate(1.5)" xlink:href="#b43fd03d-2e11-4354-8b45-3a59c06a1317"/></defs><g class="ae2435ed-b570-48cc-903d-eb810687f4c5"><g id="ee50f319-398c-4a20-895c-7c686295d1ed" data-name="Main"><polygon class="fae724a9-333e-4faf-8571-d5c01d5c935a" points="21.3 150.9 9.9 150.6 10.8 98.3 22.2 98.6 21.3 150.9"/><polygon class="b7407f6a-d1f5-42e4-b6a9-9ef91b4d335b" points="11.2 150.6 9.9 150.6 10.8 96.4 12.2 96.4 11.2 150.6"/><path class="e524dd86-4b88-474b-b54a-c5133e5aec0a" d="M225.5,194.6l-20.9-.5c-.5,0-.8-.2-.8-.3v-3.3c0-.2.3-.3.8-.3l20.9.6c.5,0,.8.1.8.3v3.3l-.2.2h-.6Z" transform="translate(-198.5 -95.9)"/><rect class="a778f27d-eb75-4a3c-a994-42e93cda0910" x="209.3" y="194.4" width="11.4" height="1.74" transform="translate(-193.4 -101.5) rotate(1.5)"/><path class="e75b6e45-75c3-44f4-b398-7e9954caf677" d="M225.4,199.9l-21-.6c-.4,0-.8-.1-.8-.3v-3.2c0-.2.4-.4.8-.3l21,.5c.4,0,.8.2.8.3v3.3c0,.1-.1.2-.3.2h-.5Z" transform="translate(-198.5 -95.9)"/><rect class="b836e2e0-b76f-4967-95ab-f590632c309d" x="209.2" y="199.6" width="11.4" height="1.74" transform="translate(-193.2 -101.5) rotate(1.5)"/><path class="a1e2dde8-4ece-47c1-94c1-0a0a2b89cf44" d="M225.3,205.2l-20.9-.5c-.4,0-.8-.2-.8-.3v-3.3c0-.2.4-.3.8-.3l20.9.6c.5,0,.8.1.8.3V205l-.3.2h-.6Z" transform="translate(-198.5 -95.9)"/><rect class="fb8052ba-a363-460d-aa2f-3905a9b6a06d" x="209" y="205" width="11.4" height="1.74" transform="translate(-193.1 -101.5) rotate(1.5)"/><path class="e073fc8c-8414-47ed-8b2e-9ba42c02d562" d="M225.2,210.9l-20.9-.6c-.5,0-.8-.1-.8-.3v-3.3a1.3,1.3,0,0,1,.9-.3l20.9.6c.4,0,.8.1.8.3v3.3l-.2.2h-.6Z" transform="translate(-198.5 -95.9)"/><rect class="ad74d4bf-edd3-40ee-b1af-663b0a5654b1" x="208.9" y="210.6" width="11.4" height="1.74" transform="matrix(1, 0.03, -0.03, 1, -192.95, -101.45)"/><path class="b50b93c5-e287-4e1a-958e-19274e88a4e0" d="M225,216.4l-20.9-.5c-.4,0-.8-.2-.8-.3v-3.3c0-.2.4-.3.8-.3l20.9.6c.5,0,.9.1.8.3v3.2q0,.2-.3.3H225Z" transform="translate(-198.5 -95.9)"/><rect class="ec3dee09-b75d-48e2-9535-5dd7f6b1c75a" x="208.7" y="216.2" width="11.4" height="1.74" transform="translate(-192.8 -101.4) rotate(1.5)"/><path class="ad7f8791-32a5-4e5a-b3fd-8ec91e938671" d="M204.7,190.2c-.5,0-.8.1-.8.3v3.3c0,.1.3.3.8.3h.6v-3.9Z" transform="translate(-198.5 -95.9)"/><path class="e79e795f-d0e2-4d5c-a87f-d5e22566a9ec" d="M204.6,195.5c-.5-.1-.9.1-.9.3V199c-.1.2.3.3.8.3h.6v-3.9Z" transform="translate(-198.5 -95.9)"/><path class="b2d39191-761f-4f1c-867f-f35be440141d" d="M204.5,200.8c-.4,0-.8.1-.8.3v3.3c0,.1.4.3.8.3h.5v-3.9Z" transform="translate(-198.5 -95.9)"/><path class="e3d91543-6383-499a-a28e-522a39b3f9a1" d="M204.4,206.4c-.5,0-.8.2-.8.3V210c0,.2.3.3.8.3h.5v-3.9Z" transform="translate(-198.5 -95.9)"/><path class="e188567b-501b-430c-82b7-5d1d5f61b843" d="M204.2,212c-.4,0-.8.1-.8.3v3.3c0,.1.4.3.8.3h.5V212Z" transform="translate(-198.5 -95.9)"/><rect class="aee15790-a1e1-43f6-a915-7afdfc665cbf" x="204.6" y="122.8" width="24.2" height="1.01" transform="translate(-195.3 -101.5) rotate(1.5)"/><rect class="f1739584-aa58-474c-a8cf-28975fa85137" x="204.2" y="122.8" width="24.3" height="23.87" transform="translate(-195 -101.5) rotate(1.5)"/><rect class="aaed6713-4bda-41b1-bd7b-05ba6406762e" x="205" y="122.8" width="22.9" height="23.87" transform="translate(-195 -101.5) rotate(1.5)"/><rect class="acf19009-553f-431f-8b3e-6ef7454a4ebd" x="215.7" y="122.9" width="12.1" height="23.87" transform="translate(241.5 179.6) rotate(-178.5)"/><rect class="fc0867a7-e63e-4c96-b897-8a281cfa3740" x="220.3" y="123" width="4.7" height="23.87" transform="translate(-194.9 -101.7) rotate(1.5)"/><rect class="a9bed321-5529-4436-96a2-9be669c5fdd5" x="204.2" y="145.7" width="24" height="0.97" transform="translate(-194.7 -101.5) rotate(1.5)"/><path class="b4cc6cc0-968e-44f9-9a0e-f883d269017f" d="M227,100.2l-.2,5.5-.2.2-18.5-.5-.2-.2V99.7c.1-.1,0-.2-.2-.2l-6.7-.2a.2.2,0,0,0-.2.2l-1.2,46.4.2.2,32.8.8c.1.1.2,0,.2-.2l1.2-46.3h-6.9A.2.2,0,0,0,227,100.2Z" transform="translate(-198.5 -95.9)"/><path class="f0aa5c18-62df-4812-b3f3-dafa1f130713" d="M226.3,105.6l-17.8-.4a.6.6,0,0,1-.6-.6l.2-8.1a.6.6,0,0,1,.6-.6l17.8.5.4.2a.1.1,0,0,1,.1.1.4.4,0,0,1,.1.3l-.3,8.1A.5.5,0,0,1,226.3,105.6Z" transform="translate(-198.5 -95.9)"/><rect class="f0c730dd-1f0a-4f65-8dcb-b580c9d5b239" x="208.5" y="105.7" width="17.1" height="17.14" transform="translate(-195.5 -101.5) rotate(1.5)"/><rect class="beac2c1a-4cbf-4235-9624-bc887d3546bf" x="210.7" y="105.5" width="1.7" height="17.14" transform="translate(-195.5 -101.4) rotate(1.5)"/><rect class="efd44753-0ecc-4da0-9e92-cc2a65ecdae3" x="214.2" y="105.6" width="1.7" height="17.14" transform="translate(-195.5 -101.5) rotate(1.5)"/><rect class="fad07e16-64aa-4509-aeea-7e59629d0ed3" x="217.9" y="105.7" width="1.7" height="17.14" transform="translate(-195.5 -101.6) rotate(1.5)"/><rect class="ebdfe6b7-cee0-4e7c-8afd-68df56bbd63f" x="221.7" y="105.8" width="1.7" height="17.14" transform="translate(-195.5 -101.7) rotate(1.5)"/><rect class="e31ef358-b7d6-417f-8b6b-b9231310f408" x="210.2" y="105.7" width="13.5" height="29.07" transform="translate(-195.3 -101.5) rotate(1.5)"/><rect class="bc45f1a7-f10b-44e4-8610-05a4a6b5e412" x="217.3" y="105.8" width="5.8" height="29.07" transform="translate(-195.3 -101.6) rotate(1.5)"/><rect class="a8f584f6-1275-47ae-aebd-0fca2432862a" x="202.8" y="188.5" width="24.8" height="2.94" transform="translate(-193.5 -101.5) rotate(1.5)"/><path class="e6dcffae-d1ff-4bdc-a35c-51f39ff72df1" d="M230.8,191.5l-31.4-.8h-.3l-.3-.2a1.7,1.7,0,0,1-.3-.7l1.2-43.8a.9.9,0,0,1,.3-.7h.6l31.4.8a.9.9,0,0,1,.9.9l-1.1,43.9A1,1,0,0,1,230.8,191.5Z" transform="translate(-198.5 -95.9)"/><path class="aa195c89-7061-4587-a075-48ed074242ac" d="M232.9,146.7a.9.9,0,0,0-.9-.9l-31.4-.8H200a.9.9,0,0,0-.3.7v3l33.2.9Z" transform="translate(-198.5 -95.9)"/><path class="fd004a27-d4d9-43c8-adc6-652e1cb6a1bf" d="M227,96.7a.1.1,0,0,0-.1-.1l-.4-.2h-.6l-.3,9.2h.7a.5.5,0,0,0,.5-.5l.3-8.1A.4.4,0,0,0,227,96.7Z" transform="translate(-198.5 -95.9)"/><path class="bde5be33-4a58-4b88-ad6b-0fd2d6d5f7db" d="M227.1,97a.4.4,0,0,0-.1-.3.1.1,0,0,0-.1-.1l-.4-.2-17.8-.5a.6.6,0,0,0-.6.6h0l19,.5Z" transform="translate(-198.5 -95.9)"/><path class="e434a474-ba58-486c-9f60-dc79c0dddc6b" d="M200.6,145H200a.9.9,0,0,0-.3.7l-1.2,43.8a1.7,1.7,0,0,0,.3.7l.3.2h1l1.2-45.7Z" transform="translate(-198.5 -95.9)"/><path class="a0f52657-cbc5-415b-ad95-91533b36b60e" d="M198.5,189.7a1.7,1.7,0,0,0,.3.7l.3.2h.3l31.4.8a1,1,0,0,0,1-.9v-1.1l-33.2-.9Z" transform="translate(-198.5 -95.9)"/></g></g></svg>