<svg id="a8e1e566-fbd7-42aa-a6e3-a13036f59d62" data-name="Object" xmlns="http://www.w3.org/2000/svg" xmlns:xlink="http://www.w3.org/1999/xlink" viewBox="0 0 302 775.7"><defs><style>.a0132a2a-6e9c-4557-bf4f-752acc23ed9b{fill:#999;}.a77ca2f4-82e0-42b8-9026-8f3459d6f162{fill:#4d4d4d;}.bb50a398-b60f-4ce2-a960-97eb03ac36dc{opacity:0.2;fill:url(#a9a504ec-5f26-430c-a4f3-9320c52c95a4);}.e745b0fe-0a84-466c-8632-1cc21d151b6b{fill:#333334;}.b20d8e5a-6776-4c16-acbe-4487f52687d8{fill:#b9b9bb;}.b948debe-1da2-4896-a76b-33e6213c91f3{fill:#ababab;}.eca2f541-2e15-49cb-a46e-26865a93588f{fill:#6f6f70;}.e7da02d5-5e62-447a-9944-75e22b6e969d{isolation:isolate;}.b8586504-b4e2-416e-8138-7b1b146d7da2{fill:#262626;}.fda7f941-e99c-4795-8ad7-f111f730fd0a{fill:#333;}.f33e1f3c-3c4f-491f-90ff-07bcbfc99376{fill:#dbdbdb;}.a572abf3-1ad7-4eb6-a970-5dfe83e3a5b8{fill:#9f9f9f;}.bd8a377c-6f76-4ea6-af2f-1b753dad3704{fill:#d8d8d8;}.a82358c7-8afa-4896-bc0a-5ffa23c8b296{fill:#383838;}.b69461c4-183b-4981-a982-0daf5e05bfd0{fill:#525253;}.ab252cc1-7ba9-4383-9049-af1f01f9e205{fill:#a6a6a7;}</style><linearGradient id="a9a504ec-5f26-430c-a4f3-9320c52c95a4" x1="354.31" y1="365.81" x2="586.98" y2="768.81" gradientUnits="userSpaceOnUse"><stop offset="0"/><stop offset="0" stop-color="#040404"/><stop offset="0.1" stop-color="#747474"/><stop offset="0.17" stop-color="#bbb"/><stop offset="0.2" stop-color="#d7d7d7"/><stop offset="0.25" stop-color="#909090"/><stop offset="0.33" stop-color="#292929"/><stop offset="0.37"/><stop offset="0.72" stop-color="#999"/><stop offset="0.76" stop-color="#959595"/><stop offset="0.81" stop-color="#898989"/><stop offset="0.86" stop-color="#767676"/><stop offset="0.9" stop-color="#5a5a5a"/><stop offset="0.95" stop-color="#373737"/><stop offset="0.99" stop-color="#0c0c0c"/><stop offset="1"/></linearGradient></defs><path class="a0132a2a-6e9c-4557-bf4f-752acc23ed9b" d="M635.5,355.9Z" transform="translate(-333.5 -173.2)"/><path class="a77ca2f4-82e0-42b8-9026-8f3459d6f162" d="M569.5,388.8,440.3,314.9a31.2,31.2,0,0,0-31,0l-71.6,41c1.8-1,4.3-.9,7.1.7l147.4,85.2c5.5,3.1,10,10.8,10,17.2l-1.3,430.5c0,24.5-8.1,42.3-21.2,51.7L550,899.8a71.6,71.6,0,0,0,35.2-61.6V415.9A31.2,31.2,0,0,0,569.5,388.8Z" transform="translate(-333.5 -173.2)"/><path class="bb50a398-b60f-4ce2-a960-97eb03ac36dc" d="M569.5,388.8,440.3,314.9a31.2,31.2,0,0,0-31,0l-71.6,41c1.8-1,4.3-.9,7.1.7l147.4,85.2c5.5,3.1,10,10.8,10,17.2l-1.3,430.5c0,24.5-8.1,42.3-21.2,51.7L550,899.8a71.6,71.6,0,0,0,35.2-61.6V415.9A31.2,31.2,0,0,0,569.5,388.8Z" transform="translate(-333.5 -173.2)"/><path class="e745b0fe-0a84-466c-8632-1cc21d151b6b" d="M500.9,889.5,502.2,459c0-6.4-4.5-14.1-10-17.2L344.8,356.6c-2.8-1.6-5.3-1.7-7.1-.7h0c-1.8,1.1-2.9,3.3-2.9,6.4l-1.3,443.3c-.1,25.6,11,56.1,29.6,80.9s36.6,40.9,53.9,50.9c24.9,14.3,47.3,14.8,62.7,3.8C492.8,931.8,500.9,914,500.9,889.5Z" transform="translate(-333.5 -173.2)"/><polygon class="b20d8e5a-6776-4c16-acbe-4487f52687d8" points="22.7 38.4 88.7 0 229.5 81.3 163.5 119.6 22.7 38.4"/><polygon class="b948debe-1da2-4896-a76b-33e6213c91f3" points="88.7 3.1 227 82.7 227 212.1 88.7 140.1 88.7 3.1"/><polygon class="eca2f541-2e15-49cb-a46e-26865a93588f" points="88.7 3.1 88.7 140.1 22.3 176.4 22.7 41.5 88.7 3.1"/><g class="e7da02d5-5e62-447a-9944-75e22b6e969d"><polygon class="a77ca2f4-82e0-42b8-9026-8f3459d6f162" points="199.4 88.3 198.9 236.7 77.1 164 77.1 17.7 199.4 88.3"/><polygon class="b8586504-b4e2-416e-8138-7b1b146d7da2" points="199.4 88.3 213.5 80.1 213.1 228.5 198.9 236.7 199.4 88.3"/><polygon class="fda7f941-e99c-4795-8ad7-f111f730fd0a" points="77.1 17.7 91.3 9.5 213.5 80.1 199.4 88.3 77.1 17.7"/></g><path class="f33e1f3c-3c4f-491f-90ff-07bcbfc99376" d="M356.2,211.5l-.4,138.1,140.8,81.3.4-138.1Zm54.4,116.2-17.2-9.9.2-42.3,17.1,10.2Zm41.9,24.1-17.2-10V299.5l17.1,10.2Z" transform="translate(-333.5 -173.2)"/><polygon class="a572abf3-1ad7-4eb6-a970-5dfe83e3a5b8" points="98.5 44.9 98.5 68.3 85 60.6 85.1 37.1 98.5 44.9"/><polygon class="a572abf3-1ad7-4eb6-a970-5dfe83e3a5b8" points="121.2 57.5 121.1 81 107.7 73.2 107.7 49.8 121.2 57.5"/><polygon class="a572abf3-1ad7-4eb6-a970-5dfe83e3a5b8" points="143.8 71.9 143.8 95.4 130.3 87.6 130.4 64.2 143.8 71.9"/><polygon class="a572abf3-1ad7-4eb6-a970-5dfe83e3a5b8" points="166.5 84.6 166.4 108 153 100.2 153 76.8 166.5 84.6"/><polygon class="a572abf3-1ad7-4eb6-a970-5dfe83e3a5b8" points="189.1 99 189.1 122.4 175.6 114.6 175.7 91.2 189.1 99"/><polygon class="eca2f541-2e15-49cb-a46e-26865a93588f" points="163.5 119.6 229.5 81.3 229.1 219.4 163.1 257.7 163.5 119.6"/><path class="bd8a377c-6f76-4ea6-af2f-1b753dad3704" d="M422.2,173.2l-66,38.3L497,292.8l66-38.4Zm74.4,116.3-135.1-78,60.7-35.2,135.6,78.3Z" transform="translate(-333.5 -173.2)"/><polygon class="a82358c7-8afa-4896-bc0a-5ffa23c8b296" points="60.1 102.3 57.4 100.7 57.2 146.2 59.9 144.7 60.1 102.3"/><polygon class="b69461c4-183b-4981-a982-0daf5e05bfd0" points="59.9 144.7 57.2 146.2 77.1 157.7 77.1 154.6 59.9 144.7"/><polygon class="ab252cc1-7ba9-4383-9049-af1f01f9e205" points="60.1 99.1 57.4 100.7 60.1 102.3 77.2 112.6 77.1 154.6 77.1 157.7 79.8 156.1 80 110.6 60.1 99.1"/><polygon class="a82358c7-8afa-4896-bc0a-5ffa23c8b296" points="101.9 126.3 99.2 124.7 99.1 170.2 101.8 168.7 101.9 126.3"/><polygon class="b69461c4-183b-4981-a982-0daf5e05bfd0" points="101.8 168.7 99.1 170.2 119 181.7 119 178.6 101.8 168.7"/><polygon class="ab252cc1-7ba9-4383-9049-af1f01f9e205" points="101.9 123.1 99.2 124.7 101.9 126.3 119.1 136.6 119 178.6 119 181.7 121.7 180.2 121.8 134.6 101.9 123.1"/></svg>